<?xml version="1.0" encoding="UTF-8"?><svg xmlns="http://www.w3.org/2000/svg" xmlns:xlink="http://www.w3.org/1999/xlink" width="271.3998107910156" height="154.71749877929688" viewBox="-0.5003000000142492 -0.499599999981001 271.3998107910156 154.71749877929688" version="1.1">
    <!-- Generator: Sketch 53.2 (72643) - https://sketchapp.com -->
    <title>juanbing</title>
    <desc>Created with Sketch.</desc>
    <defs>
        <polygon id="path-1" points="0 0.2082 110.8077 0.2082 110.8077 25.6002 0 25.6002" stroke-width="1"/>
        <polygon id="path-3" points="0 0.2091 110.8077 0.2091 110.8077 25.6031 0 25.6031" stroke-width="1"/>
        <polygon id="path-5" points="0.5915 0.9123 111.399 0.9123 111.399 26.3033 0.5915 26.3033" stroke-width="1"/>
    </defs>
    <g id="Page-1" stroke="none" fill-rule="evenodd">
        <g id="juanbing">
            <path d="M241.8682,149.4474 L7.7492,149.4474 C4.2492,149.4474 1.3782,146.6774 1.2482,143.1804 L1.2292,142.6264 C1.1852,141.4314 1.1402,140.2344 1.1402,139.0274 C1.1402,74.7494 56.6162,22.4554 124.8062,22.4554 C192.9972,22.4554 248.4762,74.7494 248.4762,139.0274 C248.4762,140.2344 248.4292,141.4314 248.3862,142.6264 L248.3662,143.1804 C248.2362,146.6774 245.3652,149.4474 241.8682,149.4474" id="Fill-1" fill="#FFBF00" stroke-width="1"/>
            <path d="M233.3472,149.4474 L16.2692,149.4474 C13.0252,149.4474 10.3632,146.8434 10.2422,143.5584 L10.2242,143.0364 C10.1822,141.9134 10.1422,140.7884 10.1422,139.6544 C10.1422,79.2394 61.5802,30.0914 124.8062,30.0914 C188.0352,30.0914 239.4732,79.2394 239.4732,139.6544 C239.4732,140.7884 239.4322,141.9134 239.3922,143.0364 L239.3752,143.5584 C239.2532,146.8434 236.5912,149.4474 233.3472,149.4474" id="Fill-3" fill="#FFD454" stroke-width="1"/>
            <path d="M91.772,95.3282 C91.772,100.3562 87.695,104.4332 82.667,104.4332 C77.638,104.4332 73.561,100.3562 73.561,95.3282 C73.561,90.3002 77.638,86.2242 82.667,86.2242 C87.695,86.2242 91.772,90.3002 91.772,95.3282" id="Fill-5" fill="#FFBF00" stroke-width="1"/>
            <path d="M156.0723,67.1964 C156.0723,70.3754 153.4943,72.9524 150.3153,72.9524 C147.1383,72.9524 144.5583,70.3754 144.5583,67.1964 C144.5583,64.0174 147.1383,61.4404 150.3153,61.4404 C153.4943,61.4404 156.0723,64.0174 156.0723,67.1964" id="Fill-7" fill="#FFBF00" stroke-width="1"/>
            <path d="M167.459,101.0841 C167.459,104.2641 164.882,106.8411 161.704,106.8411 C158.523,106.8411 155.947,104.2641 155.947,101.0841 C155.947,97.9051 158.523,95.3281 161.704,95.3281 C164.882,95.3281 167.459,97.9051 167.459,101.0841" id="Fill-9" fill="#FFBF00" stroke-width="1"/>
            <path d="M121.9127,126.6524 C121.9127,129.8324 119.3357,132.4094 116.1567,132.4094 C112.9767,132.4094 110.4007,129.8324 110.4007,126.6524 C110.4007,123.4744 112.9767,120.8974 116.1567,120.8974 C119.3357,120.8974 121.9127,123.4744 121.9127,126.6524" id="Fill-11" fill="#FFBF00" stroke-width="1"/>
            <path d="M206.3057,117.9464 C206.3057,119.6444 204.9297,121.0224 203.2297,121.0224 C201.5317,121.0224 200.1547,119.6444 200.1547,117.9464 C200.1547,116.2474 201.5317,114.8694 203.2297,114.8694 C204.9297,114.8694 206.3057,116.2474 206.3057,117.9464" id="Fill-13" fill="#FFBF00" stroke-width="1"/>
            <path d="M101.8189,59.003 C101.8189,60.702 100.4409,62.08 98.7409,62.08 C97.0419,62.08 95.6649,60.702 95.6649,59.003 C95.6649,57.304 97.0419,55.926 98.7409,55.926 C100.4409,55.926 101.8189,57.304 101.8189,59.003" id="Fill-15" fill="#FFBF00" stroke-width="1"/>
            <path d="M41.8087,132.0108 C41.8087,133.7098 40.4317,135.0878 38.7307,135.0878 C37.0327,135.0878 35.6547,133.7098 35.6547,132.0108 C35.6547,130.3128 37.0327,128.9348 38.7307,128.9348 C40.4317,128.9348 41.8087,130.3128 41.8087,132.0108" id="Fill-17" fill="#FFBF00" stroke-width="1"/>
            <path d="M184.8726,79.0968 C184.8726,80.7968 183.4956,82.1748 181.7956,82.1748 C180.0976,82.1748 178.7206,80.7968 178.7206,79.0968 C178.7206,77.3988 180.0976,76.0208 181.7956,76.0208 C183.4956,76.0208 184.8726,77.3988 184.8726,79.0968" id="Fill-19" fill="#FFBF00" stroke-width="1"/>
            <path d="M123.252,94.503 C123.252,96.202 121.875,97.58 120.175,97.58 C118.477,97.58 117.098,96.202 117.098,94.503 C117.098,92.803 118.477,91.426 120.175,91.426 C121.875,91.426 123.252,92.803 123.252,94.503" id="Fill-21" fill="#FFBF00" stroke-width="1"/>
            <path d="M165.4493,137.3692 C165.4493,139.0692 164.0733,140.4462 162.3733,140.4462 C160.6733,140.4462 159.2963,139.0692 159.2963,137.3692 C159.2963,135.6702 160.6733,134.2932 162.3733,134.2932 C164.0733,134.2932 165.4493,135.6702 165.4493,137.3692" id="Fill-23" fill="#FFBF00" stroke-width="1"/>
            <path d="M47.565,91.8233 C47.565,95.0033 44.988,97.5803 41.809,97.5803 C38.63,97.5803 36.052,95.0033 36.052,91.8233 C36.052,88.6443 38.63,86.0673 41.809,86.0673 C44.988,86.0673 47.565,88.6443 47.565,91.8233" id="Fill-25" fill="#FFBF00" stroke-width="1"/>
            <path d="M206.3653,51.3644 C206.3653,22.9974 179.2353,0.0004 145.7683,0.0004 C112.3023,0.0004 85.1703,22.9974 85.1703,51.3644 C85.1703,79.7314 112.3023,102.7274 145.7683,102.7274 C179.2353,102.7274 206.3653,79.7314 206.3653,51.3644" id="Fill-27" fill="#9C4929" stroke-width="1"/>
            <path d="M127.6441,20.0196 C138.8001,22.2656 147.8991,30.5476 146.8851,32.7906 C146.1361,34.4446 139.8021,32.9886 127.8441,30.2416 C115.5271,27.4116 107.1701,25.4916 107.2571,23.3406 C107.3541,20.9606 117.7971,18.0376 127.6441,20.0196" id="Fill-29" fill="#E66B3D" stroke-width="1"/>
            <path d="M165.9214,31.6632 C177.0774,33.9092 186.1764,42.1922 185.1624,44.4342 C184.4144,46.0882 178.0804,44.6332 166.1214,41.8852 C153.8044,39.0562 145.4474,37.1362 145.5354,34.9842 C145.6314,32.6042 156.0744,29.6822 165.9214,31.6632" id="Fill-31" fill="#E66B3D" stroke-width="1"/>
            <path d="M162.5972,25.1671 C158.3862,33.8441 148.0872,39.6241 145.8672,38.3441 C144.2292,37.3991 146.8122,32.5091 151.6872,23.2771 C156.7102,13.7681 160.1182,7.3151 162.3922,7.8191 C164.9082,8.3771 166.3142,17.5091 162.5972,25.1671" id="Fill-33" fill="#E66B3D" stroke-width="1"/>
            <path d="M146.6465,52.794 C142.4355,61.471 132.1355,67.251 129.9165,65.971 C128.2785,65.026 130.8605,60.136 135.7365,50.903 C140.7595,41.395 144.1665,34.942 146.4415,35.446 C148.9575,36.004 150.3635,45.136 146.6465,52.794" id="Fill-35" fill="#E66B3D" stroke-width="1"/>
            <g id="分组">
                <mask id="mask-2" fill="white">
                    <use xlink:href="#path-1"/>
                </mask>
                <g id="Clip-38"/>
                <path d="M 110.8077 116.6222 C 110.8077 123.6352 105.1227 129.3182 98.1117 129.3182 L 12.6967 129.3182 C 5.6847 129.3182 -0.0003 123.6352 -0.0003 116.6222 C -0.0003 109.6102 5.6847 103.9262 12.6967 103.9262 L 98.1117 103.9262 C 105.1227 103.9262 110.8077 109.6102 110.8077 116.6222 " id="Fill-37" fill="#80E602" mask="url(#mask-2)" stroke-width="1"/>
            </g>
            <g id="分组">
                <mask id="mask-4" fill="white">
                    <use xlink:href="#path-3"/>
                </mask>
                <g id="Clip-40"/>
                <path d="M 110.8077 138.6251 C 110.8077 145.6361 105.1227 151.3211 98.1117 151.3211 L 12.6967 151.3211 C 5.6847 151.3211 -0.0003 145.6361 -0.0003 138.6251 C -0.0003 131.6111 5.6847 125.9271 12.6967 125.9271 L 98.1117 125.9271 C 105.1227 125.9271 110.8077 131.6111 110.8077 138.6251 " id="Fill-39" fill="#72D335" mask="url(#mask-4)" stroke-width="1"/>
            </g>
            <g id="分组">
                <mask id="mask-6" fill="white">
                    <use xlink:href="#path-5"/>
                </mask>
                <g id="Clip-42"/>
                <path d="M 270.3995 135.3253 C 270.3995 142.3383 264.7145 148.0213 257.7035 148.0213 L 172.2895 148.0213 C 165.2755 148.0213 159.5915 142.3383 159.5915 135.3253 C 159.5915 128.3133 165.2755 122.6303 172.2895 122.6303 L 257.7035 122.6303 C 264.7145 122.6303 270.3995 128.3133 270.3995 135.3253 " id="Fill-41" fill="#72BA39" mask="url(#mask-6)" stroke-width="1"/>
            </g>
            <path d="M97.5484,128.5694 L14.6324,93.7714 C7.8064,90.9074 4.5654,82.9774 7.4294,76.1504 L14.5324,59.2254 C17.3974,52.3994 25.3274,49.1574 32.1534,52.0224 L115.0694,86.8194 C121.8964,89.6844 125.1374,97.6144 122.2724,104.4414 L115.1704,121.3664 C112.3044,128.1924 104.3754,131.4334 97.5484,128.5694" id="Fill-43" fill="#FF988D" stroke-width="1"/>
            <path d="M261.8922,120.8478 C261.8922,127.8608 256.2072,133.5448 249.1952,133.5448 L163.7822,133.5448 C156.7682,133.5448 151.0842,127.8608 151.0842,120.8478 C151.0842,113.8358 156.7682,108.1518 163.7822,108.1518 L249.1952,108.1518 C256.2072,108.1518 261.8922,113.8358 261.8922,120.8478" id="Fill-45" fill="#FF6565" stroke-width="1"/>
            <path d="M225.3839,63.7628 C225.3839,41.4508 207.2969,23.3648 184.9849,23.3648 C162.6759,23.3648 144.5869,41.4508 144.5869,63.7628 C144.5869,86.0748 162.6759,104.1608 184.9849,104.1608 C207.2969,104.1608 225.3839,86.0748 225.3839,63.7628" id="Fill-47" fill="#E7403D" stroke-width="1"/>
            <path d="M234.6846,80.547 C238.8096,77.478 241.5986,73.168 242.9296,68.463 C238.5016,68.443 234.1496,66.24 231.7656,60.987 C230.6886,58.614 230.3476,56.352 230.5586,54.275 C227.2046,53.476 224.1466,51.25 222.2876,47.154 C220.5346,43.29 220.7176,39.714 222.0876,36.764 C220.3116,35.148 218.8586,33.19 217.8516,30.95 C212.2536,32.538 205.8276,30.861 202.7266,24.029 C201.4616,21.243 201.2166,18.611 201.6846,16.25 C199.9466,15.82 198.1606,15.592 196.3646,15.576 C191.0016,22.625 178.3286,24.329 173.5506,13.802 C173.3966,13.464 173.2776,13.132 173.1536,12.798 C169.4026,12.168 165.4986,12.487 161.8026,13.787 C165.5176,25.871 150.5216,34.441 141.5486,28.304 C140.9806,28.575 140.4046,28.832 139.8196,29.072 C139.5736,29.173 139.3306,29.29 139.0876,29.401 C139.3296,29.82 139.5596,30.263 139.7716,30.731 C144.6166,41.407 134.6796,49.886 125.7526,49.04 C125.4996,53.557 126.5336,58.165 129.0256,62.213 C135.8926,73.368 150.5836,76.461 161.3316,69.208 C165.4486,66.43 168.3536,62.541 169.9596,58.215 C173.6206,58.129 177.2896,57.165 180.6546,55.258 C185.4416,59.677 191.8316,61.786 198.1556,61.236 C197.9516,65.96 199.1786,70.785 202.0256,75.005 C209.2976,85.781 224.1376,88.396 234.6846,80.547" id="Fill-49" fill="#A0EE2C" stroke-width="1"/>
            <path d="M252.5118,87.7032 L167.2978,116.4132 C160.2818,118.7772 152.6068,114.9712 150.2428,107.9552 L144.3828,90.5602 C142.0188,83.5452 145.8248,75.8702 152.8408,73.5072 L238.0558,44.7962 C245.0718,42.4322 252.7458,46.2382 255.1098,53.2542 L260.9698,70.6482 C263.3338,77.6642 259.5278,85.3392 252.5118,87.7032" id="Fill-51" fill="#FF988D" stroke-width="1"/>
            <path d="M108.2476,57.4474 C107.1566,52.4224 104.3856,48.1014 100.6506,44.9444 C98.8036,48.9694 94.9986,52.0214 89.2296,52.0214 C86.6236,52.0214 84.4226,51.3974 82.6176,50.3464 C80.5046,53.0714 77.2136,54.9354 72.7166,54.9354 C68.4736,54.9354 65.2926,53.2914 63.1716,50.8244 C60.9666,51.7734 58.5826,52.2874 56.1276,52.2804 C55.2606,58.0334 51.0776,63.1924 43.5746,63.1924 C40.5156,63.1924 38.0176,62.3284 36.0606,60.9264 C34.9516,62.3324 34.0056,63.8634 33.2476,65.4924 C37.4516,73.2894 33.7666,85.5344 22.2046,85.5344 C21.8336,85.5344 21.4816,85.5064 21.1266,85.4814 C19.0036,88.6364 17.6806,92.3234 17.3366,96.2264 C29.8756,97.8374 31.4826,115.0344 22.1856,120.6694 C22.1986,121.2984 22.1946,121.9284 22.1706,122.5604 C22.1616,122.8264 22.1676,123.0954 22.1666,123.3634 C22.6506,123.3164 23.1476,123.2904 23.6616,123.2904 C35.3856,123.2904 39.0006,135.8434 34.5416,143.6224 C38.5496,145.7184 43.1736,146.6814 47.8896,146.0854 C60.8856,144.4414 69.7726,132.3424 67.6096,119.5574 C66.7806,114.6604 64.4396,110.4084 61.1646,107.1574 C62.5996,103.7894 63.2376,100.0494 62.8916,96.1964 C68.8936,93.6634 73.4546,88.7174 75.5676,82.7304 C79.7846,84.8684 84.6856,85.7454 89.7056,84.8964 C102.5226,82.7274 111.0366,70.2954 108.2476,57.4474" id="Fill-53" fill="#A0EE2C" stroke-width="1"/>
            <path d="M257.1465,96.5226 C255.8195,93.9086 255.2325,90.8956 255.4125,87.9256 C254.8445,87.4966 254.6945,87.0106 255.2155,86.4296 C255.3845,86.2406 255.5275,86.0316 255.6685,85.8226 C255.8535,84.8216 256.1285,83.8436 256.4905,82.9006 C253.7605,82.8816 251.4375,82.2506 249.4795,81.2116 C241.2905,78.9686 237.9815,70.4056 239.5385,63.0246 C231.2565,61.4916 227.4355,53.8546 228.0555,46.6526 C227.5935,46.7646 227.1045,46.8406 226.6145,46.9146 C224.2935,48.7576 221.2475,49.9106 217.4565,49.9106 C212.6925,49.9106 209.0995,48.1026 206.6585,45.3786 C202.9685,45.6796 200.3385,45.9196 200.3385,45.9196 L222.6485,96.3476 L252.2825,122.4826 C252.2825,122.4826 255.0975,117.7986 258.1165,113.3216 C254.8205,108.5166 254.5055,101.7266 257.1465,96.5226" id="Fill-55" fill="#72BA39" stroke-width="1"/>
            <path d="M113.1685,88.8165 C119.2535,68.0455 107.3495,46.2775 86.5795,40.1925 C65.8095,34.1075 44.0395,46.0115 37.9545,66.7825 C31.8705,87.5515 43.7755,109.3215 64.5445,115.4065 C85.3155,121.4915 107.0845,109.5865 113.1685,88.8165" id="Fill-57" fill="#FF4743" stroke-width="1"/>
            <path d="M113.9649,87.7687 C119.3829,69.2747 108.7839,49.8907 90.2899,44.4727 C71.7969,39.0557 52.4119,49.6557 46.9939,68.1497 C41.5759,86.6427 52.1769,106.0267 70.6699,111.4447 C89.1639,116.8627 108.5479,106.2617 113.9649,87.7687" id="Fill-59" fill="#FF706E" stroke-width="1"/>
            <path d="M111.0987,87.4649 C115.7677,71.5259 106.6337,54.8199 90.6937,50.1509 C74.7557,45.4819 58.0497,54.6159 53.3797,70.5559 C48.7107,86.4939 57.8467,103.1999 73.7857,107.8689 C89.7237,112.5389 106.4297,103.4029 111.0987,87.4649" id="Fill-61" fill="#FF4743" stroke-width="1"/>
            <path d="M81.6612,70.4142 L74.1832,57.0252 C73.8832,56.4882 74.0772,55.8032 74.6152,55.5022 L75.9482,54.7582 C76.4862,54.4572 77.1712,54.6512 77.4722,55.1892 L84.9492,68.5782 C85.2492,69.1162 85.0552,69.8022 84.5172,70.1022 L83.1842,70.8462 C82.6472,71.1462 81.9612,70.9522 81.6612,70.4142" id="Fill-63" fill="#FF706E" stroke-width="1"/>
            <path d="M77.3287,75.8517 L63.8207,68.5917 C63.2777,68.2997 63.0727,67.6187 63.3647,67.0757 L64.0867,65.7307 C64.3787,65.1887 65.0607,64.9827 65.6037,65.2747 L79.1117,72.5347 C79.6547,72.8267 79.8597,73.5087 79.5677,74.0507 L78.8457,75.3957 C78.5537,75.9387 77.8707,76.1437 77.3287,75.8517" id="Fill-65" fill="#FF706E" stroke-width="1"/>
            <path d="M71.8941,85.255 L57.1441,81.056 C56.5521,80.887 56.2061,80.264 56.3741,79.672 L56.7921,78.203 C56.9611,77.611 57.5831,77.265 58.1761,77.434 L72.9251,81.633 C73.5181,81.802 73.8641,82.425 73.6961,83.017 L73.2771,84.485 C73.1091,85.077 72.4861,85.424 71.8941,85.255" id="Fill-67" fill="#FF706E" stroke-width="1"/>
            <path d="M253.5596,153.7179 L53.2886,153.7179 C50.2946,153.7179 47.8386,151.1909 47.7276,148.0009 L47.7106,147.4939 C47.6726,146.4049 47.6346,145.3129 47.6346,144.2109 C47.6346,85.5679 95.0906,37.8579 153.4226,37.8579 C211.7546,37.8579 259.2116,85.5679 259.2116,144.2109 C259.2116,145.3129 259.1716,146.4049 259.1356,147.4939 L259.1186,148.0009 C259.0076,151.1909 256.5516,153.7179 253.5596,153.7179" id="Fill-69" fill="#FFAE00" stroke-width="1"/>
            <path d="M246.2706,153.7179 L60.5766,153.7179 C57.8006,153.7179 55.5246,151.3429 55.4206,148.3449 L55.4056,147.8689 C55.3706,146.8439 55.3356,145.8179 55.3356,144.7829 C55.3356,89.6639 99.3366,44.8239 153.4226,44.8239 C207.5096,44.8239 251.5106,89.6639 251.5106,144.7829 C251.5106,145.8179 251.4756,146.8439 251.4416,147.8689 L251.4266,148.3449 C251.3236,151.3429 249.0446,153.7179 246.2706,153.7179" id="Fill-71" fill="#FFD042" stroke-width="1"/>
            <path d="M125.1637,104.3429 C125.1637,108.9299 121.6757,112.6499 117.3747,112.6499 C113.0727,112.6499 109.5847,108.9299 109.5847,104.3429 C109.5847,99.7549 113.0727,96.0359 117.3747,96.0359 C121.6757,96.0359 125.1637,99.7549 125.1637,104.3429" id="Fill-73" fill="#FFBF00" stroke-width="1"/>
            <path d="M180.1675,78.6769 C180.1675,81.5769 177.9625,83.9289 175.2435,83.9289 C172.5255,83.9289 170.3185,81.5769 170.3185,78.6769 C170.3185,75.7769 172.5255,73.4249 175.2435,73.4249 C177.9625,73.4249 180.1675,75.7769 180.1675,78.6769" id="Fill-75" fill="#FFBF00" stroke-width="1"/>
            <path d="M189.9083,109.5939 C189.9083,112.4949 187.7033,114.8469 184.9853,114.8469 C182.2643,114.8469 180.0603,112.4949 180.0603,109.5939 C180.0603,106.6939 182.2643,104.3429 184.9853,104.3429 C187.7033,104.3429 189.9083,106.6939 189.9083,109.5939" id="Fill-77" fill="#FFBF00" stroke-width="1"/>
            <path d="M150.9468,132.921 C150.9468,135.822 148.7418,138.173 146.0228,138.173 C143.3028,138.173 141.0988,135.822 141.0988,132.921 C141.0988,130.022 143.3028,127.67 146.0228,127.67 C148.7418,127.67 150.9468,130.022 150.9468,132.921" id="Fill-79" fill="#FFBF00" stroke-width="1"/>
            <path d="M223.1387,124.9776 C223.1387,126.5276 221.9617,127.7856 220.5077,127.7856 C219.0547,127.7856 217.8767,126.5276 217.8767,124.9776 C217.8767,123.4276 219.0547,122.1696 220.5077,122.1696 C221.9617,122.1696 223.1387,123.4276 223.1387,124.9776" id="Fill-81" fill="#FFBF00" stroke-width="1"/>
            <path d="M133.7579,71.2023 C133.7579,72.7523 132.5789,74.0093 131.1249,74.0093 C129.6719,74.0093 128.4929,72.7523 128.4929,71.2023 C128.4929,69.6513 129.6719,68.3943 131.1249,68.3943 C132.5789,68.3943 133.7579,69.6513 133.7579,71.2023" id="Fill-83" fill="#FFBF00" stroke-width="1"/>
            <path d="M82.4234,137.8097 C82.4234,139.3607 81.2454,140.6177 79.7914,140.6177 C78.3384,140.6177 77.1594,139.3607 77.1594,137.8097 C77.1594,136.2597 78.3384,135.0027 79.7914,135.0027 C81.2454,135.0027 82.4234,136.2597 82.4234,137.8097" id="Fill-85" fill="#FFBF00" stroke-width="1"/>
            <path d="M204.8043,89.5343 C204.8043,91.0853 203.6263,92.3423 202.1723,92.3423 C200.7193,92.3423 199.5413,91.0853 199.5413,89.5343 C199.5413,87.9843 200.7193,86.7273 202.1723,86.7273 C203.6263,86.7273 204.8043,87.9843 204.8043,89.5343" id="Fill-87" fill="#FFBF00" stroke-width="1"/>
            <path d="M152.0923,103.5899 C152.0923,105.1399 150.9143,106.3969 149.4603,106.3969 C148.0073,106.3969 146.8283,105.1399 146.8283,103.5899 C146.8283,102.0389 148.0073,100.7819 149.4603,100.7819 C150.9143,100.7819 152.0923,102.0389 152.0923,103.5899" id="Fill-89" fill="#FFBF00" stroke-width="1"/>
            <path d="M188.189,142.6983 C188.189,144.2493 187.012,145.5063 185.558,145.5063 C184.103,145.5063 182.925,144.2493 182.925,142.6983 C182.925,141.1483 184.103,139.8913 185.558,139.8913 C187.012,139.8913 188.189,141.1483 188.189,142.6983" id="Fill-91" fill="#FFBF00" stroke-width="1"/>
            <path d="M87.3477,101.1446 C87.3477,104.0456 85.1427,106.3966 82.4237,106.3966 C79.7037,106.3966 77.4997,104.0456 77.4997,101.1446 C77.4997,98.2446 79.7037,95.8936 82.4237,95.8936 C85.1427,95.8936 87.3477,98.2446 87.3477,101.1446" id="Fill-93" fill="#FFBF00" stroke-width="1"/>
        </g>
    </g>
</svg>