<?xml version="1.0" encoding="UTF-8"?><svg xmlns="http://www.w3.org/2000/svg" xmlns:xlink="http://www.w3.org/1999/xlink" width="33.939998626708984" height="33.94000244140625" viewBox="0.3199999928474426 0.3500000238418579 33.939998626708984 33.94000244140625" version="1.1">
    <!-- Generator: Sketch 51.1 (57501) - http://www.bohemiancoding.com/sketch -->
    <title>排球</title>
    <desc>Created with Sketch.</desc>
    <defs/>
    <g id="Page-1" stroke="none" fill-rule="evenodd">
        <g id="排球" fill-rule="nonzero">
            <path d="M17.29,33.79 C26.3861298,33.79 33.76,26.4161298 33.76,17.32 C33.76,8.22387017 26.3861298,0.85 17.29,0.85 C8.19387017,0.85 0.82,8.22387017 0.82,17.32 C0.825516437,26.4138439 8.19615613,33.7844836 17.29,33.79" id="Shape" stroke="#3B7F9A" stroke-width="0.19" fill="#FFFFFF"/>
            <path d="M33.75,17.3 L33.75,17.2 C33.2195051,15.5790222 32.5294572,14.0146904 31.69,12.53 C30.8481114,11.1420684 29.923091,9.80629889 28.92,8.53 L28.87,8.46 C28.3,7.7 27.67,6.95 26.96,6.17 L26.75,5.97 L26.34,5.6 C26.4012125,5.55418864 26.4685311,5.51716336 26.54,5.49 L26.63,5.49 C27.1224038,5.25802113 27.643729,5.09321509 28.18,5 C27.7933333,4.66 27.3933333,4.32666667 26.98,4 C26.73,4.08 26.48,4.17 26.21,4.28 C24.7698564,4.92303123 23.4663333,5.83617636 22.37,6.97 C20.680451,8.68709233 19.300164,10.6830957 18.29,12.87 C17.95,13.6 17.66,14.37 17.37,15.1 L17.22,15.48 C17.22,15.59 17.14,15.72 17.11,15.86 C17.0731593,16.07158 16.9913143,16.2727821 16.87,16.45 C16.5454429,16.6312715 16.1816344,16.730804 15.81,16.74 L15.32,16.82 C14.32,17.04 13.38,17.17 12.32,17.31 L12.09,17.31 L11.6,17.38 C11.1972102,17.4541523 10.789371,17.4976106 10.38,17.51 C10.3172488,17.4978561 10.2527512,17.4978561 10.19,17.51 C10.2259221,17.2396817 10.303509,16.9765608 10.42,16.73 C10.49,16.56 10.55,16.4 10.59,16.25 C11.1,14.57 11.81,12.87 12.42,11.37 C13.7983888,7.81932755 16.1139036,4.70893455 19.12,2.37 C19.6986559,1.93597014 20.3105414,1.54810833 20.95,1.21 C20.3497025,1.07223852 19.7420542,0.968737982 19.13,0.9 L18.71,1.19 C16.1475635,3.04932568 14.0496171,5.47582479 12.58,8.28 C11.777829,9.82989706 11.0763753,11.4298794 10.48,13.07 L10.19,13.79 C10,14.27 9.8,14.79 9.63,15.27 C9.46,15.75 9.26,16.43 9.06,17 L9.06,17.12 C9.06,17.19 8.99,17.34 8.95,17.37 C8.72379434,17.3801579 8.4974546,17.3531322 8.28,17.29 L7.97,17.23 C6.98177113,17.066845 6.01769319,16.7813167 5.1,16.38 L4.84,16.28 C4.4,16.12 4.17,15.99 4.15,15.91 C4.16043123,15.6957199 4.21132704,15.4853506 4.3,15.29 C4.3,15.16 4.39,15.02 4.42,14.91 C4.72963772,13.73768 5.13775544,12.5936123 5.64,11.49 C7.15298697,7.66893898 9.55220881,4.26204397 12.64,1.55 L12.81,1.4 C11.7989413,1.6848795 10.8177283,2.06664836 9.88,2.54 C8.7557576,3.72510481 7.75091194,5.01800623 6.88,6.4 C6.17450774,7.55715915 5.54646537,8.75979347 5,10 L4.61,10.85 C4.05988895,11.99871 3.62121404,13.1975316 3.3,14.43 C3.3,14.49 3.3,14.57 3.3,14.66 C3.26972601,14.9075279 3.2058025,15.1497643 3.11,15.38 C2.99572508,15.3223438 2.88837008,15.2518921 2.79,15.17 L2.62,15.04 C2.0526061,14.7239565 1.58760343,14.2520135 1.28,13.68 C1.16666667,14.2 1.07666667,14.73 1.01,15.27 L1.12,15.37 C1.98192111,16.1096022 2.94495845,16.7224442 3.98,17.19 C5.81824116,18.0438117 7.79783406,18.5522688 9.82,18.69 C10.7334296,18.7063296 11.646622,18.6461191 12.55,18.51 C13.35,18.41 14.14,18.24 14.91,18.09 L16.21,17.83 L16.59,17.73 C16.8333179,17.6292003 17.0990062,17.5946953 17.36,17.63 C17.7076044,17.8635155 18.0064845,18.1623956 18.24,18.51 L18.4,18.71 C19.1726235,19.6658865 19.8618171,20.6862945 20.46,21.76 L20.53,21.89 C20.7,22.2 20.88,22.5 21.04,22.81 C21.09,22.92 21.09,22.96 21.04,22.96 C20.7243766,23.1199439 20.3877046,23.2344124 20.04,23.3 L19.67,23.39 C18.5668559,23.6955671 17.4442888,23.9260943 16.31,24.08 C15.0134882,24.2493852 13.7075244,24.3362268 12.4,24.34 C8.75461152,24.4292849 5.14801255,23.5749998 1.93,21.86 L1.82,21.8 L1.43,21.57 C1.58358952,22.1327485 1.76718539,22.6868742 1.98,23.23 C2.98705872,23.7245949 4.030023,24.1424491 5.1,24.48 C7.49811335,25.2099546 9.99333872,25.5707507 12.5,25.55 C13.7776879,25.5480766 15.0538348,25.4612184 16.32,25.29 C17.6143677,25.1260938 18.8946234,24.8653628 20.15,24.51 L21.15,24.19 L21.23,24.19 L21.36,24.19 C21.4211006,24.1657789 21.4848917,24.1489918 21.55,24.14 C21.68,24.14 21.81,24.58 21.88,24.77 L21.97,25.01 C22.4169386,26.0281523 22.7781904,27.0818035 23.05,28.16 L23.05,28.34 C23.19,28.95 23.17,29.13 23.13,29.17 C22.8354507,29.3140758 22.5167204,29.4022352 22.19,29.43 L21.8,29.5 C20.6597389,29.7812432 19.5045881,29.9982513 18.34,30.15 C17.1083081,30.2902015 15.8696457,30.3603144 14.63,30.36 C11.5228741,30.3910664 8.43385739,29.883561 5.5,28.86 C6.16824255,29.5415238 6.89429233,30.1638522 7.67,30.72 C8.18,30.84 8.72,30.96 9.3,31.06 C12.4296809,31.6172984 15.6252962,31.7015709 18.78,31.31 C19.8778066,31.1624316 20.9662568,30.9520869 22.04,30.68 L22.43,30.59 L22.96,30.46 L23.05,30.46 L23.21,30.46 C23.232898,30.5721768 23.232898,30.6878232 23.21,30.8 L23.21,30.89 C23.2073568,31.378166 23.1332371,31.8633136 22.99,32.33 C22.92,32.54 22.88,32.67 22.77,32.74 C22.3497366,32.9773131 21.9034386,33.1652281 21.44,33.3 L21.11,33.41 C22.1883631,33.1473939 23.237125,32.7754687 24.24,32.3 C24.3128715,31.9907469 24.3630055,31.6765739 24.39,31.36 C24.4846911,30.1102939 24.3732033,28.8535219 24.06,27.64 C23.2330635,24.7614104 21.9573983,22.0312169 20.28,19.55 C19.8170117,18.8407618 19.2951712,18.1717355 18.72,17.55 C18.6312447,17.4585302 18.5377847,17.3717459 18.44,17.29 C18.27,17.14 18.06,16.95 18.04,16.81 C18.0602997,16.4919773 18.1562988,16.1834089 18.32,15.91 C18.3797414,15.7895376 18.4331475,15.6660359 18.48,15.54 L18.72,14.94 C19.0643471,13.9728179 19.489168,13.036205 19.99,12.14 L20.57,11.14 C20.57,11.14 20.66,10.99 20.65,10.98 C20.7146068,11.0204211 20.7749194,11.0673309 20.83,11.12 C21.1210677,11.3853949 21.3981099,11.6657749 21.66,11.96 C22.7953667,13.1776615 23.8636135,14.4562193 24.86,15.79 C25.44,16.59 26.11,17.53 26.69,18.51 C28.1690193,21.1199312 29.0789545,24.0133208 29.36,27 C29.36,27.16 29.36,27.32 29.42,27.49 C29.48,27.66 29.49,28.05 29.52,28.33 C29.8933333,27.91 30.2266667,27.4733333 30.52,27.02 C30.3394482,25.2689823 29.9843503,23.5403924 29.46,21.86 C28.3370623,18.6762034 26.604817,15.7415761 24.36,13.22 C23.69,12.41 22.95,11.6 22.15,10.8 L21.88,10.56 C21.7,10.4 21.35,10.12 21.33,9.97 C21.31,9.82 21.71,9.43 21.84,9.3 L22.04,9.09 C22.6922626,8.27948151 23.4335855,7.5448675 24.25,6.9 L24.47,6.72 C24.6560804,6.54232471 24.8729485,6.40000502 25.11,6.3 C25.28,6.3 25.64,6.72 25.79,6.89 L25.96,7.09 C26.9497877,8.14453787 27.8558656,9.27462769 28.67,10.47 C30.31638,12.708878 31.608184,15.1879274 32.5,17.82 C32.81536,18.9152348 33.0328802,20.0363007 33.15,21.17 L33.15,21.26 C33.4568357,19.9895169 33.6112566,18.6870095 33.61,17.38 L33.75,17.3 Z" id="Shape" fill="#3B7F9A" stroke-width="1"/>
            <path d="M28.15,5 L27.58,4.52 C27.32,4.30666667 27.05,4.10333333 26.77,3.91 C28.7299388,6.68191559 29.7784401,9.99517967 29.77,13.39 C29.77,13.71 29.77,14.02 29.77,14.33 C29.77,14.4 29.77,14.48 29.77,14.55 C29.77,14.8 29.77,15.04 29.7,15.28 L29.7,15.48 C29.7,15.74 29.66,15.9966667 29.58,16.25 L29.58,16.38 C29.5266667,16.6666667 29.4666667,16.9533333 29.4,17.24 C28.8987739,19.3106825 27.9986496,21.2637823 26.75,22.99 C26.59,23.21 26.4233333,23.4266667 26.25,23.64 C26.0766667,23.8533333 25.9,24.06 25.72,24.26 C24.0694668,26.1270261 22.018392,27.596963 19.72,28.56 L18.97,28.85 C13.9298582,30.6430842 8.3320699,29.8668576 3.97,26.77 C4.61351236,27.6814199 5.34721775,28.5256837 6.16,29.29 L6.65,29.73 L6.7,29.73 L7.21,30.15 L7.76,30.56 C12.1245579,33.7007827 17.7509387,34.5040177 22.82,32.71 L23.57,32.42 C25.868392,31.456963 27.9194668,29.9870261 29.57,28.12 C29.75,27.9133333 29.9266667,27.7066667 30.1,27.5 C30.2733333,27.2866667 30.44,27.07 30.6,26.85 C31.8484278,25.1236526 32.7485312,23.1705981 33.25,21.1 C33.3166667,20.82 33.3766667,20.5333333 33.43,20.24 L33.43,20.11 C33.4766667,19.8566667 33.5166667,19.6 33.55,19.34 L33.55,19.14 C33.55,18.9 33.55,18.65 33.62,18.41 C33.62,18.34 33.62,18.26 33.62,18.19 C33.62,17.88 33.62,17.57 33.62,17.25 C33.6227788,12.5743549 31.6333236,8.11899368 28.15,5 Z" id="Shape" fill="#3B7F9A" opacity="0.3" stroke-width="1"/>
        </g>
    </g>
</svg>