<?xml version="1.0" encoding="UTF-8"?><svg xmlns="http://www.w3.org/2000/svg" xmlns:xlink="http://www.w3.org/1999/xlink" width="161.24716186523438" height="180.8699493408203" viewBox="-0.4999673366546631 -0.5008125305175781 161.24716186523438 180.8699493408203" version="1.1">
    <!-- Generator: Sketch 53.2 (72643) - https://sketchapp.com -->
    <title>shutiao</title>
    <desc>Created with Sketch.</desc>
    <defs>
        <polygon id="path-1" points="0.87220347 0.13 26.0644029 0.13 26.0644029 118.931215 0.87220347 118.931215" stroke-width="1"/>
        <polygon id="path-3" points="0.833868961 0.964989964 31.247 0.964989964 31.247 101.250014 0.833868961 101.250014" stroke-width="1"/>
    </defs>
    <g id="Page-1" stroke="none" fill-rule="evenodd">
        <g id="shutiao">
            <path d="M 19.9404 92.269 L 0.2774 27.263 C -0.9326 23.264 1.9674 19.203 6.0404 19.194 L 12.1704 19.181 C 14.9234 19.176 17.3334 21.082 18.0334 23.822 L 34.4594 88.07 C 35.3114 91.403 33.3684 94.812 30.1254 95.675 L 27.2314 96.445 C 24.1074 97.276 20.8994 95.439 19.9404 92.269 " id="Fill-1" fill="#FFB41F" stroke-width="1"/>
            <path d="M 98.7724 12.4301 L 109.1264 13.3651 C 112.4854 13.6671 114.9554 16.7361 114.6174 20.1851 L 107.0924 97.2041 C 106.7824 100.3861 104.1764 102.8081 101.0674 102.8031 L 95.5974 102.7961 C 92.1764 102.7911 89.4404 99.8731 89.5594 96.3571 L 92.1994 18.4101 C 92.3204 14.8481 95.3204 12.1181 98.7724 12.4301 " id="Fill-3" fill="#FFB41F" stroke-width="1"/>
            <path d="M 133.5331 24.35 L 143.6201 24.329 C 147.4471 24.322 150.3191 27.925 149.5611 31.784 L 135.7081 102.349 C 135.1391 105.247 132.6661 107.333 129.7921 107.339 L 124.7301 107.349 C 121.0781 107.357 118.2521 104.059 118.7181 100.332 L 127.5471 29.777 C 127.9341 26.678 130.4961 24.357 133.5331 24.35 " id="Fill-5" fill="#FFB41F" stroke-width="1"/>
            <path d="M 21.3115 22.8276 L 30.3325 22.1026 C 33.4575 21.8506 36.2505 24.0986 36.7695 27.2776 L 47.7975 94.9576 C 48.3065 98.0796 46.4605 101.0966 43.5015 101.9656 C 38.3255 103.4856 31.1865 105.4586 31.5905 104.6486 C 32.1065 103.6146 20.2335 49.9506 15.8845 30.4096 C 15.0615 26.7066 17.6295 23.1236 21.3115 22.8276 " id="Fill-7" fill="#FFD454" stroke-width="1"/>
            <path d="M 32.3408 19.0356 L 44.6198 111.0286 C 45.0318 114.1136 47.5978 116.4106 50.6258 116.4046 L 55.7368 116.3936 C 59.2468 116.3866 62.0138 113.3186 61.7568 109.7186 L 55.1968 17.7136 C 54.9648 14.4576 52.3248 11.9396 49.1518 11.9456 L 38.3198 11.9686 C 34.6578 11.9756 31.8428 15.3036 32.3408 19.0356 " id="Fill-9" fill="#FFB41F" stroke-width="1"/>
            <path d="M 67.413 11.1693 L 76.288 9.9353 C 80.053 9.4113 83.35 12.5463 83.138 16.4483 L 78.576 100.3763 C 78.397 103.6673 75.755 106.2423 72.55 106.2493 L 70.629 106.2533 C 67.353 106.2603 64.667 103.5843 64.569 100.2163 L 62.178 17.5193 C 62.086 14.3363 64.345 11.5963 67.413 11.1693 " id="Fill-11" fill="#FFB41F" stroke-width="1"/>
            <path d="M 84.8847 19.8109 L 93.2507 20.8149 C 96.5447 21.2089 98.9157 24.2599 98.5657 27.6529 L 89.5787 114.6189 C 89.2747 117.5679 86.9877 119.8849 84.1157 120.1559 L 79.9887 120.5439 C 76.3117 120.8899 73.1937 117.7959 73.3977 114.0039 L 78.1457 25.6459 C 78.3377 22.0669 81.4237 19.3949 84.8847 19.8109 " id="Fill-13" fill="#FFD454" stroke-width="1"/>
            <path d="M 49.539 3.1176 L 63.126 1.1236 C 66.765 0.5896 70.021 3.4886 70.029 7.2696 L 70.251 114.3236 C 70.257 117.0406 68.547 119.4466 66.028 120.2666 L 61.804 121.6426 C 58.125 122.8416 54.31 120.2376 53.954 116.2846 L 44.372 9.8496 C 44.074 6.5486 46.348 3.5866 49.539 3.1176 " id="Fill-15" fill="#FFD454" stroke-width="1"/>
            <g id="分组">
                <mask id="mask-2" fill="white">
                    <use xlink:href="#path-1"/>
                </mask>
                <g id="Clip-18"/>
                <path d="M 107.8886 6.9682 L 105.8736 111.5702 C 105.7966 115.5452 108.9136 118.8092 112.7806 118.8012 C 116.2846 118.7942 119.2256 116.0832 119.6166 112.5012 L 131.0206 7.8812 C 131.4796 3.6722 128.2726 -0.0088 124.1556 -0.0008 L 114.7666 0.0192 C 111.0176 0.0272 107.9626 3.1142 107.8886 6.9682 " id="Fill-17" fill="#FFD454" mask="url(#mask-2)" stroke-width="1"/>
            </g>
            <g id="分组">
                <mask id="mask-4" fill="white">
                    <use xlink:href="#path-3"/>
                </mask>
                <g id="Clip-20"/>
                <path d="M 129.8906 107.057 L 141.5446 19.228 C 141.9536 16.151 144.5056 13.855 147.5256 13.849 L 154.1836 13.835 C 158.0396 13.828 160.9186 17.484 160.1106 21.362 L 141.7976 109.204 C 141.2006 112.068 138.7436 114.115 135.8966 114.12 C 132.2256 114.128 129.3936 110.798 129.8906 107.057 " id="Fill-19" fill="#FFD454" mask="url(#mask-4)" stroke-width="1"/>
            </g>
            <path d="M 16.7451 76.0404 C 17.9521 76.0374 19.1031 76.5734 19.8761 77.5294 C 24.0791 82.7274 40.7761 99.7074 79.5061 99.6274 C 118.2361 99.5474 134.8631 82.4984 139.0451 77.2834 C 139.8131 76.3244 140.9621 75.7834 142.1701 75.7804 L 149.6011 75.7654 C 151.5441 75.7614 153.2161 74.3534 153.6041 72.3964 C 154.1231 69.7824 152.1781 67.3374 149.5841 67.3424 L 138.6881 67.3654 C 137.4381 67.3674 136.2611 67.9474 135.4901 68.9604 C 131.4391 74.2814 115.7531 91.1304 79.4891 91.2054 C 43.2251 91.2804 27.4701 74.4964 23.3961 69.1914 C 22.6221 68.1834 21.4411 67.6074 20.1911 67.6094 L 9.2951 67.6324 C 6.7021 67.6384 4.7661 70.0914 5.2961 72.7024 C 5.6921 74.6584 7.3701 76.0594 9.3131 76.0554 L 16.7451 76.0404 Z " id="Fill-21" fill="#FF2238" stroke-width="1"/>
            <path d="M 152.9326 73.2631 L 142.1646 73.2841 C 140.9566 73.2871 139.8076 73.8281 139.0396 74.7871 C 134.8586 80.0021 118.2316 97.0511 79.5006 97.1311 C 40.7716 97.2111 24.0746 80.2321 19.8706 75.0341 C 19.0986 74.0781 17.9476 73.5411 16.7396 73.5441 L 5.9716 73.5661 L 22.7346 162.4121 C 24.6506 172.5661 33.3046 179.8911 43.3596 179.8691 L 79.6716 179.7951 L 118.3076 179.7151 C 127.0136 179.6971 134.4816 173.3231 136.1046 164.5241 L 152.9326 73.2631 Z " id="Fill-23" fill="#FF3D47" stroke-width="1"/>
            <path d="M 108.2548 135.2289 C 108.2868 151.0209 95.4758 163.8519 79.6388 163.8849 C 63.8018 163.9169 50.9378 151.1389 50.9038 135.3479 C 50.8718 119.5539 63.6838 106.7219 79.5208 106.6899 C 95.3578 106.6569 108.2228 119.4359 108.2548 135.2289 " id="Fill-25" fill="#FF2238" stroke-width="1"/>
            <path d="M 102.1357 134.9916 C 102.1617 147.4946 92.0177 157.6546 79.4787 157.6796 C 66.9397 157.7066 56.7527 147.5886 56.7267 135.0856 C 56.7007 122.5796 66.8457 112.4196 79.3847 112.3936 C 91.9237 112.3676 102.1107 122.4856 102.1357 134.9916 " id="Fill-27" fill="#FF3D47" stroke-width="1"/>
            <path d="M 63.5419 136.5902 L 63.5489 139.7502 C 63.5499 140.4212 63.1659 140.7572 62.3999 140.7592 C 61.6819 140.7602 61.3219 140.4262 61.3209 139.7552 L 61.2949 127.3262 C 61.2939 126.6082 61.6759 126.2472 62.4419 126.2452 C 63.1609 126.2442 63.5209 126.6032 63.5219 127.3212 L 63.5369 134.1472 L 67.8419 131.3362 C 68.1289 131.1452 68.4149 131.0472 68.7029 131.0462 C 69.3249 131.0942 69.6609 131.4042 69.7109 131.9792 C 69.7119 132.3622 69.5209 132.6742 69.1379 132.9132 L 65.9799 135.0042 L 69.5099 138.9482 C 69.7979 139.2832 69.9169 139.5692 69.8699 139.8102 C 69.8229 140.3852 69.4649 140.6952 68.7949 140.7452 C 68.5079 140.7462 68.1949 140.5782 67.8599 140.2452 L 64.3309 136.0852 L 63.5419 136.5902 Z " id="Fill-29" fill="#F5162C" stroke-width="1"/>
            <path d="M 76.7607 136.5629 L 76.7557 133.9039 C 76.8017 133.1859 76.5137 132.8509 75.8917 132.8999 C 73.9277 133.0469 72.8757 134.0559 72.7367 135.9239 C 72.7867 137.7919 73.4607 138.7729 74.7537 138.8659 C 76.0947 138.8629 76.7647 138.0959 76.7607 136.5629 M 78.9817 133.2529 L 78.9937 139.6469 C 78.9957 140.3669 78.6387 140.7249 77.9187 140.7269 C 77.3917 140.7279 77.0567 140.5129 76.9117 140.0829 C 76.3377 140.5139 75.6197 140.7319 74.7577 140.7339 C 72.0747 140.5949 70.6827 138.9949 70.5807 135.9279 C 70.7657 132.8149 72.6067 131.1819 76.1027 131.0319 C 77.9707 131.0759 78.9317 131.8159 78.9817 133.2529 " id="Fill-31" fill="#F5162C" stroke-width="1"/>
            <path d="M 87.3925 135.8217 C 87.3395 133.9537 86.5245 132.9987 84.9445 132.9527 C 83.4105 133.0997 82.5755 134.0607 82.4345 135.8327 C 82.5345 137.6997 83.3745 138.6797 84.9555 138.7727 C 86.5365 138.7217 87.3475 137.7377 87.3925 135.8217 M 87.3835 131.6557 L 87.3735 127.2007 C 87.3725 126.5307 87.7325 126.1937 88.4505 126.1917 C 89.2155 126.1907 89.6005 126.5257 89.6015 127.1957 L 89.6275 139.6967 C 89.6765 140.4147 89.3175 140.7507 88.5515 140.7047 C 87.8805 140.7537 87.4965 140.4917 87.4005 139.9177 C 86.6835 140.4927 85.8695 140.7577 84.9595 140.7127 C 81.9895 140.5747 80.4295 138.9507 80.2795 135.8367 C 80.4635 132.8187 82.0185 131.2117 84.9405 131.0127 C 85.9465 131.0107 86.7595 131.2247 87.3835 131.6557 " id="Fill-33" fill="#F5162C" stroke-width="1"/>
            <path d="M 97.0927 136.5209 L 97.0877 133.8619 C 97.1327 133.1439 96.8447 132.8089 96.2237 132.8579 C 94.2587 133.0049 93.2077 134.0139 93.0687 135.8819 C 93.1187 137.7499 93.7917 138.7309 95.0857 138.8239 C 96.4267 138.8209 97.0957 138.0539 97.0927 136.5209 M 99.3137 133.2109 L 99.3267 139.6049 C 99.3277 140.3249 98.9697 140.6829 98.2507 140.6849 C 97.7227 140.6859 97.3887 140.4709 97.2437 140.0409 C 96.6697 140.4719 95.9517 140.6899 95.0897 140.6919 C 92.4067 140.5529 91.0147 138.9529 90.9117 135.8859 C 91.0967 132.7729 92.9387 131.1399 96.4357 130.9899 C 98.3037 131.0339 99.2627 131.7739 99.3137 133.2109 " id="Fill-35" fill="#F5162C" stroke-width="1"/>
        </g>
    </g>
</svg>