<?xml version="1.0" encoding="UTF-8"?><svg xmlns="http://www.w3.org/2000/svg" xmlns:xlink="http://www.w3.org/1999/xlink" width="113.05803680419922" height="103.66619873046875" viewBox="-0.4996638894081116 -0.5001000000047497 113.05803680419922 103.66619873046875" version="1.1">
    <!-- Generator: Sketch 53.2 (72643) - https://sketchapp.com -->
    <title>han</title>
    <desc>Created with Sketch.</desc>
    <defs>
        <polygon id="path-1" points="0.4644 0.3021 110.2404 0.3021 110.2404 17 0.4644 17" stroke-width="1"/>
        <polygon id="path-3" points="0.000336113961 0.334 112.058 0.334 112.058 46.4679 0.000336113961 46.4679" stroke-width="1"/>
    </defs>
    <g id="Page-1" stroke="none" fill-rule="evenodd">
        <g id="分组">
            <path d="M 92.5039 87.4591 L 19.3469 87.4591 C 13.5199 87.4591 8.7959 82.7351 8.7959 76.9081 L 8.7959 74.7421 C 8.7959 68.9161 13.5199 64.1911 19.3469 64.1911 L 92.5039 64.1911 C 98.3309 64.1911 103.0549 68.9161 103.0549 74.7421 L 103.0549 76.9081 C 103.0549 82.7351 98.3309 87.4591 92.5039 87.4591 " id="Fill-1" fill="#843612" stroke-width="1"/>
            <path d="M 92.5039 58.502 L 19.3469 58.502 C 13.5199 58.502 8.7959 53.778 8.7959 47.951 L 8.7959 45.785 C 8.7959 39.959 13.5199 35.235 19.3469 35.235 L 92.5039 35.235 C 98.3309 35.235 103.0549 39.959 103.0549 45.785 L 103.0549 47.951 C 103.0549 53.778 98.3309 58.502 92.5039 58.502 " id="Fill-3" fill="#F76C48" stroke-width="1"/>
            <g>
                <mask id="mask-2" fill="white">
                    <use xlink:href="#path-1"/>
                </mask>
                <g id="Clip-6"/>
                <path d="M 103.6694 102.6661 L 9.0364 102.6661 C 4.8544 102.6661 1.4644 99.2751 1.4644 95.0951 L 1.4644 93.5391 C 1.4644 89.3561 4.8544 85.9681 9.0364 85.9681 L 103.6694 85.9681 C 107.8524 85.9681 111.2404 89.3561 111.2404 93.5391 L 111.2404 95.0951 C 111.2404 99.2751 107.8524 102.6661 103.6694 102.6661 " id="Fill-5" fill="#FF973B" mask="url(#mask-2)" stroke-width="1"/>
            </g>
            <g>
                <mask id="mask-4" fill="white">
                    <use xlink:href="#path-3"/>
                </mask>
                <g id="Clip-8"/>
                <path d="M 104.46 46.1339 C 109.34 46.1339 113.026 41.5679 111.832 36.8359 C 106.519 15.8159 83.554 -0.0001 56.03 -0.0001 C 28.503 -0.0001 5.538 15.8159 0.227 36.8359 C -0.968 41.5679 2.719 46.1339 7.598 46.1339 L 104.46 46.1339 Z " id="Fill-7" fill="#FFB231" mask="url(#mask-4)" stroke-width="1"/>
            </g>
            <path d="M 12.124 58.2198 C 6.505 58.2198 3.166 64.6138 6.485 69.1458 C 9.853 73.7418 15.29 76.7278 21.426 76.7278 C 28.938 76.7278 35.4 72.2468 38.3 65.8178 C 41.199 72.2468 47.661 76.7278 55.176 76.7278 C 62.796 76.7278 69.339 72.1198 72.176 65.5388 C 75.014 72.1198 81.557 76.7278 89.177 76.7278 C 95.312 76.7278 100.749 73.7418 104.117 69.1458 C 107.437 64.6138 104.096 58.2198 98.478 58.2198 L 12.124 58.2198 Z " id="Fill-9" fill="#94E572" stroke-width="1"/>
            <path d="M 24.8784 35.9415 L 18.2504 35.9415 C 16.4974 35.9415 15.0634 34.5065 15.0634 32.7535 C 15.0634 31.0025 16.4974 29.5675 18.2504 29.5675 L 24.8784 29.5675 C 26.6314 29.5675 28.0654 31.0025 28.0654 32.7535 C 28.0654 34.5065 26.6314 35.9415 24.8784 35.9415 " id="Fill-11" fill="#FFE687" stroke-width="1"/>
            <path d="M 44.8916 24.8507 L 38.2636 24.8507 C 36.5106 24.8507 35.0766 23.4167 35.0766 21.6637 C 35.0766 19.9117 36.5106 18.4777 38.2636 18.4777 L 44.8916 18.4777 C 46.6446 18.4777 48.0786 19.9117 48.0786 21.6637 C 48.0786 23.4167 46.6446 24.8507 44.8916 24.8507 " id="Fill-13" fill="#FFE687" stroke-width="1"/>
            <path d="M 66.3071 36.1964 L 59.6791 36.1964 C 57.9261 36.1964 56.4921 34.7614 56.4921 33.0084 C 56.4921 31.2574 57.9261 29.8224 59.6791 29.8224 L 66.3071 29.8224 C 68.0591 29.8224 69.4941 31.2574 69.4941 33.0084 C 69.4941 34.7614 68.0591 36.1964 66.3071 36.1964 " id="Fill-15" fill="#FFE687" stroke-width="1"/>
            <path d="M 88.7422 26.6358 L 82.1142 26.6358 C 80.3612 26.6358 78.9272 25.2008 78.9272 23.4488 C 78.9272 21.6968 80.3612 20.2618 82.1142 20.2618 L 88.7422 20.2618 C 90.4952 20.2618 91.9292 21.6968 91.9292 23.4488 C 91.9292 25.2008 90.4952 26.6358 88.7422 26.6358 " id="Fill-17" fill="#FFE687" stroke-width="1"/>
        </g>
    </g>
</svg>