<svg xmlns="http://www.w3.org/2000/svg" xmlns:xlink="http://www.w3.org/1999/xlink" version="1.1" width="47.73099899291992" height="158.6096954345703" viewBox="-0.5 -0.5 47.73099899291992 158.6096954345703"><g><g data-paper-data="{&quot;isPaintingLayer&quot;:true}" fill-rule="evenodd" stroke="none" stroke-linecap="butt" stroke-linejoin="miter" stroke-miterlimit="10" stroke-dasharray="" stroke-dashoffset="0" font-family="none" font-weight="none" font-size="none" text-anchor="none" style="mix-blend-mode: normal"><path d="M 34.3264 157.6097 L 12.4051 157.6097 C 5.5541 157.6097 0 152.0911 0 145.2833 L 0 12.3264 C 0 5.5186 5.5541 0 12.4051 0 L 34.3264 0 C 41.1774 0 46.731 5.5186 46.731 12.3264 L 46.731 145.2833 C 46.731 152.0911 41.1774 157.6097 34.3264 157.6097 " data-paper-data="{&quot;origPos&quot;:null}" id="Fill-1" fill="#89c9ff" stroke-width="1"/><path d="M 28.1433 72.6039 L 17.9007 72.6039 C 16.5282 72.6039 15.4057 71.488 15.4057 70.1247 C 15.4057 68.7608 16.5282 67.6454 17.9007 67.6454 L 28.1433 67.6454 C 29.5153 67.6454 30.6383 68.7608 30.6383 70.1247 C 30.6383 71.488 29.5153 72.6039 28.1433 72.6039 " data-paper-data="{&quot;origPos&quot;:null}" id="Fill-4" fill="#b2dfff" stroke-width="1"/><path d="M 28.1433 81.2378 L 17.9007 81.2378 C 16.5282 81.2378 15.4057 80.1219 15.4057 78.7585 C 15.4057 77.3952 16.5282 76.2792 17.9007 76.2792 L 28.1433 76.2792 C 29.5153 76.2792 30.6383 77.3952 30.6383 78.7585 C 30.6383 80.1218 29.5153 81.2378 28.1433 81.2378 " data-paper-data="{&quot;origPos&quot;:null}" id="Fill-6" fill="#b2dfff" stroke-width="1"/><path d="M 28.1433 89.8719 L 17.9007 89.8719 C 16.5282 89.8719 15.4057 88.7559 15.4057 87.3926 C 15.4057 86.0287 16.5282 84.9133 17.9007 84.9133 L 28.1433 84.9133 C 29.5153 84.9133 30.6383 86.0288 30.6383 87.3926 C 30.6383 88.7559 29.5153 89.8719 28.1433 89.8719 " data-paper-data="{&quot;origPos&quot;:null}" id="Fill-8" fill="#b2dfff" stroke-width="1"/><path d="M 26.8373 22.7674 L 27.352 22.8425 C 29.1101 23.0972 29.8103 25.2451 28.537 26.4764 L 28.1646 26.837 C 27.6588 27.3261 27.4277 28.0307 27.5464 28.7218 L 27.6341 29.2312 C 27.933 30.9719 26.094 32.2972 24.5219 31.4745 L 24.0618 31.2339 C 23.4372 30.9072 22.6914 30.9067 22.0663 31.2324 L 21.6062 31.4725 C 20.0325 32.293 18.1957 30.9646 18.4977 29.2244 L 18.5859 28.715 C 18.7057 28.0239 18.4756 27.3188 17.9709 26.8292 L 17.5984 26.468 C 16.3273 25.2346 17.0312 23.0884 18.7892 22.8358 L 19.3045 22.7616 C 20.0026 22.6614 20.6066 22.2261 20.9192 21.5977 L 21.1497 21.1342 C 21.9371 19.5516 24.2094 19.5532 24.9941 21.1373 L 25.2242 21.6008 C 25.5357 22.2298 26.1392 22.6661 26.8373 22.7674 " data-paper-data="{&quot;origPos&quot;:null}" id="Fill-10" fill="#55adff" stroke-width="1"/><path d="M 26.8373 128.5492 L 27.352 128.6244 C 29.1101 128.8796 29.8103 131.0269 28.537 132.2582 L 28.1646 132.6189 C 27.6588 133.1075 27.4277 133.8126 27.5464 134.5037 L 27.6341 135.0136 C 27.933 136.7538 26.094 138.0796 24.5219 137.257 L 24.0618 137.0158 C 23.4372 136.6891 22.6914 136.6885 22.0663 137.0142 L 21.6062 137.2543 C 20.0325 138.0749 18.1957 136.7465 18.4977 135.0063 L 18.5859 134.4974 C 18.7057 133.8058 18.4756 133.1012 17.9709 132.6111 L 17.5984 132.2499 C 16.3273 131.017 17.0312 128.8697 18.7892 128.6176 L 19.3045 128.5435 C 20.0026 128.4433 20.6066 128.008 20.9192 127.3796 L 21.1497 126.9161 C 21.9371 125.3335 24.2094 125.3356 24.9941 126.9192 L 25.2242 127.3832 C 25.5357 128.0122 26.1392 128.4485 26.8373 128.5492 " data-paper-data="{&quot;origPos&quot;:null}" id="Fill-12" fill="#55adff" stroke-width="1"/></g></g></svg>