<?xml version="1.0" encoding="UTF-8"?><svg xmlns="http://www.w3.org/2000/svg" xmlns:xlink="http://www.w3.org/1999/xlink" width="92.4556884765625" height="116.11767578125" viewBox="0.39692044258117676 -0.31562328338623047 92.4556884765625 116.11767578125" version="1.1">
    <!-- Generator: Sketch 49.3 (51167) - http://www.bohemiancoding.com/sketch -->
    <title>Group</title>
    <desc>Created with Sketch.</desc>
    <defs/>
    <g id="Page-1" stroke="none" fill-rule="evenodd">
        <g id="未标题-2" fill-rule="nonzero">
            <g id="Group">
                <path d="M78.8,71.1 C78.8,71.1 85.7,67 90.5,70.3 C95.3,73.6 90.4,82 80.1,78.9" id="Shape" fill="#99958F" stroke-width="1"/>
                <path d="M72.7,58.4 C72.5,55.6 69.9,53.5 67.2,54 C61,55.1 53.9,64.7 62.6,80.9 C67.1,89.6 72.8,90.8 77.5,93.6 C79.4,94.7 81.6,95.1 82.7,93.2 C86.7,86.5 85.6,72.2 85.4,70.3 C85.1,65.7 80.4,71.8 76.3,66.6 C74.8,64.7 72.8,59.7 72.7,58.4 Z" id="Shape" fill="#733E4B" stroke-width="1"/>
                <path d="M71.8,71.2 C71.8,62.4 68.8,57 68.8,57 L55.8,45.2 C55.8,45.2 48.5,44.7 42.3,57 C36.1,69.3 47.5,72.1 42.8,77.8 C38.1,83.5 39.2,82.3 32.4,80.9 C21.3,78.7 15.8,102.7 11.1,95.2 C7.9,90.1 15.6,86.8 16.3,82.8 C17.6,74 11.3,75.7 10.1,75 C9,74.3 8.6,69.5 3.2,71.8 C-0.4,73.4 1,77.8 2.2,80.5 C2.5,81.1 3.3,80.9 3.4,80.3 C3.8,77.7 5.2,75.9 8,78 C11.3,80.5 2.7,86.9 5.2,95.3 C9.6,109.6 25.9,103.3 29.6,105.2 C36,108.5 34.6,112.4 41.4,114.5 C54.6,118.4 55.2,106.9 58.3,105.2 C64,102.1 72.9,104.2 72.9,93 C73.1,82.3 71.8,91.4 71.8,71.2 Z" id="Shape" fill="#57333C" stroke-width="1"/>
                <path d="M79.3,41.6 C81.5,34.9 81.6,26.2 79.4,19.6 C78.8,17.9 78.1,16.4 77.3,14.9 C77.3,14.9 76.6,13.5 74.9,11.5 C69.6,5.4 63.3,4.5 57.8,4 C55.3,3.8 51.2,3.8 48.6,3.9 C34.9,4.5 30.1,-1.4 23.2,0.6 C23.6,0.8 24.1,1.1 24.6,1.6 C28.7,4.9 29.7,10 30.2,12.8 C30.8,15.9 30.2,18.2 29.5,20.8 C25.4,36 34.2,52 49.5,55.9 C53.7,57 59.5,56.9 63.8,56.1 C71.6,54.7 76.8,49.3 79.3,41.6 Z" id="Shape" fill="#733E4B" stroke-width="1"/>
                <path d="M67.8,28.7 C62.6,27.2 59.8,19.7 51.5,21.3 C43.2,22.9 40.9,54 62.1,54 C73.5,54 80.6,39.2 77.7,25.4 C76,19.7 69.8,29.3 67.8,28.7 Z" id="Shape" fill="#000000" stroke-width="1"/>
                <path d="M53.2,83.3 C53.2,83.3 61,85.5 61.9,91.2 C62.9,96.9 53.4,99.2 48.5,89.6" id="Shape" fill="#99958F" stroke-width="1"/>
                <path d="M47.4,50.6 C47.4,50.6 26.7,50.1 29.1,79.5 C30,92.9 34.5,97.9 39,105.8 C41.6,108.6 58.6,90.6 58.5,86 C58.4,81.4 42.2,78.5 44.3,69.8 C46.4,61.1 47.4,50.6 47.4,50.6 Z" id="Shape" fill="#733E4B" stroke-width="1"/>
                <path d="M76.2,34.5 C77.5,36.3 77,38.8 75.2,40.1 C73.4,41.4 70.9,40.9 69.6,39.1 C68.3,37.3 69.9,36.4 71.7,35.1 C73.5,33.8 75,32.7 76.2,34.5 Z" id="Shape" fill="#FCEE21" stroke-width="1"/>
                <path d="M54.3,34.5 C53,36.3 53.5,38.8 55.3,40.1 C57.1,41.4 59.6,40.9 60.9,39.1 C62.2,37.3 60.6,36.4 58.8,35.1 C57,33.8 55.6,32.7 54.3,34.5 Z" id="Shape" fill="#FCEE21" stroke-width="1"/>
            </g>
        </g>
    </g>
</svg>