<?xml version="1.0" encoding="UTF-8"?><svg xmlns="http://www.w3.org/2000/svg" xmlns:xlink="http://www.w3.org/1999/xlink" width="91.92819213867188" height="110.74906158447266" viewBox="0.03743553161621094 -0.31562328338623047 91.92819213867188 110.74906158447266" version="1.1">
    <!-- Generator: Sketch 49.3 (51167) - http://www.bohemiancoding.com/sketch -->
    <title>Group</title>
    <desc>Created with Sketch.</desc>
    <defs/>
    <g id="Page-1" stroke="none" fill-rule="evenodd">
        <g id="未标题-2" fill-rule="nonzero">
            <g id="Group">
                <path d="M78.8,71.5 C78.8,71.5 86.6,69.3 90.4,73.7 C94.2,78.1 87.3,84.9 78.2,79.4" id="Shape" fill="#99958F" stroke-width="1"/>
                <path d="M72.2,58.2 C72.2,55.4 69.7,53.2 66.9,53.5 C60.6,54.2 53.1,63.4 60.8,80.1 C64.8,89.1 70.5,90.6 74.9,93.6 C76.7,94.8 78.9,95.4 80.1,93.5 C84.5,87.1 84.1,72.7 84.1,70.8 C84.1,66.2 79,72.1 75.2,66.6 C74,64.6 72.2,59.5 72.2,58.2 Z" id="Shape" fill="#733E4B" stroke-width="1"/>
                <path d="M71.2,75.2 C72.8,66.5 69.5,55.4 69.5,55.4 L60.1,46.7 C60.1,46.7 53.1,44.9 44.7,55.9 C36.4,66.9 40,65.7 34.4,70.4 C28.8,75.1 22.1,67.8 19.6,82.2 C18.5,88.7 10.5,96.2 7.2,87.9 C5,82.4 13.2,80.5 14.5,76.7 C17.3,68.3 10.8,68.8 9.8,67.9 C8.8,67 9.3,62.2 3.6,63.6 C-0.2,64.5 0.3,69.1 1.1,72 C1.3,72.6 2.1,72.6 2.3,72 C3.1,69.5 4.8,68 7.2,70.5 C10,73.5 0.4,78.3 1.4,87 C3.2,101.9 20.4,98.5 23.7,101.1 C29.4,105.5 31.5,108.9 38.5,109.8 C48.8,111.1 49.7,102.5 53.1,101.4 C59.3,99.5 67.6,95.1 71.2,75.2 Z" id="Shape" fill="#57333C" stroke-width="1"/>
                <path d="M81.3,41.6 C83.5,34.9 83.6,26.2 81.4,19.6 C80.8,17.9 80.1,16.4 79.3,14.9 C79.3,14.9 78.6,13.5 76.9,11.5 C71.6,5.4 65.3,4.5 59.8,4 C57.3,3.8 53.2,3.8 50.6,3.9 C36.9,4.5 32.1,-1.4 25.2,0.6 C25.6,0.8 26.1,1.1 26.6,1.6 C30.7,4.9 31.7,10 32.2,12.8 C32.8,15.9 32.2,18.2 31.5,20.8 C27.4,36 36.2,52 51.5,55.9 C55.7,57 61.5,56.9 65.8,56.1 C73.6,54.7 78.8,49.3 81.3,41.6 Z" id="Shape" fill="#733E4B" stroke-width="1"/>
                <path d="M69.8,28.8 C64.6,27.3 61.8,19.8 53.5,21.4 C45.2,23 42.9,54 64.1,54 C75.5,54 82.6,39.2 79.7,25.4 C78,19.7 71.8,29.3 69.8,28.8 Z" id="Shape" fill="#000000" stroke-width="1"/>
                <path d="M65.2,75.9 C65.2,75.9 73.1,74.1 76.6,78.7 C80.2,83.3 72.9,89.8 64.1,83.7" id="Shape" fill="#99958F" stroke-width="1"/>
                <path d="M44.5,49.9 C44.5,49.9 26.1,59.4 42.2,84 C49.4,95.3 55.7,97.6 63.4,102.3 C67,103.5 73.4,79.6 71.1,75.6 C68.8,71.6 53.2,76.8 50.9,68.2 C48.6,59.6 44.5,49.9 44.5,49.9 Z" id="Shape" fill="#733E4B" stroke-width="1"/>
                <path d="M78.2,34.6 C79.5,36.4 79,38.9 77.2,40.2 C75.4,41.5 72.9,41 71.6,39.2 C70.3,37.4 71.9,36.5 73.7,35.2 C75.5,33.9 77,32.8 78.2,34.6 Z" id="Shape" fill="#FCEE21" stroke-width="1"/>
                <path d="M56.3,34.6 C55,36.4 55.5,38.9 57.3,40.2 C59.1,41.5 61.6,41 62.9,39.2 C64.2,37.4 62.6,36.5 60.8,35.2 C59,33.9 57.6,32.8 56.3,34.6 Z" id="Shape" fill="#FCEE21" stroke-width="1"/>
                <polygon id="Shape" fill="#A32126" points="70.5 44.8 70.2 41 68.8 44.7 68.4 41 67.1 44.7 66.2 41 65 44.7 64 41 63.4 49.4 65 46.3 65.4 49.4 67.1 45.8 67.7 49.4 69 46 69.7 49.4 70.6 45.7 71.4 49.2 71.7 41.2" stroke-width="1"/>
            </g>
        </g>
    </g>
</svg>