<?xml version="1.0" encoding="UTF-8"?><svg xmlns="http://www.w3.org/2000/svg" xmlns:xlink="http://www.w3.org/1999/xlink" width="66.60971069335938" height="59.89999771118164" viewBox="-0.3409540057182312 -0.19999998807907104 66.60971069335938 59.89999771118164" version="1.1">
    <!-- Generator: Sketch 49.3 (51167) - http://www.bohemiancoding.com/sketch -->
    <title>Group</title>
    <desc>Created with Sketch.</desc>
    <defs/>
    <g id="Page-1" stroke="none" fill-rule="evenodd">
        <g id="未标题-1" fill-rule="nonzero">
            <g id="Group">
                <path d="M32,0.4 C31.6,0.4 31.3,0.3 30.9,0.3 C25.8,0.4 21.8,4.5 21.8,9.6 C21.9,14.7 26,18.7 31.1,18.7 C31.6,18.7 32.1,18.6 32.5,18.6 C30.3,16.3 28.9,13.1 28.8,9.4 C28.9,5.9 30.1,2.7 32,0.4 Z" id="Shape" fill="#F1A900" stroke-width="1"/>
                <path d="M33.7,18.7 C34,18.8 34.4,18.8 34.8,18.8 C39.9,19.1 44.2,15.3 44.5,10.2 C44.8,5.1 41,0.8 35.9,0.5 C35.4,0.5 34.9,0.5 34.5,0.5 C36.5,2.9 37.7,6.3 37.5,10 C37.2,13.4 35.8,16.5 33.7,18.7 Z" id="Shape" fill="#F1A900" stroke-width="1"/>
                <path d="M44.8,15.5 C44.8,20.7 39.6,24.9 33.2,24.9 C26.8,24.9 21.6,20.7 21.6,15.5 C21.6,10.3 26.8,8.2 33.2,8.2 C39.6,8.2 44.8,10.3 44.8,15.5 Z" id="Shape" fill="#F1A900" stroke-width="1"/>
                <path d="M52.1,34.5 C52.1,47.1 45.8,59.2 33.3,59.2 C20.8,59.2 14.5,47.1 14.5,34.5 C14.5,21.9 20.8,19.6 33.3,19.6 C45.8,19.6 52.1,21.9 52.1,34.5 Z" id="Shape" fill="#B24300" stroke-width="1"/>
                <path d="M16.8,27.3 C16.7,27.2 16.6,27.1 16.6,27 L11.9,17.4 C11.8,17.2 11.8,16.9 11.8,16.7 L13.4,9.8 C13.5,9.2 14.1,8.8 14.7,9 C15.3,9.1 15.7,9.7 15.5,10.3 L14,16.9 L18.5,26.1 C18.8,26.6 18.5,27.3 18,27.6 C17.6,27.7 17.1,27.6 16.8,27.3 Z" id="Shape" fill="#EB5C01" stroke-width="1"/>
                <path d="M19.5,37.9 L7.9,33.3 C7.8,33.3 7.8,33.2 7.7,33.2 L0.7,28.9 C0.2,28.6 2.3869795e-15,27.9 0.3,27.4 C0.6,26.9 1.3,26.7 1.8,27 L8.7,31.3 L20.2,35.9 C20.8,36.1 21,36.8 20.8,37.3 C20.6,37.8 20.1,38.1 19.5,37.9 Z" id="Shape" fill="#EB5C01" stroke-width="1"/>
                <path d="M3.4,51.2 C3.2,51.1 3,50.9 2.9,50.6 C2.7,50 2.9,49.4 3.5,49.2 L13.2,45.3 C13.4,45.2 13.6,45.2 13.8,45.2 L22.3,46.8 C22.9,46.9 23.3,47.5 23.2,48.1 C23.1,48.7 22.5,49.1 21.9,49 L13.7,47.4 L4.3,51.1 C4,51.4 3.7,51.4 3.4,51.2 Z" id="Shape" fill="#EB5C01" stroke-width="1"/>
                <path d="M48.7,27.3 C48.4,27.6 47.9,27.7 47.4,27.5 C46.9,27.2 46.6,26.6 46.9,26 L51.6,16.9 L50.3,10.3 C50.2,9.7 50.6,9.1 51.2,9 C51.8,8.9 52.4,9.3 52.5,9.9 L53.9,16.9 C54,17.1 53.9,17.4 53.8,17.6 L48.9,27.1 C48.8,27.1 48.8,27.2 48.7,27.3 Z" id="Shape" fill="#EB5C01" stroke-width="1"/>
                <path d="M58.3,32.9 L46.9,37.9 C46.3,38.1 45.7,37.9 45.5,37.3 C45.3,36.7 45.5,36.1 46.1,35.9 L57.4,30.9 L64.1,26.4 C64.6,26.1 65.3,26.2 65.6,26.7 C65.9,27.2 65.8,27.9 65.3,28.2 L58.5,32.7 C58.4,32.9 58.3,32.9 58.3,32.9 Z" id="Shape" fill="#EB5C01" stroke-width="1"/>
                <path d="M63,50.4 C62.7,50.6 62.4,50.6 62.1,50.5 L52.4,47.6 L44.4,49.9 C43.8,50.1 43.2,49.7 43,49.1 C42.8,48.5 43.2,47.9 43.8,47.7 L52.1,45.3 C52.3,45.2 52.5,45.2 52.7,45.3 L62.7,48.3 C63.3,48.5 63.6,49.1 63.4,49.7 C63.3,50 63.2,50.3 63,50.4 Z" id="Shape" fill="#EB5C01" stroke-width="1"/>
                <g id="Shape">
                    <path d="M 33.2 19.6 C 20.9 19.6 14.4 22.1 14.4 34.5 C 14.4 45.7 19.4 56.6 29.4 58.8 C 31.7 51.3 33.2 41 33.2 29.6 C 33.2 26.1 33.5 22.8 33.2 19.6 Z " fill="#D54C02" stroke-width="1"/>
                    <path d="M 29.5 58.9 L 29.4 58.9 C 24.7 57.9 20.7 54.8 18 50.1 C 15.6 45.8 14.2 40.3 14.2 34.5 C 14.2 21.9 20.9 19.5 33.2 19.4 L 33.3 19.4 L 33.3 19.5 C 33.5 21.6 33.4 23.8 33.4 26 C 33.4 27.1 33.3 28.3 33.3 29.5 C 33.3 40.5 31.9 50.9 29.5 58.8 L 29.5 58.9 Z " fill="#EB5C01" stroke-width="1"/>
                </g>
                <g id="Shape">
                    <path d="M 33.2 19.6 C 45.5 19.6 52 22.1 52 34.5 C 52 45.7 47 56.6 37 58.8 C 34.7 51.3 33.2 41 33.2 29.6 C 33.2 26.1 33 22.8 33.2 19.6 Z " fill="#D54C02" stroke-width="1"/>
                    <path d="M 36.9 58.9 L 36.9 58.8 C 34.4 51 33.1 40.6 33.1 29.5 C 33.1 28.3 33.1 27.2 33 26 C 32.9 23.7 32.9 21.6 33.1 19.5 L 33.1 19.4 L 33.2 19.4 C 45.5 19.4 52.2 21.9 52.2 34.5 C 52.2 40.3 50.9 45.8 48.4 50.1 C 45.7 54.8 41.8 57.9 37 58.9 L 36.9 58.9 Z " fill="#EB5C01" stroke-width="1"/>
                </g>
                <g id="Oval">
                    <ellipse fill="#FEFEFE" transform="matrix(0.02833637421507329,-0.9995984443246915,0.9995984443246915,0.02833637421507329,34.421116877434066,15.444199766323369)" cx="3.52529201" cy="3.00548766" rx="2.90000451" ry="2.50000389" stroke-width="1"/>
                    <ellipse fill="#6D2C05" transform="matrix(0.02833637421507329,-0.9995984443246915,0.9995984443246915,0.02833637421507329,34.90953778146894,15.827314514637656)" cx="3.96656658" cy="2.94581402" rx="2.50000389" ry="2.10000327" stroke-width="1"/>
                </g>
                <g id="Oval">
                    <ellipse fill="#FEFEFE" transform="matrix(0.02833637421507329,-0.9995984443246915,0.9995984443246915,0.02833637421507329,25.772170694486338,15.030182721698765)" cx="2.9878588" cy="3.1322813" rx="2.90000451" ry="2.50000389" stroke-width="1"/>
                    <ellipse fill="#6D2C05" transform="matrix(0.02833637421507329,-0.9995984443246915,0.9995984443246915,0.02833637421507329,26.363363142313744,15.31890564167341)" cx="3.43196701" cy="2.97254766" rx="2.50000389" ry="2.10000327" stroke-width="1"/>
                </g>
            </g>
        </g>
    </g>
</svg>