<?xml version="1.0" encoding="UTF-8"?><svg xmlns="http://www.w3.org/2000/svg" xmlns:xlink="http://www.w3.org/1999/xlink" width="68.73062896728516" height="60.30000305175781" viewBox="-0.31531423330307007 -0.3999999985098839 68.73062896728516 60.30000305175781" version="1.1">
    <!-- Generator: Sketch 49.3 (51167) - http://www.bohemiancoding.com/sketch -->
    <title>Group</title>
    <desc>Created with Sketch.</desc>
    <defs/>
    <g id="Page-1" stroke="none" fill-rule="evenodd">
        <g id="未标题-1" fill-rule="nonzero">
            <g id="Group">
                <path d="M30.5,0.2 C30.2,0.3 29.8,0.3 29.5,0.4 C24.6,1.9 21.9,7 23.4,11.8 C24.9,16.7 30,19.4 34.8,17.9 C35.3,17.8 35.7,17.6 36.1,17.4 C33.4,15.8 31.1,13.1 30,9.5 C29,6.3 29.3,2.9 30.5,0.2 Z" id="Shape" fill="#F1A900" stroke-width="1"/>
                <path d="M32.1,17.3 C32.4,17.5 32.7,17.6 33.1,17.7 C37.8,19.5 43.1,17.1 45,12.4 C46.8,7.7 44.4,2.4 39.7,0.5 C39.2,0.3 38.8,0.2 38.3,0.1 C39.5,3 39.6,6.6 38.3,10 C37,13.4 34.7,15.9 32.1,17.3 Z" id="Shape" fill="#F1A900" stroke-width="1"/>
                <path d="M45.8,15.7 C45.8,20.9 40.6,25.1 34.2,25.1 C27.8,25.1 22.6,20.9 22.6,15.7 C22.6,10.5 27.8,8.4 34.2,8.4 C40.6,8.4 45.8,10.5 45.8,15.7 Z" id="Shape" fill="#F1A900" stroke-width="1"/>
                <path d="M53.1,34.7 C53.1,47.3 46.8,59.4 34.3,59.4 C21.8,59.4 15.5,47.3 15.5,34.7 C15.5,22.1 21.8,19.8 34.3,19.8 C46.8,19.8 53.1,22.2 53.1,34.7 Z" id="Shape" fill="#B24300" stroke-width="1"/>
                <path d="M20.9,24.4 C20.8,24.4 20.7,24.4 20.5,24.3 L10.5,20.7 C10.3,20.6 10.1,20.5 9.9,20.2 L6.1,14.1 C5.8,13.6 5.9,12.9 6.5,12.6 C7,12.3 7.7,12.4 8,13 L11.5,18.7 L21.2,22.1 C21.8,22.3 22.1,22.9 21.9,23.5 C21.8,24.2 21.3,24.4 20.9,24.4 Z" id="Shape" fill="#EB5C01" stroke-width="1"/>
                <path d="M21.9,34.6 L9.4,34.6 C9.3,34.6 9.3,34.6 9.2,34.6 L1.1,33.2 C0.5,33.1 0.1,32.5 0.2,31.9 C0.3,31.3 0.9,30.9 1.5,31 L9.5,32.4 L21.9,32.4 C22.5,32.4 23,32.9 23,33.5 C23,34.2 22.6,34.6 21.9,34.6 Z" id="Shape" fill="#EB5C01" stroke-width="1"/>
                <path d="M7.9,55.7 C7.6,55.7 7.4,55.6 7.2,55.4 C6.7,55 6.7,54.3 7.1,53.8 L13.9,45.9 C14,45.7 14.2,45.6 14.4,45.6 L22.7,43.1 C23.3,42.9 23.9,43.3 24.1,43.8 C24.3,44.4 23.9,45 23.4,45.2 L15.4,47.6 L8.8,55.2 C8.5,55.5 8.2,55.7 7.9,55.7 Z" id="Shape" fill="#EB5C01" stroke-width="1"/>
                <path d="M47.3,24.4 C46.8,24.4 46.4,24.1 46.3,23.7 C46.1,23.1 46.4,22.5 47,22.3 L56.7,18.9 L60.2,13.2 C60.5,12.7 61.2,12.5 61.7,12.8 C62.2,13.1 62.4,13.8 62.1,14.3 L58.3,20.4 C58.2,20.6 58,20.8 57.7,20.9 L47.7,24.5 C47.6,24.4 47.4,24.4 47.3,24.4 Z" id="Shape" fill="#EB5C01" stroke-width="1"/>
                <path d="M58.7,34.6 L46.2,34.6 C45.6,34.6 45.1,34.1 45.1,33.5 C45.1,32.9 45.6,32.4 46.2,32.4 L58.6,32.4 L66.6,31 C67.2,30.9 67.8,31.3 67.9,31.9 C68,32.5 67.6,33.1 67,33.2 L58.9,34.6 C58.8,34.6 58.8,34.6 58.7,34.6 Z" id="Shape" fill="#EB5C01" stroke-width="1"/>
                <path d="M60.3,55.7 C60,55.7 59.7,55.6 59.5,55.3 L52.9,47.7 L44.9,45.3 C44.3,45.1 44,44.5 44.2,43.9 C44.4,43.3 45,43 45.6,43.2 L53.9,45.7 C54.1,45.8 54.3,45.9 54.4,46 L61.2,53.9 C61.6,54.4 61.5,55.1 61.1,55.5 C60.8,55.6 60.6,55.7 60.3,55.7 Z" id="Shape" fill="#EB5C01" stroke-width="1"/>
                <g id="Shape">
                    <path d="M 34.2 19.8 C 21.9 19.8 15.4 22.3 15.4 34.7 C 15.4 45.9 20.4 56.8 30.4 59 C 32.7 51.5 34.2 41.2 34.2 29.8 C 34.2 26.4 34.5 23 34.2 19.8 Z " fill="#D54C02" stroke-width="1"/>
                    <path d="M 30.5 59.2 L 30.4 59.2 C 25.7 58.2 21.7 55.1 19 50.4 C 16.6 46.1 15.2 40.6 15.2 34.8 C 15.2 22.2 21.9 19.8 34.2 19.7 L 34.3 19.7 L 34.3 19.8 C 34.5 21.9 34.4 24.1 34.4 26.3 C 34.4 27.4 34.3 28.6 34.3 29.8 C 34.3 40.8 32.9 51.2 30.5 59.1 L 30.5 59.2 Z " fill="#EB5C01" stroke-width="1"/>
                </g>
                <g id="Shape">
                    <path d="M 34.2 19.8 C 46.5 19.8 53 22.3 53 34.7 C 53 45.9 48 56.8 38 59 C 35.7 51.5 34.2 41.2 34.2 29.8 C 34.2 26.4 34 23 34.2 19.8 Z " fill="#D54C02" stroke-width="1"/>
                    <path d="M 37.9 59.2 L 37.9 59.1 C 35.4 51.3 34.1 40.9 34.1 29.8 C 34.1 28.6 34.1 27.5 34 26.3 C 33.9 24 33.9 21.9 34.1 19.8 L 34.1 19.7 L 34.2 19.7 C 46.5 19.7 53.2 22.2 53.2 34.8 C 53.2 40.6 51.9 46.1 49.4 50.4 C 46.7 55.1 42.8 58.2 38 59.2 L 37.9 59.2 Z " fill="#EB5C01" stroke-width="1"/>
                </g>
                <g id="Oval">
                    <ellipse fill="#FEFEFE" transform="matrix(0.02833637421507329,-0.9995984443246915,0.9995984443246915,0.02833637421507329,35.21400660993896,15.738217187493905)" cx="3.57297201" cy="3.25902931" rx="2.90000451" ry="2.50000389" stroke-width="1"/>
                    <ellipse fill="#6D2C05" transform="matrix(0.02833637421507329,-0.9995984443246915,0.9995984443246915,0.02833637421507329,35.79355688263531,15.257293225921536)" cx="3.61537201" cy="2.7204611" rx="2.50000389" ry="2.10000327" stroke-width="1"/>
                </g>
                <g id="Oval">
                    <ellipse fill="#FEFEFE" transform="matrix(0.02833637421507329,-0.9995984443246915,0.9995984443246915,0.02833637421507329,26.56505942739279,15.324201114532928)" cx="3.0355388" cy="3.38582295" rx="2.90000451" ry="2.50000389" stroke-width="1"/>
                    <ellipse fill="#6D2C05" transform="matrix(0.02833637421507329,-0.9995984443246915,0.9995984443246915,0.02833637421507329,27.05031506604689,14.740603597750386)" cx="2.9779788" cy="2.8444211" rx="2.50000389" ry="2.10000327" stroke-width="1"/>
                </g>
            </g>
        </g>
    </g>
</svg>