<?xml version="1.0" encoding="UTF-8"?><svg xmlns="http://www.w3.org/2000/svg" xmlns:xlink="http://www.w3.org/1999/xlink" width="91.70000457763672" height="115.69419860839844" viewBox="0.10000002384185791 -0.4941987991333008 91.70000457763672 115.69419860839844" version="1.1">
    <!-- Generator: Sketch 49.3 (51167) - http://www.bohemiancoding.com/sketch -->
    <title>Group</title>
    <desc>Created with Sketch.</desc>
    <defs/>
    <g id="Page-1" stroke="none" fill-rule="evenodd">
        <g id="未标题-2">
            <g id="Group">
                <g>
                    <path d="M46.5,91 C50,107.7 47.6,107.6 55.6,107.7 C60.7,107.7 60.3,95.3 60.4,86.6" id="Shape" fill="#5F5E5D" fill-rule="nonzero" stroke-width="1"/>
                    <path d="M47.8,97.8 L60.3,97.1 L59.6,105.8 C59.6,105.8 64.2,105.2 65.2,106.8 C66.6,109 65.4,113.5 65.4,113.5 C65.4,113.5 49.2,114.5 48.9,113.4 C48.5,112.1 47.8,97.8 47.8,97.8 Z" id="Shape" fill="#2B2B28" fill-rule="nonzero" stroke-width="1"/>
                    <path d="M37.5,90.6 C36.6,102.5 31.9,106.3 38.1,107.8 C43.1,109 52.4,98 54.4,89.7" id="Shape" fill="#7A7A7A" fill-rule="nonzero" stroke-width="1"/>
                    <path d="M35.9,94.1 L49.5,99.6 L44.1,107.7 C44.1,107.7 47.4,109.1 47.4,111 C47.4,113.6 45.3,114.7 45.3,114.7 L40.2,114.6 C38.9,114.6 30.7,109.5 31,108.5 C31.4,107 35.9,94.1 35.9,94.1 Z" id="Shape" fill="#231815" fill-rule="nonzero" stroke-width="1"/>
                    <g fill-rule="nonzero">
                        <g id="Shape">
                            <path d="M 45.3 95.6 C 37.2 94.8 33.7 92.1 31.4 90 C 31.2 90.4 31 90.7 30.9 90.9 C 33.2 93 36.6 96 45.2 96.9 C 57.4 98.2 62.1 94.7 65.4 93.2 C 65.3 93 65.2 92.6 65.1 92.1 C 61.9 93.6 57.1 96.8 45.3 95.6 Z " fill="#D1D1D2" stroke-width="1"/>
                            <path d="M 65.2 92 C 64.6 90 63.3 85.8 62.6 83.3 C 56.9 84.5 52.1 85 48.1 85 C 41.5 85 37.2 83.8 35.1 83 C 34 85 32.3 88.3 31.5 89.9 C 33.8 92 37.3 94.7 45.4 95.5 C 57.1 96.8 61.9 93.6 65.2 92 Z " fill="#7A7A7A" stroke-width="1"/>
                        </g>
                        <path d="M 46.1 66.4 L 53.4 66.4 L 59.6 66.8 C 56.6 60.5 51.2 58.7 43.2 58.7 C 34.4 58.7 35.6 76.7 35.6 76.7 C 35.8 78.4 35.7 79.9 35.9 81.2 C 37.7 81.8 41.1 82.7 46.1 82.9 L 46.1 66.4 Z " id="Shape" fill="#7A7A7A" stroke-width="1"/>
                        <path d="M 61.9 76.4 L 61.9 81.4 C 62 79.8 62 78.1 61.9 76.4 Z " id="Shape" fill="#7A7A7A" stroke-width="1"/>
                        <path d="M 46.1 66.4 L 46.1 83 C 50.3 83.2 55.5 82.8 61.9 81.5 L 61.9 76.5 C 61.8 74.9 61.6 73.4 61.3 72.2 C 60.9 70.2 60.3 68.4 59.6 66.9 L 53.4 66.5 L 46.1 66.5 L 46.1 66.4 Z " id="Shape" fill="#5F5E5D" stroke-width="1"/>
                        <path d="M 54 83.75 L 46.1 84.1 L 46.1 82.9 C 50.2 83.1 55.5 82.8 61.9 81.4 L 61.9 83.4 L 54 83.75 L 61.9 83.4 L 61.9 81.4 C 62 81.7 62.2 82.4 62.5 83.3 C 56.9 84.6 52 85 48 85.1 C 41.4 85.1 37.1 83.9 35 83.1 C 35.5 82.2 35.8 81.6 35.9 81.4 C 35.9 81.3 35.9 81.3 35.9 81.2 C 37.7 81.8 41.1 82.7 46.1 82.9 L 46.1 84.1 L 54 83.75 Z " id="Combined-Shape" fill="#231815" stroke-width="1"/>
                    </g>
                    <g fill-rule="nonzero" id="Shape">
                        <path d="M 32 64.4 L 29.7 65.3 C 29.7 65.3 49 73.6 64.9 66.4 L 62.8 65.5 C 50.8 69.9 37.3 66.2 32 64.4 Z " fill="#D1D1D2" stroke-width="1"/>
                        <path d="M 62.9 65.4 L 58 63.2 C 58 63.2 48.6 64.1 38.9 61.5 L 32.1 64.3 C 37.3 66.2 50.8 69.9 62.9 65.4 Z " fill="#231815" stroke-width="1"/>
                    </g>
                    <g id="Shape">
                        <path d="M 69.7 33.8 C 63.5 29.8 50.1 31.6 49.8 31.7 C 49.6 31.8 49.5 31.8 49.3 31.8 C 49.1 31.8 48.9 32.1 48.8 31.9 C 47.2 26.5 48.4 32 48.2 32.1 C 48.1 32.1 48 32.2 47.8 32.2 C 47.6 32.3 47.4 32.3 47.1 32.4 C 41.2 32 35.1 31.3 34.6 37.2 C 34.3 40.8 37.5 48.1 40.5 49.5 C 40.4 49.9 40.3 50.3 40.3 50.7 C 40.3 50.8 40.3 50.8 40.3 50.9 C 40.2 51.3 40.1 51.6 40.1 52 C 40.1 52.1 40.1 52.1 40.1 52.2 C 39.8 53.6 39.4 54.9 39.1 55.9 C 39.1 56 39 56.1 39 56.2 C 38.9 56.4 38.9 56.6 38.8 56.8 C 38.8 56.9 38.7 57 38.7 57.1 C 38.6 57.3 38.6 57.4 38.5 57.6 C 38.4 57.7 38.4 57.8 38.3 57.9 C 38.2 58 38.2 58.2 38.1 58.3 C 38 58.4 38 58.5 37.9 58.6 C 37.8 58.8 37.7 58.9 37.6 59.1 C 37.5 59.2 60.2 63 67.3 57.7 C 74.9 51.9 71.6 46.9 69.7 33.8 Z " stroke="#D8AF93" stroke-width="0.25" fill="#FFEDD6" fill-rule="nonzero"/>
                        <path d="M 49.2 37.1 C 49.1 37.1 49 37.2 48.8 37.2 C 48.9 37.1 49.1 37.1 49.2 37.1 Z " stroke-width="1" fill="none"/>
                        <path d="M 38.4 57.5 C 38.3 57.6 38.3 57.7 38.2 57.8 C 38.3 57.7 38.3 57.6 38.4 57.5 Z " stroke-width="1" fill="none"/>
                        <path d="M 38.7 56.7 C 38.7 56.8 38.6 56.9 38.6 57 C 38.6 56.9 38.7 56.8 38.7 56.7 Z " stroke-width="1" fill="none"/>
                        <path d="M 50.3 36.8 C 50.1 36.8 50 36.9 49.8 36.9 C 50 36.9 50.1 36.8 50.3 36.8 Z " stroke-width="1" fill="none"/>
                        <path d="M 40.1 51.9 C 40.1 52 40.1 52 40.1 52.1 C 40.1 52.1 40.1 52 40.1 51.9 Z " stroke-width="1" fill="none"/>
                        <path d="M 39 55.9 C 39 56 38.9 56.1 38.9 56.2 C 38.9 56.1 39 56 39 55.9 Z " stroke-width="1" fill="none"/>
                        <path d="M 40.4 50.7 C 40.4 50.8 40.4 50.8 40.4 50.9 C 40.3 50.8 40.4 50.7 40.4 50.7 Z " stroke-width="1" fill="none"/>
                        <path d="M 49.8 36.9 C 49.6 37 49.4 37 49.2 37.1 C 49.4 37 49.6 37 49.8 36.9 Z " fill="#2F1B1C" fill-rule="nonzero" stroke-width="1"/>
                        <path d="M 50.8 36.6 C 50.6 36.7 50.5 36.7 50.3 36.7 C 50.5 36.7 50.6 36.7 50.8 36.6 Z " fill="#2F1B1C" fill-rule="nonzero" stroke-width="1"/>
                        <path d="M 40.3 50.9 C 40.2 51.3 40.1 51.6 40.1 52 C 40.2 51.6 40.2 51.2 40.3 50.9 Z " fill="#2F1B1C" fill-rule="nonzero" stroke-width="1"/>
                        <path d="M 38.9 56.1 C 38.8 56.3 38.8 56.5 38.7 56.7 C 38.8 56.5 38.8 56.3 38.9 56.1 Z " fill="#2F1B1C" fill-rule="nonzero" stroke-width="1"/>
                        <path d="M 40 52.1 C 39.7 53.5 39.3 54.8 39 55.8 C 39.4 54.8 39.7 53.6 40 52.1 Z " fill="#2F1B1C" fill-rule="nonzero" stroke-width="1"/>
                        <path d="M 38.6 57 C 38.5 57.2 38.5 57.3 38.4 57.5 C 38.4 57.4 38.5 57.2 38.6 57 Z " fill="#2F1B1C" fill-rule="nonzero" stroke-width="1"/>
                    </g>
                    <polygon id="Shape" fill="#F4A88A" fill-rule="nonzero" points="39.3 42.2 46.5 44.9 47 42.4" stroke-width="1"/>
                    <path d="M69.5,29.9 C69.5,29.9 72.8,32.5 71.6,35.2 C69.6,39.7 48.6,34.3 48.6,34.3 C48.6,34.3 54.1,39.1 43,38.2 C31.9,37.3 49,23.3 49,23.3 L69.5,29.9 Z" id="Shape" fill="#2F1B1C" fill-rule="nonzero" stroke-width="1"/>
                    <circle id="Oval" fill="#2F1B1C" fill-rule="nonzero" cx="61.2" cy="44.5" r="3.8" stroke-width="1"/>
                    <g fill-rule="nonzero">
                        <path d="M33.3,12 C33.3,12 32.9,-3.4 20,0.7 C8,4.5 16.6,16.5 10.9,18 C6.1,19.4 0.6,20.7 0.6,27.5 C0.6,34.6 11.1,36.7 7,40.2 C3.7,43 2.7,47.3 8.3,51.4 C12.5,54.5 0.6,58.2 0.6,58.2 C8.1,60.8 27,60 20.4,47.9 C19,42.6 28.4,45.8 28.2,37.1 C28,28.4 21.7,29.4 25.2,23.3 C28.7,17.2 33.3,12 33.3,12 Z" id="Shape" fill="#2E3192" stroke-width="1"/>
                        <g id="Shape">
                            <path d="M 68.3 20.6 C 60 6 37.5 6.5 28.5 12.9 C 25.5 15 23.1 17.7 21.4 20.9 C 28.9 20.2 37 19.8 45.6 19.8 C 53.7 19.7 61.3 20 68.3 20.6 Z " fill="#7A7A7A" stroke-width="1"/>
                            <path d="M 18.7 28.5 C 17.3 35.7 18.8 44 23.9 51.6 C 31.8 63.4 56.8 67.2 64.7 60.9 C 65.9 60 67 59 68 57.8 C 51.4 57.8 51.1 32.1 51.1 32.1 L 71.5 32.1 C 71.4 30.8 71.3 29.6 71.1 28.4 C 62.7 28.4 54.4 28.4 46 28.4 C 36.8 28.5 27.8 28.5 18.7 28.5 Z " fill="#7A7A7A" stroke-width="1"/>
                            <path d="M 45.7 19.8 C 37.1 19.8 29 20.2 21.5 20.9 C 20.2 23.2 19.3 25.8 18.8 28.5 C 27.9 28.5 36.9 28.5 46 28.5 C 54.4 28.5 62.7 28.5 71.1 28.5 C 70.6 25.5 69.7 22.8 68.4 20.6 C 61.3 20 53.7 19.7 45.7 19.8 Z " fill="#EEEFEF" stroke-width="1"/>
                        </g>
                        <circle id="Oval" fill="#B0B1B2" cx="24.9" cy="24.9" r="1.5" stroke-width="1"/>
                        <circle id="Oval" fill="#B0B1B2" cx="34.9" cy="24.9" r="1.5" stroke-width="1"/>
                        <circle id="Oval" fill="#B0B1B2" cx="44.9" cy="24.9" r="1.5" stroke-width="1"/>
                        <circle id="Oval" fill="#B0B1B2" cx="54.9" cy="24.9" r="1.5" stroke-width="1"/>
                        <circle id="Oval" fill="#B0B1B2" cx="64.9" cy="24.9" r="1.5" stroke-width="1"/>
                    </g>
                    <path d="M61.7,62.5 C61.7,62.5 70.9,61.8 73.7,49.5 C67.4,49.3 54.5,48.3 54.5,48.3 C58.7,58.7 61.3,62 61.7,62.5 Z" id="Shape" fill="#5F5E5D" fill-rule="nonzero" stroke-width="1"/>
                    <path d="M66.2,83.2 C62,87.3 53.1,80.5 53.1,80.5 C50.3,79 47.7,77 45.5,74.7 C42.9,72 42.6,68.3 44.8,66.6 C47,64.9 50.9,65.7 53.6,68.5 L53.8,68.7 C56.1,71.1 63.1,73.9 63.1,73.9 C67,75.9 68.9,80.6 66.7,82.9 C66.5,83 66.3,83.1 66.2,83.2 Z" id="Shape" stroke="#D8AF93" stroke-width="0.25" fill="#FFEDD6" fill-rule="nonzero"/>
                    <path d="M53.5,68.5 C50.9,65.8 47,64.9 44.7,66.6 C42.5,68.3 42.8,71.9 45.4,74.7 C47.6,77 50.2,79 53,80.5 C53,80.5 54.2,81.5 56,82.4 L61.8,73.4 C59.8,72.5 55.3,70.5 53.5,68.6 L53.5,68.5 Z" id="Shape" fill="#B0B1B2" fill-rule="nonzero" stroke-width="1"/>
                    <path d="M44.2,76.5 C38.4,71.7 39.2,65.7 44.3,62.9 C49.5,60.1 54.5,67.7 54.5,67.7 L44.2,76.5 Z" id="Shape" fill="#5F5E5D" fill-rule="nonzero" stroke-width="1"/>
                </g>
                <g fill-rule="nonzero" id="Shape">
                    <path d="M 91.3 60.2 C 90.5 60.5 85.1 58.7 83.5 56.5 C 81.4 53.8 78.6 50 77.6 47.7 C 75.8 50.5 74.3 53.3 73 56.2 C 73 56.2 73 56.2 73 56.2 C 60.8 82 65.6 107 67.3 113.8 C 67.9 113.2 68.5 112.7 69.1 112.1 C 67.2 103 64.3 80.3 75.4 56.8 C 76.1 55.5 76.9 54.1 77.7 52.8 C 79.1 55.1 81.2 57.9 82.8 60 C 84.6 62.3 87.3 63.8 90.3 63.9 C 90.5 63.9 90.6 63.9 90.7 63.9 C 91 62.1 91.2 60.8 91.3 60.2 Z M 76.8 51.5 C 76.8 51.5 76.9 51.6 76.8 51.5 C 76.9 51.6 76.8 51.5 76.8 51.5 Z " fill="#5F5E5D" stroke-width="1"/>
                    <g>
                        <path d="M 69 112.1 C 69.3 111.8 69.5 111.5 69.8 111.2 C 69.4 110.8 68.9 110.3 68.6 109.9 C 68.7 110.7 68.9 111.4 69 112.1 Z " fill="#EEEFEF" stroke-width="1"/>
                        <path d="M 83.3 81.8 C 77.5 78.9 71.3 76.4 71.3 76.3 C 73.1 74.6 72.7 71.1 72.7 71.1 C 74.3 73 79.5 75.6 84.7 77.9 C 85.7 74.7 86.4 72.4 86.6 71.6 C 87.6 66.9 87.2 64 87 63.1 C 85.4 62.4 83.9 61.3 82.8 59.9 C 81.2 57.8 79.1 55 77.7 52.7 C 76.9 54 76.1 55.4 75.4 56.7 C 65.4 77.8 66.8 98.3 68.5 108.9 C 73.2 108 79.5 92.6 83.3 81.8 Z " fill="#EEEFEF" stroke-width="1"/>
                        <path d="M 67.8 109 C 67.9 109.1 68.2 109.4 68.6 109.9 C 68.5 109.6 68.5 109.3 68.4 108.9 C 68.2 109 68 109 67.8 109 Z " fill="#5F5E5D" stroke-width="1"/>
                        <path d="M 90.5 64.3 C 90.5 64.2 90.5 64.1 90.6 64 C 90.5 64 90.4 64 90.2 64 C 89.9 64 89.6 64 89.3 63.9 C 88.5 63.8 87.7 63.6 86.9 63.2 C 87.1 64 87.5 67 86.5 71.7 C 86.3 72.5 85.6 74.8 84.6 78 C 79.4 75.7 74.3 73.1 72.6 71.2 C 72.6 71.2 71.5 77.8 69.7 79.5 C 69.8 79.5 77.5 79 83.3 81.8 C 79.6 92.6 74.9 101.4 68.5 109 C 68.6 109.3 68.6 109.7 68.7 110 C 69.1 110.4 69.5 110.9 69.9 111.3 C 82.5 97.5 88.5 74 90.5 64.3 Z " fill="#2E3192" stroke-width="1"/>
                    </g>
                </g>
            </g>
        </g>
    </g>
</svg>