<svg version="1.1" xmlns="http://www.w3.org/2000/svg" xmlns:xlink="http://www.w3.org/1999/xlink" width="93.8" height="114.12464" viewBox="0,0,93.8,114.12464"><g transform="translate(-192.6,-122.8058)"><g data-paper-data="{&quot;isPaintingLayer&quot;:true}" fill="none" fill-rule="none" stroke="none" stroke-width="none" stroke-linecap="butt" stroke-linejoin="miter" stroke-miterlimit="10" stroke-dasharray="" stroke-dashoffset="0" font-family="none" font-weight="none" font-size="none" text-anchor="none" style="mix-blend-mode: normal"><g fill-rule="nonzero" stroke="none" stroke-width="1"><path d="M260.7,197.1l-1.3,-1.4l20.6,-23.2l6.4,-1.1" id="Shape" fill="#eeefef"/><path d="M251.9,205.9l-1,-1l6.4,-7.2l-1.9,-1.9l0.6,-0.6c0.7,-0.7 1.7,-0.7 2.4,0l2.1,2.1" id="Shape" fill="#cb9b0c"/><path d="M248.66851,209.07273c-1.01535,-1.01535 -1.01535,-2.66156 0,-3.67692c1.01535,-1.01535 2.66156,-1.01535 3.67692,0c1.01535,1.01535 1.01535,2.66156 0,3.67692c-1.01535,1.01535 -2.66156,1.01535 -3.67692,0z" id="Oval" fill="#2b2b28"/><path d="M286.3,171.3l-1.1,6.3l-23.3,20.7l-1.3,-1.3" id="Shape" fill="#d1d1d2"/><path d="M260.5,197.3l2.1,2.1c0.7,0.7 0.7,1.7 0,2.4l-0.6,0.6l-1.9,-1.9l-7.2,6.4l-1,-1" id="Shape" fill="#cb9b0c"/><path d="M248.66851,209.07273c-1.01535,-1.01535 -1.01535,-2.66156 0,-3.67692c1.01535,-1.01535 2.66156,-1.01535 3.67692,0c1.01535,1.01535 1.01535,2.66156 0,3.67692c-1.01535,1.01535 -2.66156,1.01535 -3.67692,0z" id="Oval" fill="#d6ae3c"/></g><g><path d="M251,214.7c-2.4,7.5 -22.7,18.1 -27.9,14.3c-2.7,-2 5.7,-10 9,-16.4" id="Shape" fill="#5f5e5d" fill-rule="nonzero" stroke="none" stroke-width="1"/><path d="M249.9,211.1c3,8.1 10.2,17.2 5.2,18.4c-6.1,1.5 -5.1,0.5 -20.1,-10.8" id="Shape" fill="#7a7a7a" fill-rule="nonzero" stroke="none" stroke-width="1"/><path d="M227.3,219.8l4.8,9.8l-2.5,1c0,0 1.8,3.1 0.6,4.6c-1.6,2.1 -3.9,1.7 -3.9,1.7l-4,-3.2c-1,-0.8 -1.8,-1.9 -2.2,-3.2c-0.9,-2.9 -2.3,-6.6 -1.5,-7.3c1.4,-0.9 8.7,-3.4 8.7,-3.4z" id="Shape" fill="#2b2b28" fill-rule="nonzero" stroke="none" stroke-width="1"/><path d="M248.3,229.9l7.7,-7.8l1.8,2c0,0 3.2,-3.4 4.9,-2.8c2.5,0.8 4.5,5 4.5,5c0,0 -11.8,11.1 -12.7,10.5c-1.3,-0.8 -6.2,-6.9 -6.2,-6.9z" id="Shape" fill="#231815" fill-rule="nonzero" stroke="none" stroke-width="1"/><g id="Shape"><path d="M259.3,180.5c-7.1,5.3 -29.8,1.5 -29.7,1.4c0.1,-0.2 0.2,-0.3 0.3,-0.5c0.1,-0.1 0.1,-0.2 0.2,-0.3c0.1,-0.1 0.1,-0.3 0.2,-0.4c0.1,-0.1 0.1,-0.2 0.2,-0.3c0.1,-0.2 0.1,-0.3 0.2,-0.5c0,-0.1 0.1,-0.2 0.1,-0.3c0.1,-0.2 0.1,-0.4 0.2,-0.6c0,-0.1 0.1,-0.2 0.1,-0.3c0.3,-1 0.7,-2.3 1,-3.7c0,-0.1 0,-0.1 0,-0.2c0,-0.4 0.1,-0.7 0.2,-1.1c0,-0.1 0,-0.1 0,-0.2c0,-0.4 0.1,-0.8 0.2,-1.2c-3,-1.4 -6.2,-8.7 -5.9,-12.3c0.5,-5.9 6.6,-5.2 12.5,-4.8c0.3,-0.1 0.5,-0.1 0.7,-0.2c0.2,0 0.3,-0.1 0.4,-0.1c0.2,-0.1 -1,-5.6 0.6,-0.2c0.1,0.2 0.3,-0.1 0.5,-0.1c0.2,0 0.3,0 0.5,-0.1c0.3,-0.1 13.7,-1.9 19.9,2.1c1.9,13.1 5.2,18.1 -2.4,23.9z" fill="#ffedd6" fill-rule="nonzero" stroke="#d8af93" stroke-width="0.25"/><path d="M241.2,159.9c-0.1,0 -0.2,0.1 -0.4,0.1c0.1,-0.1 0.3,-0.1 0.4,-0.1z" fill="none" fill-rule="evenodd" stroke="none" stroke-width="1"/><path d="M230.4,180.3c-0.1,0.1 -0.1,0.2 -0.2,0.3c0.1,-0.1 0.1,-0.2 0.2,-0.3z" fill="none" fill-rule="evenodd" stroke="none" stroke-width="1"/><path d="M230.6,179.8c0,-0.1 0.1,-0.2 0.1,-0.3c0,0.1 -0.1,0.2 -0.1,0.3z" fill="none" fill-rule="evenodd" stroke="none" stroke-width="1"/><path d="M242.3,159.6c-0.2,0 -0.3,0.1 -0.5,0.1c0.2,0 0.3,-0.1 0.5,-0.1z" fill="none" fill-rule="evenodd" stroke="none" stroke-width="1"/><path d="M232.1,174.7c0,0.1 0,0.1 0,0.2c0,0 0,-0.1 0,-0.2z" fill="none" fill-rule="evenodd" stroke="none" stroke-width="1"/><path d="M231,178.7c0,0.1 -0.1,0.2 -0.1,0.3c0,-0.1 0.1,-0.2 0.1,-0.3z" fill="none" fill-rule="evenodd" stroke="none" stroke-width="1"/><path d="M232.4,173.5c0,0.1 0,0.1 0,0.2c-0.1,-0.1 0,-0.2 0,-0.2z" fill="none" fill-rule="evenodd" stroke="none" stroke-width="1"/><path d="M241.8,159.7c-0.2,0.1 -0.4,0.1 -0.6,0.2c0.2,-0.1 0.4,-0.1 0.6,-0.2z" fill="#2f1b1c" fill-rule="nonzero" stroke="none" stroke-width="1"/><path d="M242.8,159.4c-0.2,0.1 -0.3,0.1 -0.5,0.1c0.2,0 0.3,0 0.5,-0.1z" fill="#2f1b1c" fill-rule="nonzero" stroke="none" stroke-width="1"/><path d="M232.1,174.8c0,-0.4 0.1,-0.7 0.2,-1.1c-0.1,0.3 -0.1,0.7 -0.2,1.1z" fill="#2f1b1c" fill-rule="nonzero" stroke="none" stroke-width="1"/><path d="M230.9,178.9c-0.1,0.2 -0.1,0.4 -0.2,0.6c0.1,-0.2 0.1,-0.4 0.2,-0.6z" fill="#2f1b1c" fill-rule="nonzero" stroke="none" stroke-width="1"/><path d="M231,178.6c0.3,-1 0.7,-2.3 1,-3.7c-0.3,1.5 -0.6,2.7 -1,3.7z" fill="#2f1b1c" fill-rule="nonzero" stroke="none" stroke-width="1"/><path d="M230.6,179.8c-0.1,0.2 -0.1,0.3 -0.2,0.5c0,-0.1 0.1,-0.3 0.2,-0.5z" fill="#2f1b1c" fill-rule="nonzero" stroke="none" stroke-width="1"/></g><path d="M239,165.2l-0.5,2.5l-7.2,-2.7z" id="Shape" fill="#f4a88a" fill-rule="nonzero" stroke="none" stroke-width="1"/><path d="M261.5,152.7c0,0 3.3,2.6 2.1,5.3c-2,4.5 -23,-0.9 -23,-0.9c0,0 5.5,4.8 -5.6,3.9c-11.1,-0.9 6,-14.9 6,-14.9z" id="Shape" fill="#2f1b1c" fill-rule="nonzero" stroke="none" stroke-width="1"/><path d="M249.4,167.3c0,-2.09868 1.70132,-3.8 3.8,-3.8c2.09868,0 3.8,1.70132 3.8,3.8c0,2.09868 -1.70132,3.8 -3.8,3.8c-2.09868,0 -3.8,-1.70132 -3.8,-3.8z" id="Oval" fill="#2f1b1c" fill-rule="nonzero" stroke="none" stroke-width="1"/><g fill-rule="nonzero" stroke="none" stroke-width="1"><g id="Shape"><path d="M257.1,215.1c0.1,0.5 0.2,0.9 0.3,1.1c-3.3,1.5 -8,5 -20.2,3.7c-8.6,-0.9 -12,-3.9 -14.3,-6c0.1,-0.2 0.3,-0.5 0.5,-0.9c2.3,2.1 5.8,4.8 13.9,5.6c11.8,1.2 16.6,-2 19.8,-3.5z" fill="#d1d1d2"/><path d="M237.4,218.5c-8.1,-0.8 -11.6,-3.5 -13.9,-5.6c0.8,-1.6 2.5,-4.9 3.6,-6.9c2.1,0.8 6.4,2 13,2c4,0 8.8,-0.5 14.5,-1.7c0.7,2.5 2,6.7 2.6,8.7c-3.3,1.6 -8.1,4.8 -19.8,3.5z" fill="#7a7a7a"/></g><path d="M238.1,207c-5,-0.2091 -8.4,-1.15 -10.2,-1.7773c-0.2,-1.3591 -0.1,-2.9272 -0.3,-4.7045c0,0 -1.2,-18.8182 7.6,-18.8182c8,0 13.4,1.8818 16.4,8.4682l-6.2,-0.4182h-7.3z" id="Shape" fill="#7a7a7a"/><path d="M253.9,204.4v-5c0.1,1.7 0.1,3.5 0,5z" id="Shape" fill="#7a7a7a"/><path d="M238.1,189.5h7.3l6.2,0.4c0.7,1.5 1.3,3.3 1.7,5.3c0.3,1.2 0.5,2.7 0.6,4.3v5c-6.4,1.3 -11.6,1.7 -15.8,1.5v-16.6z" id="Shape" fill="#5f5e5d"/><path d="M243.7517,206.9496l-5.6517,0.2504v-1.2c4.1,0.1 9.4,-0.2 15.8,-1.5v2l-10.1483,0.4496l0.9056,-0.0401l4.6214,-0.2048l4.6213,-0.2047c0,-1.3333 0,-2 0,-2c0.1,0.3 0.3,1 0.6,1.9c-5.6,1.2 -10.5,1.6 -14.5,1.8c-6.6,0 -10.9,-1.2 -13,-2c0.5,-0.9 0.8,-1.5 0.9,-1.7c0,-0.1 0,-0.1 0,-0.2c1.8,0.6 5.2,1.5 10.2,1.7v1.2l4.7461,-0.2103z" id="Combined-Shape" fill="#231815"/></g><g id="Shape" fill-rule="nonzero" stroke="none" stroke-width="1"><path d="M254.8,188.5l2.1,0.9c-15.9,7.2 -35.2,-1.1 -35.2,-1.1l2.3,-0.9c5.3,1.8 18.8,5.5 30.8,1.1z" fill="#d1d1d2"/><path d="M224.1,187.4l6.8,-2.8c9.7,2.6 19.1,1.7 19.1,1.7l4.9,2.2c-12.1,4.4 -25.6,0.7 -30.8,-1.1z" fill="#231815"/></g><g fill-rule="nonzero" stroke="none" stroke-width="1"><path d="M217.2,146.1c-3.5,6.1 2.8,5.1 3,13.8c0.2,8.7 -9.2,5.5 -7.8,10.8c6.6,12.1 -12.3,12.9 -19.8,10.3c0,0 11.9,-3.7 7.7,-6.8c-5.6,-4.1 -4.6,-8.4 -1.3,-11.2c4.1,-3.5 -6.4,-5.6 -6.4,-12.7c0,-6.8 5.5,-8.1 10.3,-9.5c5.7,-1.5 -2.9,-13.5 9.1,-17.3c12.9,-4.1 13.3,11.3 13.3,11.3c0,0 -4.6,5.2 -8.1,11.3z" id="Shape" fill="#2e3192"/><g id="Shape"><path d="M237.6,142.6c-8.6,0 -16.7,0.4 -24.2,1.1c1.7,-3.2 4.1,-5.9 7.1,-8c9,-6.4 31.5,-6.9 39.8,7.7c-7,-0.6 -14.6,-0.9 -22.7,-0.8z" fill="#7a7a7a"/><path d="M238,151.2c8.4,0 16.7,0 25.1,0c0.2,1.2 0.3,2.4 0.4,3.7h-20.4c0,0 0.3,25.7 16.9,25.7c-1,1.2 -2.1,2.2 -3.3,3.1c-7.9,6.3 -32.9,2.5 -40.8,-9.3c-5.1,-7.6 -6.6,-15.9 -5.2,-23.1c9.1,0 18.1,0 27.3,-0.1z" fill="#7a7a7a"/><path d="M260.4,143.3c1.3,2.2 2.2,4.9 2.7,7.9c-8.4,0 -16.7,0 -25.1,0c-9.1,0 -18.1,0 -27.2,0c0.5,-2.7 1.4,-5.3 2.7,-7.6c7.5,-0.7 15.6,-1.1 24.2,-1.1c8,0 15.6,0.3 22.7,0.8z" fill="#eeefef"/></g><path d="M215.4,147.7c0,-0.82843 0.67157,-1.5 1.5,-1.5c0.82843,0 1.5,0.67157 1.5,1.5c0,0.82843 -0.67157,1.5 -1.5,1.5c-0.82843,0 -1.5,-0.67157 -1.5,-1.5z" id="Oval" fill="#b0b1b2"/><path d="M225.4,147.7c0,-0.82843 0.67157,-1.5 1.5,-1.5c0.82843,0 1.5,0.67157 1.5,1.5c0,0.82843 -0.67157,1.5 -1.5,1.5c-0.82843,0 -1.5,-0.67157 -1.5,-1.5z" id="Oval" fill="#b0b1b2"/><path d="M235.4,147.7c0,-0.82843 0.67157,-1.5 1.5,-1.5c0.82843,0 1.5,0.67157 1.5,1.5c0,0.82843 -0.67157,1.5 -1.5,1.5c-0.82843,0 -1.5,-0.67157 -1.5,-1.5z" id="Oval" fill="#b0b1b2"/><path d="M245.4,147.7c0,-0.82843 0.67157,-1.5 1.5,-1.5c0.82843,0 1.5,0.67157 1.5,1.5c0,0.82843 -0.67157,1.5 -1.5,1.5c-0.82843,0 -1.5,-0.67157 -1.5,-1.5z" id="Oval" fill="#b0b1b2"/><path d="M255.4,147.7c0,-0.82843 0.67157,-1.5 1.5,-1.5c0.82842,0 1.5,0.67157 1.5,1.5c0,0.82843 -0.67158,1.5 -1.5,1.5c-0.82842,0 -1.5,-0.67157 -1.5,-1.5z" id="Oval" fill="#b0b1b2"/></g><path d="M258.2,206.2c-4.2,4.1 -13.1,-2.7 -13.1,-2.7c-2.8,-1.5 -5.4,-3.5 -7.6,-5.8c-2.6,-2.7 -2.9,-6.4 -0.7,-8.1c2.2,-1.7 6.1,-0.9 8.8,1.9l0.2,0.2c2.3,2.4 9.3,5.2 9.3,5.2c3.9,2 5.8,6.7 3.6,9c-0.2,0.1 -0.4,0.2 -0.5,0.3z" id="Shape" fill="#ffedd6" fill-rule="nonzero" stroke="#d8af93" stroke-width="0.25"/><path d="M245.5,191.6c1.8,1.9 6.3,3.9 8.3,4.8l-5.8,9c-1.8,-0.9 -3,-1.9 -3,-1.9c-2.8,-1.5 -5.4,-3.5 -7.6,-5.8c-2.6,-2.8 -2.9,-6.4 -0.7,-8.1c2.3,-1.7 6.2,-0.8 8.8,1.9z" id="Shape" fill="#b0b1b2" fill-rule="nonzero" stroke="none" stroke-width="1"/><path d="M236.2,199.5c-5.8,-4.8 -5,-10.8 0.1,-13.6c5.2,-2.8 10.2,4.8 10.2,4.8z" id="Shape" fill="#5f5e5d" fill-rule="nonzero" stroke="none" stroke-width="1"/><path d="M246.5,171.1c0,0 12.9,1 19.2,1.2c-2.8,12.3 -12,13 -12,13c-0.4,-0.6 -3,-3.8 -7.2,-14.2z" id="Shape" fill="#5f5e5d" fill-rule="nonzero" stroke="none" stroke-width="1"/></g></g></g></svg>