<?xml version="1.0" encoding="UTF-8"?><svg xmlns="http://www.w3.org/2000/svg" xmlns:xlink="http://www.w3.org/1999/xlink" width="53.889686584472656" height="111.36162567138672" viewBox="0.19871467351913452 -0.3616282194852829 53.889686584472656 111.36162567138672" version="1.1">
    <!-- Generator: Sketch 49.3 (51167) - http://www.bohemiancoding.com/sketch -->
    <title>Group</title>
    <desc>Created with Sketch.</desc>
    <defs/>
    <g id="Page-1" stroke="none" fill-rule="evenodd">
        <g id="aa" fill-rule="nonzero">
            <g id="Group">
                <path d="M31.7,88.5 C35.1,104.7 32.8,104.7 40.5,104.7 C45.5,104.7 45.1,92.5 45.2,84.2" id="Shape" stroke="#C2996C" stroke-width="0.25" fill="#F7DCC1"/>
                <path d="M21.7,86.9 C18.8,98.2 13.7,101 19.3,103.4 C23.9,105.4 35.9,97.3 39.2,89.6" id="Shape" stroke="#C2996C" stroke-width="0.25" fill="#F7DCC1"/>
                <path d="M43.7,11.5 C32.8,2.1 1.5,6.1 4.2,36.9 C4.7,43 9.6,46.2 11.2,55.2 C12.5,62.5 0.8,57.1 0.7,60.1 C0.5,66.9 23.7,74.8 28.5,58.1 C29.2,55.7 29.5,52.7 29.5,49.1 C29.7,39.5 31,34.8 33.8,33.6 C34.5,33.9 39.4,26.5 39.8,25.8 C42.4,22.1 45,21.9 47.3,24.6 C47.9,25.3 48.4,26.2 49,27.2 C49.3,27.7 49.6,28.2 49.8,28.7 C53.6,28.2 58.1,15.9 43.7,11.5 Z" id="Shape" fill="#382E55" stroke-width="1"/>
                <path d="M52.4,38.6 C51.7,36.9 50.3,27.2 50.2,27.2 C50,26.6 49.4,25.4 48.8,24.5 C46.3,21.6 43.7,20.2 39.6,24 C39,24.6 31.8,35.1 30.3,34.3 C25,31.8 18.4,32.7 18,38.6 C17.6,43.9 20.4,45.7 24.5,47.4 C25,47.6 25.5,48 25.6,48.6 C25.8,50.6 26.3,54.6 26,57 C29.5,61.1 36.6,59.1 36.6,59.1 L36.6,55.5 L44.2,55 C49.7,54.3 55.8,46.9 52.4,38.6 Z" id="Shape" stroke="#C2996C" stroke-width="0.25" fill="#F7DCC1"/>
                <path d="M43.1,68.6 C44.5,73.5 44.4,75.3 43.2,76.8 C42.2,78 39.6,78.1 30.9,78.1 C21.3,78.1 21.5,80.6 21.5,69.3 C21.5,57 25.7,55.6 27.5,55.5 C28.2,55.5 29.1,56.1 32.1,57.3 C36.1,58.9 36.6,58 37.8,58.7 C40.8,60.3 41.7,63.6 43.1,68.6 Z" id="Shape" fill="#C89BAE" stroke-width="1"/>
                <path d="M17.3,98.9 C17.3,99.1 17.2,101.8 20.1,103 C22.3,103.9 23.9,102.6 24.8,102.6 C29.4,104 29.7,105.1 29.7,106.7 C29.7,107 29.7,107.7 29.3,108.6 C28.7,109.9 27.7,110.5 27.7,110.5 L21.4,110.5 C20.6,110.5 20,110.1 18.9,109.4 C15.9,107.5 13.7,105.9 13.1,105.4 C12.9,105.2 12.8,105 12.9,104.8 C14.4,101.7 16.5,98.8 17.3,98.9 Z" id="Shape" fill="#B42F53" stroke-width="1"/>
                <path d="M34.3,102.5 C34.7,102.8 37.1,104.7 40.4,104.2 C43.3,103.8 43.2,101.7 43.6,101.2 C43.4,101.2 49.6,100.8 50.6,102.4 C52,104.7 50.8,109.2 50.8,109.2 C50.8,109.2 34.3,110.3 34,109.2 C33.6,107.9 34.3,102.5 34.3,102.5 Z" id="Shape" fill="#B42F53" stroke-width="1"/>
                <circle id="Oval" fill="#382E55" cx="44.1" cy="39.5" r="3.8" stroke-width="1"/>
                <polygon id="Shape" fill="#EDA487" points="20.8 38 27.2 42.1 28.2 39.7" stroke-width="1"/>
                <path d="M41.7,39.1 C41.7,39.1 39.8,39.6 38.2,38 C38.2,38 41.2,38.7 41.7,38.4 L41.7,39.1 Z" id="Shape" fill="#382E55" stroke-width="1"/>
                <path d="M27,73.9 C27,73.9 15.8,79.6 10.7,89.8 C10.7,89.8 15.9,96.4 31.3,97.3 C45.8,97.3 51.2,91.4 51.2,91.4 C51.2,91.4 48.2,80.9 39.5,73.9 C38,72.7 28.5,72.7 27,73.9 Z" id="Shape" fill="#C89BAE" stroke-width="1"/>
                <path d="M40.7,84.8 C35.3,87.1 29.6,77.4 29.6,77.4 C27.5,75 25.9,72.2 24.7,69.2 C23.3,65.7 24.3,62.2 27,61.4 C29.7,60.6 33,62.9 34.4,66.4 L34.5,66.6 C35.7,69.7 41.2,74.9 41.2,74.9 C44,78.2 44.1,83.3 41.2,84.6 C41,84.7 40.8,84.7 40.7,84.8 Z" id="Shape" stroke="#C2996C" stroke-width="0.25" fill="#F7DCC1"/>
                <ellipse id="Oval" stroke="#B42F53" stroke-width="0.5" fill="#FBFAEB" stroke-linecap="round" stroke-linejoin="round" transform="matrix(0.8366065249485615,-0.547804273818206,0.547804273818206,0.8366065249485615,-27.363576658697752,31.43069891046314)" cx="39.00658" cy="61.58586" rx="1" ry="1.09999142"/>
                <ellipse id="Oval" stroke="#B42F53" stroke-width="0.5" fill="#FBFAEB" stroke-linecap="round" stroke-linejoin="round" transform="matrix(0.9844454933233765,-0.1756902691536836,0.1756902691536836,0.9844454933233765,-10.744993030616591,8.024681827937592)" cx="39.94744" cy="64.69542" rx="1" ry="1.10006091"/>
                <path d="M25.9,53.3 C27.1,54.2 29.1,55.7 31.4,56.6 C34.9,57.9 35.4,58 37,58.2 C40.5,61.2 20.6,61.5 22.9,55.9 C23.4,54.7 25.2,53.7 25.9,53.3 Z" id="Shape" stroke="#B42F53" stroke-width="0.25" fill="#B42F53" stroke-linecap="round" stroke-linejoin="round"/>
                <path d="M36.7,55.5 C36.7,55.5 41.7,58.2 39.1,59.6 C37.8,60.3 37.2,58.7 37.2,58.7 C37.3,58.3 36.5,58.1 36.6,57.6 C36.7,56.5 36.7,56 36.7,55.5 Z" id="Shape" stroke="#B42F53" stroke-width="0.25" fill="#B42F53" stroke-linecap="round" stroke-linejoin="round"/>
                <ellipse id="Oval" stroke="#B42F53" stroke-width="0.5" fill="#FBFAEB" stroke-linecap="round" stroke-linejoin="round" transform="matrix(0.7896106177841852,-0.6136082400705498,0.6136082400705498,0.7896106177841852,-28.141508587040136,35.27311272156348)" cx="37.3669" cy="58.67442" rx="1" ry="1.09998522"/>
                <path d="M22.7,59.7 C22.7,59.7 18.4,69.3 23.2,79.3 L39.4,71.6 C39.4,71.6 33.5,59.3 26.3,58 L22.7,59.7 Z" id="Shape" stroke="#B42F53" stroke-width="0.25" fill="#C89BAE"/>
                <g>
                    <path d="M 22.1 6.7 L 17.1 1.5 L 18.5 8.5 L 12.5 7.6 C 14.7 9.2 17.8 11.5 19.7 15.2 C 20.1 16 20.5 16.8 20.7 17.6 C 20.7 17.6 21.3 18.5 24.9 16.6 C 28.6 14.7 28.2 13.7 28.2 13.7 C 27.8 13.3 27.5 12.8 27.1 12.2 C 24.7 8.5 24.7 4.2 24.8 1.2 C 24 3 22.8 5 22.1 6.7 Z " id="Shape" fill="#E0C6D9" stroke-width="1"/>
                    <ellipse id="Oval" fill="#F6C73F" transform="matrix(0.8873591980158282,-0.46107879337127,0.46107879337127,0.8873591980158282,10.711754655697066,3.216189470059007)" cx="6.43838" cy="2.19804" rx="1" ry="1" stroke-width="1"/>
                    <ellipse id="Oval" fill="#F6C73F" transform="matrix(0.8873591980158282,-0.46107879337127,0.46107879337127,0.8873591980158282,7.518369055662841,1.5996684618226693)" cx="1.53319" cy="7.92561" rx="1" ry="1" stroke-width="1"/>
                    <ellipse id="Oval" fill="#F6C73F" transform="matrix(0.8873591980158282,-0.46107879337127,0.46107879337127,0.8873591980158282,11.882897620623687,6.587633416246259)" cx="13.92421" cy="1.48681" rx="1" ry="1" stroke-width="1"/>
                </g>
            </g>
        </g>
    </g>
</svg>