<?xml version="1.0" encoding="UTF-8"?><svg xmlns="http://www.w3.org/2000/svg" xmlns:xlink="http://www.w3.org/1999/xlink" width="55.60128402709961" height="111.01802062988281" viewBox="0.19871467351913452 -0.5697079002857208 55.60128402709961 111.01802062988281" version="1.1">
    <!-- Generator: Sketch 49.3 (51167) - http://www.bohemiancoding.com/sketch -->
    <title>Group</title>
    <desc>Created with Sketch.</desc>
    <defs/>
    <g id="Page-1" stroke="none" fill-rule="evenodd">
        <g id="aa" fill-rule="nonzero">
            <g id="Group">
                <path d="M43.7,11.3 C32.8,1.9 1.5,5.9 4.2,36.7 C4.7,42.8 9.6,46 11.2,55 C12.5,62.3 0.8,56.9 0.7,59.9 C0.5,66.7 23.7,74.6 28.5,57.9 C29.2,55.5 29.5,52.5 29.5,48.9 C29.7,39.3 31,34.6 33.8,33.4 C34.5,33.7 39.4,26.3 39.8,25.6 C42.4,21.9 45,21.7 47.3,24.4 C47.9,25.1 48.4,26 49,27 C49.3,27.5 49.6,28 49.8,28.5 C53.6,28 58.1,15.7 43.7,11.3 Z" id="Shape" fill="#382E55" stroke-width="1"/>
                <path d="M52.4,38.3 C51.7,36.6 50.3,26.9 50.2,26.9 C50,26.3 49.4,25.1 48.8,24.2 C46.3,21.3 43.7,19.9 39.6,23.7 C39,24.3 31.8,34.8 30.3,34 C25,31.5 18.4,32.4 18,38.3 C17.6,43.6 20.4,45.4 24.5,47.1 C25,47.3 25.5,47.7 25.6,48.3 C25.8,50.3 26.3,54.3 26,56.7 C29.5,60.8 36.6,58.8 36.6,58.8 L36.6,55.2 L44.2,54.7 C49.7,54.1 55.8,46.7 52.4,38.3 Z" id="Shape" stroke="#C2996C" stroke-width="0.25" fill="#F7DCC1"/>
                <path d="M25.3,85.5 C22.7,92.2 15.3,101.1 18.2,102.8 C23.7,106 42.8,93.2 44.4,85.5" id="Shape" stroke="#C2996C" stroke-width="0.25" fill="#F7DCC1"/>
                <path d="M24.5,89.3 C37.8,102.6 38,107.3 44.3,106.6 C49.4,106.1 42.2,92.2 40.3,83.8" id="Shape" stroke="#C2996C" stroke-width="0.25" fill="#F7DCC1"/>
                <path d="M43.1,68.4 C44.5,73.3 44.4,75.1 43.2,76.6 C42.2,77.8 39.6,77.9 30.9,77.9 C21.3,77.9 21.5,80.4 21.5,69.1 C21.5,56.8 25.7,55.4 27.5,55.3 C28.2,55.3 29.1,55.9 32.1,57.1 C36.1,58.7 36.6,57.8 37.8,58.5 C40.8,60.1 41.7,63.4 43.1,68.4 Z" id="Shape" fill="#C89BAE" stroke-width="1"/>
                <path d="M18.6,98.2 C18.6,98.4 18.5,101.1 21.4,102.3 C23.6,103.2 25.2,101.9 26.1,101.9 C30.7,103.3 31,104.4 31,106 C31,106.3 31,107 30.6,107.9 C30,109.2 29,109.8 29,109.8 L22.7,109.8 C21.9,109.8 21.3,109.4 20.2,108.7 C17.2,106.8 15,105.2 14.4,104.7 C14.2,104.5 14.1,104.3 14.2,104.1 C15.7,101 17.8,98.1 18.6,98.2 Z" id="Shape" fill="#B42F53" stroke-width="1"/>
                <path d="M38,104 C38.5,104.1 41.5,104.4 44,102.3 C46.2,100.4 45.1,98.8 45.1,98.2 C45,98.3 49.9,94.8 51.6,95.7 C53.9,96.9 55.3,101.3 55.3,101.3 C55.3,101.3 42.1,110.7 41.2,109.9 C40.1,108.9 38,104 38,104 Z" id="Shape" fill="#B42F53" stroke-width="1"/>
                <circle id="Oval" fill="#382E55" cx="44.1" cy="39.3" r="3.8" stroke-width="1"/>
                <polygon id="Shape" fill="#EDA487" points="20.8 37.7 27.2 41.9 28.2 39.5" stroke-width="1"/>
                <path d="M41.7,38.8 C41.7,38.8 39.8,39.3 38.2,37.7 C38.2,37.7 41.2,38.4 41.7,38 L41.7,38.8 Z" id="Shape" fill="#382E55" stroke-width="1"/>
                <path d="M27,73.7 C27,73.7 15.8,79.4 10.7,89.6 C10.7,89.6 15.9,96.2 31.3,97.1 C45.8,97.1 51.2,91.2 51.2,91.2 C51.2,91.2 48.2,80.7 39.5,73.7 C38,72.5 28.5,72.5 27,73.7 Z" id="Shape" fill="#C89BAE" stroke-width="1"/>
                <path d="M25.3,88.5 C19.5,87.4 20,76.2 20,76.2 C19.6,73 19.7,69.8 20.3,66.6 C21,62.9 23.8,60.5 26.5,61.4 C29.2,62.2 30.7,65.9 30,69.6 L29.9,69.9 C29.3,73.1 31,80.5 31,80.5 C31.6,84.8 28.9,89.1 25.7,88.6 C25.6,88.6 25.4,88.5 25.3,88.5 Z" id="Shape" stroke="#C2996C" stroke-width="0.25" fill="#F7DCC1"/>
                <ellipse id="Oval" stroke="#B42F53" stroke-width="0.5" fill="#FBFAEB" stroke-linecap="round" stroke-linejoin="round" transform="matrix(0.8366065249485615,-0.547804273818206,0.547804273818206,0.8366065249485615,-27.25039607320175,31.405315975247635)" cx="39.02062" cy="61.38344" rx="1" ry="1.09999142"/>
                <ellipse id="Oval" stroke="#B42F53" stroke-width="0.5" fill="#FBFAEB" stroke-linecap="round" stroke-linejoin="round" transform="matrix(0.9844454933233765,-0.1756902691536836,0.1756902691536836,0.9844454933233765,-10.708749846651543,8.021253521825784)" cx="39.9462" cy="64.48902" rx="1" ry="1.10006091"/>
                <path d="M25.9,53.1 C27.1,54 29.1,55.5 31.4,56.4 C34.9,57.7 35.4,57.8 37,58 C40.5,61 20.6,61.3 22.9,55.7 C23.4,54.4 25.2,53.5 25.9,53.1 Z" id="Shape" stroke="#B42F53" stroke-width="0.25" fill="#B42F53" stroke-linecap="round" stroke-linejoin="round"/>
                <path d="M36.7,55.2 C36.7,55.2 41.7,57.9 39.1,59.3 C37.8,60 37.2,58.4 37.2,58.4 C37.3,58 36.5,57.8 36.6,57.3 C36.7,56.2 36.7,55.8 36.7,55.2 Z" id="Shape" stroke="#B42F53" stroke-width="0.25" fill="#B42F53" stroke-linecap="round" stroke-linejoin="round"/>
                <ellipse id="Oval" stroke="#B42F53" stroke-width="0.5" fill="#FBFAEB" stroke-linecap="round" stroke-linejoin="round" transform="matrix(0.7896106177841852,-0.6136082400705498,0.6136082400705498,0.7896106177841852,-28.00865937601199,35.24373224882292)" cx="37.39048" cy="58.466" rx="1" ry="1.09998522"/>
                <path d="M24.2,59.1 C24.2,59.1 15.6,65.2 14.6,76.2 L32.5,77.8 C32.5,77.8 33.7,64.2 28.2,59.4 L24.2,59.1 Z" id="Shape" stroke="#B42F53" stroke-width="0.25" fill="#C89BAE"/>
                <g>
                    <path d="M 22.1 6.5 L 17.1 1.3 L 18.5 8.3 L 12.5 7.4 C 14.7 9 17.8 11.3 19.7 15 C 20.1 15.8 20.5 16.6 20.7 17.4 C 20.7 17.4 21.3 18.3 24.9 16.4 C 28.6 14.5 28.2 13.5 28.2 13.5 C 27.8 13.1 27.5 12.6 27.1 12 C 24.7 8.3 24.7 4 24.8 1 C 24 2.8 22.8 4.8 22.1 6.5 Z " id="Shape" fill="#E0C6D9" stroke-width="1"/>
                    <ellipse id="Oval" fill="#F6C73F" transform="matrix(0.8873591980158282,-0.46107879337127,0.46107879337127,0.8873591980158282,10.808853878466158,3.197491061977997)" cx="6.44866" cy="1.98996" rx="1" ry="1" stroke-width="1"/>
                    <ellipse id="Oval" fill="#F6C73F" transform="matrix(0.8873591980158282,-0.46107879337127,0.46107879337127,0.8873591980158282,7.61550312223107,1.5809126817821237)" cx="1.54337" cy="7.71743" rx="1" ry="1" stroke-width="1"/>
                    <ellipse id="Oval" fill="#F6C73F" transform="matrix(0.8873591980158282,-0.46107879337127,0.46107879337127,0.8873591980158282,11.979985579312581,6.568888900285911)" cx="13.93439" cy="1.27873" rx="1" ry="1" stroke-width="1"/>
                </g>
            </g>
        </g>
    </g>
</svg>