<?xml version="1.0" encoding="UTF-8"?><svg xmlns="http://www.w3.org/2000/svg" xmlns:xlink="http://www.w3.org/1999/xlink" width="63.19246292114258" height="104.35176086425781" viewBox="0.3100000023841858 -0.3217623233795166 63.19246292114258 104.35176086425781" version="1.1">
    <!-- Generator: Sketch 49.3 (51167) - http://www.bohemiancoding.com/sketch -->
    <title>圣诞麋鹿</title>
    <desc>Created with Sketch.</desc>
    <defs/>
    <g id="Page-1" stroke="none" fill-rule="evenodd">
        <g id="圣诞麋鹿" fill-rule="nonzero">
            <path d="M58.4,20.07 C60.88,20.07 62.88,19.7 62.85,17.55 C62.85,14.97 58.85,15.66 57.61,15.91 C56.37,16.16 56.06,15.25 57.15,13.37 C58.24,11.49 60.28,8.5 58.78,3.67 C57.28,-1.16 53.86,-0.19 53.04,1.88 C52.22,3.95 53.29,8.29 53.54,10.5 C53.79,12.71 52.83,14.97 51.13,14.62 C50.13,14.4 50.05,11.99 50.23,9.49 C50.41,6.99 48.05,5.72 47,8.17 C45.95,10.62 46.21,16.17 46.27,18.43 C46.33,20.69 44.46,19.23 43.59,17 C42.72,14.77 42.09,12.35 40.32,13.79 C38.55,15.23 41.53,22.68 41.88,23.91 C42.17,24.96 39.38,28.55 38.54,29.6 C36.4820654,28.8090648 34.2946655,28.4088893 32.09,28.42 C29.730832,28.4184553 27.3916439,28.8523917 25.19,29.7 C24.46,28.8 21.46,24.99 21.77,23.91 C22.08,22.83 25.09,15.23 23.33,13.79 C21.57,12.35 20.92,14.79 20.06,17 C19.2,19.21 17.32,20.71 17.38,18.43 C17.44,16.15 17.7,10.61 16.65,8.17 C15.6,5.73 13.24,7 13.42,9.49 C13.6,11.98 13.56,14.4 12.52,14.62 C10.83,14.97 9.87,12.71 10.12,10.5 C10.37,8.29 11.44,3.95 10.62,1.88 C9.8,-0.19 6.37,-1.12 4.88,3.67 C3.39,8.46 5.42,11.49 6.51,13.37 C7.6,15.25 7.33,16.16 6.05,15.91 C4.77,15.66 0.85,14.97 0.81,17.55 C0.81,19.7 2.81,20.09 5.26,20.07 C7.71,20.05 10.79,20.4 11.01,21.48 C11.23,22.56 7.4,23.05 6.11,23.67 C4.82,24.29 4.11,26.22 6.38,26.99 C8.65,27.76 12.08,25.71 13.54,26.42 C15,27.13 16.95,27.42 20.44,32.28 C18.7708623,33.4342775 17.275677,34.8217017 16,36.4 C16,36.4 24.47,31.59 31.72,31.59 C38.97,31.59 47,36.4 47,36.4 C45.9660949,34.8347022 44.6823784,33.4496396 43.2,32.3 C46.69,27.42 48.69,27.11 50.11,26.42 C51.53,25.73 55,27.76 57.27,26.99 C59.54,26.22 58.84,24.29 57.54,23.67 C56.24,23.05 52.42,22.56 52.63,21.48 C52.84,20.4 55.92,20 58.4,20.07 Z" id="Shape" fill="#67401D" stroke-width="1"/>
            <polygon id="Shape" fill="#040000" points="23.29 103.53 30.38 103.48 29.18 100.43 24.37 100.38" stroke-width="1"/>
            <polygon id="Shape" fill="#040000" points="41.15 103.53 34.06 103.48 35.26 100.43 40.07 100.38" stroke-width="1"/>
            <path d="M44.27,87.89 C47.32,85.6 46.18,81.89 46.18,81.89 C46.1708149,80.7534731 45.8453241,79.6419566 45.24,78.68 C44.55,77.68 42.86,77.74 41.48,78.91 C40.1,80.08 39.53,81.91 40.22,82.91 L40.22,82.98 C40.82,83.89 40.45,87.04 40.45,87.04 C40.45,88.74 42.27,89.34 43.96,88.1 L44.27,87.89 Z" id="Shape" fill="#8A6139" stroke-width="1"/>
            <path d="M37.12,69.76 C41.1143649,71.6810242 44.1569667,75.1422995 45.55,79.35 L34.39,82.78 C34.39,82.78 31.78,74.3 34.64,70.52 L37.12,69.76 Z" id="Shape" fill="#8A6139" stroke-width="1"/>
            <path d="M19.7,87.89 C16.65,85.6 17.79,81.89 17.79,81.89 C17.7991851,80.7534731 18.1246759,79.6419566 18.73,78.68 C19.42,77.68 21.11,77.74 22.49,78.91 C23.87,80.08 24.44,81.91 23.75,82.91 L23.75,82.98 C23.15,83.89 23.52,87.04 23.52,87.04 C23.52,88.74 21.7,89.34 20.01,88.1 L19.7,87.89 Z" id="Shape" fill="#8A6139" stroke-width="1"/>
            <path d="M42.85,84.64 C42.8,91.64 37.99,93.77 31.98,93.77 C25.97,93.77 21.11,91.61 21.11,84.64 C21.12,82.16 42.87,82.16 42.85,84.64 Z" id="Shape" fill="#78502D" stroke-width="1"/>
            <path d="M26.84,69.76 C22.8456351,71.6810242 19.8030333,75.1422995 18.41,79.35 L29.57,82.78 C29.57,82.78 32.18,74.3 29.32,70.52 L26.84,69.76 Z" id="Shape" fill="#8A6139" stroke-width="1"/>
            <path d="M42.35,80 C41.86,76.79 40.25,71.79 37.06,69.58 C36.27,68.39 35.19,68.24 33.72,68.24 L30.25,68.24 C28.78,68.24 27.7,68.39 26.91,69.58 C23.73,71.79 22.12,76.8 21.62,80 C20.57,86.87 19.29,87.81 23.97,87.84 C24.97,87.84 26.07,87.84 27.11,87.93 C29.4,88.07 34.56,88.07 36.85,87.93 C37.85,87.87 38.94,87.84 39.99,87.84 C44.68,87.78 43.4,86.83 42.35,80 Z" id="Shape" fill="#78502D" stroke-width="1"/>
            <path d="M21.77,88 C23.9,100 22.94,100 26.52,102 C29.42,103.64 30.08,96.13 32.22,90.92" id="Shape" fill="#78502D" stroke-width="1"/>
            <path d="M42.2,88.28 C40.07,100.28 41.03,100.28 37.45,102.28 C34.55,103.92 33.89,96.41 31.75,91.2" id="Shape" fill="#78502D" stroke-width="1"/>
            <path d="M32.21,73.35 C28.21,73.35 25,78.57 25,85.01 C24.9203552,88.1095407 25.773928,91.1614988 27.45,93.77 L27.45,93.66 L36.92,93.66 L36.92,93.77 C38.5941396,91.164339 39.4476306,88.1161567 39.37,85.02 C39.43,78.57 36.2,73.35 32.21,73.35 Z" id="Shape" fill="#EDDDAB" stroke-width="1"/>
            <path d="M9.76,37.95 C8.28521314,35.1747357 5.44092691,33.39801 2.3,33.29 C0.638495366,35.9549637 0.523117638,39.3034 1.99724498,42.0764088 C3.47137233,44.8494176 6.31156292,46.6266782 9.45,46.74 C11.1172133,44.0760826 11.235406,40.7247492 9.76,37.95 Z" id="Shape" fill="#A37B51" stroke-width="1"/>
            <path d="M5.27,38.87 C4.29201424,40.4278251 4.22100835,42.3895015 5.0838066,44.0139566 C5.94660484,45.6384117 7.61167699,46.6780035 9.45,46.74 C10.4279858,45.1821749 10.4989916,43.2204985 9.6361934,41.5960434 C8.77339516,39.9715883 7.10832301,38.9319965 5.27,38.87 Z" id="Shape" fill="#EDDDAB" stroke-width="1"/>
            <path d="M54.21,37.95 C55.6847869,35.1747357 58.5290731,33.39801 61.67,33.29 C63.3315046,35.9549637 63.4468824,39.3034 61.972755,42.0764088 C60.4986277,44.8494176 57.6584371,46.6266782 54.52,46.74 C52.8527867,44.0760826 52.734594,40.7247492 54.21,37.95 Z" id="Shape" fill="#A37B51" stroke-width="1"/>
            <path d="M58.71,38.87 C59.6813534,40.428889 59.7489346,42.3871208 58.887363,44.0092665 C58.0257913,45.6314121 56.3654908,46.6719126 54.53,46.74 C53.5520142,45.1821749 53.4810084,43.2204985 54.3438066,41.5960434 C55.2066048,39.9715883 56.871677,38.9319965 58.71,38.87 Z" id="Shape" fill="#EDDDAB" stroke-width="1"/>
            <ellipse id="Oval" fill="#8A6139" cx="31.99" cy="50.32" rx="22.97" ry="21.01" stroke-width="1"/>
            <ellipse id="Oval" fill="#EDDDAB" cx="31.98" cy="62.71" rx="7.54" ry="5.2" stroke-width="1"/>
            <ellipse id="Oval" fill="#C55933" cx="31.99" cy="60.27" rx="3.49" ry="2.15" stroke-width="1"/>
            <circle id="Oval" fill="#FFFFFF" cx="21.94" cy="49.66" r="3.75" stroke-width="1"/>
            <circle id="Oval" fill="#040000" cx="21.94" cy="50.32" r="2.6" stroke-width="1"/>
            <circle id="Oval" fill="#FFFFFF" cx="41.08" cy="49.66" r="3.75" stroke-width="1"/>
            <circle id="Oval" fill="#040000" cx="41.08" cy="50.39" r="2.6" stroke-width="1"/>
        </g>
    </g>
</svg>