<?xml version="1.0" encoding="utf-8"?>
<!-- Generator: Adobe Illustrator 22.1.0, SVG Export Plug-In . SVG Version: 6.00 Build 0)  -->
<svg version="1.1" id="图层_1" xmlns="http://www.w3.org/2000/svg" xmlns:xlink="http://www.w3.org/1999/xlink" x="0px" y="0px"
	 width="480px" height="360px" viewBox="0 0 480 360" enable-background="new 0 0 480 360" xml:space="preserve">
<polygon fill="#3BD5AF" points="132.2,346.5 275.3,356.3 275.3,157 113.7,157 "/>
<polygon fill="#25BA8D" points="352.5,346.5 275.3,356.3 275.3,157 370.9,157 "/>
<g>
	<path fill="#FFFFFF" d="M155.3,199.6c-1.5-2.7-3.1-2.4-3.4,0.7l-0.7,6.2c-0.4,3.1-3.2,6.1-6.2,6.7l-6.1,1.2c-3,0.6-3.2,2.2-0.4,3.5
		l5.6,2.6c2.8,1.3,4.8,4.9,4.5,8l-0.7,6.2c-0.4,3.1,1.1,3.7,3.2,1.5l4.2-4.6c2.1-2.3,6.1-3.1,9-1.8l5.6,2.6c2.8,1.3,3.9,0.2,2.4-2.6
		l-3-5.4c-1.5-2.7-1-6.8,1.1-9.1l4.2-4.6c2.1-2.3,1.3-3.6-1.7-3l-6.1,1.2c-3,0.6-6.8-1.1-8.3-3.8L155.3,199.6z"/>
</g>
<g>
	<path fill="#FFFFFF" d="M175.3,289.8c-1.1-2-2.3-1.8-2.6,0.5l-0.6,4.6c-0.3,2.3-2.4,4.5-4.6,5l-4.5,0.9c-2.3,0.4-2.4,1.6-0.3,2.6
		l4.2,1.9c2.1,1,3.6,3.6,3.3,5.9l-0.6,4.6c-0.3,2.3,0.8,2.8,2.4,1.1l3.1-3.4c1.6-1.7,4.6-2.3,6.7-1.3l4.2,1.9c2.1,1,2.9,0.1,1.8-1.9
		l-2.3-4c-1.1-2-0.8-5.1,0.8-6.8l3.1-3.4c1.6-1.7,1-2.7-1.3-2.3l-4.5,0.9c-2.3,0.4-5.1-0.8-6.2-2.9L175.3,289.8z"/>
</g>
<g>
	<path fill="#FFFFFF" d="M234.3,237.9c-0.4-3.1-1.9-3.4-3.4-0.7l-3,5.4c-1.5,2.7-5.2,4.5-8.3,3.9l-6.1-1.2c-3.1-0.6-3.8,0.8-1.7,3.1
		l4.3,4.5c2.1,2.3,2.6,6.3,1.1,9.1l-3,5.4c-1.5,2.7-0.4,3.9,2.4,2.5l5.6-2.6c2.8-1.3,6.9-0.6,9,1.7l4.2,4.5c2.1,2.3,3.5,1.6,3.2-1.5
		l-0.8-6.2c-0.4-3.1,1.6-6.7,4.4-8l5.6-2.6c2.8-1.3,2.6-2.9-0.4-3.5l-6.1-1.2c-3.1-0.6-5.9-3.6-6.3-6.7L234.3,237.9z"/>
</g>
<g>
	<path fill="#FFFFFF" d="M325.9,285.8c-0.3-2.2-1.4-2.5-2.5-0.5l-2.2,4c-1.1,2-3.8,3.3-6,2.8l-4.4-0.8c-2.2-0.4-2.8,0.6-1.2,2.2
		l3.1,3.3c1.6,1.7,1.9,4.6,0.8,6.6l-2.2,4c-1.1,2-0.3,2.8,1.7,1.9l4.1-1.9c2.1-1,5-0.4,6.5,1.3l3.1,3.3c1.6,1.7,2.6,1.2,2.3-1.1
		l-0.6-4.5c-0.3-2.2,1.2-4.9,3.2-5.8l4.1-1.9c2.1-1,1.9-2.1-0.3-2.5l-4.4-0.8c-2.2-0.4-4.3-2.6-4.6-4.9L325.9,285.8z"/>
</g>
<g>
	<path fill="#FFFFFF" d="M320.2,208.8c-0.4-3.1-1.9-3.4-3.4-0.7l-3,5.4c-1.5,2.7-5.2,4.5-8.3,3.9l-6.1-1.2c-3.1-0.6-3.8,0.8-1.7,3.1
		l4.3,4.5c2.1,2.3,2.6,6.3,1.1,9.1l-3,5.4c-1.5,2.7-0.4,3.9,2.4,2.5l5.6-2.6c2.8-1.3,6.9-0.6,9,1.7l4.2,4.5c2.1,2.3,3.5,1.6,3.2-1.5
		l-0.8-6.2c-0.4-3.1,1.6-6.7,4.4-8l5.6-2.6c2.8-1.3,2.6-2.9-0.4-3.5l-6.1-1.2c-3.1-0.6-5.9-3.6-6.3-6.7L320.2,208.8z"/>
</g>
<path fill="#FFFFFF" d="M336.6,262.5c0,2.1,1.7,3.7,3.7,3.7c2.1,0,3.7-1.7,3.7-3.7c0-2.1-1.7-3.7-3.7-3.7
	C338.3,258.7,336.6,260.4,336.6,262.5z"/>
<path fill="#FFFFFF" d="M236.2,303.1c0,2.1,1.7,3.7,3.7,3.7c2.1,0,3.7-1.7,3.7-3.7c0-2.1-1.7-3.7-3.7-3.7
	C237.8,299.3,236.2,301,236.2,303.1z"/>
<path fill="#FFFFFF" d="M204.2,213.7c0,2.1,1.7,3.7,3.7,3.7s3.7-1.7,3.7-3.7s-1.7-3.7-3.7-3.7S204.2,211.6,204.2,213.7z"/>
<path fill="#FFFFFF" d="M142.6,274c0,2.1,1.7,3.7,3.7,3.7c2.1,0,3.7-1.7,3.7-3.7c0-2.1-1.7-3.7-3.7-3.7
	C144.3,270.3,142.6,271.9,142.6,274z"/>
<path fill="#E51B24" d="M284.9,109.6c0,0,51.9-49.6,61.9-11.7C357.3,137.9,284.9,109.6,284.9,109.6z"/>
<path fill="#940401" d="M332.6,90.9c0,0,7.9,7.7-10.9,11.8c-18.8,4-36.8,7.2-36.8,7.2S325.4,80.3,332.6,90.9z"/>
<path fill="#E51B24" d="M187.3,109.6c0,0-51.9-49.6-61.9-11.7C114.9,137.9,187.3,109.6,187.3,109.6z"/>
<path fill="#940401" d="M139.6,90.9c0,0-7.9,7.7,10.9,11.8c18.8,4,36.8,7.2,36.8,7.2S146.8,80.3,139.6,90.9z"/>
<path fill="#E51B24" d="M235.5,109.9c0,0-20.6-123.9,56.9-92.1c77.5,31.7-7.9,92.1-7.9,92.1H235.5z"/>
<path fill="#940401" d="M257.4,23.7c0,0,18.7-3.6,5.9,26.9c-12.8,30.5-26.1,59-26.1,59S235.4,23.5,257.4,23.7z"/>
<path fill="#E51B24" d="M235.8,109.9c0,0,20.6-123.9-56.9-92.1c-77.5,31.7,7.9,92.1,7.9,92.1H235.8z"/>
<path fill="#940401" d="M202.6,23.2c-12.7,4.9-16.1,24,33.1,86.7C235.8,109.9,235,10.8,202.6,23.2z"/>
<polygon opacity="0.2" points="119.5,217.2 275.3,222.1 365.1,217.2 370.8,157 113.7,157 "/>
<polygon fill="#3BD5AF" points="102.9,109.4 112.6,181.4 275.3,186.3 275.3,109.4 "/>
<polygon fill="#25BA8D" points="376.9,109.4 372,181.4 275.3,186.3 275.3,109.4 "/>
</svg>
