<svg version="1.1" xmlns="http://www.w3.org/2000/svg" xmlns:xlink="http://www.w3.org/1999/xlink" width="272.20425" height="245.42324" viewBox="0,0,272.20425,245.42324"><g transform="translate(-104.09661,-57.29048)"><g data-paper-data="{&quot;isPaintingLayer&quot;:true}" fill="none" fill-rule="nonzero" stroke="none" stroke-width="1" stroke-linecap="butt" stroke-linejoin="miter" stroke-miterlimit="10" stroke-dasharray="" stroke-dashoffset="0" font-family="none" font-weight="none" font-size="none" text-anchor="none" style="mix-blend-mode: normal"><path d="M376.29747,264c0.4,6.7 -34.7,-6.8 -33.6,0c1.2,6.7 23.7,27.2 15,31.7c-8.7,4.5 -19.2,-25.2 -25.3,-20.6c-6.1,4.7 7.8,26.5 -0.2,27.6c-6.4,0.8 -23.5,-33.6 -30.2,-47.4c4.6,-3.7 9.2,-7.7 13.5,-11.7c17.4,4.1 60.5,15 60.8,20.4z" data-paper-data="{&quot;index&quot;:null}" fill="#417e32"/><path d="M104.09747,94.6c-0.2,-6.7 34.5,7.8 33.5,1.1c-1,-6.8 -22.8,-27.9 -14,-32.1c8.8,-4.2 18.4,25.8 24.6,21.3c6.2,-4.5 -7,-26.8 1.1,-27.6c6.7,-0.7 23.9,37.4 29.4,50.1c-3.8,2.6 -8.8,6 -13.8,9.7c-16.4,-4.5 -60.6,-17 -60.8,-22.5z" data-paper-data="{&quot;index&quot;:null}" fill="#417e32"/><path d="M312.29747,207c-1.9,-5.2 -4.5,-9.9 -7.6,-14.5l15.1,-5.8c6.5,7.6 11.8,14.4 15.1,19.7l-20.4,9.1c-0.4,-2.8 -1.2,-5.7 -2.2,-8.5z" data-paper-data="{&quot;index&quot;:null}" fill="#febe17"/><path d="M296.19747,181.1c-2.5,-3.1 -5.1,-6.1 -7.7,-9.1l14.3,-3.9c6.2,6.5 12,12.9 17.1,18.7l-15.1,5.8c-2.7,-4 -5.6,-7.8 -8.6,-11.5z" data-paper-data="{&quot;index&quot;:null}" fill="#417e32"/><path d="M289.29747,252.7c9.5,-1.1 18.2,-7.3 22.5,-15.8c3.3,-6.5 3.9,-14.1 2.7,-21.4l20.4,-9.1c3,4.8 4.3,8.5 3.5,10.5c-2.4,5.8 -11.6,16.2 -22.8,26.6c-4.3,4 -8.9,8 -13.5,11.7c-13.9,11.1 -28,19.6 -35.2,18.5c-4.4,-0.7 -15.7,-10.1 -29.8,-23.6l19.9,-8.8c9.5,7.2 20.6,12.8 32.3,11.4z" data-paper-data="{&quot;index&quot;:null}" fill="#417e32"/><path d="M233.49747,219.9l-19.2,7.4c-8.7,-9 -17.6,-18.6 -26.1,-28l22.8,-6.2c6.8,9.4 14.4,18.3 22.5,26.8z" data-paper-data="{&quot;index&quot;:null}" fill="#417e32"/><path d="M256.29747,140.1l15.2,-3.5c3.8,3.7 7.7,7.5 11.6,11.4l-14,3.8c-4.1,-4 -8.4,-7.9 -12.8,-11.7z" data-paper-data="{&quot;index&quot;:null}" fill="#417e32"/><path d="M181.29747,105.7c8.4,-5.8 31,-19.9 42.6,-12.1c3.9,2.6 18.6,15.6 36.3,32.2l-16.7,4c-4.5,-3.4 -9,-6.7 -13.7,-9.8c-8,-5.4 -19.9,-15.6 -30.3,-11.5c-9.6,3.8 -17.5,17.5 -17.4,27.5c0,2.8 0.5,5.5 1.3,8.1l-34.3,8.1c-3.5,-5 -5.5,-8.5 -5.5,-10.1c0,-7.4 10.8,-17 21.4,-25c5,-3.7 9.9,-7.1 13.8,-9.7c0.9,-0.6 1.7,-1.2 2.5,-1.7z" data-paper-data="{&quot;index&quot;:null}" fill="#417e32"/><path d="M196.69747,171.3l-26.7,7.2c-4.8,-5.6 -9.2,-10.9 -12.9,-15.6l31.2,-7.2c2.6,5.3 5.4,10.5 8.4,15.6z" data-paper-data="{&quot;index&quot;:null}" fill="#417e32"/><path d="M250.59747,236.1c2,1.8 4.2,3.5 6.3,5.1l-19.9,8.8c-7.1,-6.8 -14.9,-14.6 -22.8,-22.8l19.2,-7.4c5.6,5.7 11.3,11.1 17.2,16.3z" data-paper-data="{&quot;index&quot;:null}" fill="#febe17"/><path d="M269.09747,151.8l14,-3.8c6.7,6.7 13.4,13.4 19.6,20l-14.3,3.9c-6.1,-7 -12.5,-13.7 -19.3,-20.1z" data-paper-data="{&quot;index&quot;:null}" fill="#febe17"/><path d="M210.89747,193l-22.8,6.2c-6.4,-7.2 -12.6,-14.2 -18.2,-20.7l26.7,-7.2c4.5,7.5 9.2,14.7 14.3,21.7z" data-paper-data="{&quot;index&quot;:null}" fill="#febe17"/><path d="M187.39747,153.8c0.3,0.6 0.6,1.3 1,1.9l-31.2,7.2c-3.2,-4 -5.9,-7.6 -8,-10.6l34.3,-8.1c0.9,3.2 2.3,6.5 3.9,9.6z" data-paper-data="{&quot;index&quot;:null}" fill="#febe17"/><path d="M243.39747,129.8l16.7,-4c3.7,3.4 7.5,7.1 11.3,10.8l-15.2,3.5c-4.1,-3.5 -8.4,-6.9 -12.8,-10.3z" data-paper-data="{&quot;index&quot;:null}" fill="#febe17"/><path d="M296.19747,181.1c3,3.7 5.9,7.5 8.6,11.5l-71.3,27.3c-8.1,-8.4 -15.7,-17.4 -22.6,-26.8l77.5,-21.2c2.7,3 5.3,6.1 7.8,9.2z" data-paper-data="{&quot;index&quot;:null}" fill="#65973a"/><path d="M269.09747,151.8l-72.4,19.5c-3,-5.1 -5.8,-10.3 -8.4,-15.6l68,-15.6c4.4,3.8 8.7,7.7 12.8,11.7z" data-paper-data="{&quot;index&quot;:null}" fill="#65973a"/><path d="M311.79747,236.9c-4.3,8.5 -13,14.7 -22.5,15.8c-11.7,1.4 -22.7,-4.3 -32.3,-11.5l57.6,-25.6c1.1,7.2 0.5,14.8 -2.8,21.3z" data-paper-data="{&quot;index&quot;:null}" fill="#65973a"/><path d="M181.99747,136c0,-10 7.8,-23.6 17.4,-27.5c10.4,-4.2 22.3,6.1 30.3,11.5c4.7,3.1 9.2,6.4 13.7,9.8l-60.1,14.3c-0.7,-2.6 -1.3,-5.3 -1.3,-8.1z" data-paper-data="{&quot;index&quot;:null}" fill="#65973a"/><path d="M312.29747,207c1,2.7 1.7,5.6 2.2,8.5l-57.6,25.6c-2.2,-1.7 -4.3,-3.4 -6.3,-5.1c-5.9,-5.1 -11.6,-10.5 -17.1,-16.2l71.3,-27.3c3,4.6 5.7,9.4 7.5,14.5z" data-paper-data="{&quot;index&quot;:null}" fill="#ffe200"/><path d="M288.39747,171.9l-77.5,21.1c-5.1,-7 -9.9,-14.2 -14.2,-21.7l72.4,-19.5c6.8,6.4 13.2,13.1 19.3,20.1z" data-paper-data="{&quot;index&quot;:null}" fill="#ffe200"/><path d="M183.39747,144.1l60,-14.3c4.4,3.3 8.7,6.7 12.9,10.3l-68,15.6c-0.3,-0.6 -0.6,-1.3 -1,-1.9c-1.5,-3.1 -2.9,-6.4 -3.9,-9.7z" data-paper-data="{&quot;index&quot;:null}" fill="#ffe200"/><g data-paper-data="{&quot;index&quot;:null}" fill="#000000" font-family="&quot;Helvetica Neue&quot;, Helvetica, Arial, sans-serif" font-weight="400" font-size="16" text-anchor="start"/><g data-paper-data="{&quot;index&quot;:null}" fill="#000000" font-family="&quot;Helvetica Neue&quot;, Helvetica, Arial, sans-serif" font-weight="400" font-size="16" text-anchor="start"/><g data-paper-data="{&quot;index&quot;:null}" fill="#000000" font-family="&quot;Helvetica Neue&quot;, Helvetica, Arial, sans-serif" font-weight="400" font-size="16" text-anchor="start"/></g></g></svg>