<?xml version="1.0" encoding="utf-8"?>
<!-- Generator: Adobe Illustrator 22.1.0, SVG Export Plug-In . SVG Version: 6.00 Build 0)  -->
<svg version="1.1" id="图层_1" xmlns="http://www.w3.org/2000/svg" xmlns:xlink="http://www.w3.org/1999/xlink" x="0px" y="0px"
	 width="480px" height="360px" viewBox="0 0 480 360" enable-background="new 0 0 480 360" xml:space="preserve">
<g opacity="0.2">
	<path fill="#070707" d="M249.3,118l0.7-2.6c-1.3-0.3-2.8-1-4.4-2.2c-11.9-9-2.9-57.1-2.7-57.1c0,0,7.1,25.1,13.9,38.8
		c3,6.1,1.8,19.2-4.5,20.5c0.6,2.4,1.1,4.8,1.4,7.3c8.6,1.3,16.3-1.4,18.4-8.4c5-17.2-32.6-81.8-26.6-99.2
		c0.7-2.1-22.8,50.3-20.1,78.9c1.4,14.8,12.6,24.4,23.8,27.7C249.2,120.4,249.2,119.2,249.3,118z"/>
	<path fill="#070707" d="M256.8,94.9c-6.8-13.7-13.9-38.8-13.9-38.8c-0.2,0-9.2,48.1,2.7,57.1c1.6,1.2,3.1,1.9,4.4,2.2l1.2-4.2
		c0.4,1.4,0.8,2.8,1.1,4.2C258.6,114,259.8,100.9,256.8,94.9z"/>
	<path fill="#070707" d="M271.6,209.8c0.1-8.1,0-16.2-1.5-24.2c-15.6,7.1-31.8,13.3-45.2,18.1c0,0.5-0.1,0.9-0.1,1.4
		c-0.8,15-1.3,30.1-1.3,45.1c15.9-5.2,32.5-11.3,47.5-17.1C271.4,225.4,271.5,217.6,271.6,209.8z"/>
	<path fill="#070707" d="M269.3,281.8c-15,4.7-30.9,8.2-44.9,10.8c0.4,9.1,0.9,18.2,1.6,27.3c0.2,3.3,0.5,6.5,0.7,9.8h41.2
		c0.4-0.1,0.9-0.3,1.3-0.4C268.6,313.5,268.8,297.6,269.3,281.8z"/>
	<path fill="#070707" d="M270.1,185.6c1.5,7.9,1.6,16.1,1.5,24.2c-0.1,7.8-0.3,15.6-0.5,23.4c8-3.1,15.5-6.1,22.3-8.8
		c0.2-4.9,0.4-9.5,0.7-13.9c0.1-1.8,0.3-3.6,0.4-5.3c-3-7.5-5.6-18.4-8.3-27.4C281,180.5,275.6,183.2,270.1,185.6z"/>
	<path fill="#070707" d="M269.2,329.2c10.1-3.1,19.1-6.3,26.6-9.1c-0.8-13.5-1.7-30.3-2.2-47.5c-7.4,3.4-15.7,6.5-24.3,9.2
		C268.8,297.6,268.6,313.5,269.2,329.2z"/>
	<path fill="#070707" d="M224.9,205.1c0-0.5,0.1-0.9,0.1-1.4c-6.7,2.4-12.7,4.4-17.6,6c0.5,13.9,0.9,29.4,1.2,45.2
		c4.9-1.5,9.9-3,15-4.7C223.6,235.2,224.1,220.1,224.9,205.1z"/>
	<path fill="#070707" d="M224.4,292.6c-5.7,1.1-11,2-15.8,2.7c-0.2,12.4-0.6,24-1.4,34.3h19.5c-0.2-3.3-0.4-6.5-0.7-9.8
		C225.3,310.8,224.8,301.7,224.4,292.6z"/>
	<path fill="#070707" d="M215.1,124.9c0.2,0.1,0.4,0.1,0.5,0.2C215.5,125,215.3,124.9,215.1,124.9z"/>
	<path fill="#070707" d="M217.5,125.6c0.2,0.1,0.4,0.1,0.7,0.2C218,125.7,217.8,125.6,217.5,125.6z"/>
	<path fill="#070707" d="M214.1,124.6c0.1,0,0.3,0.1,0.4,0.1C214.4,124.6,214.2,124.6,214.1,124.6z"/>
	<path fill="#070707" d="M220.5,126.3c0.2,0.1,0.5,0.1,0.7,0.2C221,126.4,220.8,126.3,220.5,126.3z"/>
	<path fill="#070707" d="M219.1,126c0.2,0,0.4,0.1,0.6,0.1C219.5,126.1,219.3,126,219.1,126z"/>
	<path fill="#070707" d="M222.3,126.7c0.2,0,0.4,0.1,0.7,0.1C222.7,126.7,222.5,126.7,222.3,126.7z"/>
	<path fill="#070707" d="M209.4,122.6l0.2,0.1L209.4,122.6z"/>
	<path fill="#070707" d="M210.2,123c0.1,0,0.2,0.1,0.3,0.1C210.4,123.1,210.3,123,210.2,123z"/>
	<path fill="#070707" d="M216.7,125.3c-0.2-0.1-0.4-0.1-0.6-0.2c0.1,0,0.2,0.1,0.3,0.1C216.5,125.3,216.6,125.3,216.7,125.3z"/>
	<path fill="#070707" d="M211.9,123.8c0.1,0,0.2,0.1,0.3,0.1C212.1,123.8,212,123.8,211.9,123.8z"/>
	<path fill="#070707" d="M211,123.4c0.1,0,0.2,0.1,0.3,0.1C211.2,123.5,211.1,123.4,211,123.4z"/>
	<path fill="#070707" d="M213,124.2l0.1,0.1L213,124.2z"/>
	<path fill="#070707" d="M264.7,129.4c0.2,0,0.4,0,0.6,0C265.2,129.4,264.9,129.4,264.7,129.4z"/>
	<path fill="#070707" d="M263,129.5c0.2,0,0.3,0,0.5,0C263.3,129.4,263.2,129.4,263,129.5z"/>
	<path fill="#070707" d="M248.5,129.3c0.2,0,0.5,0,0.7,0C249,129.3,248.7,129.3,248.5,129.3z"/>
	<path fill="#070707" d="M256.7,129.5c0.2,0,0.5,0,0.7,0C257.1,129.5,256.9,129.5,256.7,129.5z"/>
	<path fill="#070707" d="M260.7,129.5c0.2,0,0.4,0,0.7,0C261.2,129.5,261,129.5,260.7,129.5z"/>
	<path fill="#070707" d="M266.9,129.4c0.1,0,0.3,0,0.4,0C267.2,129.4,267,129.4,266.9,129.4z"/>
	<path fill="#070707" d="M270.7,129.2l0.2,0L270.7,129.2z"/>
	<path fill="#070707" d="M268.7,129.3c0.2,0,0.4,0,0.6,0C269,129.3,268.9,129.3,268.7,129.3z"/>
	<path fill="#070707" d="M240.4,128.9c0.4,0,0.7,0,1.1,0.1C241.2,128.9,240.8,128.9,240.4,128.9z"/>
	<path fill="#070707" d="M242.6,129c0.3,0,0.5,0,0.8,0C243.1,129.1,242.9,129,242.6,129z"/>
	<path fill="#070707" d="M244.4,129.1c0.3,0,0.7,0,1,0.1C245.1,129.2,244.8,129.1,244.4,129.1z"/>
	<path fill="#070707" d="M254.9,129.5c0.2,0,0.5,0,0.7,0C255.3,129.5,255.1,129.5,254.9,129.5z"/>
	<path fill="#070707" d="M238.6,128.8c0.3,0,0.5,0,0.8,0.1C239.1,128.8,238.9,128.8,238.6,128.8z"/>
	<path fill="#070707" d="M259.6,129.5c-0.2,0-0.4,0-0.6,0C259.2,129.5,259.4,129.5,259.6,129.5z"/>
	<path fill="#070707" d="M234.7,128.4c0.3,0,0.5,0.1,0.8,0.1C235.2,128.5,234.9,128.4,234.7,128.4z"/>
	<path fill="#070707" d="M227.2,127.5c0.2,0,0.5,0.1,0.7,0.1C227.7,127.6,227.5,127.5,227.2,127.5z"/>
	<path fill="#070707" d="M229.3,127.8c0.2,0,0.5,0.1,0.7,0.1C229.8,127.9,229.5,127.8,229.3,127.8z"/>
	<path fill="#070707" d="M225.7,127.3c0.2,0,0.5,0.1,0.7,0.1C226.2,127.3,225.9,127.3,225.7,127.3z"/>
	<path fill="#070707" d="M230.9,128c0.2,0,0.5,0.1,0.7,0.1C231.4,128.1,231.1,128,230.9,128z"/>
	<path fill="#070707" d="M272.5,129.2c0.2,0,0.3,0,0.5,0C272.8,129.1,272.6,129.2,272.5,129.2z"/>
	<path fill="#070707" d="M276.5,128.9c-0.1,0-0.2,0-0.3,0l0.2,0L276.5,128.9z"/>
	<path fill="#070707" d="M223.8,126.9c0.2,0,0.4,0.1,0.6,0.1C224.2,127,224,127,223.8,126.9z"/>
	<path fill="#070707" d="M278.6,128.8L278.6,128.8L278.6,128.8z"/>
	<path fill="#070707" d="M274.3,129.1c0.1,0,0.2,0,0.3,0C274.5,129.1,274.4,129.1,274.3,129.1z"/>
	<path fill="#070707" d="M233,128.2c0.2,0,0.5,0.1,0.7,0.1C233.5,128.3,233.3,128.3,233,128.2z"/>
	<path fill="#070707" d="M246.7,129.2c0.3,0,0.5,0,0.8,0C247.2,129.3,246.9,129.2,246.7,129.2z"/>
	<path fill="#070707" d="M236.6,128.6c0.3,0,0.7,0.1,1,0.1C237.3,128.7,237,128.6,236.6,128.6z"/>
	<path fill="#070707" d="M216.5,159.2c7.3,1.6,5.2,16.7,12.5,15.7c7.3-1,8.2-18.8,16.1-16.2c7.9,2.6,1.6,16.2,12.6,16.2
		c11,0,13.8-16.7,21.5-12c2.5,1.5,4.8,7.6,7,15c2.7,8.9,5.3,19.9,8.3,27.4c2.1,5.2,4.4,8.7,7,8.7c9.4,0,2.7-43.4,4.5-50.6
		c5.2-20.8,6.2-40.3-11.3-36.5c-2.5,0.5-5.8,1-9.8,1.4c0.6,0.2,1.3,0.4,1.9,0.6c2.1,0.6,4.4,1.5,5.2,3.5c0.7,1.8-0.2,3.7-1.3,5.3
		c-6.5,8.9-19.5,9.5-30.5,8.6c-10.3-0.9-20.6-2.4-30.7-5.1c-6.6-1.8-21.2-4.3-23.9-11.8c-1.2-3.4-0.8-6,0.8-8.1
		c-1-0.3-2.2-0.5-3.3-0.4c-1.5,1.8-2.9,3.7-3,6.5c-0.1,4.9,3.1,9.8,7.1,12.5c5.4,3.7,12.1,4.6,18.5,5.4c11.3,1.5,22.6,3,33.9,4.4
		c-17.1,3.6-35.2,2.8-51.8-2.5c-4.1-1.3-8.2-2.9-11.6-5.6c-0.1-0.1-0.3-0.2-0.4-0.4c-0.4,6.7-1.1,13.3-4.2,18.1
		c-5.2,7.8-7.8,15.1-3.7,19.3c2.6,2.6,10.4-6.3,17.7-12.9C209.7,161.7,213.8,158.6,216.5,159.2z M232.9,164.3
		c-1.5,2.8-4.7,4.6-7.9,4.4c0.1-3.4,1.7-6.7,4.2-8.9l1.9,0.4c0.9-0.3,1.9,0.4,2.2,1.3C233.6,162.5,233.3,163.5,232.9,164.3z
		 M265.9,164c-2.4,2.9-6.6,4.3-10.3,3.4l0-1.1c-0.3,0.3-0.9-0.1-1-0.5c-0.1-0.5,0.2-0.9,0.5-1.2c2.4-2.8,6.3-4.1,9.8-3.5
		c0.6,0.1,1.2,0.3,1.5,0.9C266.8,162.7,266.4,163.5,265.9,164z M299.1,197.3c-2.6-5.1-4.3-10.6-5-16.3c-0.4-2.8-1-13.4,3.1-14.4
		c4.9-1.2,5.2,11.7,5.4,14.7C302.9,186.8,302,192.6,299.1,197.3z M290.6,144.3c3.3-2.6,3.8-7.1,7-9.7c2.8-2.3,5.1-3.4,5.5,0.8
		c0.4,4.7-5.9,8.5-9.2,10.4c-4.4,2.6-9.1,5.1-14.1,4.9C282.3,147.1,287.3,147,290.6,144.3z"/>
	<path fill="#070707" d="M207.7,147.1c16.7,5.3,34.7,6.2,51.8,2.5c-11.3-1.5-22.6-2.9-33.9-4.4c-6.4-0.8-13.1-1.8-18.5-5.4
		c-3.9-2.7-7.2-7.5-7.1-12.5c0.1-2.8,1.5-4.7,3-6.5c-2.8,0.2-5.6,2-6.4,7.6c-0.6,3.9-0.8,8.3-1,12.7c0.1,0.1,0.3,0.2,0.4,0.4
		C199.5,144.2,203.6,145.8,207.7,147.1z"/>
	<path fill="#070707" d="M297.2,166.5c-4.2,1-3.5,11.6-3.1,14.4c0.7,5.7,2.4,11.2,5,16.3c2.9-4.7,3.8-10.5,3.5-16
		C302.4,178.2,302.1,165.3,297.2,166.5z"/>
	<path fill="#070707" d="M265,161.1c-3.6-0.7-7.5,0.7-9.8,3.5c-0.3,0.4-0.6,0.8-0.5,1.2c0.1,0.5,0.6,0.8,1,0.5l0,1.1
		c3.7,0.9,7.8-0.4,10.3-3.4c0.5-0.6,0.9-1.4,0.6-2.1C266.2,161.5,265.6,161.2,265,161.1z"/>
	<path fill="#070707" d="M231.2,160.3l-1.9-0.4c-2.6,2.2-4.1,5.5-4.2,8.9c3.2,0.2,6.4-1.6,7.9-4.4c0.4-0.8,0.7-1.8,0.5-2.7
		C233.1,160.6,232,159.9,231.2,160.3z"/>
	<path fill="#070707" d="M279.7,150.8c5.1,0.2,9.8-2.3,14.1-4.9c3.3-1.9,9.7-5.8,9.2-10.4c-0.4-4.2-2.7-3.1-5.5-0.8
		c-3.2,2.6-3.7,7-7,9.7C287.3,147,282.3,147.1,279.7,150.8z"/>
	<path fill="#070707" d="M216.3,126c-0.5,6,10.8,8.7,14.9,10c9,2.9,18.4,4.4,27.8,4.2c5-0.1,10.2-0.6,14.6-3.1
		c1.6-0.9,3.1-2.1,3.6-3.9c0.4-1.4,0-3-0.9-4.2l-0.2,0c-0.5,0-1,0.1-1.6,0.1c-0.1,0-0.2,0-0.3,0c-0.4,0-0.9,0-1.4,0.1
		c-0.2,0-0.3,0-0.5,0c-0.5,0-1.1,0-1.6,0.1l-0.2,0c-0.5,0-1,0-1.4,0.1c-0.2,0-0.4,0-0.6,0c-0.5,0-0.9,0-1.4,0c-0.1,0-0.3,0-0.4,0
		c-0.5,0-1,0-1.5,0c-0.2,0-0.4,0-0.6,0c-0.4,0-0.8,0-1.2,0c-0.2,0-0.3,0-0.5,0c-0.5,0-1.1,0-1.6,0c-0.2,0-0.4,0-0.7,0
		c-0.4,0-0.8,0-1.2,0c-0.2,0-0.4,0-0.6,0c-0.5,0-1.1,0-1.6,0c-0.2,0-0.5,0-0.7,0c-0.4,0-0.7,0-1.1,0c-0.2,0-0.5,0-0.7,0
		c-0.1,0-0.2,0-0.4,0c0.1,0.9,0.1,1.8,0.1,2.7c0,1.1,0,2.2-0.6,3.2c-0.6,0.9-1.9,1.4-2.8,0.7c-0.6-2.2-1.1-4.4-1.4-6.7
		c-0.2,0-0.4,0-0.7,0c-0.2,0-0.5,0-0.7,0c-0.3,0-0.7,0-1,0c-0.3,0-0.5,0-0.8,0c-0.4,0-0.8,0-1.2-0.1c-0.3,0-0.7,0-1-0.1
		c-0.3,0-0.7,0-1-0.1c-0.3,0-0.5,0-0.8,0c-0.4,0-0.7,0-1.1-0.1c-0.4,0-0.7,0-1.1-0.1c-0.4,0-0.7,0-1.1-0.1c-0.3,0-0.5,0-0.8-0.1
		c-0.3,0-0.6-0.1-1-0.1c-0.3,0-0.7-0.1-1-0.1c-0.4,0-0.8-0.1-1.2-0.1c-0.3,0-0.5,0-0.8-0.1c-0.3,0-0.6-0.1-0.9-0.1
		c-0.2,0-0.5-0.1-0.7-0.1c-0.5-0.1-0.9-0.1-1.4-0.2c-0.2,0-0.5-0.1-0.7-0.1c-0.3,0-0.6-0.1-0.9-0.1c-0.2,0-0.5-0.1-0.7-0.1
		c-0.5-0.1-0.9-0.1-1.3-0.2c-0.2,0-0.5-0.1-0.7-0.1c-0.3,0-0.6-0.1-0.8-0.1c-0.2,0-0.5-0.1-0.7-0.1c-0.4-0.1-0.9-0.1-1.3-0.2
		c-0.2,0-0.4-0.1-0.6-0.1c-0.3,0-0.6-0.1-0.8-0.2c-0.2,0-0.4-0.1-0.7-0.1c-0.4-0.1-0.7-0.1-1.1-0.2c-0.2,0-0.5-0.1-0.7-0.2
		c-0.3-0.1-0.6-0.1-0.8-0.2c-0.2,0-0.4-0.1-0.6-0.1c-0.3-0.1-0.6-0.1-0.9-0.2c-0.2-0.1-0.4-0.1-0.7-0.2c-0.3-0.1-0.6-0.2-0.9-0.2
		c-0.1,0-0.2,0-0.3-0.1C216.3,125.5,216.3,125.7,216.3,126z"/>
	<path fill="#070707" d="M251.3,136.1c0.8,0.7,2.2,0.2,2.8-0.7c0.6-0.9,0.6-2.1,0.6-3.2c0-0.9-0.1-1.8-0.1-2.7
		c-0.1-2.3-0.4-4.5-0.7-6.8c-0.4-2.5-0.8-4.9-1.4-7.3c-0.3-1.4-0.7-2.8-1.1-4.2l-1.2,4.2l-0.7,2.6c-0.1,1.2-0.1,2.5-0.1,3.7
		c0,2.6,0.2,5.1,0.6,7.7C250.2,131.6,250.7,133.8,251.3,136.1z"/>
	<path fill="#070707" d="M226.9,339.6c14.7-2.6,28.6-6.2,40.9-9.9h-41.2C226.9,333,227,336.3,226.9,339.6z"/>
	<path fill="#070707" d="M226.9,339.6c0-3.3-0.1-6.6-0.3-9.9h-19.5c-0.3,4.6-0.7,8.9-1.2,12.9C213.1,341.8,220.1,340.8,226.9,339.6z
		"/>
	<path fill="#070707" d="M216.5,159.2c-2.7-0.6-6.8,2.5-11,6.4c0.1,1.4,0.2,2.9,0.2,4.6c0.5,9.5,1.1,23.4,1.7,39.6
		c4.9-1.6,10.9-3.6,17.6-6c0.5-8.2,1.3-16.7,4.6-24.1c0.1,0,0.2,0,0.3,0c5.7-1,7.6-8.2,12.2-11.8c0.8-0.6,1.9-1.2,2.9-0.9
		c1.3,0.5,1.6,2.1,1.9,3.5c1.1,5,5.2,9.1,10.1,10.3c3.9,0.9,8.1,0,11.4-2.3c0.5,1.3,0.8,2.7,1.2,4c0.3,1.1,0.5,2.2,0.7,3.3
		c5.5-2.5,10.9-5.1,16.1-7.8c-2.2-7.4-4.5-13.5-7-15c-7.7-4.7-10.6,12-21.5,12c-11,0-4.7-13.6-12.6-16.2
		c-7.9-2.6-8.8,15.1-16.1,16.2C221.7,175.9,223.8,160.8,216.5,159.2z"/>
	<path fill="#070707" d="M224.4,292.6c-0.6-14.1-0.9-28.2-0.8-42.4c-5.1,1.7-10.1,3.2-15,4.7c0.2,13.6,0.2,27.4,0,40.4
		C213.4,294.6,218.7,293.7,224.4,292.6z"/>
	<path fill="#070707" d="M271.1,233.2c-0.5,16.2-1.3,32.4-1.8,48.6c8.6-2.7,16.9-5.7,24.3-9.2c-0.5-16.5-0.7-33.4-0.2-48.3
		C286.6,227.1,279.1,230.1,271.1,233.2z"/>
	<path fill="#070707" d="M295.8,320.1c-7.5,2-16.5,4.2-26.6,6.4c0,0.1,0,0.2,0,0.3c0.4,6.4,1,12.8,2.1,19.1
		c8.5-0.9,17.5-2.4,26.6-4.8c0,0-0.6-5.6-1.5-14.4C296.2,324.8,296,322.5,295.8,320.1z"/>
	<path fill="#070707" d="M226,343.4c0.6-1.3,0.8-2.6,0.9-3.8c-6.8,0.4-13.8,0.8-20.9,1c-0.3,0.9-0.7,1.8-1,2.6c0,0,7.6,1.1,20,1.9
		C225.4,344.6,225.8,344,226,343.4z"/>
	<path fill="#070707" d="M269.2,329.2c-0.4,0.1-0.9,0.2-1.3,0.2c-12.4,2.3-26.3,4.4-40.9,6c-0.1,2.2-0.3,4.5-0.9,6.7
		c-0.3,1-0.6,2-1.1,3c11.9,1.4,28.2,2.3,46.3,0.8c-1-5.5-1.7-11-2.1-16.5C269.2,329.4,269.2,329.3,269.2,329.2z"/>
	<path fill="#070707" d="M224.4,292.6c13.9-2.6,29.9-6.2,44.9-10.8c0.5-16.2,1.3-32.4,1.8-48.6c-15.1,5.8-31.6,11.9-47.5,17.1
		C223.5,264.4,223.8,278.5,224.4,292.6z"/>
	<path fill="#070707" d="M268.3,178.4c-3.2,2.3-7.5,3.3-11.4,2.3c-4.9-1.2-9-5.4-10.1-10.3c-0.3-1.4-0.6-3-1.9-3.5
		c-1-0.4-2.1,0.2-2.9,0.9c-4.5,3.6-6.4,10.9-12.2,11.8c-0.1,0-0.2,0-0.3,0c-3.3,7.4-4.1,15.9-4.6,24.1c13.4-4.8,29.5-11,45.2-18.1
		c-0.2-1.1-0.4-2.2-0.7-3.3C269.1,181,268.7,179.7,268.3,178.4z"/>
	<path fill="#070707" d="M286.8,128.9c-0.6-0.2-1.3-0.4-1.9-0.6c-2,0.2-4.1,0.4-6.3,0.5l0,0c-0.7,0-1.4,0.1-2.1,0.1l-0.2,0
		c0.8,1.3,1.3,2.8,0.9,4.2c-0.5,1.7-2,3-3.6,3.9c-4.4,2.5-9.6,3-14.6,3.1c-9.4,0.1-18.8-1.3-27.8-4.2c-4.1-1.3-15.4-4-14.9-10
		c0-0.3,0.1-0.5,0.1-0.7c-0.1,0-0.2-0.1-0.3-0.1c-0.2,0-0.3-0.1-0.5-0.1c-0.2-0.1-0.4-0.1-0.5-0.2c-0.2-0.1-0.4-0.1-0.6-0.2
		c-0.1,0-0.3-0.1-0.4-0.1c-0.3-0.1-0.6-0.2-1-0.3l-0.1-0.1c-0.3-0.1-0.5-0.2-0.8-0.3c-0.1,0-0.2-0.1-0.3-0.1
		c-0.2-0.1-0.4-0.2-0.6-0.3c-0.1,0-0.2-0.1-0.3-0.1c-0.2-0.1-0.4-0.2-0.6-0.3c-0.1,0-0.2-0.1-0.3-0.1c-0.2-0.1-0.4-0.2-0.6-0.3
		l-0.2-0.1c-0.3-0.1-0.5-0.3-0.7-0.4c-0.6-0.3-1.4-0.7-2.2-1c-1.5,2.1-2,4.7-0.8,8.1c2.6,7.6,17.3,10.1,23.9,11.8
		c10,2.7,20.4,4.2,30.7,5.1c11,1,24,0.3,30.5-8.6c1.1-1.5,2-3.5,1.3-5.3C291.2,130.3,288.9,129.5,286.8,128.9z"/>
</g>
<g>
	<path fill="#F15A22" d="M233.3,118l0.7-2.6c-1.3-0.3-2.8-1-4.4-2.2c-11.9-9-2.9-57.1-2.7-57.1c0,0,7.1,25.1,13.9,38.8
		c3,6.1,1.8,19.2-4.5,20.5c0.6,2.4,1.1,4.8,1.4,7.3c8.6,1.3,16.3-1.4,18.4-8.4c5-17.2-32.6-81.8-26.6-99.2
		c0.7-2.1-22.8,50.3-20.1,78.9c1.4,14.8,12.6,24.4,23.8,27.7C233.2,120.4,233.3,119.2,233.3,118z"/>
	<path fill="#FEBE17" d="M240.8,94.9c-6.8-13.7-13.9-38.8-13.9-38.8c-0.2,0-9.2,48.1,2.7,57.1c1.6,1.2,3.1,1.9,4.4,2.2l1.2-4.2
		c0.4,1.4,0.8,2.8,1.1,4.2C242.7,114,243.9,100.9,240.8,94.9z"/>
	<path fill="#5EA746" d="M255.6,209.8c0.1-8.1,0-16.2-1.5-24.2c-15.6,7.1-31.8,13.3-45.2,18.1c0,0.5-0.1,0.9-0.1,1.4
		c-0.8,15-1.3,30.1-1.3,45.1c15.9-5.2,32.5-11.3,47.5-17.1C255.4,225.4,255.6,217.6,255.6,209.8z"/>
	<path fill="#F1291E" d="M253.3,281.8c-15,4.7-30.9,8.2-44.9,10.8c0.4,9.1,0.9,18.2,1.6,27.3c0.2,3.3,0.5,6.5,0.7,9.8h41.2
		c0.4-0.1,0.9-0.3,1.3-0.4C252.6,313.5,252.8,297.6,253.3,281.8z"/>
	<path fill="#417E32" d="M254.1,185.6c1.5,7.9,1.6,16.1,1.5,24.2c-0.1,7.8-0.3,15.6-0.5,23.4c8-3.1,15.5-6.1,22.3-8.8
		c0.2-4.9,0.4-9.5,0.7-13.9c0.1-1.8,0.3-3.6,0.4-5.3c-3-7.5-5.6-18.4-8.3-27.4C265,180.5,259.6,183.2,254.1,185.6z"/>
	<path fill="#CA160A" d="M253.2,329.2c10.1-3.1,19.1-6.3,26.6-9.1c-0.8-13.5-1.7-30.3-2.2-47.5c-7.4,3.4-15.7,6.5-24.3,9.2
		C252.8,297.6,252.6,313.5,253.2,329.2z"/>
	<path fill="#417E32" d="M208.9,205.1c0-0.5,0.1-0.9,0.1-1.4c-6.7,2.4-12.7,4.4-17.6,6c0.5,13.9,0.9,29.4,1.2,45.2
		c4.9-1.5,9.9-3,15-4.7C207.6,235.2,208.1,220.1,208.9,205.1z"/>
	<path fill="#CA160A" d="M208.4,292.6c-5.7,1.1-11,2-15.8,2.7c-0.2,12.4-0.6,24-1.4,34.3h19.5c-0.2-3.3-0.4-6.5-0.7-9.8
		C209.3,310.8,208.8,301.7,208.4,292.6z"/>
	<path fill="#F4D3BE" d="M199.1,124.9c0.2,0.1,0.4,0.1,0.5,0.2C199.5,125,199.3,124.9,199.1,124.9z"/>
	<path fill="#F4D3BE" d="M201.6,125.6c0.2,0.1,0.4,0.1,0.7,0.2C202,125.7,201.8,125.6,201.6,125.6z"/>
	<path fill="#F4D3BE" d="M198.1,124.6c0.1,0,0.3,0.1,0.4,0.1C198.4,124.6,198.3,124.6,198.1,124.6z"/>
	<path fill="#F4D3BE" d="M204.6,126.3c0.2,0.1,0.5,0.1,0.7,0.2C205,126.4,204.8,126.3,204.6,126.3z"/>
	<path fill="#F4D3BE" d="M203.1,126c0.2,0,0.4,0.1,0.6,0.1C203.5,126.1,203.3,126,203.1,126z"/>
	<path fill="#F4D3BE" d="M206.3,126.7c0.2,0,0.4,0.1,0.7,0.1C206.8,126.7,206.5,126.7,206.3,126.7z"/>
	<path fill="#F4D3BE" d="M193.4,122.6l0.2,0.1L193.4,122.6z"/>
	<path fill="#F4D3BE" d="M194.2,123c0.1,0,0.2,0.1,0.3,0.1C194.4,123.1,194.3,123,194.2,123z"/>
	<path fill="#F4D3BE" d="M200.7,125.3c-0.2-0.1-0.4-0.1-0.6-0.2c0.1,0,0.2,0.1,0.3,0.1C200.5,125.3,200.6,125.3,200.7,125.3z"/>
	<path fill="#F4D3BE" d="M196,123.8c0.1,0,0.2,0.1,0.3,0.1C196.1,123.8,196,123.8,196,123.8z"/>
	<path fill="#F4D3BE" d="M195,123.4c0.1,0,0.2,0.1,0.3,0.1C195.2,123.5,195.1,123.4,195,123.4z"/>
	<path fill="#F4D3BE" d="M197,124.2l0.1,0.1L197,124.2z"/>
	<path fill="#F4D3BE" d="M248.8,129.4c0.2,0,0.4,0,0.6,0C249.2,129.4,249,129.4,248.8,129.4z"/>
	<path fill="#F4D3BE" d="M247,129.5c0.2,0,0.3,0,0.5,0C247.4,129.4,247.2,129.4,247,129.5z"/>
	<path fill="#F4D3BE" d="M232.5,129.3c0.2,0,0.5,0,0.7,0C233,129.3,232.7,129.3,232.5,129.3z"/>
	<path fill="#F4D3BE" d="M240.7,129.5c0.2,0,0.5,0,0.7,0C241.1,129.5,240.9,129.5,240.7,129.5z"/>
	<path fill="#F4D3BE" d="M244.7,129.5c0.2,0,0.4,0,0.7,0C245.2,129.5,245,129.5,244.7,129.5z"/>
	<path fill="#F4D3BE" d="M250.9,129.4c0.1,0,0.3,0,0.4,0C251.2,129.4,251,129.4,250.9,129.4z"/>
	<path fill="#F4D3BE" d="M254.7,129.2l0.2,0L254.7,129.2z"/>
	<path fill="#F4D3BE" d="M252.7,129.3c0.2,0,0.4,0,0.6,0C253,129.3,252.9,129.3,252.7,129.3z"/>
	<path fill="#F4D3BE" d="M224.5,128.9c0.4,0,0.7,0,1.1,0.1C225.2,128.9,224.8,128.9,224.5,128.9z"/>
	<path fill="#F4D3BE" d="M226.6,129c0.3,0,0.5,0,0.8,0C227.1,129.1,226.9,129,226.6,129z"/>
	<path fill="#F4D3BE" d="M228.4,129.1c0.3,0,0.7,0,1,0.1C229.1,129.2,228.8,129.1,228.4,129.1z"/>
	<path fill="#F4D3BE" d="M238.9,129.5c0.2,0,0.5,0,0.7,0C239.4,129.5,239.1,129.5,238.9,129.5z"/>
	<path fill="#F4D3BE" d="M222.6,128.8c0.3,0,0.5,0,0.8,0.1C223.1,128.8,222.9,128.8,222.6,128.8z"/>
	<path fill="#F4D3BE" d="M243.6,129.5c-0.2,0-0.4,0-0.6,0C243.2,129.5,243.4,129.5,243.6,129.5z"/>
	<path fill="#F4D3BE" d="M218.7,128.4c0.3,0,0.5,0.1,0.8,0.1C219.2,128.5,219,128.4,218.7,128.4z"/>
	<path fill="#F4D3BE" d="M211.3,127.5c0.2,0,0.5,0.1,0.7,0.1C211.7,127.6,211.5,127.5,211.3,127.5z"/>
	<path fill="#F4D3BE" d="M213.3,127.8c0.2,0,0.5,0.1,0.7,0.1C213.8,127.9,213.5,127.8,213.3,127.8z"/>
	<path fill="#F4D3BE" d="M209.7,127.3c0.2,0,0.5,0.1,0.7,0.1C210.2,127.3,210,127.3,209.7,127.3z"/>
	<path fill="#F4D3BE" d="M214.9,128c0.2,0,0.5,0.1,0.7,0.1C215.4,128.1,215.2,128,214.9,128z"/>
	<path fill="#F4D3BE" d="M256.5,129.2c0.2,0,0.3,0,0.5,0C256.8,129.1,256.7,129.2,256.5,129.2z"/>
	<path fill="#F4D3BE" d="M260.5,128.9c-0.1,0-0.2,0-0.3,0l0.2,0L260.5,128.9z"/>
	<path fill="#F4D3BE" d="M207.8,126.9c0.2,0,0.4,0.1,0.6,0.1C208.2,127,208,127,207.8,126.9z"/>
	<path fill="#F4D3BE" d="M262.6,128.8L262.6,128.8L262.6,128.8z"/>
	<path fill="#F4D3BE" d="M258.3,129.1c0.1,0,0.2,0,0.3,0C258.5,129.1,258.4,129.1,258.3,129.1z"/>
	<path fill="#F4D3BE" d="M217,128.2c0.2,0,0.5,0.1,0.7,0.1C217.5,128.3,217.3,128.3,217,128.2z"/>
	<path fill="#F4D3BE" d="M230.7,129.2c0.3,0,0.5,0,0.8,0C231.2,129.3,230.9,129.2,230.7,129.2z"/>
	<path fill="#F4D3BE" d="M220.6,128.6c0.3,0,0.7,0.1,1,0.1C221.3,128.7,221,128.6,220.6,128.6z"/>
	<path fill="#F4D3BE" d="M200.5,159.2c7.3,1.6,5.2,16.7,12.5,15.7c7.3-1,8.2-18.8,16.1-16.2c7.9,2.6,1.6,16.2,12.6,16.2
		c11,0,13.8-16.7,21.5-12c2.5,1.5,4.8,7.6,7,15c2.7,8.9,5.3,19.9,8.3,27.4c2.1,5.2,4.4,8.7,7,8.7c9.4,0,2.7-43.4,4.5-50.6
		c5.2-20.8,6.2-40.3-11.3-36.5c-2.5,0.5-5.8,1-9.8,1.4c0.6,0.2,1.3,0.4,1.9,0.6c2.1,0.6,4.4,1.5,5.2,3.5c0.7,1.8-0.2,3.7-1.3,5.3
		c-6.5,8.9-19.5,9.5-30.5,8.6c-10.3-0.9-20.6-2.4-30.7-5.1c-6.6-1.8-21.2-4.3-23.9-11.8c-1.2-3.4-0.8-6,0.8-8.1
		c-1-0.3-2.2-0.5-3.3-0.4c-1.5,1.8-2.9,3.7-3,6.5c-0.1,4.9,3.1,9.8,7.1,12.5c5.4,3.7,12.1,4.6,18.5,5.4c11.3,1.5,22.6,3,33.9,4.4
		c-17.1,3.6-35.2,2.8-51.8-2.5c-4.1-1.3-8.2-2.9-11.6-5.6c-0.1-0.1-0.3-0.2-0.4-0.4c-0.4,6.7-1.1,13.3-4.2,18.1
		c-5.2,7.8-7.8,15.1-3.7,19.3c2.6,2.6,10.4-6.3,17.7-12.9C193.7,161.7,197.8,158.6,200.5,159.2z M216.9,164.3
		c-1.5,2.8-4.7,4.6-7.9,4.4c0.1-3.4,1.7-6.7,4.2-8.9l1.9,0.4c0.9-0.3,1.9,0.4,2.2,1.3C217.6,162.5,217.3,163.5,216.9,164.3z
		 M249.9,164c-2.4,2.9-6.6,4.3-10.3,3.4l0-1.1c-0.3,0.3-0.9-0.1-1-0.5c-0.1-0.5,0.2-0.9,0.5-1.2c2.4-2.8,6.3-4.1,9.8-3.5
		c0.6,0.1,1.2,0.3,1.5,0.9C250.8,162.7,250.4,163.5,249.9,164z M283.1,197.3c-2.6-5.1-4.3-10.6-5-16.3c-0.4-2.8-1-13.4,3.1-14.4
		c4.9-1.2,5.2,11.7,5.4,14.7C286.9,186.8,286,192.6,283.1,197.3z M274.6,144.3c3.3-2.6,3.8-7.1,7-9.7c2.8-2.3,5.1-3.4,5.5,0.8
		c0.4,4.7-5.9,8.5-9.2,10.4c-4.4,2.6-9.1,5.1-14.1,4.9C266.3,147.1,271.3,147,274.6,144.3z"/>
	<path fill="#FFEFDF" d="M191.7,147.1c16.7,5.3,34.7,6.2,51.8,2.5c-11.3-1.5-22.6-2.9-33.9-4.4c-6.4-0.8-13.1-1.8-18.5-5.4
		c-3.9-2.7-7.2-7.5-7.1-12.5c0.1-2.8,1.5-4.7,3-6.5c-2.8,0.2-5.6,2-6.4,7.6c-0.6,3.9-0.8,8.3-1,12.7c0.1,0.1,0.3,0.2,0.4,0.4
		C183.5,144.2,187.6,145.8,191.7,147.1z"/>
	<path fill="#FFEFDF" d="M281.2,166.5c-4.2,1-3.5,11.6-3.1,14.4c0.7,5.7,2.4,11.2,5,16.3c2.9-4.7,3.8-10.5,3.5-16
		C286.4,178.2,286.1,165.3,281.2,166.5z"/>
	<path fill="#FFEFDF" d="M249,161.1c-3.6-0.7-7.5,0.7-9.8,3.5c-0.3,0.4-0.6,0.8-0.5,1.2c0.1,0.5,0.6,0.8,1,0.5l0,1.1
		c3.7,0.9,7.8-0.4,10.3-3.4c0.5-0.6,0.9-1.4,0.6-2.1C250.2,161.5,249.6,161.2,249,161.1z"/>
	<path fill="#FFEFDF" d="M215.2,160.3l-1.9-0.4c-2.6,2.2-4.1,5.5-4.2,8.9c3.2,0.2,6.4-1.6,7.9-4.4c0.4-0.8,0.7-1.8,0.5-2.7
		C217.1,160.6,216.1,159.9,215.2,160.3z"/>
	<path fill="#FFEFDF" d="M263.7,150.8c5.1,0.2,9.8-2.3,14.1-4.9c3.3-1.9,9.7-5.8,9.2-10.4c-0.4-4.2-2.7-3.1-5.5-0.8
		c-3.2,2.6-3.7,7-7,9.7C271.3,147,266.3,147.1,263.7,150.8z"/>
	<path fill="#D69A70" d="M200.3,126c-0.5,6,10.8,8.7,14.9,10c9,2.9,18.4,4.4,27.8,4.2c5-0.1,10.2-0.6,14.6-3.1
		c1.6-0.9,3.1-2.1,3.6-3.9c0.4-1.4,0-3-0.9-4.2l-0.2,0c-0.5,0-1,0.1-1.6,0.1c-0.1,0-0.2,0-0.3,0c-0.4,0-0.9,0-1.4,0.1
		c-0.2,0-0.3,0-0.5,0c-0.5,0-1.1,0-1.6,0.1l-0.2,0c-0.5,0-1,0-1.4,0.1c-0.2,0-0.4,0-0.6,0c-0.5,0-0.9,0-1.4,0c-0.1,0-0.3,0-0.4,0
		c-0.5,0-1,0-1.5,0c-0.2,0-0.4,0-0.6,0c-0.4,0-0.8,0-1.2,0c-0.2,0-0.3,0-0.5,0c-0.5,0-1.1,0-1.6,0c-0.2,0-0.4,0-0.7,0
		c-0.4,0-0.8,0-1.2,0c-0.2,0-0.4,0-0.6,0c-0.5,0-1.1,0-1.6,0c-0.2,0-0.5,0-0.7,0c-0.4,0-0.7,0-1.1,0c-0.2,0-0.5,0-0.7,0
		c-0.1,0-0.2,0-0.4,0c0.1,0.9,0.1,1.8,0.1,2.7c0,1.1,0,2.2-0.6,3.2c-0.6,0.9-1.9,1.4-2.8,0.7c-0.6-2.2-1.1-4.4-1.4-6.7
		c-0.2,0-0.4,0-0.7,0c-0.2,0-0.5,0-0.7,0c-0.3,0-0.7,0-1,0c-0.3,0-0.5,0-0.8,0c-0.4,0-0.8,0-1.2-0.1c-0.3,0-0.7,0-1-0.1
		c-0.3,0-0.7,0-1-0.1c-0.3,0-0.5,0-0.8,0c-0.4,0-0.7,0-1.1-0.1c-0.4,0-0.7,0-1.1-0.1c-0.4,0-0.7,0-1.1-0.1c-0.3,0-0.5,0-0.8-0.1
		c-0.3,0-0.6-0.1-1-0.1c-0.3,0-0.7-0.1-1-0.1c-0.4,0-0.8-0.1-1.2-0.1c-0.3,0-0.5,0-0.8-0.1c-0.3,0-0.6-0.1-0.9-0.1
		c-0.2,0-0.5-0.1-0.7-0.1c-0.5-0.1-0.9-0.1-1.4-0.2c-0.2,0-0.5-0.1-0.7-0.1c-0.3,0-0.6-0.1-0.9-0.1c-0.2,0-0.5-0.1-0.7-0.1
		c-0.5-0.1-0.9-0.1-1.3-0.2c-0.2,0-0.5-0.1-0.7-0.1c-0.3,0-0.6-0.1-0.8-0.1c-0.2,0-0.5-0.1-0.7-0.1c-0.4-0.1-0.9-0.1-1.3-0.2
		c-0.2,0-0.4-0.1-0.6-0.1c-0.3,0-0.6-0.1-0.8-0.2c-0.2,0-0.4-0.1-0.7-0.1c-0.4-0.1-0.7-0.1-1.1-0.2c-0.2,0-0.5-0.1-0.7-0.2
		c-0.3-0.1-0.6-0.1-0.8-0.2c-0.2,0-0.4-0.1-0.6-0.1c-0.3-0.1-0.6-0.1-0.9-0.2c-0.2-0.1-0.4-0.1-0.7-0.2c-0.3-0.1-0.6-0.2-0.9-0.2
		c-0.1,0-0.2,0-0.3-0.1C200.4,125.5,200.3,125.7,200.3,126z"/>
	<path fill="#5F2F18" d="M235.3,136.1c0.8,0.7,2.2,0.2,2.8-0.7c0.6-0.9,0.6-2.1,0.6-3.2c0-0.9-0.1-1.8-0.1-2.7
		c-0.1-2.3-0.4-4.5-0.7-6.8c-0.4-2.5-0.8-4.9-1.4-7.3c-0.3-1.4-0.7-2.8-1.1-4.2l-1.2,4.2l-0.7,2.6c-0.1,1.2-0.1,2.5-0.1,3.7
		c0,2.6,0.2,5.1,0.6,7.7C234.2,131.6,234.7,133.8,235.3,136.1z"/>
	<path fill="#F1291E" d="M211,339.6c14.7-2.6,28.6-6.2,40.9-9.9h-41.2C210.9,333,211,336.3,211,339.6z"/>
	<path fill="#CA160A" d="M211,339.6c0-3.3-0.1-6.6-0.3-9.9h-19.5c-0.3,4.6-0.7,8.9-1.2,12.9C197.1,341.8,204.1,340.8,211,339.6z"/>
	<path fill="#DAA078" d="M200.5,159.2c-2.7-0.6-6.8,2.5-11,6.4c0.1,1.4,0.2,2.9,0.2,4.6c0.5,9.5,1.1,23.4,1.7,39.6
		c4.9-1.6,10.9-3.6,17.6-6c0.5-8.2,1.3-16.7,4.6-24.1c0.1,0,0.2,0,0.3,0c5.7-1,7.6-8.2,12.2-11.8c0.8-0.6,1.9-1.2,2.9-0.9
		c1.3,0.5,1.6,2.1,1.9,3.5c1.1,5,5.2,9.1,10.1,10.3c3.9,0.9,8.1,0,11.4-2.3c0.5,1.3,0.8,2.7,1.2,4c0.3,1.1,0.5,2.2,0.7,3.3
		c5.5-2.5,10.9-5.1,16.1-7.8c-2.2-7.4-4.5-13.5-7-15c-7.7-4.7-10.6,12-21.5,12c-11,0-4.7-13.6-12.6-16.2
		c-7.9-2.6-8.8,15.1-16.1,16.2C205.7,175.9,207.8,160.8,200.5,159.2z"/>
	<path fill="#DAA078" d="M208.4,292.6c-0.6-14.1-0.9-28.2-0.8-42.4c-5.1,1.7-10.1,3.2-15,4.7c0.2,13.6,0.2,27.4,0,40.4
		C197.4,294.6,202.7,293.7,208.4,292.6z"/>
	<path fill="#DAA078" d="M255.1,233.2c-0.5,16.2-1.3,32.4-1.8,48.6c8.6-2.7,16.9-5.7,24.3-9.2c-0.5-16.5-0.7-33.4-0.2-48.3
		C270.6,227.1,263.1,230.1,255.1,233.2z"/>
	<path fill="#DAA078" d="M279.8,320.1c-7.5,2-16.5,4.2-26.6,6.4c0,0.1,0,0.2,0,0.3c0.4,6.4,1,12.8,2.1,19.1
		c8.5-0.9,17.5-2.4,26.6-4.8c0,0-0.6-5.6-1.5-14.4C280.2,324.8,280,322.5,279.8,320.1z"/>
	<path fill="#DAA078" d="M210.1,343.4c0.6-1.3,0.8-2.6,0.9-3.8c-6.8,0.4-13.8,0.8-20.9,1c-0.3,0.9-0.7,1.8-1,2.6c0,0,7.6,1.1,20,1.9
		C209.4,344.6,209.8,344,210.1,343.4z"/>
	<path fill="#F3C3A2" d="M253.2,329.2c-0.4,0.1-0.9,0.2-1.3,0.2c-12.4,2.3-26.3,4.4-40.9,6c-0.1,2.2-0.3,4.5-0.9,6.7
		c-0.3,1-0.6,2-1.1,3c11.9,1.4,28.2,2.3,46.3,0.8c-1-5.5-1.7-11-2.1-16.5C253.2,329.4,253.2,329.3,253.2,329.2z"/>
	<path fill="#F3C3A2" d="M208.4,292.6c13.9-2.6,29.9-6.2,44.9-10.8c0.5-16.2,1.3-32.4,1.8-48.6c-15.1,5.8-31.6,11.9-47.5,17.1
		C207.5,264.4,207.8,278.5,208.4,292.6z"/>
	<path fill="#F3C3A2" d="M252.3,178.4c-3.2,2.3-7.5,3.3-11.4,2.3c-4.9-1.2-9-5.4-10.1-10.3c-0.3-1.4-0.6-3-1.9-3.5
		c-1-0.4-2.1,0.2-2.9,0.9c-4.5,3.6-6.4,10.9-12.2,11.8c-0.1,0-0.2,0-0.3,0c-3.3,7.4-4.1,15.9-4.6,24.1c13.4-4.8,29.5-11,45.2-18.1
		c-0.2-1.1-0.4-2.2-0.7-3.3C253.1,181,252.7,179.7,252.3,178.4z"/>
	<path fill="#F3C3A2" d="M270.8,128.9c-0.6-0.2-1.3-0.4-1.9-0.6c-2,0.2-4.1,0.4-6.3,0.5l0,0c-0.7,0-1.4,0.1-2.1,0.1l-0.2,0
		c0.8,1.3,1.3,2.8,0.9,4.2c-0.5,1.7-2,3-3.6,3.9c-4.4,2.5-9.6,3-14.6,3.1c-9.4,0.1-18.8-1.3-27.8-4.2c-4.1-1.3-15.4-4-14.9-10
		c0-0.3,0.1-0.5,0.1-0.7c-0.1,0-0.2-0.1-0.3-0.1c-0.2,0-0.3-0.1-0.5-0.1c-0.2-0.1-0.4-0.1-0.5-0.2c-0.2-0.1-0.4-0.1-0.6-0.2
		c-0.1,0-0.3-0.1-0.4-0.1c-0.3-0.1-0.6-0.2-1-0.3l-0.1-0.1c-0.3-0.1-0.5-0.2-0.8-0.3c-0.1,0-0.2-0.1-0.3-0.1
		c-0.2-0.1-0.4-0.2-0.6-0.3c-0.1,0-0.2-0.1-0.3-0.1c-0.2-0.1-0.4-0.2-0.6-0.3c-0.1,0-0.2-0.1-0.3-0.1c-0.2-0.1-0.4-0.2-0.6-0.3
		l-0.2-0.1c-0.3-0.1-0.5-0.3-0.7-0.4c-0.6-0.3-1.4-0.7-2.2-1c-1.5,2.1-2,4.7-0.8,8.1c2.6,7.6,17.3,10.1,23.9,11.8
		c10,2.7,20.4,4.2,30.7,5.1c11,1,24,0.3,30.5-8.6c1.1-1.5,2-3.5,1.3-5.3C275.3,130.3,272.9,129.5,270.8,128.9z"/>
</g>
</svg>
