<?xml version="1.0" encoding="UTF-8"?><svg xmlns="http://www.w3.org/2000/svg" xmlns:xlink="http://www.w3.org/1999/xlink" width="91.94000244140625" height="120.39569091796875" viewBox="-0.5000000000000071 0.36000001430511475 91.94000244140625 120.39569091796875" version="1.1">
    <!-- Generator: Sketch 47.1 (45422) - http://www.bohemiancoding.com/sketch -->
    <title>Slice 1</title>
    <desc>Created with Sketch.</desc>
    <defs/>
    <g id="Page-1" stroke="none" fill-rule="evenodd">
        <g id="游戏画板-6">
            <ellipse id="Oval" stroke="#FFFFFF" fill="#FFFFFF" fill-rule="nonzero" transform="matrix(0.815329953339067,-0.5789966037794305,0.5789966037794305,0.815329953339067,-24.4912901999609,55.69394740308826)" cx="75.0630625" cy="66.2407845" rx="1.66" ry="2.46" stroke-width="1"/>
            <path d="M76.72,82.22 C78.4541741,82.22 79.86,83.6258259 79.86,85.36 C79.86,87.0941741 78.4541741,88.5 76.72,88.5 C74.9858259,88.5 73.58,87.0941741 73.58,85.36 C73.58,83.6258259 74.9858259,82.22 76.72,82.22" id="Shape" fill="#EE2A0B" fill-rule="nonzero" stroke-width="1"/>
            <circle id="Oval" fill="#FFFFFF" fill-rule="nonzero" cx="76.72" cy="82.59" r="1" stroke-width="1"/>
            <circle id="Oval" fill="#FFFFFF" fill-rule="nonzero" transform="matrix(0.9659258262890683,-0.25881904510252074,0.25881904510252074,0.9659258262890683,-18.863713869917433,22.63125179130421)" cx="76.1288548" cy="82.5676925" r="1" stroke-width="1"/>
            <circle id="Oval" fill="#FFFFFF" fill-rule="nonzero" transform="matrix(0.8660254037844387,-0.49999999999999994,0.49999999999999994,0.8660254037844387,-31.37307522225052,49.10421928088082)" cx="75.5531829" cy="82.7050652" r="1" stroke-width="1"/>
            <circle id="Oval" fill="#FFFFFF" fill-rule="nonzero" transform="matrix(0.7071067811865476,-0.7071067811865475,0.7071067811865475,0.7071067811865476,-36.8593874815558,77.74280884126287)" cx="75.024178" cy="82.9746212" r="1" stroke-width="1"/>
            <circle id="Oval" fill="#FFFFFF" fill-rule="nonzero" transform="matrix(0.5000000000000001,-0.8660254037844386,0.8660254037844386,0.5000000000000001,-35.065826342403184,106.83061116557055)" cx="74.5951099" cy="83.3932015" r="1" stroke-width="1"/>
            <circle id="Oval" fill="#FFFFFF" fill-rule="nonzero" transform="matrix(0.25881904510252074,-0.9659258262890683,0.9659258262890683,0.25881904510252074,-26.06764242923549,134.60327897606834)" cx="74.2853827" cy="83.8976458" r="1" stroke-width="1"/>
            <circle id="Oval" fill="#FFFFFF" fill-rule="nonzero" cx="74.11" cy="85.24" r="1" stroke-width="1"/>
            <circle id="Oval" fill="#FFFFFF" fill-rule="nonzero" transform="matrix(0.9659258262890683,-0.25881904510252074,0.25881904510252074,0.9659258262890683,-19.763860729601873,22.265611579799376)" cx="74.2901249" cy="85.8035192" r="1" stroke-width="1"/>
            <circle id="Oval" fill="#FFFFFF" fill-rule="nonzero" transform="matrix(0.8660254037844387,-0.49999999999999994,0.49999999999999994,0.8660254037844387,-33.29706206949001,49.119186613888765)" cx="74.619119" cy="86.3027567" r="1" stroke-width="1"/>
            <circle id="Oval" fill="#FFFFFF" fill-rule="nonzero" transform="matrix(0.7071067811865476,-0.7071067811865475,0.7071067811865475,0.7071067811865476,-39.48707692233212,78.85159535563614)" cx="75.0487574" cy="86.7009163" r="1" stroke-width="1"/>
            <circle id="Oval" fill="#FFFFFF" fill-rule="nonzero" transform="matrix(0.5000000000000001,-0.8660254037844386,0.8660254037844386,0.5000000000000001,-37.667132644827205,109.47028448372302)" cx="75.5804808" cy="86.9658364" r="1" stroke-width="1"/>
            <circle id="Oval" fill="#FFFFFF" fill-rule="nonzero" transform="matrix(0.25881904510252074,-0.9659258262890683,0.9659258262890683,0.25881904510252074,-27.757960957956925,138.78565498125494)" cx="76.1655133" cy="87.0902669" r="1" stroke-width="1"/>
            <circle id="Oval" fill="#FFFFFF" fill-rule="nonzero" cx="76.76" cy="87.84" r="1" stroke-width="1"/>
            <circle id="Oval" fill="#FFFFFF" fill-rule="nonzero" transform="matrix(0.9659258262890683,-0.25881904510252074,0.25881904510252074,0.9659258262890683,-20.127089225985813,23.164759234532198)" cx="77.5233635" cy="87.6325898" r="1" stroke-width="1"/>
            <circle id="Oval" fill="#FFFFFF" fill-rule="nonzero" transform="matrix(0.8660254037844387,-0.49999999999999994,0.49999999999999994,0.8660254037844387,-33.27843424343773,51.039512607150435)" cx="78.2118104" cy="87.2281603" r="1" stroke-width="1"/>
            <circle id="Oval" fill="#FFFFFF" fill-rule="nonzero" transform="matrix(0.7071067811865476,-0.7071067811865475,0.7071067811865475,0.7071067811865476,-38.37536150385931,81.47221379641243)" cx="78.7679814" cy="86.6692659" r="1" stroke-width="1"/>
            <circle id="Oval" fill="#FFFFFF" fill-rule="nonzero" transform="matrix(0.5000000000000001,-0.8660254037844386,0.8660254037844386,0.5000000000000001,-35.02245882667472,112.08025190621026)" cx="79.1631157" cy="85.9804654" r="1" stroke-width="1"/>
            <circle id="Oval" fill="#FFFFFF" fill-rule="nonzero" transform="matrix(0.25881904510252074,-0.9659258262890683,0.9659258262890683,0.25881904510252074,-23.570923994858617,140.48722178858867)" cx="79.3677937" cy="85.2127245" r="1" stroke-width="1"/>
            <circle id="Oval" fill="#FFFFFF" fill-rule="nonzero" cx="79.36" cy="85.2" r="1" stroke-width="1"/>
            <circle id="Oval" fill="#FFFFFF" fill-rule="nonzero" transform="matrix(0.9659258262890683,-0.25881904510252074,0.25881904510252074,0.9659258262890683,-19.23035306162903,23.528986642974544)" cx="79.3550222" cy="84.4090105" r="1" stroke-width="1"/>
            <circle id="Oval" fill="#FFFFFF" fill-rule="nonzero" transform="matrix(0.8660254037844387,-0.49999999999999994,0.49999999999999994,0.8660254037844387,-31.361768243220382,51.024545501101386)" cx="79.1422141" cy="83.6441291" r="1" stroke-width="1"/>
            <circle id="Oval" fill="#FFFFFF" fill-rule="nonzero" transform="matrix(0.7071067811865476,-0.7071067811865475,0.7071067811865475,0.7071067811865476,-35.757671967182546,80.36756937793965)" cx="78.7434021" cy="82.9571129" r="1" stroke-width="1"/>
            <circle id="Oval" fill="#FFFFFF" fill-rule="nonzero" transform="matrix(0.5000000000000001,-0.8660254037844386,0.8660254037844386,0.5000000000000001,-32.417492270212875,109.42691833401994)" cx="78.1677447" cy="82.3978306" r="1" stroke-width="1"/>
            <circle id="Oval" fill="#FFFFFF" fill-rule="nonzero" transform="matrix(0.25881904510252074,-0.9659258262890683,0.9659258262890683,0.25881904510252074,-21.874017404255653,136.2889375128039)" cx="77.480592" cy="82.0078559" r="1" stroke-width="1"/>
            <circle id="Oval" fill="#F3D08E" fill-rule="nonzero" cx="76.72" cy="85.35" r="1.72" stroke-width="1"/>
            <rect id="Rectangle-path" fill="#E7B558" fill-rule="nonzero" x="72.1" y="71.72" width="2.21" height="3.78" rx="1.1" stroke-width="1"/>
            <circle id="Oval" fill="#FFFFFF" fill-rule="nonzero" cx="73.21" cy="77.13" r="3.51" stroke-width="1"/>
            <rect id="Rectangle-path" fill="#824D4C" fill-rule="nonzero" transform="matrix(0.9999120277790478,0.013264113343632793,-0.013264113343632793,0.9999120277790478,1.3252442846958132,-0.5937315147363904)" x="35.8678998" y="79.090754" width="19.11" height="41.04" stroke-width="1"/>
            <path d="M66.47,68.78 C58,56.41 47.67,37.13 47.67,37.13 C47.67,37.13 39.13,55.56 26.37,70.65 C18.5776983,79.8228544 9.72599693,88.0401335 -7.10542736e-15,95.13 C2.9027521,101.505337 9.01999811,105.817996 16,106.41 C28.1,107.62 34.47,101.12 34.47,101.12 C37.0008689,105.433396 41.7259741,107.97531 46.72,107.71 C51.9786016,107.431036 56.8745212,104.943124 60.2,100.86 C64.5357098,104.881546 70.4360778,106.765266 76.3,106 C86.3,104.79 90.94,96.32 90.94,96.32 C90.94,96.32 75,81.16 66.47,68.78 Z" id="Shape" fill="#2A7250" fill-rule="nonzero" stroke-width="1"/>
            <path d="M65.17,55.86 C57.27,44.37 47.71,26.46 47.71,26.46 C47.71,26.46 39.78,43.58 27.93,57.59 C20.6992251,66.1060808 12.4853587,73.7358799 3.46,80.32 C6.15504529,86.242417 11.836558,90.2492981 18.32,90.8 C29.56,91.92 35.47,85.89 35.47,85.89 C37.8242974,89.892408 42.2131832,92.2488309 46.85,92 C51.7337924,91.7415784 56.2810358,89.4316369 59.37,85.64 C63.3924621,89.373914 68.8671559,91.1255228 74.31,90.42 C83.63,89.29 87.9,81.42 87.9,81.42 C87.9,81.42 73.08,67.35 65.17,55.86 Z" id="Shape" fill="#2D7C58" fill-rule="nonzero" stroke-width="1"/>
            <path d="M62.94,44.65 C56,34.58 47.65,18.9 47.65,18.9 C47.65,18.9 40.7,33.9 30.32,46.16 C23.9878321,53.6195122 16.7943873,60.302736 8.89,66.07 C11.2494199,71.2499835 16.2186623,74.7552106 21.89,75.24 C31.73,76.24 36.89,70.94 36.89,70.94 C38.9541647,74.4608547 42.8151837,76.5303609 46.89,76.3 C51.1795401,76.0831071 55.1764324,74.0592262 57.89,70.73 C61.4114668,73.9997229 66.2041202,75.5349842 70.97,74.92 C75.913197,74.1978528 80.2688431,71.2891921 82.83,67 C82.83,67 69.86,54.71 62.94,44.65 Z" id="Shape" fill="#34815F" fill-rule="nonzero" stroke-width="1"/>
            <path d="M60.23,32.83 C54.49,24.49 47.55,11.49 47.55,11.49 C43.6584598,19.5583538 38.8356268,27.1433243 33.18,34.09 C27.9319575,40.2716621 21.9704614,45.8102143 15.42,50.59 C17.377884,54.8879809 21.5037107,57.7940313 26.21,58.19 C34.37,59 38.66,54.62 38.66,54.62 C40.361224,57.5346887 43.550103,59.2526683 46.92,59.07 C50.4627291,58.879287 53.7602206,57.2014885 56,54.45 C58.9188925,57.1587779 62.8906814,58.43019 66.84,57.92 C70.9434548,57.3425001 74.5686498,54.9477411 76.71,51.4 C76.71,51.4 66,41.17 60.23,32.83 Z" id="Shape" fill="#388C6A" fill-rule="nonzero" stroke-width="1"/>
            <path d="M57.46,22.53 C52.92,15.93 47.46,5.64 47.46,5.64 C44.3711266,12.0246511 40.5450598,18.0255348 36.06,23.52 C31.9052738,28.413055 27.1857473,32.796911 22,36.58 C23.5543845,39.9753627 26.8187412,42.2688218 30.54,42.58 C37,43.22 40.39,39.76 40.39,39.76 C41.7401786,42.0640558 44.2632645,43.422047 46.93,43.28 C49.7343022,43.1238433 52.3436624,41.7955737 54.12,39.62 C56.4294378,41.7657942 59.5734807,42.7735002 62.7,42.37 C65.9469515,41.9123007 68.8153337,40.0171852 70.51,37.21 C70.51,37.21 62,29.13 57.46,22.53 Z" id="Shape" fill="#429B77" fill-rule="nonzero" stroke-width="1"/>
            <path d="M54.85,13.57 C51.43,8.57 47.3,0.86 47.3,0.86 C44.9817838,5.6653817 42.1088912,10.1828039 38.74,14.32 C35.6137932,18.002877 32.06239,21.3025267 28.16,24.15 C29.326008,26.7120318 31.7849904,28.4444097 34.59,28.68 C37.2513902,29.0688382 39.9513312,28.2927418 42,26.55 C43.0149999,28.284302 44.913355,29.30679 46.92,29.2 C49.0305629,29.0876953 50.9954397,28.0889132 52.33,26.45 C54.0697304,28.0639877 56.4362292,28.822293 58.79,28.52 C61.2358451,28.1751143 63.3959185,26.7460861 64.67,24.63 C61.0956724,21.2219854 57.8110152,17.522565 54.85,13.57 L54.85,13.57 Z" id="Shape" fill="#4CAF83" fill-rule="nonzero" stroke-width="1"/>
            <circle id="Oval" fill="#FFFFFF" fill-rule="nonzero" cx="70.51" cy="69.8" r="1.17" stroke-width="1"/>
            <path d="M24.58,52.27 C24.3853248,52.5011274 24.1019947,52.63916 23.8,52.65 C23.7269763,52.6595303 23.6530237,52.6595303 23.58,52.65 L23.43,52.65 C23.3348985,52.6345476 23.2472674,52.5889795 23.18,52.52 C23.009418,52.3291592 22.9292607,52.0741132 22.96,51.82 C22.9739045,51.493859 23.1359286,51.1919051 23.4,51 C23.6286045,50.8252118 23.8906933,50.699273 24.17,50.63 C24.3947588,50.5604951 24.6395321,50.6178639 24.81,50.78 C24.906463,50.8785961 24.9783978,50.9984874 25.02,51.13 C25.0313824,51.1995373 25.0313824,51.2704627 25.02,51.34 C25.02,51.34 25.02,51.44 25.02,51.5 C24.9298199,51.7850625 24.7798086,52.0475823 24.58,52.27 L24.58,52.27 Z" id="Shape" fill="#FFFFFF" fill-rule="nonzero" stroke-width="1"/>
            <path d="M29.14,56.49 C28.22,57.49 26.89,57.78 26.14,57.13 C25.962426,56.9671876 25.8312877,56.7601271 25.76,56.53 C25.76,56.48 25.7,56.39 25.67,56.31 C25.6409671,56.2351851 25.6175685,56.1583041 25.6,56.08 C25.5775598,55.9274877 25.5775598,55.7725123 25.6,55.62 C25.6787525,54.9916929 25.9977139,54.4182791 26.49,54.02 C26.9532871,53.6238055 27.5057391,53.3458638 28.1,53.21 L28.44,53.13 L28.59,53.13 C28.64,53.13 28.67,53.13 28.74,53.13 C28.9891698,53.1829438 29.2201515,53.3001584 29.41,53.47 C30.1388086,54.3878771 30.0200725,55.7159633 29.14,56.49 Z" id="Shape" fill="#FFFFFF" fill-rule="nonzero" stroke-width="1"/>
            <path d="M32.63,59 C32.3866021,59.501199 31.7967286,59.7284095 31.28,59.52 C31.0690576,59.3438547 30.9399027,59.0886613 30.9228779,58.8143731 C30.9058531,58.5400849 31.0024591,58.2708788 31.19,58.07 C31.4333979,57.568801 32.0232714,57.3415905 32.54,57.55 C32.7509424,57.7261453 32.8800973,57.9813387 32.8971221,58.2556269 C32.9141469,58.5299151 32.8175409,58.7991212 32.63,59 L32.63,59 Z" id="Shape" fill="#FFFFFF" fill-rule="nonzero" stroke-width="1"/>
            <path d="M38.09,62 C37.9308391,62.5691333 37.5413427,63.0460005 37.0154482,63.3155926 C36.4895537,63.5851848 35.874999,63.6230296 35.32,63.42 C35.073735,63.2952718 34.8636768,63.1093186 34.71,62.88 C34.5758039,62.6543232 34.4938009,62.4014806 34.47,62.14 C34.4092787,61.5216316 34.5420581,60.899665 34.85,60.36 C35.140364,59.810473 35.5995949,59.36877 36.16,59.1 C36.4033252,58.9942793 36.6647811,58.9365552 36.93,58.93 C37.1503159,58.910249 37.3718041,58.951778 37.57,59.05 C38.34,59.4 38.62,60.7 38.09,62 Z" id="Shape" fill="#FFFFFF" fill-rule="nonzero" stroke-width="1"/>
            <ellipse id="Oval" fill="#FFFFFF" fill-rule="nonzero" transform="matrix(0.344642923174517,-0.9387338576538741,0.9387338576538741,0.344642923174517,-32.24457140744562,80.18193717958658)" cx="41.3040414" cy="63.1845397" rx="1.17" ry="1" stroke-width="1"/>
            <path d="M48.13,65 C48,66.32 47,67.32 45.91,67.12 C45.3639332,67.0069395 44.9080384,66.6332552 44.69,66.12 C44.4376003,65.546228 44.3951201,64.9019443 44.57,64.3 C44.7228639,63.7057002 45.037926,63.1655939 45.48,62.74 C45.8116223,62.3883662 46.2899001,62.21411 46.77,62.27 C47.66,62.44 48.3,63.62 48.13,65 Z" id="Shape" fill="#FFFFFF" fill-rule="nonzero" stroke-width="1"/>
            <path d="M52.42,65.44 C52.35,66.08 51.91,66.55 51.42,66.51 C50.8784119,66.3587063 50.5521556,65.8075977 50.68,65.26 C50.74,64.62 51.18,64.14 51.68,64.19 C51.9479479,64.2508596 52.1790484,64.4192916 52.3190244,64.6557375 C52.4590004,64.8921835 52.4955178,65.1758087 52.42,65.44 Z" id="Shape" fill="#FFFFFF" fill-rule="nonzero" stroke-width="1"/>
            <path d="M58.6,66.06 C58.6496218,66.6354942 58.4655869,67.2067488 58.0893608,67.6450522 C57.7131347,68.0833556 57.1763674,68.3518356 56.6,68.39 C55.54,68.29 54.86,67.1 55.02,65.75 C55.18,64.4 56.11,63.41 57.02,63.49 C57.93,63.57 58.63,64.7 58.6,66.06 Z" id="Shape" fill="#FFFFFF" fill-rule="nonzero" stroke-width="1"/>
            <path d="M62.9,66.23 C62.9395665,66.501865 62.8655423,66.7780341 62.695308,66.9936642 C62.5250737,67.2092943 62.2736247,67.3453912 62,67.37 C61.5,67.37 61.17,66.79 61.21,66.15 C61.25,65.51 61.69,65.02 62.14,65.05 C62.59,65.08 62.89,65.59 62.9,66.23 Z" id="Shape" fill="#FFFFFF" fill-rule="nonzero" stroke-width="1"/>
            <ellipse id="Oval" fill="#FFFFFF" fill-rule="nonzero" cx="67.31" cy="66.23" rx="1.81" ry="2.46" stroke-width="1"/>
            <path d="M25.18,48.32 C25.1049221,48.5949318 24.9719524,48.8506429 24.79,49.07 C24.6745116,49.2464947 24.4696499,49.3431276 24.26,49.32 C24.0232634,49.2645391 23.8288774,49.0963205 23.74,48.87 C23.6356123,48.5928363 23.6356123,48.2871637 23.74,48.01 C23.8247265,47.739999 23.9605192,47.4887825 24.14,47.27 C24.2504903,47.0985442 24.4467944,47.0023167 24.65,47.02 C24.8815492,47.074785 25.071868,47.2389816 25.16,47.46 C25.264867,47.7359349 25.2719264,48.0394886 25.18,48.32 L25.18,48.32 Z" id="Shape" fill="#FFFFFF" fill-rule="nonzero" stroke-width="1"/>
            <path d="M30.48,49.11 C30.4195032,49.7154838 30.1947461,50.2929366 29.83,50.78 C29.6839178,50.9691889 29.5000072,51.1258535 29.29,51.24 C29.1957713,51.2908163 29.0947433,51.3278599 28.99,51.35 L28.78,51.35 L28.55,51.35 C28.0100466,51.2756046 27.570138,50.8792905 27.44,50.35 C27.2939027,49.7622765 27.2939027,49.1477235 27.44,48.56 C27.5481884,47.9707903 27.8303004,47.4274635 28.25,47 C28.5219299,46.6964366 28.9031024,46.5130423 29.31,46.49 L29.39,46.49 L29.49,46.54 C29.5908829,46.5873533 29.6850376,46.6478814 29.77,46.72 C29.9595639,46.8830761 30.112857,47.0840605 30.22,47.31 C30.4778286,47.8725515 30.5680963,48.4974815 30.48,49.11 Z" id="Shape" fill="#FFFFFF" fill-rule="nonzero" stroke-width="1"/>
            <path d="M34.18,49.43 C34.18,50.07 33.86,50.61 33.41,50.6 C32.96,50.59 32.63,50.03 32.7,49.4 C32.77,48.77 33.1,48.27 33.47,48.27 C33.84,48.27 34.16,48.79 34.18,49.43 Z" id="Shape" fill="#FFFFFF" fill-rule="nonzero" stroke-width="1"/>
            <path d="M39.53,49 C39.6212681,49.6080073 39.5235247,50.2293758 39.25,50.78 C39.0853808,51.212957 38.7058717,51.5279496 38.25,51.61 C37.7554562,51.638619 37.2817435,51.4074472 37,51 C36.6304411,50.5082484 36.4209813,49.9147789 36.4,49.3 C36.3542171,48.6933853 36.4607797,48.0849474 36.71,47.53 C36.8740914,47.0984982 37.2547146,46.7863872 37.71,46.71 C38.1841416,46.6905829 38.6358427,46.9126694 38.91,47.3 C39.2596379,47.8038078 39.4732036,48.3893912 39.53,49 L39.53,49 Z" id="Shape" fill="#FFFFFF" fill-rule="nonzero" stroke-width="1"/>
            <path d="M43.15,48.21 C43.34,48.83 43.15,49.42 42.75,49.54 C42.35,49.66 41.87,49.24 41.75,48.61 C41.63,47.98 41.75,47.4 42.15,47.3 C42.55,47.2 43,47.59 43.15,48.21 Z" id="Shape" fill="#FFFFFF" fill-rule="nonzero" stroke-width="1"/>
            <path d="M48.15,46.32 C48.4843776,46.8393976 48.6389615,47.45422 48.59,48.07 C48.5444113,48.6020324 48.215763,49.0682544 47.73,49.29 C47.2251488,49.4936079 46.6501347,49.4136391 46.22,49.08 C45.3234654,48.2235791 44.9436072,46.9586513 45.22,45.75 C45.2309303,45.3423523 45.4448122,44.9671209 45.79,44.75 C46.1849553,44.6468938 46.6053974,44.7399119 46.92,45 C47.4251779,45.3405837 47.845879,45.7920678 48.15,46.32 Z" id="Shape" fill="#FFFFFF" fill-rule="nonzero" stroke-width="1"/>
            <path d="M51.16,44.14 C51.56,44.64 51.62,45.26 51.3,45.52 C50.98,45.78 50.38,45.57 49.99,45.06 C49.6,44.55 49.54,43.94 49.86,43.69 C50.18,43.44 50.76,43.64 51.16,44.14 Z" id="Shape" fill="#FFFFFF" fill-rule="nonzero" stroke-width="1"/>
            <path d="M55.41,40.87 C55.8259122,41.3255332 56.0912945,41.8982003 56.17,42.51 C56.2422791,42.9988919 56.056999,43.4904514 55.68,43.81 C54.95,44.36 53.74,43.88 52.93,42.81 C52.12,41.74 52.05,40.41 52.7,39.92 C53.0833585,39.6540125 53.5804711,39.6157731 54,39.82 C54.5477283,40.0512937 55.0314558,40.4115163 55.41,40.87 Z" id="Shape" fill="#FFFFFF" fill-rule="nonzero" stroke-width="1"/>
            <path d="M58.11,38.33 C58.56,38.8 58.62,39.44 58.31,39.7 C58,39.96 57.45,39.76 57,39.31 C56.55,38.86 56.48,38.2 56.8,37.93 C57.12,37.66 57.67,37.86 58.11,38.33 Z" id="Shape" fill="#FFFFFF" fill-rule="nonzero" stroke-width="1"/>
            <ellipse id="Oval" fill="#FFFFFF" fill-rule="nonzero" transform="matrix(0.6775180777551102,-0.7355061211948004,0.7355061211948004,0.6775180777551102,-6.568708323586151,56.108350928002054)" cx="60.7006827" cy="35.5450223" rx="1.57" ry="2.46" stroke-width="1"/>
            <path d="M13.3,85 C13.1935586,85.5755 12.6619657,85.9720161 12.08,85.91 C11.8291937,85.8435206 11.614046,85.6821598 11.48,85.46 C11.3934859,85.3365765 11.332306,85.1972222 11.3,85.05 C11.2663285,84.8985152 11.2663285,84.7414848 11.3,84.59 C11.3413857,84.4427347 11.4019015,84.3015313 11.48,84.17 C11.5445681,84.0469681 11.6290414,83.9354633 11.73,83.84 C11.9501846,83.6508641 12.2467143,83.5767317 12.53,83.64 C12.8163079,83.7121006 13.0606158,83.8982715 13.2060808,84.1551969 C13.3515459,84.4121222 13.3854844,84.7173993 13.3,85 L13.3,85 Z" id="Shape" fill="#FFFFFF" fill-rule="nonzero" stroke-width="1"/>
            <path d="M20.52,85.6 C20.5947204,86.233399 20.4384962,86.8724983 20.08,87.4 C19.8483474,87.6809857 19.5330408,87.8806799 19.18,87.97 C19.11,88.09 18.99,88.17 18.63,88.21 C18.420582,88.2321111 18.209418,88.2321111 18,88.21 L17.81,88.21 L17.64,88.21 L17.4,88.11 C17.1120418,87.9760505 16.8613721,87.7734544 16.67,87.52 C16.299781,86.9979591 16.1457092,86.3530071 16.24,85.72 C16.3231022,85.0943788 16.6115146,84.5140368 17.06,84.07 C17.243259,83.8846405 17.4520298,83.7263788 17.68,83.6 L17.83,83.53 C17.83,83.53 17.83,83.53 17.83,83.53 L17.83,83.53 C17.8982079,83.4847536 17.9781503,83.4604233 18.06,83.46 C18.4342055,83.4329354 18.8102246,83.4735861 19.17,83.58 C19.27,83.71 19.44,83.88 19.63,84.08 C20.0912989,84.4703685 20.4053212,85.0066763 20.52,85.6 L20.52,85.6 Z" id="Shape" fill="#FFFFFF" fill-rule="nonzero" stroke-width="1"/>
            <path d="M25.58,85.3 C25.6318446,85.5858209 25.565253,85.880437 25.3955214,86.1161754 C25.2257897,86.3519138 24.9675068,86.5085122 24.68,86.55 C24.0999929,86.5168458 23.6304109,86.0664551 23.5730973,85.4883352 C23.5157837,84.9102153 23.8877926,84.376391 24.45,84.23 C25.0534124,84.2240118 25.5530903,84.6971582 25.58,85.3 L25.58,85.3 Z" id="Shape" fill="#FFFFFF" fill-rule="nonzero" stroke-width="1"/>
            <path d="M32.85,84.5 C32.9494426,85.1321802 32.8065874,85.7785999 32.45,86.31 C32.2803566,86.5547296 32.062586,86.7622921 31.81,86.92 C31.5688444,87.0762215 31.2952439,87.1754016 31.01,87.21 C29.7736674,87.1791571 28.749012,86.24216 28.608019,85.013506 C28.4670259,83.7848521 29.2527922,82.6401016 30.45,82.33 C30.7372524,82.2978989 31.0280407,82.3321093 31.3,82.43 C31.5636225,82.5278887 31.8050184,82.6774861 32.01,82.87 C32.4669359,83.3022097 32.7631765,83.8770576 32.85,84.5 L32.85,84.5 Z" id="Shape" fill="#FFFFFF" fill-rule="nonzero" stroke-width="1"/>
            <path d="M37.84,83.58 C37.9132394,83.9372656 37.7903166,84.3064654 37.5175352,84.5485254 C37.2447539,84.7905854 36.863556,84.868731 36.5175352,84.7535254 C36.1715144,84.6383198 35.9132394,84.3472656 35.84,83.99 C35.7267816,83.4377153 36.0827153,82.8982184 36.635,82.785 C37.1872847,82.6717816 37.7267816,83.0277153 37.84,83.58 L37.84,83.58 Z" id="Shape" fill="#FFFFFF" fill-rule="nonzero" stroke-width="1"/>
            <path d="M44.89,81.65 C45.0944379,82.2618801 45.0513681,82.9294622 44.77,83.51 C44.7026673,83.6473821 44.6222985,83.7779814 44.53,83.9 C44.4540352,84.0118565 44.3669229,84.1157212 44.27,84.21 C44.0717766,84.3993107 43.8320764,84.5397065 43.57,84.62 C42.9731178,84.7572283 42.3461535,84.6507295 41.8280629,84.3241072 C41.3099722,83.9974849 40.9435474,83.4777166 40.81,82.88 C40.3545119,81.6844488 40.9482183,80.3452616 42.14,79.88 C42.4283666,79.7932532 42.7325994,79.7727432 43.03,79.82 C43.1767444,79.841734 43.3208454,79.878597 43.46,79.93 C43.5862629,79.9847108 43.7068425,80.0516995 43.82,80.13 C44.3359632,80.5033928 44.7125285,81.0383268 44.89,81.65 L44.89,81.65 Z" id="Shape" fill="#FFFFFF" fill-rule="nonzero" stroke-width="1"/>
            <path d="M49.72,80.1 C49.9206209,80.6492736 49.6690417,81.2608713 49.14,81.51 C49.0183611,81.5389127 48.8916389,81.5389127 48.77,81.51 C48.628478,81.4946985 48.4901755,81.4575929 48.36,81.4 C48.0882878,81.259339 47.8859493,81.0136423 47.8,80.72 C47.7103005,80.4369362 47.7103005,80.1330638 47.8,79.85 C47.8327244,79.7220866 47.8982082,79.6049051 47.99,79.51 C48.0949312,79.4070728 48.2212622,79.3285428 48.36,79.28 C48.6497101,79.1924068 48.9629645,79.231605 49.2221584,79.3878837 C49.4813523,79.5441623 49.6622368,79.8029009 49.72,80.1 Z" id="Shape" fill="#FFFFFF" fill-rule="nonzero" stroke-width="1"/>
            <path d="M56.56,77.51 C56.89136,78.2326116 56.7990146,79.0788331 56.3195975,79.7129673 C55.8401803,80.3471015 55.0511866,80.6666439 54.2656111,80.5448317 C53.4800357,80.4230196 52.8248627,79.8795431 52.56,79.13 C52.22864,78.4073884 52.3209854,77.5611669 52.8004025,76.9270327 C53.2798197,76.2928985 54.0688134,75.9733561 54.8543889,76.0951683 C55.6399643,76.2169804 56.2951373,76.7604569 56.56,77.51 L56.56,77.51 Z" id="Shape" fill="#FFFFFF" fill-rule="nonzero" stroke-width="1"/>
            <path d="M61.16,75.39 C61.2305632,75.5325372 61.261641,75.6913794 61.25,75.85 C61.25,76.01 61.25,76.13 61.25,76.26 C61.2370948,76.5180179 61.0887787,76.7499996 60.86,76.87 C60.6378571,76.993415 60.3820398,77.0424759 60.13,77.01 C59.7922765,76.864587 59.5187125,76.6016813 59.36,76.27 C59.166623,75.9184778 59.2020555,75.4854141 59.45,75.17 C59.4875447,75.034373 59.5774877,74.919246 59.7,74.85 C59.9659718,74.7146258 60.2736219,74.6860071 60.56,74.77 C60.7090305,74.8074034 60.842187,74.8915022 60.94,75.01 C61.0232375,75.1306681 61.0968003,75.257731 61.16,75.39 L61.16,75.39 Z" id="Shape" fill="#FFFFFF" fill-rule="nonzero" stroke-width="1"/>
            <path d="M67.05,71.05 C67.4100069,71.5655736 67.5989039,72.1812378 67.59,72.81 C67.5660769,73.3886544 67.2924932,73.9285263 66.84,74.29 C65.7621099,74.9203866 64.383638,74.6510545 63.6222964,73.6613104 C62.8609549,72.6715664 62.9542196,71.2701291 63.84,70.39 C64.3074164,70.0188095 64.9161928,69.8757837 65.5,70 C66.137956,70.1246563 66.697618,70.5037822 67.05,71.05 L67.05,71.05 Z" id="Shape" fill="#FFFFFF" fill-rule="nonzero" stroke-width="1"/>
            <path d="M33.25,22.48 C33.02,22.96 32.63,23.25 32.37,23.13 C32.2354922,23.0430126 32.1588853,22.8897987 32.17,22.73 C32.1502898,22.6276066 32.1502898,22.5223934 32.17,22.42 C32.17,22.31 32.17,22.18 32.25,22.05 C32.2799063,21.9270531 32.3343268,21.8114095 32.41,21.71 C32.4866597,21.6263821 32.5702947,21.5494379 32.66,21.48 C32.7864987,21.3630464 32.9668462,21.3246746 33.13,21.38 C33.44,21.51 33.48,22 33.25,22.48 Z" id="Shape" fill="#FFFFFF" fill-rule="nonzero" stroke-width="1"/>
            <ellipse id="Oval" fill="#FFFFFF" fill-rule="nonzero" transform="matrix(0.43350181037497576,-0.9011526953860919,0.9011526953860919,0.43350181037497576,-1.0959905104296581,45.52089141417677)" cx="35.6580108" cy="23.6321654" rx="2.03" ry="1.1" stroke-width="1"/>
            <ellipse id="Oval" fill="#FFFFFF" fill-rule="nonzero" transform="matrix(0.4297232787322058,-0.9029606324284813,0.9029606324284813,0.4297232787322058,-0.6025898051452572,49.07137171041076)" cx="38.5478419" cy="25.0127479" rx="1" ry="1" stroke-width="1"/>
            <path d="M42.43,26.82 C41.98,27.82 41.15,28.47 40.58,28.21 C40.01,27.95 39.95,26.92 40.42,25.9 C40.89,24.88 41.72,24.27 42.26,24.52 C42.8,24.77 42.88,25.8 42.43,26.82 Z" id="Shape" fill="#FFFFFF" fill-rule="nonzero" stroke-width="1"/>
            <path d="M44.88,27.74 C44.8250079,27.9694912 44.7152061,28.1822322 44.56,28.36 C44.42,28.5 44.29,28.59 44.11,28.53 C43.9351562,28.4694836 43.81066,28.3138634 43.79,28.13 C43.7610138,27.8960894 43.7919842,27.6586495 43.88,27.44 C43.9606108,27.2201334 44.0906158,27.0217047 44.26,26.86 C44.41,26.73 44.53,26.65 44.64,26.69 C44.7761245,26.7650998 44.8715062,26.8971669 44.9,27.05 C44.9493746,27.2782198 44.9425107,27.5150232 44.88,27.74 L44.88,27.74 Z" id="Shape" fill="#FFFFFF" fill-rule="nonzero" stroke-width="1"/>
            <path d="M48.55,28.61 C48.35,29.71 47.65,30.5 47.02,30.36 C46.39,30.22 46.13,29.21 46.4,28.13 C46.67,27.05 47.4,26.28 47.92,26.41 C48.44,26.54 48.75,27.51 48.55,28.61 Z" id="Shape" fill="#FFFFFF" fill-rule="nonzero" stroke-width="1"/>
            <ellipse id="Oval" fill="#FFFFFF" fill-rule="nonzero" transform="matrix(0.19149425387701327,-0.9814937344334328,0.9814937344334328,0.19149425387701327,12.455976021650585,73.10272417445042)" cx="50.5998839" cy="28.9908333" rx="1" ry="1" stroke-width="1"/>
            <ellipse id="Oval" fill="#FFFFFF" fill-rule="nonzero" transform="matrix(0.18498057705259832,-0.9827421768262965,0.9827421768262965,0.18498057705259832,14.71423463541749,76.92480129897321)" cx="53.7346911" cy="29.5912631" rx="2.03" ry="1.1" stroke-width="1"/>
            <ellipse id="Oval" fill="#FFFFFF" fill-rule="nonzero" transform="matrix(0.171585221787203,-0.9851692807148609,0.9851692807148609,0.171585221787203,17.402220679793622,81.03301791072549)" cx="56.8842442" cy="30.1689548" rx="1" ry="1" stroke-width="1"/>
            <path d="M61.13,30.78 C61.13,31.9 60.42,32.78 59.77,32.67 C59.12,32.56 58.77,31.61 58.94,30.5 C59.11,29.39 59.73,28.57 60.29,28.65 C60.85,28.73 61.18,29.66 61.13,30.78 Z" id="Shape" fill="#FFFFFF" fill-rule="nonzero" stroke-width="1"/>
            <rect id="Rectangle-path" fill="#E7B558" fill-rule="nonzero" x="48.48" y="93.12" width="2.21" height="3.78" rx="1.1" stroke-width="1"/>
            <circle id="Oval" fill="#FFFFFF" fill-rule="nonzero" cx="49.58" cy="98.52" r="3.51" stroke-width="1"/>
            <path d="M52.42,96.45 L46.37,99.91 C46.4627136,100.12416 46.5766138,100.32851 46.71,100.52 L52.78,97.05 C52.6803433,96.8384769 52.5597408,96.6374727 52.42,96.45 L52.42,96.45 Z" id="Shape" stroke-width="1" fill="none"/>
            <path d="M53.09,98.52 C53.1000297,98.3668307 53.1000297,98.2131693 53.09,98.06 L47.45,101.28 C47.6572896,101.441304 47.8820298,101.578832 48.12,101.69 L53.12,98.84 C53.09,98.74 53.09,98.63 53.09,98.52 Z" id="Shape" stroke-width="1" fill="none"/>
            <path d="M49.57,102 L49.57,102 C50.8067114,101.989035 51.9463833,101.328025 52.57,100.26 L49.57,102 Z" id="Shape" stroke-width="1" fill="none"/>
            <path d="M46.64,96.61 L49.42,95 C48.2872195,95.0545743 47.2510971,95.6546308 46.64,96.61 L46.64,96.61 Z" id="Shape" stroke-width="1" fill="none"/>
            <path d="M51,95.3 L46.12,98.09 C46.0876559,98.3556859 46.0876559,98.6243141 46.12,98.89 L51.7,95.7 C51.4828536,95.5401479 51.2479623,95.4059243 51,95.3 L51,95.3 Z" id="Shape" stroke-width="1" fill="none"/>
            <path d="M49.58,95 L49.42,95 L46.64,96.59 C46.3495484,97.0357266 46.1648429,97.5419567 46.1,98.07 L51,95.3 C50.5528271,95.1018819 50.0690953,94.9996851 49.58,95 L49.58,95 Z" id="Shape" fill="#EB1B3F" fill-rule="nonzero" stroke-width="1"/>
            <path d="M51.67,95.7 L46.09,98.89 C46.1297581,99.2349078 46.2207601,99.5719523 46.36,99.89 L52.41,96.43 C52.200708,96.1514832 51.9513384,95.9054834 51.67,95.7 L51.67,95.7 Z" id="Shape" fill="#EB1B3F" fill-rule="nonzero" stroke-width="1"/>
            <path d="M52.77,97.05 L46.7,100.52 C46.9008913,100.807712 47.1435594,101.063861 47.42,101.28 L53.06,98.06 C53.0150129,97.7105953 52.9172318,97.3700472 52.77,97.05 Z" id="Shape" fill="#EB1B3F" fill-rule="nonzero" stroke-width="1"/>
            <path d="M53.08,98.85 L48.08,101.7 C48.5401301,101.915713 49.0418181,102.028336 49.55,102.03 L52.55,100.29 C52.8316076,99.8554128 53.0126753,99.3634552 53.08,98.85 L53.08,98.85 Z" id="Shape" fill="#EB1B3F" fill-rule="nonzero" stroke-width="1"/>
            <ellipse id="Oval" fill="#EFD4D4" fill-rule="nonzero" transform="matrix(0.571429938149352,-0.8206508549844007,0.8206508549844007,0.571429938149352,-58.78688750238668,81.24933820554918)" cx="48.3970328" cy="96.908943" rx="1.12" ry="1" stroke-width="1"/>
            <rect id="Rectangle-path" fill="#E7B558" fill-rule="nonzero" x="35.63" y="70.48" width="2.21" height="3.78" rx="1.1" stroke-width="1"/>
            <circle id="Oval" fill="#FFFFFF" fill-rule="nonzero" cx="36.73" cy="75.89" r="3.51" stroke-width="1"/>
            <path d="M39.56,73.82 L33.51,77.28 C33.6027136,77.4941598 33.7166138,77.6985101 33.85,77.89 L39.92,74.42 C39.8203433,74.2084769 39.6997408,74.0074727 39.56,73.82 L39.56,73.82 Z" id="Shape" stroke-width="1" fill="none"/>
            <path d="M40.24,75.89 C40.2500297,75.7368307 40.2500297,75.5831693 40.24,75.43 L34.6,78.65 C34.8072896,78.8113045 35.0320298,78.9488321 35.27,79.06 L40.27,76.21 C40.23,76.11 40.24,76 40.24,75.89 Z" id="Shape" stroke-width="1" fill="none"/>
            <path d="M36.72,79.4 L36.72,79.4 C37.9567114,79.3890348 39.0963833,78.7280251 39.72,77.66 L36.72,79.4 Z" id="Shape" stroke-width="1" fill="none"/>
            <path d="M33.79,74 L36.57,72.41 C35.4409779,72.4600929 34.4056189,73.0522587 33.79,74 L33.79,74 Z" id="Shape" stroke-width="1" fill="none"/>
            <path d="M38.13,72.67 L33.25,75.46 C33.2176559,75.7256859 33.2176559,75.9943141 33.25,76.26 L38.83,73.07 C38.6128536,72.9101479 38.3779623,72.7759243 38.13,72.67 L38.13,72.67 Z" id="Shape" stroke-width="1" fill="none"/>
            <path d="M36.73,72.38 L36.57,72.38 L33.79,74 C33.4995484,74.4457266 33.3148429,74.9519567 33.25,75.48 L38.13,72.69 C37.6897284,72.4911556 37.2130598,72.3856075 36.73,72.38 L36.73,72.38 Z" id="Shape" fill="#EB1B3F" fill-rule="nonzero" stroke-width="1"/>
            <path d="M38.82,73.07 L33.24,76.26 C33.2797581,76.6049078 33.3707601,76.9419523 33.51,77.26 L39.56,73.8 C39.350708,73.5214832 39.1013384,73.2754834 38.82,73.07 L38.82,73.07 Z" id="Shape" fill="#EB1B3F" fill-rule="nonzero" stroke-width="1"/>
            <path d="M39.91,74.42 L33.84,77.89 C34.0408913,78.1777117 34.2835594,78.4338613 34.56,78.65 L40.2,75.43 C40.1550129,75.0805953 40.0572318,74.7400472 39.91,74.42 L39.91,74.42 Z" id="Shape" fill="#EB1B3F" fill-rule="nonzero" stroke-width="1"/>
            <path d="M40.22,76.22 L35.22,79.07 C35.6801301,79.2857126 36.1818181,79.3983365 36.69,79.4 L39.69,77.66 C39.9716076,77.2254128 40.1526753,76.7334552 40.22,76.22 L40.22,76.22 Z" id="Shape" fill="#EB1B3F" fill-rule="nonzero" stroke-width="1"/>
            <ellipse id="Oval" fill="#EFD4D4" fill-rule="nonzero" transform="matrix(0.571429938149352,-0.8206508549844007,0.8206508549844007,0.571429938149352,-45.71519726918007,61.00757814857791)" cx="35.5528293" cy="74.272847" rx="1.12" ry="1" stroke-width="1"/>
            <circle id="Oval" fill="#FFFFFF" fill-rule="nonzero" cx="42.65" cy="47.26" r="1" stroke-width="1"/>
            <circle id="Oval" fill="#FFFFFF" fill-rule="nonzero" cx="42.65" cy="47.89" r="1" stroke-width="1"/>
            <circle id="Oval" fill="#FFFFFF" fill-rule="nonzero" cx="42.65" cy="48.51" r="1" stroke-width="1"/>
            <circle id="Oval" fill="#FFFFFF" fill-rule="nonzero" cx="42.65" cy="49.14" r="1" stroke-width="1"/>
            <circle id="Oval" fill="#FFFFFF" fill-rule="nonzero" cx="42.65" cy="49.77" r="1" stroke-width="1"/>
            <circle id="Oval" fill="#FFFFFF" fill-rule="nonzero" cx="42.65" cy="50.39" r="1" stroke-width="1"/>
            <circle id="Oval" fill="#FFFFFF" fill-rule="nonzero" cx="42.65" cy="51.02" r="1" stroke-width="1"/>
            <circle id="Oval" fill="#FFFFFF" fill-rule="nonzero" cx="42.65" cy="51.65" r="1" stroke-width="1"/>
            <circle id="Oval" fill="#FFFFFF" fill-rule="nonzero" cx="42.65" cy="52.27" r="1" stroke-width="1"/>
            <circle id="Oval" fill="#FFFFFF" fill-rule="nonzero" cx="42.65" cy="52.9" r="1" stroke-width="1"/>
            <circle id="Oval" fill="#FFFFFF" fill-rule="nonzero" cx="42.65" cy="53.53" r="1" stroke-width="1"/>
            <circle id="Oval" fill="#FFFFFF" fill-rule="nonzero" cx="42.65" cy="54.16" r="1" stroke-width="1"/>
            <circle id="Oval" fill="#FFFFFF" fill-rule="nonzero" cx="42.65" cy="54.78" r="1" stroke-width="1"/>
            <circle id="Oval" fill="#FFFFFF" fill-rule="nonzero" cx="42.65" cy="55.41" r="1" stroke-width="1"/>
            <circle id="Oval" fill="#FFFFFF" fill-rule="nonzero" cx="42.65" cy="56.03" r="1" stroke-width="1"/>
            <circle id="Oval" fill="#FFFFFF" fill-rule="nonzero" cx="42.65" cy="56.66" r="1" stroke-width="1"/>
            <circle id="Oval" fill="#FFFFFF" fill-rule="nonzero" cx="42.65" cy="57.29" r="1" stroke-width="1"/>
            <circle id="Oval" fill="#FFFFFF" fill-rule="nonzero" cx="42.65" cy="57.91" r="1" stroke-width="1"/>
            <circle id="Oval" fill="#FFFFFF" fill-rule="nonzero" cx="42.65" cy="58.54" r="1" stroke-width="1"/>
            <rect id="Rectangle-path" fill="#EE2A0B" fill-rule="nonzero" x="41.55" y="58.86" width="2.21" height="3.78" rx="1.1" stroke-width="1"/>
            <circle id="Oval" fill="#E7B558" fill-rule="nonzero" cx="42.65" cy="64.06" r="3.51" stroke-width="1"/>
            <ellipse id="Oval" fill="#F3D08E" fill-rule="nonzero" transform="matrix(0.571429938149352,-0.8206508549844007,0.8206508549844007,0.571429938149352,-33.88936977678937,60.74900572902929)" cx="41.2181782" cy="62.8211695" rx="1.12" ry="1" stroke-width="1"/>
            <circle id="Oval" fill="#FFFFFF" fill-rule="nonzero" cx="65.36" cy="76.29" r="1" stroke-width="1"/>
            <circle id="Oval" fill="#FFFFFF" fill-rule="nonzero" cx="65.36" cy="76.92" r="1" stroke-width="1"/>
            <circle id="Oval" fill="#FFFFFF" fill-rule="nonzero" cx="65.36" cy="77.54" r="1" stroke-width="1"/>
            <circle id="Oval" fill="#FFFFFF" fill-rule="nonzero" cx="65.36" cy="78.17" r="1" stroke-width="1"/>
            <circle id="Oval" fill="#FFFFFF" fill-rule="nonzero" cx="65.36" cy="78.8" r="1" stroke-width="1"/>
            <circle id="Oval" fill="#FFFFFF" fill-rule="nonzero" cx="65.36" cy="79.42" r="1" stroke-width="1"/>
            <circle id="Oval" fill="#FFFFFF" fill-rule="nonzero" cx="65.36" cy="80.05" r="1" stroke-width="1"/>
            <circle id="Oval" fill="#FFFFFF" fill-rule="nonzero" cx="65.36" cy="80.68" r="1" stroke-width="1"/>
            <circle id="Oval" fill="#FFFFFF" fill-rule="nonzero" cx="65.36" cy="81.3" r="1" stroke-width="1"/>
            <circle id="Oval" fill="#FFFFFF" fill-rule="nonzero" cx="65.36" cy="81.93" r="1" stroke-width="1"/>
            <circle id="Oval" fill="#FFFFFF" fill-rule="nonzero" cx="65.36" cy="82.56" r="1" stroke-width="1"/>
            <circle id="Oval" fill="#FFFFFF" fill-rule="nonzero" cx="65.36" cy="83.19" r="1" stroke-width="1"/>
            <circle id="Oval" fill="#FFFFFF" fill-rule="nonzero" cx="65.36" cy="83.81" r="1" stroke-width="1"/>
            <circle id="Oval" fill="#FFFFFF" fill-rule="nonzero" cx="65.36" cy="84.44" r="1" stroke-width="1"/>
            <circle id="Oval" fill="#FFFFFF" fill-rule="nonzero" cx="65.36" cy="85.07" r="1" stroke-width="1"/>
            <circle id="Oval" fill="#FFFFFF" fill-rule="nonzero" cx="65.36" cy="85.69" r="1" stroke-width="1"/>
            <circle id="Oval" fill="#FFFFFF" fill-rule="nonzero" cx="65.36" cy="86.32" r="1" stroke-width="1"/>
            <circle id="Oval" fill="#FFFFFF" fill-rule="nonzero" cx="65.36" cy="86.95" r="1" stroke-width="1"/>
            <circle id="Oval" fill="#FFFFFF" fill-rule="nonzero" cx="65.36" cy="87.57" r="1" stroke-width="1"/>
            <rect id="Rectangle-path" fill="#EE2A0B" fill-rule="nonzero" x="64.26" y="87.89" width="2.21" height="3.78" rx="1.1" stroke-width="1"/>
            <circle id="Oval" fill="#E7B558" fill-rule="nonzero" cx="65.36" cy="93.09" r="3.51" stroke-width="1"/>
            <ellipse id="Oval" fill="#F3D08E" fill-rule="nonzero" transform="matrix(0.571429938149352,-0.8206508549844007,0.8206508549844007,0.571429938149352,-47.98206597015017,91.82316425154495)" cx="63.9231322" cy="91.8510062" rx="1.12" ry="1" stroke-width="1"/>
            <path d="M27.5,70.61 C27.5,70.3228119 27.2671881,70.09 26.98,70.09 L25.86,70.09 C25.5728119,70.09 25.34,70.3228119 25.34,70.61 C25.3425647,70.8626482 25.5297282,71.075334 25.78,71.11 C25.7734108,71.1631298 25.7734108,71.2168702 25.78,71.27 L25.78,73 C25.78,73.3672694 26.0777306,73.665 26.445,73.665 C26.8122694,73.665 27.11,73.3672694 27.11,73 L27.11,71.27 C27.1165892,71.2168702 27.1165892,71.1631298 27.11,71.11 C27.3404064,71.0542297 27.5020054,70.8470516 27.5,70.61 L27.5,70.61 Z" id="Shape" fill="#F3D08E" fill-rule="nonzero" stroke-width="1"/>
            <circle id="Oval" fill="#FFFFFF" fill-rule="nonzero" cx="26.39" cy="58.69" r="1" stroke-width="1"/>
            <circle id="Oval" fill="#FFFFFF" fill-rule="nonzero" cx="26.39" cy="59.32" r="1" stroke-width="1"/>
            <circle id="Oval" fill="#FFFFFF" fill-rule="nonzero" cx="26.39" cy="59.94" r="1" stroke-width="1"/>
            <circle id="Oval" fill="#FFFFFF" fill-rule="nonzero" cx="26.39" cy="60.57" r="1" stroke-width="1"/>
            <circle id="Oval" fill="#FFFFFF" fill-rule="nonzero" cx="26.39" cy="61.2" r="1" stroke-width="1"/>
            <circle id="Oval" fill="#FFFFFF" fill-rule="nonzero" cx="26.39" cy="61.82" r="1" stroke-width="1"/>
            <circle id="Oval" fill="#FFFFFF" fill-rule="nonzero" cx="26.39" cy="62.45" r="1" stroke-width="1"/>
            <circle id="Oval" fill="#FFFFFF" fill-rule="nonzero" cx="26.39" cy="63.08" r="1" stroke-width="1"/>
            <circle id="Oval" fill="#FFFFFF" fill-rule="nonzero" cx="26.39" cy="63.7" r="1" stroke-width="1"/>
            <circle id="Oval" fill="#FFFFFF" fill-rule="nonzero" cx="26.39" cy="64.33" r="1" stroke-width="1"/>
            <circle id="Oval" fill="#FFFFFF" fill-rule="nonzero" cx="26.39" cy="64.96" r="1" stroke-width="1"/>
            <circle id="Oval" fill="#FFFFFF" fill-rule="nonzero" cx="26.39" cy="65.59" r="1" stroke-width="1"/>
            <circle id="Oval" fill="#FFFFFF" fill-rule="nonzero" cx="26.39" cy="66.21" r="1" stroke-width="1"/>
            <circle id="Oval" fill="#FFFFFF" fill-rule="nonzero" cx="26.39" cy="66.84" r="1" stroke-width="1"/>
            <circle id="Oval" fill="#FFFFFF" fill-rule="nonzero" cx="26.39" cy="67.47" r="1" stroke-width="1"/>
            <circle id="Oval" fill="#FFFFFF" fill-rule="nonzero" cx="26.39" cy="68.09" r="1" stroke-width="1"/>
            <circle id="Oval" fill="#FFFFFF" fill-rule="nonzero" cx="26.39" cy="68.72" r="1" stroke-width="1"/>
            <circle id="Oval" fill="#FFFFFF" fill-rule="nonzero" cx="26.39" cy="69.35" r="1" stroke-width="1"/>
            <circle id="Oval" fill="#FFFFFF" fill-rule="nonzero" cx="26.39" cy="69.97" r="1" stroke-width="1"/>
            <path d="M26.42,71.44 C28.1541741,71.44 29.56,72.8458259 29.56,74.58 C29.56,76.3141741 28.1541741,77.72 26.42,77.72 C24.6858259,77.72 23.28,76.3141741 23.28,74.58 C23.28,73.7472202 23.6108205,72.9485489 24.1996847,72.3596847 C24.7885489,71.7708205 25.5872202,71.44 26.42,71.44" id="Shape" fill="#EE2A0B" fill-rule="nonzero" stroke-width="1"/>
            <circle id="Oval" fill="#FFFFFF" fill-rule="nonzero" cx="26.42" cy="71.81" r="1" stroke-width="1"/>
            <circle id="Oval" fill="#FFFFFF" fill-rule="nonzero" transform="matrix(0.9659258262890683,-0.25881904510252074,0.25881904510252074,0.9659258262890683,-17.789139898503336,9.244605454100245)" cx="25.8253046" cy="71.7932693" r="1" stroke-width="1"/>
            <circle id="Oval" fill="#FFFFFF" fill-rule="nonzero" transform="matrix(0.8660254037844387,-0.49999999999999994,0.49999999999999994,0.8660254037844387,-32.72792546352689,22.51366334379042)" cx="25.2571051" cy="71.9379716" r="1" stroke-width="1"/>
            <circle id="Oval" fill="#FFFFFF" fill-rule="nonzero" transform="matrix(0.7071067811865476,-0.7071067811865475,0.7071067811865475,0.7071067811865476,-43.975694746981546,39.026385327057895)" cx="24.7311669" cy="72.2065523" r="1" stroke-width="1"/>
            <circle id="Oval" fill="#FFFFFF" fill-rule="nonzero" transform="matrix(0.5000000000000001,-0.8660254037844386,0.8660254037844386,0.5000000000000001,-50.87388241897005,57.875088872058825)" cx="24.294356" cy="72.6056191" r="1" stroke-width="1"/>
            <circle id="Oval" fill="#FFFFFF" fill-rule="nonzero" transform="matrix(0.25881904510252074,-0.9659258262890683,0.9659258262890683,0.25881904510252074,-52.93185855878837,78.02583089454507)" cx="23.9866925" cy="73.1139863" r="1" stroke-width="1"/>
            <circle id="Oval" fill="#FFFFFF" fill-rule="nonzero" cx="23.81" cy="74.46" r="1" stroke-width="1"/>
            <circle id="Oval" fill="#FFFFFF" fill-rule="nonzero" transform="matrix(0.9659258262890683,-0.25881904510252074,0.25881904510252074,0.9659258262890683,-18.688464253311132,8.880718787395011)" cx="23.9936458" cy="75.0268486" r="1" stroke-width="1"/>
            <circle id="Oval" fill="#FFFFFF" fill-rule="nonzero" transform="matrix(0.8660254037844387,-0.49999999999999994,0.49999999999999994,0.8660254037844387,-34.64593120970639,22.52363044983948)" cx="24.3167014" cy="75.5220028" r="1" stroke-width="1"/>
            <circle id="Oval" fill="#FFFFFF" fill-rule="nonzero" transform="matrix(0.7071067811865476,-0.7071067811865475,0.7071067811865475,0.7071067811865476,-46.59338428365831,40.1310297455307)" cx="24.7557463" cy="75.9187052" r="1" stroke-width="1"/>
            <circle id="Oval" fill="#FFFFFF" fill-rule="nonzero" transform="matrix(0.5000000000000001,-0.8660254037844386,0.8660254037844386,0.5000000000000001,-53.493849748473,60.52976234318915)" cx="25.2833872" cy="76.2019142" r="1" stroke-width="1"/>
            <circle id="Oval" fill="#FFFFFF" fill-rule="nonzero" transform="matrix(0.25881904510252074,-0.9659258262890683,0.9659258262890683,0.25881904510252074,-54.633425366122076,82.21286785764337)" cx="25.8642349" cy="76.3162667" r="1" stroke-width="1"/>
            <circle id="Oval" fill="#FFFFFF" fill-rule="nonzero" cx="26.46" cy="77.07" r="1" stroke-width="1"/>
            <circle id="Oval" fill="#FFFFFF" fill-rule="nonzero" transform="matrix(0.9659258262890683,-0.25881904510252074,0.25881904510252074,0.9659258262890683,-19.052350695271503,9.78004284930958)" cx="27.2272251" cy="76.8585073" r="1" stroke-width="1"/>
            <circle id="Oval" fill="#FFFFFF" fill-rule="nonzero" transform="matrix(0.8660254037844387,-0.49999999999999994,0.49999999999999994,0.8660254037844387,-34.6332843507395,24.448957170060055)" cx="27.9157326" cy="76.4610667" r="1" stroke-width="1"/>
            <circle id="Oval" fill="#FFFFFF" fill-rule="nonzero" transform="matrix(0.7071067811865476,-0.7071067811865475,0.7071067811865475,0.7071067811865476,-45.49166876928504,42.755790282207464)" cx="28.4749703" cy="75.9011969" r="1" stroke-width="1"/>
            <circle id="Oval" fill="#FFFFFF" fill-rule="nonzero" transform="matrix(0.5000000000000001,-0.8660254037844386,0.8660254037844386,0.5000000000000001,-50.83917615032374,63.13972989269533)" cx="28.8710221" cy="75.207883" r="1" stroke-width="1"/>
            <circle id="Oval" fill="#FFFFFF" fill-rule="nonzero" transform="matrix(0.25881904510252074,-0.9659258262890683,0.9659258262890683,0.25881904510252074,-50.446389144204716,83.91443369905124)" cx="29.0665153" cy="74.4387242" r="1" stroke-width="1"/>
            <circle id="Oval" fill="#FFFFFF" fill-rule="nonzero" cx="29.07" cy="74.42" r="1" stroke-width="1"/>
            <circle id="Oval" fill="#FFFFFF" fill-rule="nonzero" transform="matrix(0.9659258262890683,-0.25881904510252074,0.25881904510252074,0.9659258262890683,-18.153026599282747,10.143929550088998)" cx="29.0588838" cy="73.6249281" r="1" stroke-width="1"/>
            <circle id="Oval" fill="#FFFFFF" fill-rule="nonzero" transform="matrix(0.8660254037844387,-0.49999999999999994,0.49999999999999994,0.8660254037844387,-32.70929750350001,24.43398983705209)" cx="28.8497965" cy="72.8633753" r="1" stroke-width="1"/>
            <circle id="Oval" fill="#FFFFFF" fill-rule="nonzero" transform="matrix(0.7071067811865476,-0.7071067811865475,0.7071067811865475,0.7071067811865476,-42.86397932850875,41.64700376783421)" cx="28.4503909" cy="72.1749018" r="1" stroke-width="1"/>
            <circle id="Oval" fill="#FFFFFF" fill-rule="nonzero" transform="matrix(0.5000000000000001,-0.8660254037844386,0.8660254037844386,0.5000000000000001,-48.22920872783649,60.49505607454286)" cx="27.8856511" cy="71.6252481" r="1" stroke-width="1"/>
            <circle id="Oval" fill="#FFFFFF" fill-rule="nonzero" transform="matrix(0.25881904510252074,-0.9659258262890683,0.9659258262890683,0.25881904510252074,-48.74482256161589,79.72739844305974)" cx="27.1889729" cy="71.2364438" r="1" stroke-width="1"/>
            <circle id="Oval" fill="#F3D08E" fill-rule="nonzero" cx="26.42" cy="74.58" r="1.72" stroke-width="1"/>
            <circle id="Oval" fill="#FFFFFF" fill-rule="nonzero" cx="18.38" cy="84.61" r="1" stroke-width="1"/>
            <circle id="Oval" fill="#FFFFFF" fill-rule="nonzero" cx="18.38" cy="85.23" r="1" stroke-width="1"/>
            <circle id="Oval" fill="#FFFFFF" fill-rule="nonzero" cx="18.38" cy="85.86" r="1" stroke-width="1"/>
            <circle id="Oval" fill="#FFFFFF" fill-rule="nonzero" cx="18.38" cy="86.49" r="1" stroke-width="1"/>
            <circle id="Oval" fill="#FFFFFF" fill-rule="nonzero" cx="18.38" cy="87.11" r="1" stroke-width="1"/>
            <circle id="Oval" fill="#FFFFFF" fill-rule="nonzero" cx="18.38" cy="87.74" r="1" stroke-width="1"/>
            <circle id="Oval" fill="#FFFFFF" fill-rule="nonzero" cx="18.38" cy="88.37" r="1" stroke-width="1"/>
            <circle id="Oval" fill="#FFFFFF" fill-rule="nonzero" cx="18.38" cy="88.99" r="1" stroke-width="1"/>
            <circle id="Oval" fill="#FFFFFF" fill-rule="nonzero" cx="18.38" cy="89.62" r="1" stroke-width="1"/>
            <circle id="Oval" fill="#FFFFFF" fill-rule="nonzero" cx="18.38" cy="90.25" r="1" stroke-width="1"/>
            <circle id="Oval" fill="#FFFFFF" fill-rule="nonzero" cx="18.38" cy="90.88" r="1" stroke-width="1"/>
            <circle id="Oval" fill="#FFFFFF" fill-rule="nonzero" cx="18.38" cy="91.5" r="1" stroke-width="1"/>
            <circle id="Oval" fill="#FFFFFF" fill-rule="nonzero" cx="18.38" cy="92.13" r="1" stroke-width="1"/>
            <circle id="Oval" fill="#FFFFFF" fill-rule="nonzero" cx="18.38" cy="92.76" r="1" stroke-width="1"/>
            <circle id="Oval" fill="#FFFFFF" fill-rule="nonzero" cx="18.38" cy="93.38" r="1" stroke-width="1"/>
            <circle id="Oval" fill="#FFFFFF" fill-rule="nonzero" cx="18.38" cy="94.01" r="1" stroke-width="1"/>
            <circle id="Oval" fill="#FFFFFF" fill-rule="nonzero" cx="18.38" cy="94.63" r="1" stroke-width="1"/>
            <circle id="Oval" fill="#FFFFFF" fill-rule="nonzero" cx="18.38" cy="95.26" r="1" stroke-width="1"/>
            <circle id="Oval" fill="#FFFFFF" fill-rule="nonzero" cx="18.38" cy="95.89" r="1" stroke-width="1"/>
            <rect id="Rectangle-path" fill="#E7B558" fill-rule="nonzero" x="17.28" y="95.89" width="2.21" height="3.78" rx="1.1" stroke-width="1"/>
            <circle id="Oval" fill="#EE2A0B" fill-rule="nonzero" cx="18.38" cy="101.29" r="3.51" stroke-width="1"/>
            <ellipse id="Oval" fill="#EF7668" fill-rule="nonzero" transform="matrix(0.571429938149352,-0.8206508549844007,0.8206508549844007,0.571429938149352,-74.56962462623764,57.132314160491276)" cx="17.415325" cy="99.9612821" rx="1.12" ry="1" stroke-width="1"/>
            <circle id="Oval" fill="#FFFFFF" fill-rule="nonzero" cx="60.02" cy="31.13" r="1" stroke-width="1"/>
            <circle id="Oval" fill="#FFFFFF" fill-rule="nonzero" cx="60.02" cy="31.76" r="1" stroke-width="1"/>
            <circle id="Oval" fill="#FFFFFF" fill-rule="nonzero" cx="60.02" cy="32.38" r="1" stroke-width="1"/>
            <circle id="Oval" fill="#FFFFFF" fill-rule="nonzero" cx="60.02" cy="33.01" r="1" stroke-width="1"/>
            <circle id="Oval" fill="#FFFFFF" fill-rule="nonzero" cx="60.02" cy="33.64" r="1" stroke-width="1"/>
            <circle id="Oval" fill="#FFFFFF" fill-rule="nonzero" cx="60.02" cy="34.26" r="1" stroke-width="1"/>
            <circle id="Oval" fill="#FFFFFF" fill-rule="nonzero" cx="60.02" cy="34.89" r="1" stroke-width="1"/>
            <circle id="Oval" fill="#FFFFFF" fill-rule="nonzero" cx="60.02" cy="35.52" r="1" stroke-width="1"/>
            <circle id="Oval" fill="#FFFFFF" fill-rule="nonzero" cx="60.02" cy="36.14" r="1" stroke-width="1"/>
            <circle id="Oval" fill="#FFFFFF" fill-rule="nonzero" cx="60.02" cy="36.77" r="1" stroke-width="1"/>
            <circle id="Oval" fill="#FFFFFF" fill-rule="nonzero" cx="60.02" cy="37.4" r="1" stroke-width="1"/>
            <circle id="Oval" fill="#FFFFFF" fill-rule="nonzero" cx="60.02" cy="38.03" r="1" stroke-width="1"/>
            <circle id="Oval" fill="#FFFFFF" fill-rule="nonzero" cx="60.02" cy="38.65" r="1" stroke-width="1"/>
            <circle id="Oval" fill="#FFFFFF" fill-rule="nonzero" cx="60.02" cy="39.28" r="1" stroke-width="1"/>
            <circle id="Oval" fill="#FFFFFF" fill-rule="nonzero" cx="60.02" cy="39.91" r="1" stroke-width="1"/>
            <circle id="Oval" fill="#FFFFFF" fill-rule="nonzero" cx="60.02" cy="40.53" r="1" stroke-width="1"/>
            <circle id="Oval" fill="#FFFFFF" fill-rule="nonzero" cx="60.02" cy="41.16" r="1" stroke-width="1"/>
            <circle id="Oval" fill="#FFFFFF" fill-rule="nonzero" cx="60.02" cy="41.79" r="1" stroke-width="1"/>
            <circle id="Oval" fill="#FFFFFF" fill-rule="nonzero" cx="60.02" cy="42.41" r="1" stroke-width="1"/>
            <rect id="Rectangle-path" fill="#E7B558" fill-rule="nonzero" x="58.92" y="42.41" width="2.21" height="3.78" rx="1.1" stroke-width="1"/>
            <circle id="Oval" fill="#EE2A0B" fill-rule="nonzero" cx="60.02" cy="47.81" r="3.51" stroke-width="1"/>
            <ellipse id="Oval" fill="#EF7668" fill-rule="nonzero" transform="matrix(0.571429938149352,-0.8206508549844007,0.8206508549844007,0.571429938149352,-12.845060560332271,68.39357572210939)" cx="59.0594664" cy="46.4950217" rx="1.12" ry="1" stroke-width="1"/>
            <circle id="Oval" fill="#FFFFFF" fill-rule="nonzero" cx="54.12" cy="40.44" r="1" stroke-width="1"/>
            <circle id="Oval" fill="#FFFFFF" fill-rule="nonzero" cx="54.12" cy="41.07" r="1" stroke-width="1"/>
            <circle id="Oval" fill="#FFFFFF" fill-rule="nonzero" cx="54.12" cy="41.69" r="1" stroke-width="1"/>
            <circle id="Oval" fill="#FFFFFF" fill-rule="nonzero" cx="54.12" cy="42.32" r="1" stroke-width="1"/>
            <circle id="Oval" fill="#FFFFFF" fill-rule="nonzero" cx="54.12" cy="42.95" r="1" stroke-width="1"/>
            <circle id="Oval" fill="#FFFFFF" fill-rule="nonzero" cx="54.12" cy="43.57" r="1" stroke-width="1"/>
            <circle id="Oval" fill="#FFFFFF" fill-rule="nonzero" cx="54.12" cy="44.2" r="1" stroke-width="1"/>
            <circle id="Oval" fill="#FFFFFF" fill-rule="nonzero" cx="54.12" cy="44.83" r="1" stroke-width="1"/>
            <circle id="Oval" fill="#FFFFFF" fill-rule="nonzero" cx="54.12" cy="45.45" r="1" stroke-width="1"/>
            <circle id="Oval" fill="#FFFFFF" fill-rule="nonzero" cx="54.12" cy="46.08" r="1" stroke-width="1"/>
            <circle id="Oval" fill="#FFFFFF" fill-rule="nonzero" cx="54.12" cy="46.71" r="1" stroke-width="1"/>
            <circle id="Oval" fill="#FFFFFF" fill-rule="nonzero" cx="54.12" cy="47.34" r="1" stroke-width="1"/>
            <circle id="Oval" fill="#FFFFFF" fill-rule="nonzero" cx="54.12" cy="47.96" r="1" stroke-width="1"/>
            <circle id="Oval" fill="#FFFFFF" fill-rule="nonzero" cx="54.12" cy="48.59" r="1" stroke-width="1"/>
            <circle id="Oval" fill="#FFFFFF" fill-rule="nonzero" cx="54.12" cy="49.22" r="1" stroke-width="1"/>
            <circle id="Oval" fill="#FFFFFF" fill-rule="nonzero" cx="54.12" cy="49.84" r="1" stroke-width="1"/>
            <circle id="Oval" fill="#FFFFFF" fill-rule="nonzero" cx="54.12" cy="50.47" r="1" stroke-width="1"/>
            <circle id="Oval" fill="#FFFFFF" fill-rule="nonzero" cx="54.12" cy="51.1" r="1" stroke-width="1"/>
            <circle id="Oval" fill="#FFFFFF" fill-rule="nonzero" cx="54.12" cy="51.72" r="1" stroke-width="1"/>
            <rect id="Rectangle-path" fill="#E7B558" fill-rule="nonzero" x="53.01" y="51.61" width="2.21" height="3.78" rx="1.1" stroke-width="1"/>
            <circle id="Oval" fill="#46A08F" fill-rule="nonzero" cx="54.12" cy="57.01" r="3.51" stroke-width="1"/>
            <ellipse id="Oval" fill="#75D0BE" fill-rule="nonzero" transform="matrix(0.571429938149352,-0.8206508549844007,0.8206508549844007,0.571429938149352,-23.12988402216839,67.10541419397124)" cx="52.6837312" cy="55.6979296" rx="1.12" ry="1" stroke-width="1"/>
            <rect id="Rectangle-path" fill="#E7B558" fill-rule="nonzero" x="39.65" y="29.29" width="2.21" height="3.78" rx="1.1" stroke-width="1"/>
            <circle id="Oval" fill="#FFFFFF" fill-rule="nonzero" cx="40.75" cy="34.69" r="3.51" stroke-width="1"/>
            <path d="M16.68,76.62 C15.4876719,76.1653847 14.5248541,75.2556147 14.0034679,74.0909355 C13.4820817,72.9262562 13.4448616,71.6021285 13.9,70.41 L17.48,61 C17.6035677,60.5775417 17.9537793,60.2601807 18.3863284,60.178687 C18.8188775,60.0971934 19.2605638,60.2653583 19.5293882,60.6138887 C19.7982126,60.962419 19.8486819,61.4323329 19.66,61.83 L16.08,71.2 C15.758461,72.0252835 15.9016302,72.959416 16.4555771,73.6505187 C17.0095241,74.3416214 17.8900911,74.6846995 18.7655771,74.5505187 C19.6410631,74.4163379 20.378461,73.8252835 20.7,73 C20.9615996,72.4486511 21.6030329,72.1909693 22.1733568,72.408111 C22.7436808,72.6252527 23.0513214,73.2442792 22.88,73.83 C21.9372672,76.3114961 19.1624747,77.5601527 16.68,76.62 L16.68,76.62 Z" id="Shape" fill="#FFFFFF" fill-rule="nonzero" stroke-width="1"/>
            <path d="M19.66,61.88 C19.7067466,61.7618792 19.733773,61.6368818 19.74,61.51 L17.16,61.9 L16.56,63.48 L19.21,63.08 L19.66,61.88 Z" id="Shape" fill="#EB1B3F" fill-rule="nonzero" stroke-width="1"/>
            <polygon id="Shape" fill="#EB1B3F" fill-rule="nonzero" points="18.59 64.68 15.94 65.08 15.34 66.66 17.99 66.26" stroke-width="1"/>
            <polygon id="Shape" fill="#EB1B3F" fill-rule="nonzero" points="17.38 67.86 14.73 68.25 14.12 69.84 16.77 69.44" stroke-width="1"/>
            <path d="M16.08,71.24 L16.16,71.03 L13.64,71.41 C13.5621148,71.9036133 13.5621148,72.4063867 13.64,72.9 L16,72.56 C15.9051696,72.1209849 15.9328445,71.6643493 16.08,71.24 L16.08,71.24 Z" id="Shape" fill="#EB1B3F" fill-rule="nonzero" stroke-width="1"/>
            <path d="M22.88,73.84 C22.979831,73.5757821 22.979831,73.2842179 22.88,73.02 L20.51,73.37 C20.1345054,74.0131229 19.4878862,74.4515257 18.7514514,74.5622823 C18.0150166,74.673039 17.268051,74.4442255 16.72,73.94 L14.12,74.33 C14.3727245,74.8315122 14.7111486,75.2850004 15.12,75.67 L22.5,74.57 C22.6472892,74.3379696 22.7744211,74.0937426 22.88,73.84 Z" id="Shape" fill="#EB1B3F" fill-rule="nonzero" stroke-width="1"/>
            <path d="M70.12,62.08 C69.1919791,62.4800074 68.1428491,62.4938898 67.2045689,62.1185777 C66.2662887,61.7432657 65.5161479,61.009675 65.12,60.08 L62,52.78 C61.8713843,52.4763242 61.9145477,52.1271006 62.1132308,51.8638783 C62.3119139,51.600656 62.6359321,51.4634248 62.9632308,51.5038783 C63.2905296,51.5443318 63.5713844,51.7563242 63.7,52.06 L66.8,59.34 C67.3466942,60.0990274 68.346475,60.3777341 69.2069972,60.0109935 C70.0675194,59.6442528 70.5588966,58.7300387 70.39,57.81 C70.1911775,57.340558 70.410558,56.7988225 70.88,56.6 C71.349442,56.4011775 71.8911775,56.620558 72.09,57.09 C72.9200657,59.0120141 72.0391574,61.2433505 70.12,62.08 L70.12,62.08 Z" id="Shape" fill="#FFFFFF" fill-rule="nonzero" stroke-width="1"/>
            <path d="M63.74,52.06 C63.7005496,51.9685559 63.6465132,51.884124 63.58,51.81 L62.32,53.44 L62.84,54.67 L64.14,53 L63.74,52.06 Z" id="Shape" fill="#EB1B3F" fill-rule="nonzero" stroke-width="1"/>
            <polygon id="Shape" fill="#EB1B3F" fill-rule="nonzero" points="64.67 54.24 63.38 55.92 63.9 57.15 65.19 55.47" stroke-width="1"/>
            <polygon id="Shape" fill="#EB1B3F" fill-rule="nonzero" points="65.72 56.72 64.43 58.39 64.95 59.62 66.24 57.95" stroke-width="1"/>
            <path d="M66.84,59.35 L66.77,59.19 L65.54,60.79 C65.7677968,61.111098 66.0444835,61.3945332 66.36,61.63 L67.48,60.17 C67.1959998,59.9600218 66.9747115,59.6764962 66.84,59.35 L66.84,59.35 Z" id="Shape" fill="#EB1B3F" fill-rule="nonzero" stroke-width="1"/>
            <path d="M72.13,57.1 C72.0447271,56.895453 71.8884866,56.7285597 71.69,56.63 L70.54,58.13 C70.6758998,58.7022354 70.5462602,59.3052404 70.1871891,59.7710624 C69.828118,60.2368844 69.2779789,60.5157544 68.69,60.53 L67.43,62.17 C67.8547493,62.3140432 68.301645,62.3817547 68.75,62.37 L72.34,57.7 C72.2868809,57.4944857 72.2166351,57.2937837 72.13,57.1 L72.13,57.1 Z" id="Shape" fill="#EB1B3F" fill-rule="nonzero" stroke-width="1"/>
        </g>
    </g>
</svg>