<svg version="1.1" xmlns="http://www.w3.org/2000/svg" xmlns:xlink="http://www.w3.org/1999/xlink" width="193.68602" height="302.39747" viewBox="0,0,193.68602,302.39747"><g transform="translate(-135.7,-29.15622)"><g data-paper-data="{&quot;isPaintingLayer&quot;:true}" fill-rule="nonzero" stroke="none" stroke-width="1" stroke-linecap="butt" stroke-linejoin="miter" stroke-miterlimit="10" stroke-dasharray="" stroke-dashoffset="0" style="mix-blend-mode: normal"><path d="M192.5,178.4c-15.2,-4.6 -32,-9.9 -41.7,-13.1c0,-0.8 -0.1,-1.6 -0.1,-2.2c7.7,2.1 17.8,3.1 22.9,5c3.5,1.3 10.9,4.6 19.6,7.7c-0.2,0.9 -0.4,1.7 -0.7,2.6z" data-paper-data="{&quot;index&quot;:null}" fill="#8b0f07"/><path d="M179.8,294.59999c0,2.6 -0.3,4.9 -0.7,7c-7.5,-4.3 -13.4,-8.3 -16.3,-11.4c-10.2,-11.3 -7.4,-24.5 -8,-37.4c0,-0.3 0,-0.6 0,-1c1.7,0.7 3.7,1.6 5.8,2.9c-0.9,0.7 -1.7,1.4 -2.5,2.1c-0.7,0.7 -1.1,1.6 -0.5,2.5v0c0,0.3 0.1,0.6 0.3,0.9c0.5,0.7 1.8,1.1 2.5,0.5c1.3,-1.1 2.6,-2.3 3.9,-3.4c1.6,1.3 3.2,2.8 4.8,4.5c-1.8,0.8 -3.5,1.6 -5.2,2.4c-1.3,0.5 -1.4,1.9 -0.8,2.8c0.1,1.1 1,2.1 2.2,1.5c2.2,-1 4.4,-2 6.6,-3c0.9,1.3 1.8,2.8 2.6,4.4c-1.6,0.6 -3.2,1.1 -4.8,1.5c-1.4,0.4 -1.5,1.7 -0.9,2.6c0.1,1 1,2 2.3,1.7c1.8,-0.5 3.5,-1 5.2,-1.6c0.6,1.3 1,2.8 1.4,4.3c0.2,0.8 0.3,1.5 0.5,2.3c-1.2,0.2 -2.4,0.5 -3.6,0.7c-1.4,0.3 -1.5,1.6 -0.9,2.5c0,1.1 1,2.2 2.3,1.9c0.9,-0.2 1.9,-0.4 2.9,-0.6c0.2,1.9 0.4,3.7 0.5,5.4c-1.3,0.1 -2.5,0.2 -3.8,0.5c-0.9,0.2 -1.4,1.4 -1.1,2.2c0,0 0.1,0.1 0.1,0.2c0.1,0 0.1,0.1 0.1,0.2c0.3,1 1.3,1.3 2.2,1.1c0.9,-0.2 1.8,-0.3 2.9,-0.2z" data-paper-data="{&quot;index&quot;:null}" fill="#8b0f07"/><path d="M174.9,261.4c0.5,0.8 0.4,2.2 -0.8,2.8c-0.8,0.4 -1.6,0.7 -2.4,1.1c-2.2,1 -4.4,2 -6.6,3c-1.2,0.5 -2.1,-0.4 -2.2,-1.5c0.4,0.6 1.1,0.9 1.9,0.5c3,-1.3 6,-2.7 9,-4.1c0.9,-0.3 1.2,-1.1 1.1,-1.8z" data-paper-data="{&quot;index&quot;:null}" fill="#8b0f07"/><path d="M163.6,264.09999c1.8,-0.8 3.5,-1.6 5.2,-2.4c1.3,-0.6 2.6,-1.2 3.9,-1.8c1.2,-0.5 2.1,0.4 2.2,1.5c0,0.7 -0.3,1.5 -1.1,1.9c-3,1.3 -6,2.7 -9,4.1c-0.8,0.4 -1.5,0.1 -1.9,-0.5c-0.5,-0.9 -0.4,-2.3 0.7,-2.8z" data-paper-data="{&quot;index&quot;:null}" fill="#fcccad"/><path d="M178.8,270.4c0.6,0.9 0.5,2.3 -0.8,2.8c-0.6,0.3 -1.2,0.5 -1.8,0.7c-1.7,0.6 -3.4,1.1 -5.2,1.6c-1.3,0.4 -2.2,-0.7 -2.3,-1.7c0.4,0.6 1.1,1 2,0.8c2.4,-0.7 4.7,-1.4 7,-2.3c0.8,-0.3 1.2,-1 1.1,-1.9z" data-paper-data="{&quot;index&quot;:null}" fill="#8b0f07"/><path d="M174.3,269.7c0.7,-0.3 1.5,-0.5 2.2,-0.8c1.3,-0.5 2.2,0.5 2.3,1.6c0.1,0.7 -0.2,1.5 -1.1,1.8c-2.3,0.9 -4.6,1.7 -7,2.3c-0.9,0.2 -1.6,-0.2 -2,-0.8c-0.5,-0.9 -0.4,-2.3 0.9,-2.6c1.6,-0.4 3.2,-0.9 4.7,-1.5z" data-paper-data="{&quot;index&quot;:null}" fill="#fcccad"/><path d="M184.7,281.5c0.6,0.9 0.4,2.2 -0.9,2.5c-1.7,0.4 -3.3,0.7 -4.9,1c-0.9,0.2 -1.9,0.4 -2.9,0.6c-1.3,0.2 -2.2,-0.9 -2.3,-1.9c0.4,0.6 1.1,1.1 2,0.9c2.6,-0.5 5.2,-1 7.8,-1.5c0.9,-0.2 1.2,-0.8 1.2,-1.6z" data-paper-data="{&quot;index&quot;:null}" fill="#8b0f07"/><path d="M174.6,281.3c1.2,-0.2 2.4,-0.5 3.6,-0.7c1.4,-0.2 2.8,-0.5 4.2,-0.8c1.3,-0.2 2.2,0.9 2.3,1.9c0,0.7 -0.3,1.3 -1.2,1.5c-2.6,0.5 -5.2,1 -7.8,1.5c-0.9,0.2 -1.6,-0.3 -2,-0.9c-0.6,-0.9 -0.5,-2.2 0.9,-2.5z" data-paper-data="{&quot;index&quot;:null}" fill="#fcccad"/><path d="M184.9,291.5c0.6,1.1 -0.2,3 -1.9,2.8c-1.1,-0.1 -2.3,-0.1 -3.4,0c-0.9,0.1 -1.8,0.2 -2.6,0.4c-0.9,0.2 -1.9,-0.1 -2.2,-1.1c-0.1,0 -0.1,-0.1 -0.1,-0.2c0.4,0.8 1.2,1.1 2.1,0.9c1.9,-0.4 3.9,-0.5 5.9,-0.3c1.5,0.1 2.3,-1.3 2.2,-2.5z" data-paper-data="{&quot;index&quot;:null}" fill="#8b0f07"/><path d="M175.5,290.9c1.3,-0.3 2.5,-0.4 3.8,-0.5c1.3,0 2.7,0 4,0.1c0.9,0.1 1.3,0.6 1.4,1.2c0.1,1.1 -0.7,2.4 -2.1,2.3c-1.9,-0.2 -4,-0.1 -5.9,0.3c-0.8,0.2 -1.7,-0.1 -2.1,-0.9c0,0 -0.1,-0.1 -0.1,-0.2c-0.2,-0.8 0.2,-2.1 1,-2.3z" data-paper-data="{&quot;index&quot;:null}" fill="#fcccad"/><path d="M295.5,258c6.7,4.8 13.6,8.9 18.4,11.7c1.3,0.8 2.6,1.7 3.9,2.8c-9,2.1 -25.2,7.2 -35.3,19c-7.9,9.2 -11.5,18.1 -12.2,26.4c-11.3,-1 -22.1,-4.7 -32.3,-10.1c1.1,-2.7 2.4,-5.4 4.3,-8c10.3,-14.6 19.6,-31.1 53.2,-41.8z" data-paper-data="{&quot;index&quot;:null}" fill="#8b0f07"/><path d="M274.5,182.2c0,0.9 0,1.8 -0.1,2.7c0,-0.9 0.1,-1.8 0.1,-2.7z" data-paper-data="{&quot;index&quot;:null}" fill="#8b0f07"/><path d="M274.3,182.1v0.1c-0.1,0.9 -0.1,1.8 -0.1,2.7c0,0.1 0,0.1 0,0.2c-0.1,0.9 -0.1,1.9 -0.1,2.8v0.1c0,4 -0.1,8.1 -0.2,12.2v0c0,1.1 0,2.1 0,3.1v0c0,1 0,2 0,3v0c-8.7,6 -35,22.5 -55.9,16.1c-7.8,-2.4 -19,-6.5 -30.8,-10.9c0.3,-5.8 0.9,-11.6 1.7,-17.4c0,-0.4 0.3,-2 0.8,-4.1c13.3,3.9 26.4,6.9 34,6.2c15.9,-1.5 39.9,-7.6 50.6,-14.1z" data-paper-data="{&quot;index&quot;:null}" fill="#8b0f07"/><path d="M274.2,229.7c-0.1,-0.6 -0.1,-1.3 -0.1,-2c0,0.7 0.1,1.3 0.1,2z" data-paper-data="{&quot;index&quot;:null}" fill="#8b0f07"/><path d="M274,227.4c0,0.7 0.1,1.4 0.1,2v0.1c0,0.6 0.1,1.2 0.1,1.7v0.1c0,0.3 0,0.5 0,0.7v0.1c0.1,0.3 0.1,0.5 0.1,0.7v0.1c0,0.2 0,0.3 0,0.5v0.2c0.1,0.2 0.1,0.4 0.1,0.6c0,0.2 0.1,0.5 0.1,0.7c0,0 0,0.1 0,0.2c0,0.2 0.1,0.3 0.1,0.5c0,0.1 0.1,0.2 0.1,0.3c0,0.1 0.1,0.3 0.1,0.4c0,0.1 0.1,0.2 0.1,0.3c0,0.1 0,0.3 0.1,0.4c0,0.1 0.1,0.2 0.1,0.3c0.1,0.1 0.1,0.3 0.2,0.4c0,0.1 0.1,0.2 0.1,0.3c0.1,0.2 0.1,0.3 0.2,0.5c0,0.1 0.1,0.2 0.1,0.3c0.2,0.2 0.3,0.5 0.4,0.7c0,0.1 0.1,0.1 0.1,0.2c0.1,0.2 0.2,0.3 0.3,0.5c0.1,0.1 0.1,0.2 0.2,0.3c0.1,0.1 0.2,0.3 0.3,0.4c0.1,0.1 0.1,0.2 0.2,0.3c0.1,0.1 0.2,0.3 0.3,0.4c0,0.1 0.1,0.2 0.2,0.3c0.1,0.1 0.2,0.3 0.3,0.4c0.1,0.1 0.2,0.2 0.3,0.3c0.1,0.2 0.2,0.3 0.3,0.4c0.1,0.1 0.2,0.2 0.3,0.3c0.1,0.1 0.2,0.3 0.3,0.4c0.1,0.1 0.2,0.2 0.3,0.3c0.2,0.2 0.4,0.5 0.6,0.7c-2,6 -7.7,17.9 -21.5,23.3c-13.6,5.4 -40.2,7.9 -70.2,-5.5c-0.5,-3.1 -0.7,-6.3 -0.8,-9.5c-0.3,-5.3 -0.5,-10.7 -0.6,-16.1c14.8,6.5 30.2,12.2 38.6,11.8c17.2,-0.8 36.8,-7.4 48.4,-21.3z" data-paper-data="{&quot;index&quot;:null}" fill="#8b0f07"/><path d="M270.4,317.9c-0.3,4.5 0.1,8.7 1.3,12.7c-12.6,1.6 -24.2,1.2 -31.8,-1.3c-1.2,-0.4 -2.5,-0.9 -3.9,-1.4c-0.7,-5.3 -0.8,-12.6 2,-20.1c10.2,5.4 21,9.1 32.4,10.1z" data-paper-data="{&quot;index&quot;:null}" fill="#720d0e"/><path d="M162.2,202c-3.6,-1.4 -7,-2.7 -10.2,-4v0c0,-0.8 -0.1,-1.7 -0.1,-2.5c0,-0.3 0,-0.6 0,-0.9c-0.1,-0.6 -0.1,-1.1 -0.1,-1.7c0,-0.3 0,-0.6 0,-0.9c0,-0.9 -0.1,-1.7 -0.1,-2.6c-0.2,-4.6 -0.3,-9 -0.5,-12.8v0c0.1,0 0.2,0.1 0.3,0.1c0.3,0.1 0.5,0.2 0.7,0.3c0.4,0.2 0.8,0.3 1.2,0.5c0.1,0 0.1,0.1 0.2,0.1c5.7,2.2 14.5,5.5 24.1,8.7c0.5,0.2 0.9,0.3 1.4,0.5c1.6,0.5 3.1,1 4.7,1.5c0.1,0 0.2,0.1 0.3,0.1c1.1,0.3 2.1,0.7 3.2,1c0.9,0.2 1.7,0.5 2.5,0.7c-0.4,2.1 -0.7,3.6 -0.8,4.1c-0.9,5.7 -1.4,11.6 -1.7,17.4c-2.8,-1.1 -5.7,-2.2 -8.6,-3.3c-0.2,-0.1 -0.5,-0.2 -0.7,-0.3c-1.3,-0.5 -2.5,-1 -3.8,-1.5c-0.9,-0.3 -1.8,-0.7 -2.7,-1c-3.1,-1.2 -6,-2.4 -8.9,-3.5c-0.1,0 -0.1,0 -0.4,0z" data-paper-data="{&quot;index&quot;:null}" fill="#720d0e"/><path d="M153.9,240.5c-0.3,-5.7 -0.6,-12.8 -0.9,-20.3c6.2,3.3 19.8,10.5 34,16.8c0.2,5.3 0.4,10.7 0.6,16.1c0.1,3.1 0.3,6.4 0.8,9.5c-11.2,-5 -22.8,-12.2 -34.5,-22.1z" data-paper-data="{&quot;index&quot;:null}" fill="#720d0e"/><path d="M282.1,129.7c3.4,-2.6 5.8,-5.4 7.4,-8.2c0.7,4.1 1.1,9.8 1,15.6c-5.5,3.8 -11.1,7.6 -16.6,11.4c-0.2,-1.3 -0.3,-2.6 0.1,-3.9c0.4,-1.4 1.3,-2.6 1.4,-4c0,-0.6 -0.1,-1.2 -0.3,-1.7c-1.2,-0.7 -2.3,-1.6 -3.4,-2.5c3.1,-1.6 6.6,-3.7 10.4,-6.7z" data-paper-data="{&quot;index&quot;:null}" fill="#e6e6f0"/><path d="M269.2,134c-0.2,-0.2 -0.3,-0.3 -0.5,-0.5c-1.6,-2.3 -3,-5.7 -2.5,-9.9c0.6,-0.1 1.2,-0.3 1.8,-0.5c1.9,-0.6 3.9,-1.8 4.3,-3.8c0.3,-1.7 -0.6,-3.3 -1.5,-4.7c-2,-3.2 -4,-6.3 -6.2,-9.4c-0.2,-0.4 -0.5,-0.7 -0.7,-1c1,-2.1 2,-4.2 3,-6.2c0.3,-0.7 0.7,-1.3 1,-2c8.5,7.3 17.3,16.9 14.3,26.1c-1.9,5.9 -7.2,9.6 -13,11.9z" data-paper-data="{&quot;index&quot;:null}" fill="#e6e6f0"/><path d="M257.2,152.5c-7.6,3.5 -15.4,6.4 -23.4,8.7c2.2,-2.7 4.5,-5.3 6.8,-8c-9.3,3.1 -18.8,6.2 -28.6,7c-9.8,0.8 -20.2,-0.8 -28.3,-6.4c2.5,-2 5,-4.1 7.5,-6.2c-2,0 -3.9,0.1 -5.8,0.1c0.4,-0.4 0.7,-0.7 1.1,-1c3.6,-3.1 9.6,-3 13.1,0.2c1,0.9 1.9,2.1 3.2,2.6c2.3,0.9 4.8,-0.8 6.7,-2.5c3.9,-3.4 7.5,-6.9 11,-10.7c5.9,2.2 12.6,2.2 18.5,0.1c1,-0.4 2,-0.8 3.1,-0.7c0.3,0 0.7,0.1 1,0.2c1.5,3.6 2.5,7.8 1.5,11.7c0,0 6.5,1.5 12.6,4.9z" data-paper-data="{&quot;index&quot;:null}" fill="#e6e6f0"/><path d="M217.9,156c2.4,-2.3 4.8,-4.6 7.2,-6.9c-5.2,1.8 -10.5,3.6 -15.7,5.3c1.8,-1 3.5,-2.1 5.3,-3.1c-2,1.2 -7.6,2.8 -9.8,1.4c2.8,-0.6 5.4,-1.3 8,-2.6c3.7,-1.9 7.1,-4.4 10.8,-6.1c-1.4,1.8 -3,3.4 -4.7,4.9c5.9,-1.4 11.5,-3.9 16.6,-7.1c-1.6,1.3 -3,2.9 -4,4.7c2.8,-0.6 5.4,-1.8 7.7,-3.5c-5.8,5.9 -13.7,9.6 -21.4,13z" data-paper-data="{&quot;index&quot;:null}" fill="#e6e6f0"/><path d="M175.7,147.89999c-4,0.1 -8,0.1 -12,0.2c3.2,-1.4 6.4,-2.9 9.6,-4.3c0.6,0.9 1.2,1.8 1.7,2.8c0.2,0.4 0.5,0.8 0.7,1.3z" data-paper-data="{&quot;index&quot;:null}" fill="#e6e6f0"/><path d="M136.5,126.4c-0.1,-0.4 -0.2,-0.8 -0.3,-1.2c0,-0.3 -0.1,-0.7 -0.1,-1c-0.9,-8.2 17,-24.4 24.8,-29.9l1.2,8.6c-1,0.7 -2,1.5 -3,2.2c-0.8,0.6 -1.6,1.2 -1.9,2.1c-0.4,1.2 0.2,2.4 1.2,3.2c0.9,0.7 2.1,1.1 3.3,1.4c0.5,0.1 1,0.3 1.5,0.4l0.5,4l7.1,2.4v0h0.1c-4.1,1.8 -9,2.9 -14.6,2.5l-1.2,-0.5l-0.7,0.2c0,0 2.5,1.2 6.1,3.3c-3.5,1.5 -0.1,6.5 2.4,8.4c3.1,2.4 5.8,5.1 8.2,8.2c-7.9,-1.5 -15.7,-2.9 -23.6,-4.4c-2.8,-0.5 -5.7,-1.1 -7.8,-3c-2,-1.8 -2.9,-4.3 -3.2,-6.9z" data-paper-data="{&quot;index&quot;:null}" fill="#e6e6f0"/><path d="M141.4,119.3c0.6,2.3 1.8,4.5 3.5,6.2c-1.5,-2.3 -1.9,-5.2 -1.5,-8c0.4,-2.7 1.4,-5.3 2.5,-7.8c0.1,2.3 0.8,4.7 2.1,6.6c0.2,-3 0.6,-6.1 1.8,-8.8c1.1,-2.6 2.9,-5.2 5.5,-6.5c-1.8,1 -2.8,2.8 -3.5,4.7c-1.8,5.2 -1,11.3 2.1,15.9c-2,-0.8 -3.7,-2 -5.1,-3.6c0.8,3.2 2.2,6.3 4.2,8.9c-1.5,-0.8 -2.9,-1.9 -4.1,-3.2c1.4,3.5 3.6,6.8 6.4,9.4c0.7,0.6 1.5,1.3 1.5,2.3c-2.2,-1.2 -4.3,-2.5 -6.5,-3.7c-2.4,-1.4 -4.8,-2.8 -6.6,-4.8c-1.8,-2.1 -2.9,-4.9 -2.3,-7.6z" data-paper-data="{&quot;index&quot;:null}" fill="#e6e6f0"/><path d="M245.7,90.5c-0.4,-2.2 -0.5,-4.9 0.1,-7.7c4.8,0.5 8.2,1.3 9.1,2.3c0.3,0.5 0.9,1 1.6,1.6l-3,7.3c-2.4,-1.4 -5.1,-2.6 -7.8,-3.5z" data-paper-data="{&quot;index&quot;:null}" fill="#e6e6f0"/><path d="M161.7,102.9l1.2,9.2c-0.5,-0.1 -1,-0.3 -1.5,-0.4c-1.1,-0.3 -2.3,-0.6 -3.3,-1.4c-0.9,-0.8 -1.6,-2 -1.2,-3.2c0.3,-0.9 1.1,-1.5 1.9,-2.1c1,-0.7 2,-1.4 2.9,-2.1z" data-paper-data="{&quot;index&quot;:null}" fill="#bcaac4"/><path d="M244.7,100.2c0.9,-1.5 1.9,-2.9 2.9,-3.6c0,0 -1.3,-2.4 -1.9,-6c2.7,0.9 5.4,2 7.8,3.5l-3.2,7.7c-0.1,0.5 -0.3,1 -0.5,1.5c-0.6,-0.6 -1.2,-1.1 -1.9,-1.6c-1,-0.7 -2.1,-1.2 -3.2,-1.5z" data-paper-data="{&quot;index&quot;:null}" fill="#bcaac4"/><path d="M263.1,106.1c0.3,-0.6 0.5,-1.2 0.8,-1.8c0.2,0.4 0.5,0.7 0.7,1c2.2,3.1 4.2,6.2 6.2,9.4c0.9,1.4 1.8,3.1 1.5,4.7c-0.4,1.9 -2.4,3.1 -4.3,3.8c-0.6,0.2 -1.2,0.3 -1.8,0.5c0.2,-1.3 0.6,-2.8 1.2,-4.3c0,0 -4.7,1.2 -9.9,0.9c0.3,-0.6 0.5,-1.3 0.7,-1.9c1.5,-4.2 3.1,-8.3 4.9,-12.3z" data-paper-data="{&quot;index&quot;:null}" fill="#bcaac4"/><path d="M220.3,116.6c0.3,0.4 0.6,0.8 0.9,1.1c-0.4,0 -0.9,0 -1.3,0z" data-paper-data="{&quot;index&quot;:null}" fill="#bcaac4"/><path d="M245.7,83c0.1,-0.5 0.2,-1.1 0.4,-1.6c3.1,0 5.6,0.2 7.3,0.6c1.2,0.3 2.7,1 4.3,2c-0.4,0.8 -0.8,1.7 -1.2,2.6l-0.1,0.2c-0.7,-0.6 -1.2,-1.2 -1.6,-1.6c-0.9,-1 -4.3,-1.8 -9.1,-2.2z" data-paper-data="{&quot;index&quot;:null}" fill="#f5f4f0"/><path d="M268.2,95.6c0.3,-0.8 0.7,-1.5 1.1,-2.2c9,8.7 18,19.9 19.6,25.7c0.2,0.7 0.4,1.6 0.6,2.5c-1.6,2.8 -4,5.6 -7.4,8.2c-3.8,2.9 -7.3,5.1 -10.4,6.7c-0.9,-0.8 -1.8,-1.6 -2.6,-2.4c5.9,-2.3 11.2,-6 13.1,-11.9c3,-9.2 -5.8,-18.8 -14.3,-26.1c0.1,-0.2 0.2,-0.4 0.3,-0.5z" data-paper-data="{&quot;index&quot;:null}" fill="#f5f4f0"/><path d="M173.4,168c-5.1,-1.9 -15.2,-2.9 -22.9,-5c-4.8,-1.4 -8.7,-3.1 -9.9,-5.9c-3.1,-6.9 -4,-23.4 -4.9,-32c0.1,0.4 0.2,0.8 0.3,1.2c0.6,2.6 1.6,5.2 3.5,6.9c2.1,1.9 5,2.5 7.8,3c7.9,1.5 15.7,2.9 23.6,4.4c-2.4,-3 -5.1,-5.8 -8.2,-8.2c-2.4,-2 -5.8,-6.9 -2.4,-8.4c6.9,4 17.5,11.6 21.1,21.5c0,0 8.5,-6.6 12.8,-6.8c4.3,-0.2 10.4,5.7 10.4,5.7c0,0 8.1,-11.2 20.2,-14.9c2.5,4.5 7.8,6.7 12.8,5c1.4,-0.5 2.7,-1.3 3.8,-2.3c0.6,1.1 1.2,2.3 1.7,3.6c-0.3,-0.1 -0.6,-0.2 -1,-0.2c-1.1,-0.1 -2.1,0.3 -3.1,0.7c-5.9,2.1 -12.6,2.1 -18.5,-0.1c-3.5,3.7 -7.2,7.3 -11,10.7c-1.9,1.7 -4.3,3.4 -6.7,2.5c-1.3,-0.5 -2.2,-1.7 -3.2,-2.6c-3.5,-3.2 -9.4,-3.3 -13.1,-0.2c-0.4,0.3 -0.7,0.7 -1.1,1c2,0 3.9,-0.1 5.8,-0.1c-2.5,2 -5,4.1 -7.5,6.2c8.2,5.6 18.5,7.2 28.3,6.4c9.8,-0.9 19.2,-3.9 28.6,-7c-2.2,2.7 -4.5,5.3 -6.8,8c8,-2.3 15.8,-5.2 23.4,-8.7c4,2.2 7.8,5.1 9.6,8.9c0.3,0.6 0.5,1.2 0.7,1.8c0,0 -1.7,-19.6 4.1,-26.1c0,0 -1.6,-1.3 -3,-3.5c0.2,0.2 0.3,0.3 0.5,0.5c0.8,0.8 1.7,1.6 2.6,2.4c1.1,0.9 2.2,1.8 3.4,2.5c0.2,0.6 0.3,1.1 0.3,1.7c-0.1,1.4 -1,2.7 -1.4,4c-0.4,1.3 -0.3,2.6 -0.1,3.9c5.5,-3.8 11.1,-7.6 16.6,-11.4c-0.2,9.8 -1.5,20 -4.1,24.6c-1.4,2.4 -5.8,5.1 -11.6,7.6c-13.1,5.7 -33.7,11 -45.6,13c-10,1.7 -24.2,-2.3 -36,-6.5c-8.7,-3.1 -16.1,-6.4 -19.8,-7.8z" data-paper-data="{&quot;index&quot;:null}" fill="#d8cfd7"/><path d="M173.2,143.7c0.6,0.9 1.2,1.9 1.7,2.8c0.2,0.4 0.5,0.8 0.7,1.2c-4,0.1 -8,0.1 -12,0.2c3.3,-1.3 6.4,-2.7 9.6,-4.2z" data-paper-data="{&quot;index&quot;:null}" fill="#d8cfd7"/><path d="M161.8,102.9l-1.1,-8.6l-3.1,-23l15.2,9.2v0l-0.2,3.3l-1.9,34.6l-7.1,-2.3l-0.5,-4z" data-paper-data="{&quot;index&quot;:null}" fill="#fdbc4f"/><path d="M199.8,96.8l-2.5,15.1c-3.7,-1.4 -7.3,-4.4 -9.3,-10.4c0,0 -1.7,3.6 -5.3,7.8l1.2,-22.1v0z" data-paper-data="{&quot;index&quot;:null}" fill="#fdbc4f"/><path d="M185.6,86.4l8.4,-3.6c8.6,5 16.2,9.1 16.2,9.1l-10.5,4.8z" data-paper-data="{&quot;index&quot;:null}" fill="#ffe165"/><path d="M183.6,76.6l-7.6,2.8l-9.3,-6.9l7.7,-2.3c2.3,1.8 5.6,4 9.2,6.4z" data-paper-data="{&quot;index&quot;:null}" fill="#ffe165"/><path d="M199.4,62.9l0.7,-0.2l2.9,1.7c-0.5,2.2 -0.9,3.9 -1.2,5.1c-0.7,-0.1 -1.4,-0.1 -2.1,0c0,-1.2 -0.2,-3.6 -0.3,-6.6z" data-paper-data="{&quot;index&quot;:null}" fill="#ffe165"/><path d="M207.8,76.8l9.7,-4.2l1.9,1.1c-1.9,1.5 -4.1,2.9 -6.6,3.9c0,0 2.3,2.1 4.2,5.3z" data-paper-data="{&quot;index&quot;:null}" fill="#ffe165"/><path d="M217.6,72.6l-10,4v0l10,-4l-6.7,-3.8v0z" data-paper-data="{&quot;index&quot;:null}" fill="#ffe165"/><path d="M200.1,62.6l-0.8,0.2v0z" data-paper-data="{&quot;index&quot;:null}" fill="#fff597"/><path d="M172.7,80.5l-15.2,-9.2l14.7,-3c0.6,0.5 1.3,1.1 2.2,1.8l-7.7,2.3l9.3,6.9l-1.3,0.5z" data-paper-data="{&quot;index&quot;:null}" fill="#fff597"/><path d="M183.9,87.2l1.8,-0.8l14,10.3z" data-paper-data="{&quot;index&quot;:null}" fill="#fff597"/><path d="M170.8,118.5h-0.1v0l1.9,-34.7c0,0 0.1,0 0.2,0c0.6,0.2 1.1,0.4 1.6,0.7c1.3,0.7 2.6,1.3 3.9,2c1.1,0.6 2.1,1.2 3,2c0.5,0.5 0.9,1 1.4,1.5l-0.5,19.7c-2.7,3.1 -6.5,6.5 -11.4,8.8z" data-paper-data="{&quot;index&quot;:null}" fill="#e72d31"/><path d="M217.5,72.5l-9.9,4l-0.3,-0.2l-1.1,-0.7c1.1,-0.9 1.2,-2 0.5,-3.2c1.3,-1 2.7,-2.2 4.2,-3.6z" data-paper-data="{&quot;index&quot;:null}" fill="#e72d31"/><path d="M174.7,79.9v-0.1l1.3,-0.5l7.6,-2.8c3.1,1.9 6.5,3.9 9.7,5.8l-5.2,2.1c-0.1,-0.2 -0.3,-0.3 -0.5,-0.4c-0.4,-0.2 -0.9,-0.2 -1.3,-0.1c-1.8,0.2 -3.7,1.3 -5.3,0.5c-0.5,-0.2 -0.9,-0.6 -1.3,-1c-1,-1 -2.2,-1.8 -3.4,-2.4c-0.5,-0.3 -1.2,-0.6 -1.6,-1.1z" data-paper-data="{&quot;index&quot;:null}" fill="#e72d31"/><path d="M220.3,116.5l-0.4,1.1c-1.3,-0.1 -2.7,-0.5 -4.2,-1.4l2.9,-13.2c1.3,1.2 2.8,2.4 4.2,3.6l-0.1,0.1c-0.1,0 -0.1,0.1 -0.2,0.1c-3.3,2.1 -4.2,6.5 -2.2,9.7z" data-paper-data="{&quot;index&quot;:null}" fill="#de7a41"/><path d="M209.6,95.5l-3.2,17.2c-2.1,0.2 -4.7,0.3 -7.3,-0.3l3.8,-12.9z" data-paper-data="{&quot;index&quot;:null}" fill="#de7a41"/><path d="M202.9,99.4l-3.8,12.9c-0.6,-0.1 -1.2,-0.3 -1.8,-0.5l2.5,-15.1l10.5,-4.8l-0.7,3.6z" data-paper-data="{&quot;index&quot;:null}" fill="#cd633a"/><path d="M171.5,67.8l15.8,-3.5c1.7,3.2 3.5,6 5.1,7.8c-0.8,0.7 -1.2,1.6 -0.7,2.7v0c0.1,0.2 0.1,0.3 0.2,0.5c1.4,3.3 9.9,4.4 13.2,3c1.1,-0.5 1.8,-1.1 2.2,-1.8l0.3,0.2v0v0c0.1,0.1 0.2,0.1 0.3,0.2v0l9.1,6.1c0.9,1.4 1.7,3.1 2.2,4.8l-9,4.1z" data-paper-data="{&quot;index&quot;:null}" fill="#e72d31"/><path d="M185.3,69c0.3,0.9 0.6,2.6 1.3,3.3c4.7,4.9 10.2,8.6 15.6,12.6c-0.6,0.4 -1.3,0 -1.9,-0.3c-6.8,-4.1 -13.8,-8.7 -19.6,-13.5c-0.5,-0.4 -1.3,-0.6 -1.1,-1.1c0.1,-0.2 0.3,-0.4 0.5,-0.5c0.8,-0.6 3.5,-3.2 4.7,-2.4c0.7,0.3 0.4,1.2 0.5,1.9z" data-paper-data="{&quot;index&quot;:null}" fill="#e72d31"/><path d="M210.3,91.9l9,-4.1c1.1,4 0.6,8.4 -4.6,12.1c0,0 1.7,1.5 3.9,3.3l-2.9,13.2c-1.5,-1 -3,-2.5 -4.5,-4.8c0,0 -2,0.7 -4.8,1.1l3.2,-17.2z" data-paper-data="{&quot;index&quot;:null}" fill="#8b0f07"/><path d="M174.4,70c-0.9,-0.6 -1.6,-1.2 -2.2,-1.8c-0.3,-0.2 -0.5,-0.5 -0.7,-0.7l38.7,24.3c0,0 -7.7,-4.1 -16.2,-9.1l0.5,-0.2c-0.2,-0.1 -0.4,-0.3 -0.6,-0.4l-0.5,0.2c-3.3,-1.9 -6.6,-3.9 -9.7,-5.8c-3.7,-2.3 -7,-4.5 -9.3,-6.5z" data-paper-data="{&quot;index&quot;:null}" fill="#8b0f07"/><path d="M207.4,76.3c-0.3,0.7 -1.1,1.3 -2.2,1.8c-3.3,1.4 -11.8,0.3 -13.2,-3c-0.1,-0.2 -0.2,-0.3 -0.2,-0.5c1.2,2.8 9.5,3.4 12.8,2c0.7,-0.3 1.3,-0.6 1.7,-1z" data-paper-data="{&quot;index&quot;:null}" fill="#8b0f07"/><path d="M194.6,33.6v0c2.5,1.2 4,18.9 4.7,29.3v0.1c0.2,3 0.3,5.4 0.4,6.6c-0.5,0 -1.1,0.1 -1.6,0.2c-0.3,-2.3 -1.5,-11.7 -2.5,-20.3l-1.2,-14.9v0v0c0.1,-0.6 0.1,-1 0.2,-1z" data-paper-data="{&quot;index&quot;:null}" fill="#8b0f07"/><path d="M187.4,64.1c-5.1,-9.4 -10,-22.2 -10,-22.2c0,0 0.3,0.6 0.7,1.5c0.2,0.6 0.6,1.4 1,2.3c0.2,0.5 0.5,1.1 0.8,1.7c0.5,1.2 1.2,2.6 1.9,4.1c0.2,0.5 0.5,1 0.7,1.5c3.6,7.3 8,15.9 10.5,18.5c-0.2,0.1 -0.3,0.3 -0.5,0.4c-1.6,-1.8 -3.4,-4.6 -5.1,-7.8z" data-paper-data="{&quot;index&quot;:null}" fill="#8b0f07"/><path d="M177.4,42c4.5,-5.3 17.2,-8.5 17.2,-8.5v0c0,0.2 -0.1,0.5 -0.1,1.1v0c-1.7,3.3 -5.2,5.3 -8.5,6.9c-1.8,0.8 -3.6,1.6 -5.6,1.7c-0.9,0 -1.7,-0.1 -2.3,0.2c-0.4,-0.9 -0.7,-1.5 -0.7,-1.4z" data-paper-data="{&quot;index&quot;:null}" fill="#e72d31"/><path d="M193,71.5c-2.5,-2.5 -7,-11.2 -10.5,-18.5c1.7,-2.3 4.3,-3.7 7,-4.7c1.7,-0.7 3.7,-1.2 5.1,-0.1c0.4,0.3 0.7,0.7 1,1.2c1,8.7 2.2,18 2.5,20.3c-0.6,0.1 -1.1,0.2 -1.5,0.3c-0.8,0.2 -2.4,0.7 -3.6,1.5z" data-paper-data="{&quot;index&quot;:null}" fill="#e72d31"/><path d="M189.4,48.2c-2.7,1 -5.3,2.4 -7,4.7c-0.2,-0.5 -0.5,-1 -0.7,-1.5c-0.7,-1.5 -1.3,-2.9 -1.9,-4.1c-0.3,-0.6 -0.6,-1.2 -0.8,-1.7c-0.4,-0.9 -0.7,-1.7 -1,-2.3c0.6,-0.3 1.4,-0.2 2.3,-0.2c2,0 3.8,-0.9 5.6,-1.7c3.3,-1.6 6.8,-3.6 8.5,-6.9v0l1.2,14.9c-0.2,-0.5 -0.6,-0.9 -1,-1.2c-1.4,-1 -3.4,-0.6 -5.2,0z" data-paper-data="{&quot;index&quot;:null}" fill="#ef433f"/><path d="M230.7,40.5c-0.1,0 -0.3,0 -0.4,-0.1l0.4,0.1c0,0 1.8,0 0.9,2.8c-0.8,2.2 -11.9,17 -20.7,25.5v0c-1.5,1.4 -2.9,2.6 -4.2,3.6c-0.2,-0.5 -0.6,-1 -1.1,-1.5l-0.1,-0.1c2.4,-3.3 10,-13.7 15,-20.4c2.3,-3.2 4.1,-5.6 4.5,-6c0.8,-0.9 2.6,-2.1 3.9,-2.9c1,-0.6 1.8,-1 1.8,-1z" data-paper-data="{&quot;index&quot;:null}" fill="#8b0f07"/><path d="M214.7,32.7c-0.4,-0.5 -0.7,-1.4 -1.1,-2.3c0.8,-0.9 1.8,-1.4 2.9,-1.2c2.1,0.5 10.9,10.3 13.7,11.3c0.2,0.1 0.3,0.1 0.4,0.1c0,0 -0.7,0.4 -1.7,1c-1.2,-0.4 -2.4,-0.7 -3.6,-1c-1.5,-0.4 -3.1,-0.9 -4.5,-1.7c-2.4,-1.4 -4.5,-4 -6.1,-6.2z" data-paper-data="{&quot;index&quot;:null}" fill="#e72d31"/><path d="M201.8,69.4c0.3,-1.1 0.7,-2.9 1.2,-5.1c1.5,-6.3 3.8,-15.8 5.6,-22.5c1.6,-0.5 3.4,-0.4 5.1,0c2.6,0.7 5.2,2.4 6.1,5c0.5,1.1 0.5,2.4 0.7,3.6c-5,6.7 -12.5,17 -15,20.4c-1,-0.9 -2.3,-1.3 -3.7,-1.4z" data-paper-data="{&quot;index&quot;:null}" fill="#e72d31"/><path d="M213.8,41.7c-1.7,-0.4 -3.5,-0.5 -5.1,0c1,-3.7 1.8,-6.6 2.3,-7.4c0.9,-1.6 1.8,-3 2.7,-4c0.4,0.9 0.7,1.8 1.1,2.3c1.6,2.2 3.7,4.8 6.1,6.2c1.4,0.9 2.9,1.3 4.5,1.7c1.2,0.4 2.4,0.7 3.6,1c-1.3,0.8 -3.1,2 -3.9,2.9c-0.4,0.4 -2.1,2.8 -4.5,6c-0.2,-1.2 -0.3,-2.4 -0.7,-3.6c-1,-2.6 -3.5,-4.3 -6.1,-5.1z" data-paper-data="{&quot;index&quot;:null}" fill="#ef433f"/><path d="M203.8,70.7c1.7,1.7 1.7,3.3 -0.8,4.3c-2.5,1 -8.8,0.6 -9.7,-1.5c-0.9,-2.1 2.5,-3.2 3.7,-3.5c1.7,-0.4 5.1,-1 6.8,0.7z" data-paper-data="{&quot;index&quot;:null}" fill="#ef433f"/><path d="M200.2,72.5c-0.2,0.3 -0.6,0.5 -1,0.5c-1,0.2 -2,0.2 -3,0.1c-0.1,0 -0.3,0 -0.4,-0.1c-0.1,-0.2 0,-0.5 0.2,-0.6c0.5,-0.4 1.1,-0.7 1.8,-0.8l0.1,-0.3c0.5,-0.1 1.1,-0.2 1.6,0c0.5,0.1 0.9,0.8 0.7,1.2z" data-paper-data="{&quot;index&quot;:null}" fill="#ef433f"/><path d="M184.8,66.9c0.6,0.4 0.3,1.4 0.5,2c0.3,1 0.6,2.6 1.3,3.3c4.7,4.9 10.2,8.6 15.6,12.6c-0.6,0.4 -1.3,0 -1.9,-0.3c-6.9,-4.1 -13.8,-8.6 -19.6,-13.5c-0.4,-0.3 -1.3,-0.5 -1.1,-1.1c0.1,-0.2 0.3,-0.4 0.5,-0.5c0.8,-0.6 3.5,-3.2 4.7,-2.5z" data-paper-data="{&quot;index&quot;:null}" fill="#ef433f"/><path d="M207.6,76.6l10,-4l-9.7,4.2v0c-0.1,-0.1 -0.2,-0.1 -0.3,-0.2z" data-paper-data="{&quot;index&quot;:null}" fill="#8b0f07"/><path d="M188.2,84.4l5.3,-2.1l0.5,-0.2c0.2,0.1 0.4,0.2 0.6,0.4l-0.5,0.2l-8.4,3.6l-1.8,0.8l-1.2,22.1c-0.1,0.1 -0.3,0.3 -0.4,0.4l0.5,-19.7v0l0.1,-3.4z" data-paper-data="{&quot;index&quot;:null}" fill="#8b0f07"/><path d="M172.9,83.9c0,0 -0.1,0 -0.2,0l0.2,-3.3v0l1.9,-0.7v0.1c0.4,0.5 1,0.8 1.6,1.1c1.2,0.7 2.4,1.5 3.4,2.4c0.4,0.3 0.8,0.8 1.3,1c1.6,0.8 3.5,-0.3 5.3,-0.5c0.4,-0.1 0.9,-0.1 1.3,0.1c0.2,0.1 0.4,0.2 0.5,0.4v0l-5.3,2.1l-0.1,3.4v0c-0.5,-0.4 -0.9,-1 -1.4,-1.5c-0.9,-0.9 -1.9,-1.4 -3,-2c-1.3,-0.7 -2.6,-1.3 -3.9,-2c-0.6,-0.3 -1.1,-0.6 -1.6,-0.6z" data-paper-data="{&quot;index&quot;:null}" fill="#ef433f"/><path d="M199.6,71.2c0.5,0.2 0.9,0.8 0.6,1.3c-0.2,0.3 -0.6,0.4 -1,0.5c-1,0.2 -2,0.2 -3,0.1c-0.2,0 -0.3,0 -0.4,-0.1c-0.2,-0.2 0,-0.4 0.2,-0.6c0.5,-0.4 1.1,-0.7 1.8,-0.8l0.1,-0.3c0.5,-0.2 1.1,-0.3 1.7,-0.1z" data-paper-data="{&quot;index&quot;:null}" fill="#f26867"/><path d="M253.8,115.3c-0.6,-0.3 -1.2,-0.7 -1.8,-1c1.4,-3.8 0.6,-8 -2.2,-11c0.1,-0.5 0.3,-1 0.5,-1.5c2.6,0 5.8,0.4 8.6,1.5c-1.7,3.8 -3.4,7.6 -4.9,11.4c-0.1,0.2 -0.2,0.4 -0.2,0.6z" data-paper-data="{&quot;index&quot;:null}" fill="#feca8a"/><path d="M268.4,76.9c1.1,0.7 2.1,1.6 3,2.7c-1.8,3 -3.5,6 -5.2,9.1c-0.6,1.1 -1.2,2.2 -1.8,3.3c-1.1,-1.1 -2.4,-2.2 -3.8,-3.1c2.3,-2.6 4.1,-5.8 5.8,-8.6c0.7,-1.2 1.3,-2.3 2,-3.4z" data-paper-data="{&quot;index&quot;:null}" fill="#feca8a"/><path d="M256.5,86.5c0.4,-0.9 0.8,-1.7 1.2,-2.6c1.5,-3.2 3.1,-6.3 4.8,-9.3c1,0.2 2,0.4 3,0.8c-1.5,2.3 -5.6,8.7 -6.6,12.4c-0.8,-0.5 -1.6,-0.9 -2.4,-1.3z" data-paper-data="{&quot;index&quot;:null}" fill="#feca8a"/><path d="M274.9,62.4c-0.8,-0.8 -1.6,-1.6 -2.5,-2.3c3,-3.7 5.9,-7 8.8,-9.7c0.6,0.9 1.3,2.1 2,3.4c-2,1.7 -3.9,3.6 -5.7,5.6c-0.9,1 -1.8,2 -2.6,3z" data-paper-data="{&quot;index&quot;:null}" fill="#feca8a"/><path d="M285,57.4c0.4,0.9 0.8,1.8 1.1,2.8c-1,0.8 -1.9,1.7 -2.8,2.6c-1.6,1.6 -3,3.4 -4.4,5.2c-0.6,-1 -1.2,-2 -1.9,-2.9c2,-2.2 4.2,-4.2 6.4,-6.3c0.5,-0.5 1,-0.9 1.6,-1.4z" data-paper-data="{&quot;index&quot;:null}" fill="#feca8a"/><path d="M296.2,41.8c4.7,-1 9.5,-0.3 14.7,2.3c-1.2,3.9 -3,8.9 -5.7,13c-1,-1.1 -2.2,-1.8 -3.6,-2.2c-0.9,-0.3 -1.8,-0.3 -2.7,-0.3c-0.1,-1.8 -0.2,-3.7 -0.5,-5.6c1.7,-0.4 3.4,-0.6 5.2,-0.4c0.4,0.1 0.9,0.1 1.2,-0.1c0.4,-0.3 0.5,-1 0.2,-1.5c-0.3,-0.5 -0.8,-0.8 -1.3,-1c-2,-0.8 -4,-0.8 -6.1,-0.4c-0.4,-1.4 -0.9,-2.7 -1.4,-3.8z" data-paper-data="{&quot;index&quot;:null}" fill="#feca8a"/><path d="M253.8,115.4c-0.5,1.3 -1,2.6 -1.5,3.9c-1,-0.3 -1.9,-0.7 -2.7,-1.2c0.5,-0.5 0.9,-1 1.3,-1.6c0.4,-0.7 0.8,-1.4 1.1,-2.2c0.6,0.4 1.2,0.7 1.8,1.1z" data-paper-data="{&quot;index&quot;:null}" fill="#e85029"/><path d="M253.5,94l3,-7.3l0.1,-0.2c0.8,0.3 1.6,0.7 2.4,1.2c-0.3,1.2 -0.3,2.2 0.2,2.6c0.5,-0.4 1,-1 1.5,-1.5c1.3,1 2.6,2.1 3.8,3.1c-2,3.8 -3.8,7.6 -5.6,11.4c-2.9,-1.1 -6.1,-1.4 -8.6,-1.5z" data-paper-data="{&quot;index&quot;:null}" fill="#e85029"/><path d="M265.6,75.4c-1,-0.4 -2,-0.6 -3,-0.8c1.9,-3.4 3.9,-6.6 6,-9.5c1.3,-1.8 2.5,-3.4 3.8,-5c0.9,0.6 1.7,1.4 2.5,2.3c-3.3,3.9 -6.3,8.1 -9,12.4c-0.1,0.2 -0.2,0.4 -0.3,0.6z" data-paper-data="{&quot;index&quot;:null}" fill="#e85029"/><path d="M276.9,65.1c0.7,1 1.3,1.9 1.9,2.9c-1.6,2.1 -3,4.3 -4.4,6.5c-1,1.7 -2,3.3 -3,5c-0.9,-1.1 -1.9,-2 -3,-2.7c1,-1.8 2,-3.5 3.2,-5.2c1.6,-2.3 3.4,-4.4 5.3,-6.5z" data-paper-data="{&quot;index&quot;:null}" fill="#e85029"/><path d="M283.2,53.9c-0.7,-1.3 -1.4,-2.5 -2,-3.4c5,-4.6 9.8,-7.6 14.9,-8.7c0.6,1.1 1.1,2.4 1.5,3.8c-1.8,0.3 -3.6,1.1 -5.3,1.9c-3.3,1.7 -6.3,3.8 -9.1,6.4z" data-paper-data="{&quot;index&quot;:null}" fill="#e85029"/><path d="M298.3,49c0.3,1.9 0.4,3.8 0.5,5.6c-1.1,0 -2.2,0.2 -3.3,0.5c-3.5,0.9 -6.7,2.8 -9.5,5.1c-0.3,-0.9 -0.7,-1.9 -1.1,-2.8c2.4,-2.2 4.8,-4.3 7.5,-5.9c1.9,-1.1 3.9,-2 5.9,-2.5z" data-paper-data="{&quot;index&quot;:null}" fill="#e85029"/><path d="M273.8,85.2c-1.5,2.6 -3.1,5.3 -4.6,8.1c-0.3,0.8 -0.7,1.5 -1.1,2.2c-0.9,-1 -2.2,-2.3 -3.7,-3.6c0.6,-1.1 1.2,-2.2 1.8,-3.3c1.7,-3.1 3.4,-6.1 5.2,-9.1c1.2,1.5 2.1,3.4 2.4,5.7z" data-paper-data="{&quot;index&quot;:null}" fill="#f8a37d"/><path d="M254,114.8c1.5,-3.9 3.2,-7.7 4.9,-11.4c1.6,0.6 3,1.5 4.2,2.7c-1.8,4 -3.5,8.1 -5,12.3c-1.1,-0.9 -2.7,-1.9 -4.4,-3c0.1,-0.3 0.2,-0.5 0.3,-0.6z" data-paper-data="{&quot;index&quot;:null}" fill="#f8a37d"/><path d="M286,60.2c0.7,2.2 1.2,4.6 1.1,6.9c-1.7,1.9 -3.6,4.2 -5.4,6.6c-0.7,-1.5 -1.7,-3.6 -2.9,-5.7c1.4,-1.8 2.8,-3.6 4.4,-5.2c0.9,-0.9 1.8,-1.8 2.8,-2.6z" data-paper-data="{&quot;index&quot;:null}" fill="#f8a37d"/><path d="M305.1,57c-0.5,0.7 -1,1.4 -1.5,2.1c-0.2,-0.2 -0.5,-0.4 -0.8,-0.5c-1.2,-0.6 -2.5,-0.6 -4,-0.2c0,-1.2 0,-2.5 0,-3.9c0.9,0 1.8,0.1 2.7,0.3c1.4,0.4 2.6,1.2 3.6,2.2z" data-paper-data="{&quot;index&quot;:null}" fill="#f8a37d"/><path d="M258.2,118.4c-0.3,0.6 -0.5,1.3 -0.7,1.9c-1.7,-0.1 -3.6,-0.4 -5.3,-1c0.5,-1.3 1,-2.6 1.5,-3.9c1.7,1 3.3,2.1 4.5,3z" data-paper-data="{&quot;index&quot;:null}" fill="#cb4721"/><path d="M264.5,91.9c1.5,1.3 2.8,2.6 3.7,3.6c-0.1,0.1 -0.2,0.3 -0.3,0.5c-0.3,0.6 -0.7,1.3 -1,2c-1,2 -2,4.1 -3,6.2c-0.3,0.6 -0.5,1.2 -0.8,1.8c-1.1,-1.2 -2.6,-2.1 -4.2,-2.7c1.8,-3.8 3.6,-7.6 5.6,-11.4z" data-paper-data="{&quot;index&quot;:null}" fill="#cb4721"/><path d="M278.8,68c1.2,2.1 2.2,4.2 2.9,5.7c-2.5,3.4 -5.1,7.3 -7.7,11.5c-0.5,-2.4 -1.4,-4.2 -2.6,-5.7c1,-1.7 2,-3.4 3,-5c1.4,-2.2 2.9,-4.4 4.4,-6.5z" data-paper-data="{&quot;index&quot;:null}" fill="#cb4721"/><path d="M298.8,54.5c0,1.4 0,2.7 0,3.9c-3.3,0.9 -7.4,4 -11.7,8.7c0.1,-2.2 -0.4,-4.6 -1.1,-6.9c2.8,-2.3 6,-4.1 9.5,-5.1c1.1,-0.3 2.2,-0.5 3.3,-0.6z" data-paper-data="{&quot;index&quot;:null}" fill="#cb4721"/><path d="M307.3,62.4c0,1.4 -0.3,2.7 -0.9,3.9h-0.1c0.6,-3 0,-5.6 -2.7,-7.2c0.5,-0.7 1,-1.4 1.5,-2.1c1.4,1.4 2.2,3.3 2.2,5.4z" data-paper-data="{&quot;index&quot;:null}" fill="#cb4721"/><path d="M306.1,87.5c-2,2.9 -4.2,5.6 -6.6,8.2c-3.2,-2 -5.7,-4.6 -3.9,-9.1c0,-0.1 0.1,-0.2 0.1,-0.3c2.5,0.7 6.1,1.4 10.4,1.2z" data-paper-data="{&quot;index&quot;:null}" fill="#feca8a"/><path d="M312.2,73.7c-3.2,0.6 -6.7,1.2 -9.8,1.6c1.7,-2.9 3.2,-5.9 3.8,-8.6c0.1,-0.2 0.1,-0.3 0.2,-0.5c2.4,-0.3 5.5,-1 8.4,-2.6c-0.4,2.7 -1.2,5.2 -1.9,7.8c-0.2,0.8 -0.4,1.6 -0.7,2.3z" data-paper-data="{&quot;index&quot;:null}" fill="#feca8a"/><path d="M310.8,43.9c0.3,0.2 0.6,0.3 0.9,0.5c0,0.4 0,0.8 0.1,1.2c0.2,1.4 0.9,2.8 1.5,4.1c1.2,2.7 1.9,5.6 2,8.5c0.1,1.8 -0.1,3.6 -0.4,5.4c-3,1.6 -6,2.3 -8.4,2.6c0.6,-1.2 0.9,-2.5 0.9,-3.9c-0.1,-1.9 -0.9,-3.9 -2.3,-5.3c2.7,-4.2 4.5,-9.2 5.7,-13.1z" data-paper-data="{&quot;index&quot;:null}" fill="#e85029"/><path d="M306.1,87.5c1.7,0 3.5,-0.3 5.4,-0.7c-4,6.6 -8,11 -9.5,10.3c-0.8,-0.5 -1.7,-0.9 -2.5,-1.4c2.4,-2.6 4.6,-5.3 6.6,-8.2z" data-paper-data="{&quot;index&quot;:null}" fill="#f8a37d"/><path d="M314.8,63.6c2.2,-1.1 4.3,-2.7 5.9,-4.9c0.1,4.3 -1,9.2 -2.6,13.9c-1.8,0.3 -3.8,0.7 -5.9,1.1c0.2,-0.7 0.5,-1.5 0.7,-2.3c0.8,-2.6 1.5,-5.1 1.9,-7.8z" data-paper-data="{&quot;index&quot;:null}" fill="#f8a37d"/><path d="M311.9,45.7c-0.1,-0.4 -0.1,-0.8 -0.1,-1.2c1.1,0.5 2.1,1.2 3.2,1.9c4,2.8 5.7,7.2 5.8,12.3c-1.7,2.2 -3.7,3.8 -5.9,4.9c0.3,-1.8 0.5,-3.6 0.4,-5.4c-0.1,-2.9 -0.9,-5.8 -2,-8.5c-0.6,-1.3 -1.2,-2.6 -1.4,-4z" data-paper-data="{&quot;index&quot;:null}" fill="#cb4721"/><path d="M312.2,73.8c2.1,-0.4 4.1,-0.8 5.9,-1.1c-1.7,5.1 -4.1,10 -6.6,14.1c-1.9,0.4 -3.7,0.6 -5.4,0.7c-4.3,0.2 -7.9,-0.5 -10.4,-1.2c1.1,-2.4 4.2,-6.6 6.8,-11c3.1,-0.4 6.5,-1 9.7,-1.5z" data-paper-data="{&quot;index&quot;:null}" fill="#e85029"/><path d="M258.7,87.7c1,-3.8 5.1,-10.1 6.6,-12.4c0.2,-0.3 0.3,-0.5 0.4,-0.6c2.7,-4.4 5.7,-8.5 9,-12.4c0.9,-1 1.8,-2 2.7,-3c1.8,-1.9 3.7,-3.8 5.7,-5.6c2.8,-2.4 5.8,-4.6 9.1,-6.3c1.6,-0.8 3.5,-1.5 5.3,-1.9c2.1,-0.4 4.2,-0.4 6.1,0.4c0.5,0.2 1,0.5 1.3,1c0.3,0.5 0.3,1.2 -0.2,1.5c-0.4,0.2 -0.8,0.1 -1.2,0.1c-1.7,-0.2 -3.5,0 -5.2,0.4c-2.1,0.5 -4.1,1.4 -5.9,2.5c-2.8,1.6 -5.2,3.7 -7.5,5.9c-0.6,0.5 -1.1,1 -1.6,1.5c-2.2,2.1 -4.3,4.1 -6.4,6.3c-1.9,2.1 -3.7,4.2 -5.3,6.5c-1.1,1.7 -2.2,3.4 -3.2,5.2c-0.7,1.2 -1.3,2.4 -2,3.5c-1.7,2.8 -3.6,6.1 -5.8,8.6c-0.5,0.5 -1,1 -1.5,1.5c-0.5,-0.5 -0.5,-1.4 -0.4,-2.7z" data-paper-data="{&quot;index&quot;:null}" fill="#fff2c0"/><path d="M243.1,135.89999c-0.5,-1.3 -1.1,-2.5 -1.7,-3.6c0.3,-0.3 0.6,-0.7 0.9,-1c3.2,4.1 6,10.2 2.3,16.3c1,-3.9 0.1,-8.1 -1.5,-11.7z" data-paper-data="{&quot;index&quot;:null}" fill="#0e3c16"/><path d="M266.8,161.39999c-1.7,-3.8 -5.6,-6.7 -9.6,-8.9c-6.1,-3.3 -12.6,-4.9 -12.6,-4.9c0,0 16.5,0 22.2,13.8z" data-paper-data="{&quot;index&quot;:null}" fill="#0e3c16"/><path d="M271.6,137c-5.8,6.5 -4.1,26.1 -4.1,26.1c0,0 -3.5,-22 4.1,-26.1z" data-paper-data="{&quot;index&quot;:null}" fill="#0e3c16"/><path d="M248,119.4c1.1,1 2.1,2 2.8,2.9l4.9,6.5c1.6,2.1 3.2,4.2 4.3,6.5c1.4,2.8 2.1,5.9 2.8,9c0.5,2.2 1,4.5 0.6,6.7c-1.5,-4.6 -3.2,-9.1 -5.1,-13.5c-1.3,-3.1 -2.7,-6.2 -4.7,-9c-2.3,-3.2 -5.2,-5.5 -8.2,-7.8c1,-0.4 1.9,-0.8 2.6,-1.3z" data-paper-data="{&quot;index&quot;:null}" fill="#0e3c16"/><path d="M156.3,120.9c-0.7,0 -1.3,-0.1 -2,-0.2l0.7,-0.2z" data-paper-data="{&quot;index&quot;:null}" fill="#0e3c16"/><path d="M204.7,144.5c0,0 -6.1,-5.9 -10.4,-5.7c-4.4,0.2 -12.8,6.8 -12.8,6.8c0,0 14,-16.7 23.2,-1.1z" data-paper-data="{&quot;index&quot;:null}" fill="#0e3c16"/><path d="M181.4,145.6c-3.6,-9.9 -14.2,-17.4 -21.1,-21.5c-3.5,-2.2 -6.1,-3.3 -6.1,-3.3c0,0 25.5,9.6 27.2,24.8z" data-paper-data="{&quot;index&quot;:null}" fill="#0e3c16"/><path d="M224.6,129c0,0.2 0.1,0.3 0.2,0.5c-12.1,3.8 -20.2,14.9 -20.2,14.9c0,0 6.5,-13.6 20,-15.4z" data-paper-data="{&quot;index&quot;:null}" fill="#0e3c16"/><path d="M223.6,124.4c-0.7,-0.1 -1.5,-0.2 -2.2,-0.3c-16,-2.3 -32.3,-2.5 -48.4,-0.8c-1.7,0.2 -3.8,0.2 -4.7,-1.2c5.8,-1.3 11.7,-2.7 17.7,-3.1c3.6,-0.2 7.3,-0.2 11,0.1c6.4,0.5 12.8,1.5 19.2,2.3c2.3,0.3 5.1,0.2 7.6,0.5c-0.2,0.8 -0.3,1.7 -0.2,2.5z" data-paper-data="{&quot;index&quot;:null}" fill="#0e3c16"/><path d="M248.7,76.1c-1.2,1.7 -2,3.5 -2.5,5.2c-0.2,0.5 -0.3,1.1 -0.4,1.6c-0.6,2.8 -0.5,5.5 -0.1,7.7c0.6,3.6 1.9,6 1.9,6c0,0 -9.2,-10.1 1.1,-20.5z" data-paper-data="{&quot;index&quot;:null}" fill="#0e3c16"/><path d="M244.6,100.2c-0.3,-0.1 -0.6,-0.1 -0.9,-0.2c0.9,-1.4 2.1,-2.6 3.9,-3.4c-1,0.7 -2.1,2.1 -3,3.6z" data-paper-data="{&quot;index&quot;:null}" fill="#0e3c16"/><path d="M218.6,103.2c-2.2,-1.8 -3.9,-3.3 -3.9,-3.3c0,0 5.9,0.7 9.9,6.1c-0.6,0.1 -1.2,0.4 -1.8,0.7c-1.4,-1.2 -2.9,-2.5 -4.2,-3.5z" data-paper-data="{&quot;index&quot;:null}" fill="#0e3c16"/><path d="M219.2,87.7c-0.5,-1.7 -1.3,-3.4 -2.2,-4.8c-1.9,-3.1 -4.2,-5.3 -4.2,-5.3c0,0 17.1,14 1.8,22.2c5.2,-3.6 5.8,-8.1 4.6,-12.1z" data-paper-data="{&quot;index&quot;:null}" fill="#0e3c16"/><path d="M233.2,104.7c-0.1,0.1 -0.2,0.3 -0.3,0.4c0.8,-12.6 0.2,-25.2 -1.7,-37.6c-0.3,-1.9 -0.6,-3.8 0.4,-5.4c2.3,6.3 2.7,13.1 3,19.8c0.2,5.5 0.3,11.1 0.3,16.7c0,1.3 0,2.6 0,3.9c-0.6,0.6 -1.3,1.3 -1.7,2.2z" data-paper-data="{&quot;index&quot;:null}" fill="#0e3c16"/><path d="M231.9,114c-0.3,0 -0.6,0.1 -0.9,0.2c0.3,-0.1 0.5,-0.3 0.8,-0.4c0,0.1 0.1,0.2 0.1,0.2z" data-paper-data="{&quot;index&quot;:null}" fill="#8b0f07"/><path d="M224.7,119.5c-1.3,-0.3 -2.5,-1 -3.4,-2c-0.3,-0.3 -0.6,-0.6 -0.8,-1l-0.1,-0.1c-2,-3.2 -1.1,-7.6 2.2,-9.7c0.1,0 0.1,-0.1 0.2,-0.1c-0.1,0.7 -0.4,1.4 -0.4,2c-0.1,1.6 0.6,3.1 1.5,4.4c0.8,1.1 1.9,2 3.3,2.2c0.6,0.1 1.1,0 1.6,-0.1c-1,0.6 -1.9,1.3 -2.6,2.2c-1.5,-0.4 -2.6,-1.5 -3.3,-2.5c0.1,-0.1 0.3,-0.1 0.4,-0.2c0.2,-0.1 0.4,-0.2 0.5,-0.3c0.1,-0.1 0.2,-0.3 0.1,-0.5c-0.1,-0.2 -0.4,-0.2 -0.5,-0.1l-0.1,-0.1c-0.3,0.1 -0.7,0.3 -1,0.4c-0.6,-1 -0.8,-1.8 -0.8,-1.8c0,0.8 0.1,1.4 0.2,2c-0.1,0 -0.2,0.1 -0.3,0.2c-0.2,0.1 -0.2,0.4 -0.1,0.5c0.1,0.1 0.3,0.2 0.4,0.2c0,0 0.1,0 0.2,0c0.7,2.4 2,3.3 3.4,3.4c-0.2,0.4 -0.5,0.8 -0.6,1z" data-paper-data="{&quot;index&quot;:null}" fill="#8b0f07"/><path d="M221.9,115.2c0,0 -0.1,0 -0.2,0c-0.2,-0.1 -0.3,-0.1 -0.4,-0.2c-0.1,-0.2 0,-0.4 0.1,-0.5c0,-0.1 0.2,-0.1 0.3,-0.2h0.1c0.2,-0.1 0.3,-0.1 0.5,-0.2c0.3,-0.1 0.7,-0.3 1,-0.4l0.1,0.1c0.2,-0.2 0.4,-0.1 0.5,0.1c0.1,0.1 0,0.4 -0.1,0.5c-0.1,0.1 -0.3,0.2 -0.5,0.3c-0.1,0.1 -0.3,0.1 -0.4,0.2c-0.3,0.1 -0.6,0.2 -1,0.3z" data-paper-data="{&quot;index&quot;:null}" fill="#3e0f00"/><path d="M242.2,131c-0.3,0.4 -0.6,0.7 -0.9,1c-1,1 -2.3,1.8 -3.8,2.3c-5,1.7 -10.4,-0.5 -12.8,-5c0,-0.2 -0.1,-0.3 -0.2,-0.5c-0.2,-0.4 -0.4,-0.9 -0.5,-1.3c0,-0.1 -0.1,-0.2 -0.1,-0.3c0.9,0.4 1.9,1.1 2.7,1.3c2.3,0.6 4.8,0.3 7,-0.6c1.9,-0.8 3.7,-2.1 4.5,-4c0.4,-1.1 0.5,-2.3 0.3,-3.5c1.1,0.4 2.1,0.6 3.2,0.6c0.7,5.4 -2.7,7.9 -5.7,9.1c0,-0.2 -0.1,-0.5 -0.1,-0.7c-0.1,-0.2 -0.1,-0.5 -0.3,-0.8c-0.1,-0.3 -0.4,-0.4 -0.7,-0.4c-0.3,0.1 -0.6,0.4 -0.4,0.7l-0.2,0.1c0.1,0.6 0.1,1.1 0.2,1.7c-1.6,0.4 -2.9,0.5 -2.9,0.5c1.1,0.2 2.1,0.3 3,0.4c0,0.2 0.1,0.4 0.2,0.6c0.2,0.2 0.5,0.4 0.7,0.3c0.2,-0.1 0.3,-0.3 0.4,-0.5c0,-0.1 0.1,-0.2 0.1,-0.3c8.1,-0.2 6.9,-7.4 6,-10.5c0.8,0 1.6,-0.1 2.4,-0.2v0c1.2,3.7 0.4,7.6 -2.1,10z" data-paper-data="{&quot;index&quot;:null}" fill="#8b0f07"/><path d="M236,130.5c0.1,0.4 0.1,0.9 0,1.4c0,0.1 -0.1,0.2 -0.1,0.3c-0.1,0.2 -0.2,0.4 -0.4,0.5c-0.3,0.1 -0.6,-0.1 -0.7,-0.3c-0.1,-0.2 -0.2,-0.4 -0.2,-0.6c0,-0.1 0,-0.1 0,-0.2c0,-0.2 -0.1,-0.5 -0.1,-0.7c-0.1,-0.6 -0.1,-1.1 -0.2,-1.7l0.2,-0.1c-0.1,-0.3 0.1,-0.7 0.4,-0.7c0.3,0 0.5,0.1 0.7,0.4c0.2,0.2 0.3,0.5 0.3,0.8c0,0.2 0.1,0.5 0.1,0.9z" data-paper-data="{&quot;index&quot;:null}" fill="#3e0f00"/><path d="M238,100.6c1.8,-0.7 3.8,-0.9 5.7,-0.6c0.3,0 0.6,0.1 0.9,0.2c1.2,0.3 2.3,0.8 3.3,1.5c0.7,0.5 1.3,1 1.9,1.6c2.8,2.9 3.6,7.2 2.2,11c-0.3,0.8 -0.6,1.5 -1.1,2.2c-0.4,0.6 -0.8,1.1 -1.3,1.6c-0.4,0.5 -0.9,0.9 -1.4,1.2c-0.8,0.6 -1.7,1.1 -2.7,1.4c-0.3,0.1 -0.7,0.2 -1.1,0.3c-0.8,0.2 -1.6,0.3 -2.4,0.3c0,0 -0.1,0 -0.2,0c-1.1,-0.1 -2.2,-0.2 -3.2,-0.6c-0.9,-0.3 -1.7,-0.7 -2.5,-1.2c-0.1,-0.1 -0.2,-0.1 -0.3,-0.2c1,-0.3 2.1,-0.4 2.9,-0.7c2.3,-1 4,-2.8 5.2,-4.8c1,-1.8 1.7,-3.9 1.1,-5.9c-1,-3.3 -4.6,-4.8 -7,-7.3z" data-paper-data="{&quot;index&quot;:null}" fill="#8b0f07"/><path d="M247.8,115.3c0.1,0.1 0.1,0.2 0.1,0.3c0.1,0.2 0.1,0.4 0,0.6c-0.1,0.2 -0.5,0.3 -0.7,0.2c-0.2,-0.1 -0.4,-0.2 -0.5,-0.3c-0.7,0.5 -1.6,1 -2.6,1.5c0,0 1,-0.8 2,-2.2c-0.4,-0.4 -0.8,-0.8 -1.2,-1.2l0.1,-0.2c-0.3,-0.1 -0.3,-0.5 -0.1,-0.7c0.2,-0.2 0.5,-0.2 0.8,-0.1c0.3,0.1 0.5,0.3 0.7,0.5c0.2,0.2 0.3,0.3 0.5,0.5c1.8,-3 3,-7.4 -2,-11.6c0.1,-0.1 10.9,6.2 2.9,12.7z" data-paper-data="{&quot;index&quot;:null}" fill="#8b0f07"/><path d="M247,114c0.4,0.3 0.7,0.7 0.9,1.1c0,0.1 0.1,0.2 0.1,0.3c0.1,0.2 0.1,0.4 0,0.6c-0.1,0.2 -0.4,0.3 -0.7,0.2c-0.2,0 -0.4,-0.2 -0.5,-0.3l-0.1,-0.1c-0.2,-0.1 -0.3,-0.3 -0.5,-0.5c-0.4,-0.4 -0.8,-0.8 -1.2,-1.2l0.1,-0.2c-0.3,-0.1 -0.3,-0.5 -0.1,-0.7c0.2,-0.2 0.5,-0.2 0.8,-0.1c0.3,0.1 0.5,0.3 0.7,0.5c0.1,0.2 0.3,0.3 0.5,0.4z" data-paper-data="{&quot;index&quot;:null}" fill="#3e0f00"/><path d="M143.9,126.8c-1.9,-2 -3,-4.8 -2.4,-7.5c0.6,2.3 1.8,4.5 3.5,6.2c-1.5,-2.3 -1.9,-5.3 -1.5,-8c0.3,-2.7 1.4,-5.3 2.5,-7.8c0.1,2.3 0.8,4.6 2.1,6.6c0.2,-3 0.6,-6 1.8,-8.8c1.1,-2.6 3,-5.1 5.5,-6.5c-1.8,1 -2.9,2.8 -3.5,4.7c-1.7,5.2 -1,11.3 2.1,15.9c-1.9,-0.8 -3.7,-2 -5.1,-3.6c0.7,3.2 2.2,6.3 4.2,8.9c-1.6,-0.8 -2.9,-1.9 -4.1,-3.2c1.4,3.6 3.6,6.8 6.4,9.4c0.6,0.7 1.4,1.4 1.5,2.3c-2.2,-1.2 -4.3,-2.5 -6.5,-3.7c-2.4,-1.4 -4.8,-2.8 -6.5,-4.9z" data-paper-data="{&quot;index&quot;:null}" fill="#f5f4f0"/><path d="M239.6,142.8c-6,6 -13.8,9.7 -21.6,13.1c2.4,-2.3 4.8,-4.6 7.2,-6.9c-5.2,1.7 -10.5,3.5 -15.7,5.3c1.8,-1 3.5,-2.1 5.3,-3.1c-2.1,1.2 -7.6,2.8 -9.8,1.4c2.8,-0.6 5.4,-1.3 8,-2.6c3.6,-1.9 7,-4.4 10.8,-6.1c-1.4,1.8 -3,3.4 -4.7,4.9c5.9,-1.4 11.5,-3.8 16.6,-7.1c-1.6,1.3 -3,2.9 -4,4.7c2.8,-0.6 5.4,-1.8 7.9,-3.6z" data-paper-data="{&quot;index&quot;:null}" fill="#f5f4f0"/><path d="M266.3,123.5c-0.5,4.1 1,7.6 2.5,9.9c1.5,2.2 3,3.5 3,3.5c-7.6,4.1 -4.1,26.1 -4.1,26.1c-0.2,-0.6 -0.5,-1.2 -0.7,-1.8c-5.7,-13.7 -22.2,-13.7 -22.2,-13.7c3.7,-6.2 0.8,-12.2 -2.3,-16.3c2.3,-2.8 3.1,-6.6 1.9,-10.3v-0.1c0.4,-0.1 0.7,-0.2 1.1,-0.3c3,2.3 5.9,4.6 8.2,7.8c2,2.7 3.4,5.9 4.7,9c1.8,4.4 3.6,8.9 5.1,13.5c0.4,-2.2 -0.1,-4.5 -0.6,-6.7c-0.7,-3 -1.4,-6.2 -2.8,-9c-1.2,-2.3 -2.7,-4.4 -4.3,-6.5l-4.9,-6.5c-0.7,-0.9 -1.7,-1.9 -2.8,-2.9c0.5,-0.4 1,-0.8 1.4,-1.2c0.9,0.5 1.8,0.9 2.7,1.2c1.7,0.6 3.5,0.9 5.3,1c5.3,0.3 9.9,-0.9 9.9,-0.9c-0.7,1.5 -1.1,3 -1.1,4.2z" data-paper-data="{&quot;index&quot;:null}" fill="#2a5c2f"/><path d="M257.8,147.7c-0.5,0.5 -1.3,0.1 -1.8,-0.3c-1.5,-1.1 -3,-2.2 -4.5,-3.3c-0.3,-0.2 -0.7,-0.5 -0.9,-0.9c-0.3,-0.6 -0.2,-1.3 -0.1,-2c0.4,-3.4 -0.1,-7 -2.2,-9.9c-1.1,-1.5 -3.7,-3.5 -2.5,-5.7c1.2,-2.3 3.3,1.7 4.1,2.9c3.7,5.3 5.9,11.5 8,17.6c0.1,0.7 0.2,1.3 -0.1,1.6z" data-paper-data="{&quot;index&quot;:null}" fill="#2a5c2f"/><path d="M265.7,139.8c-0.2,0.3 -0.6,0.7 -0.9,0.5c-0.2,-0.1 -0.3,-0.3 -0.4,-0.4c-0.7,-1.5 -1.1,-3.1 -1.7,-4.7c-1.3,-3.8 -3.5,-6.7 -6.1,-9.7c-2.9,-3.3 2.8,-3.7 4.7,-2c1.4,1.3 0.8,3.7 1.5,5.5c0.6,1.7 2.1,2.8 3,4.3c1.1,2 1.1,4.6 -0.1,6.5z" data-paper-data="{&quot;index&quot;:null}" fill="#2a5c2f"/><path d="M224.5,119.6c-0.3,0.7 -0.6,1.4 -0.8,2.2c-2.5,-0.3 -5.2,-0.2 -7.6,-0.5c-6.4,-0.8 -12.7,-1.8 -19.2,-2.3c-3.6,-0.3 -7.3,-0.4 -11,-0.1c-6,0.4 -11.9,1.8 -17.7,3.1c0.9,1.4 3,1.4 4.7,1.2c16.1,-1.7 32.4,-1.5 48.4,0.8c0.7,0.1 1.4,0.3 2.2,0.3c0,1 0.2,2.1 0.5,3.1c0,0.1 0.1,0.2 0.1,0.3c0.1,0.5 0.3,0.9 0.5,1.3c-13.6,1.7 -20,15.3 -20,15.3c-9.1,-15.6 -23.2,1.1 -23.2,1.1c-1.7,-15.2 -27.2,-24.8 -27.2,-24.8c0.7,0.1 1.4,0.2 2,0.2c5.7,0.5 10.5,-0.6 14.6,-2.5c4.9,-2.2 8.7,-5.6 11.5,-8.7c0.1,-0.1 0.3,-0.3 0.4,-0.4c3.6,-4.1 5.3,-7.8 5.3,-7.8c2,6 5.5,9 9.3,10.4c0.6,0.2 1.2,0.4 1.8,0.5c2.6,0.6 5.2,0.6 7.3,0.3c2.8,-0.4 4.8,-1.1 4.8,-1.1c1.5,2.3 3,3.8 4.5,4.8c1.4,0.9 2.9,1.3 4.2,1.4c0.5,0 0.9,0 1.3,0c1,1 2.2,1.7 3.3,1.9z" data-paper-data="{&quot;index&quot;:null}" fill="#2a5c2f"/><path d="M171.5,126.1c0.2,-1.1 3,-0.8 3.9,-0.7c2,0.2 3.9,0.7 5.9,1c5.5,0.8 11,-0.3 16.5,0.5c2.8,0.4 5.5,1.2 8.3,0.7c1.5,-0.3 3,-1 4.5,-1.2c1.6,-0.2 3.4,0.5 3.8,2c-3.1,1.6 -6,3.7 -8.4,6.2c-0.8,0.9 -1.9,1.9 -3.1,1.6c-0.6,-0.1 -1,-0.5 -1.4,-0.9c-3.8,-3 -9.6,-3.2 -13.6,-0.4c-0.9,0.6 -1.7,1.4 -2.7,1.9c-1,0.5 -2.2,0.7 -3.2,0.3c-0.9,-0.4 -1.4,-1.3 -1.9,-2.1c-1.6,-2.4 -3.7,-4.6 -6,-6.3c-0.5,-0.6 -2.7,-1.7 -2.6,-2.6z" data-paper-data="{&quot;index&quot;:null}" fill="#2a5c2f"/><path d="M200.2,116.1c-5.1,-0.6 -10.2,-0.6 -15.2,0.2c-1.3,0.2 -4.9,1.7 -5.4,0.1c-0.5,-1.8 3.2,-4.1 4.2,-5c1,-0.9 2.4,-1.9 3.7,-1.4c0.8,0.3 1.3,1.1 1.9,1.8c2.2,2.4 5.7,2.8 8.9,2.7c3.2,-0.1 6.6,-0.6 9.5,0.6c-1.8,1.8 -4.9,1.4 -7.6,1z" data-paper-data="{&quot;index&quot;:null}" fill="#2a5c2f"/><path d="M231.4,108c-1.8,-2 -4.5,-2.8 -7,-2.1c-4,-5.4 -9.9,-6.1 -9.9,-6.1c15.3,-8.1 -1.8,-22.2 -1.8,-22.2c2.5,-1 4.7,-2.3 6.6,-3.9c10.6,-8.6 12.6,-23.6 12.6,-23.6c1.1,25.7 16.7,26 16.7,26c-10.3,10.4 -1.1,20.5 -1.1,20.5c-1.8,0.8 -3,2 -3.9,3.4c-1.9,-0.3 -3.9,-0.1 -5.7,0.6c-0.1,0.1 -0.1,0.1 -0.2,0.1c0.2,-0.2 0.3,-0.4 0.4,-0.6c0.7,-1.6 0.5,-3.8 1.9,-4.9c0.3,-0.3 0.7,-0.5 0.8,-0.8c0.1,-0.3 0.1,-0.6 0,-0.9c-0.4,-2.2 -1.5,-4.3 -1.9,-6.5c-0.4,-2 -0.2,-4.1 0.5,-6.1c0.7,-1.7 1.5,-5.4 -1.5,-5.7c-2.8,-0.4 -2.2,4 -2.1,5.6c0.3,6.2 0.5,12.4 0.8,18.6c0,0.6 0.3,1.4 0.9,1.3v0c-0.9,0.4 -1.9,1 -2.7,1.7c0,-1.3 0,-2.6 0,-3.9c0,-5.5 -0.1,-11.1 -0.3,-16.7c-0.3,-6.7 -0.8,-13.5 -3,-19.8c-1,1.6 -0.7,3.6 -0.4,5.4c2,12.4 2.5,25.1 1.7,37.6c-0.5,1 -0.9,2 -1.4,3z" data-paper-data="{&quot;index&quot;:null}" fill="#2a5c2f"/><path d="M227.5,102.8c-1,-1.1 -2.1,-2 -3.4,-2.8c-0.8,-0.5 -1.6,-0.9 -2.1,-1.6c-0.6,-0.9 -0.4,-2.2 0,-3.2c0.4,-1 1.1,-1.9 1.6,-2.9c1.2,-2.3 1.2,-5.2 0.1,-7.5c-1,-2.1 -2.8,-4.1 -2.1,-6.3c0.3,-1 1.1,-1.8 1.9,-2.6c2.1,-2.2 3,-5.1 4.8,-7.4c2.3,-3 2.3,1.3 2.3,3.1c-0.1,5.9 -2,11.7 -2.2,17.6c-0.1,4.5 0.7,9.3 -0.9,13.6z" data-paper-data="{&quot;index&quot;:null}" fill="#2a5c2f"/><path d="M249.7,128.8c3.7,5.3 5.9,11.5 8,17.6c0.2,0.5 0.4,1.1 0,1.5c-0.4,0.5 -1.2,0.1 -1.8,-0.3c-1.5,-1.1 -3,-2.2 -4.5,-3.3c-0.4,-0.3 -0.7,-0.5 -0.9,-0.9c-0.3,-0.6 -0.2,-1.3 -0.1,-2c0.4,-3.4 -0.2,-7.1 -2.2,-9.9c-1,-1.5 -3.7,-3.5 -2.5,-5.7c1.2,-2.2 3.3,1.7 4,3z" data-paper-data="{&quot;index&quot;:null}" fill="#477539"/><path d="M265.6,133.5c1.2,1.9 1.2,4.5 0,6.4c-0.2,0.3 -0.5,0.7 -0.9,0.5c-0.2,0 -0.3,-0.2 -0.4,-0.4c-0.8,-1.5 -1.2,-3.1 -1.7,-4.7c-1.3,-3.8 -3.5,-6.7 -6.1,-9.7c-2.9,-3.3 2.9,-3.7 4.7,-2c1.5,1.3 0.9,3.7 1.5,5.5c0.6,1.7 2.1,2.8 2.9,4.4z" data-paper-data="{&quot;index&quot;:null}" fill="#477539"/><path d="M214.4,128.1c-3.1,1.6 -6,3.7 -8.4,6.2c-0.9,0.9 -1.9,1.9 -3.1,1.6c-0.5,-0.2 -1,-0.5 -1.4,-0.9c-3.8,-3 -9.6,-3.1 -13.6,-0.4c-0.9,0.6 -1.7,1.4 -2.7,1.9c-1,0.5 -2.2,0.8 -3.2,0.3c-0.8,-0.4 -1.4,-1.3 -1.9,-2.1c-1.6,-2.4 -3.7,-4.5 -6,-6.3c-0.5,-0.4 -2.8,-1.5 -2.6,-2.4c0.2,-1 3.1,-0.8 3.9,-0.7c2,0.2 3.9,0.7 5.9,1c5.4,0.8 11,-0.2 16.5,0.5c2.8,0.4 5.6,1.2 8.3,0.7c1.5,-0.3 2.9,-1 4.5,-1.2c1.6,-0.2 3.4,0.5 3.8,1.8z" data-paper-data="{&quot;index&quot;:null}" fill="#477539"/><path d="M185.2,116.2c-1.4,0.2 -5,1.8 -5.4,0.1c-0.5,-1.8 3.2,-4.1 4.2,-5c1,-0.9 2.4,-1.9 3.7,-1.4c0.8,0.3 1.3,1.1 1.9,1.8c2.1,2.4 5.7,2.8 8.9,2.7c3.2,-0.1 6.5,-0.6 9.5,0.6c-2,1.9 -5.1,1.4 -7.8,1.1c-5,-0.6 -10.2,-0.5 -15,0.1z" data-paper-data="{&quot;index&quot;:null}" fill="#477539"/><path d="M230.6,71.6c-0.1,5.9 -2,11.7 -2.2,17.6c-0.1,4.5 0.7,9.3 -0.9,13.6c-1,-1.1 -2.1,-2.1 -3.4,-2.8c-0.8,-0.4 -1.6,-0.8 -2.1,-1.6c-0.6,-1 -0.4,-2.2 0,-3.2c0.4,-1 1.1,-1.9 1.6,-2.9c1.1,-2.3 1.2,-5.1 0.1,-7.5c-0.9,-2.1 -2.8,-4.1 -2.1,-6.3c0.3,-1 1.2,-1.8 1.9,-2.6c2.1,-2.2 3,-5.1 4.8,-7.4c2.3,-3 2.3,1.3 2.3,3.1z" data-paper-data="{&quot;index&quot;:null}" fill="#477539"/><path d="M239.6,80.9c-0.7,1.9 -0.9,4.1 -0.5,6.1c0.4,2.2 1.4,4.3 1.9,6.5c0.1,0.3 0.1,0.6 0,0.9c-0.2,0.4 -0.5,0.6 -0.8,0.8c-1.4,1.1 -1.2,3.2 -1.9,4.9c-0.1,0.3 -0.2,0.5 -0.4,0.6c-0.1,0 -0.1,0.1 -0.2,0.1v0c-0.6,0.1 -0.9,-0.7 -0.9,-1.3c-0.3,-6.2 -0.5,-12.4 -0.8,-18.6c0,-1.6 -0.7,-5.9 2.1,-5.6c3,0.3 2.1,4 1.5,5.6z" data-paper-data="{&quot;index&quot;:null}" fill="#477539"/><path d="M153.1,220.1l-0.9,-22.2c3.2,1.2 6.6,2.6 10.2,4c0.1,0 0.1,0.1 0.2,0.1c2.9,1.2 5.9,2.3 8.9,3.5c0.9,0.3 1.8,0.7 2.7,1c1.3,0.5 2.5,1 3.8,1.5c0.2,0.1 0.5,0.2 0.7,0.3c2.9,1.1 5.7,2.2 8.6,3.3c-0.3,6.6 -0.4,13.2 -0.3,19.8c0,1.8 0.1,3.7 0.1,5.5c-14.2,-6.3 -27.8,-13.5 -34,-16.8z" data-paper-data="{&quot;index&quot;:null}" fill="#a5171b"/><path d="M151.9,191.9c0,-0.9 -0.1,-1.7 -0.1,-2.6c0.1,0.8 0.1,1.7 0.1,2.6z" data-paper-data="{&quot;index&quot;:null}" fill="#a5171b"/><path d="M200.1,281c11.7,9.9 24.3,19.8 37.8,26.9c-2.8,7.5 -2.7,14.8 -2,20.1c-13.9,-5.1 -39.7,-16.4 -57.2,-26.4c0.4,-2.1 0.6,-4.4 0.7,-7c1.2,-0.1 2.3,-0.1 3.4,0c1.6,0.1 2.5,-1.7 1.9,-2.8c-0.1,-0.6 -0.6,-1.1 -1.4,-1.2c-1.4,-0.2 -2.7,-0.2 -4,-0.1c0,-1.7 -0.2,-3.5 -0.5,-5.4c1.7,-0.4 3.3,-0.7 4.9,-1c1.4,-0.3 1.5,-1.6 0.9,-2.5c0,-1.1 -1,-2.2 -2.3,-1.9c-1.4,0.2 -2.8,0.5 -4.2,0.8c-0.1,-0.7 -0.3,-1.5 -0.5,-2.3c-0.4,-1.5 -0.9,-2.9 -1.4,-4.3c0.6,-0.2 1.2,-0.5 1.8,-0.7c1.3,-0.5 1.4,-1.9 0.8,-2.8c-0.1,-1.1 -1,-2.1 -2.3,-1.6c-0.7,0.3 -1.5,0.5 -2.2,0.8c-0.8,-1.6 -1.7,-3 -2.6,-4.4c0.8,-0.4 1.6,-0.7 2.4,-1.1c1.3,-0.5 1.4,-1.9 0.8,-2.8c-0.1,-1.1 -1,-2.1 -2.2,-1.5c-1.3,0.6 -2.6,1.2 -3.9,1.8c-1.5,-1.7 -3.2,-3.2 -4.8,-4.5c0.6,-0.5 1.3,-1.1 1.9,-1.6c0.7,-0.7 1.1,-1.6 0.5,-2.5v0c0,-0.3 -0.1,-0.6 -0.3,-0.9c-0.5,-0.7 -1.8,-1.1 -2.5,-0.5c-1.2,0.9 -2.3,1.9 -3.4,2.9c-2.1,-1.3 -4.1,-2.2 -5.8,-2.9c-0.1,-2.5 -0.3,-6.5 -0.5,-11.5v0c0,0.1 0,0.2 0,0.3c11.7,10.1 23.3,17.2 34.5,22.2c0.5,3.1 1.4,6 2.9,8.7c2.2,3.8 5.6,6.7 8.8,9.7z" data-paper-data="{&quot;index&quot;:null}" fill="#a5171b"/><path d="M151.2,165.3c9.8,3.2 26.5,8.5 41.7,13.1v0c-0.1,0.2 -0.1,0.5 -0.2,0.7v0.2c-0.3,1 -0.6,2 -0.8,3v0.2c-0.1,0.3 -0.1,0.5 -0.2,0.7v0.1c-0.2,0.6 -0.4,1.3 -0.5,1.9c-0.1,0.1 -0.1,0.2 -0.1,0.3c0,0.2 -0.1,0.3 -0.1,0.5c0,0.2 -0.1,0.3 -0.1,0.4c0,0.1 -0.1,0.3 -0.1,0.4c-0.1,0.2 -0.1,0.5 -0.2,0.7c-0.1,0.1 -0.1,0.2 -0.1,0.3c0,0.2 -0.1,0.3 -0.1,0.5c-0.1,0.1 -0.1,0.2 -0.1,0.3c0,0.2 -0.1,0.3 -0.1,0.5c-0.1,0 -0.1,0.1 -0.1,0.2c-0.1,0.3 -0.2,0.5 -0.2,0.7c-0.9,-0.2 -1.7,-0.4 -2.5,-0.7c-1.1,-0.3 -2.1,-0.7 -3.2,-1c-0.1,0 -0.2,-0.1 -0.3,-0.1c-1.6,-0.5 -3.2,-1 -4.7,-1.5c-0.5,-0.2 -0.9,-0.3 -1.4,-0.5c-9.6,-3.2 -18.3,-6.5 -24.1,-8.7c-0.1,0 -0.1,-0.1 -0.2,-0.1c-0.4,-0.2 -0.8,-0.4 -1.2,-0.5c-0.3,-0.1 -0.5,-0.2 -0.7,-0.3c-0.1,0 -0.2,-0.1 -0.3,-0.1z" data-paper-data="{&quot;index&quot;:null}" fill="#a5171b"/><path d="M221.8,186.3c-5.5,-1 -16.8,-4.2 -29.2,-7.9c0.2,-0.8 0.5,-1.7 0.7,-2.6c11.9,4.2 26.1,8.1 36,6.5c11.9,-2 32.5,-7.3 45.6,-13c-0.1,1.7 -0.1,3.6 -0.2,5.8c-10.8,9 -39.3,13.6 -52.9,11.2z" data-paper-data="{&quot;index&quot;:null}" fill="#a5171b"/><path d="M276.1,318.2c17.2,0 33.4,-6.8 50,-11.3c-2,3 -4.8,5.8 -8.8,8.4c-12.6,8.1 -29.8,13.3 -45.6,15.3c-1.2,-4 -1.7,-8.3 -1.3,-12.7c1.8,0.1 3.7,0.2 5.7,0.3z" data-paper-data="{&quot;index&quot;:null}" fill="#a5171b"/><path d="M221.6,112.3c0,0 0.3,0.8 0.8,1.8c-0.2,0.1 -0.3,0.1 -0.5,0.2h-0.1c-0.1,-0.6 -0.2,-1.3 -0.2,-2z" data-paper-data="{&quot;index&quot;:null}" fill="#a5171b"/><path d="M224.5,119.8c0.2,-0.4 0.5,-0.8 0.7,-1.2c-1.4,-0.1 -2.7,-1 -3.4,-3.4c0.3,0 0.6,-0.1 0.9,-0.2c0.8,1.1 1.8,2.1 3.3,2.5c0.7,-0.9 1.6,-1.6 2.6,-2.2c-0.5,0.1 -1.1,0.2 -1.6,0.1c-1.3,-0.1 -2.5,-1.1 -3.3,-2.2c-0.9,-1.3 -1.5,-2.8 -1.5,-4.4c0,-0.6 0.3,-1.3 0.4,-2l0.1,-0.1c0.6,-0.3 1.2,-0.5 1.8,-0.7c2.5,-0.6 5.2,0.1 7,2.1c0.2,-1.1 0.6,-2.1 1.2,-3c0.1,-0.1 0.2,-0.3 0.3,-0.4c0.5,-0.8 1.1,-1.5 1.8,-2.1c0.8,-0.7 1.7,-1.3 2.7,-1.7c0.1,0 0.1,-0.1 0.2,-0.1c0.1,-0.1 0.1,-0.1 0.2,-0.1c2.4,2.4 6.1,3.9 7,7.2c0.6,2 -0.1,4.1 -1.1,5.9c-1.2,2.1 -3,3.9 -5.2,4.8c-0.7,0.3 -1.9,0.4 -2.9,0.7c0.1,0.1 0.2,0.1 0.3,0.2c0.8,0.5 1.6,0.9 2.5,1.2c0.2,1.2 0.1,2.4 -0.3,3.5c-0.8,1.9 -2.6,3.2 -4.5,4c-2.2,0.9 -4.7,1.2 -7,0.6c-0.8,-0.3 -1.7,-0.9 -2.7,-1.3c-0.4,-1 -0.5,-2.1 -0.5,-3.1c0,-0.8 0.1,-1.7 0.3,-2.5c0.2,-0.8 0.5,-1.5 0.7,-2.1z" data-paper-data="{&quot;index&quot;:null}" fill="#a5171b"/><path d="M234.2,107.3c2,-2 3.9,2.7 3.7,4.2c-0.1,0.5 -0.2,1 -0.5,1.4c-0.2,0.4 -0.6,0.9 -1.1,0.9c-0.3,0 -0.7,-0.2 -0.9,-0.4c-1.4,-1.1 -2.7,-4.6 -1.2,-6.1z" data-paper-data="{&quot;index&quot;:null}" fill="#a5171b"/><path d="M231.9,114c-0.3,0.1 -0.6,0.1 -0.9,0.2c0.3,-0.1 0.5,-0.3 0.8,-0.4c0,0.1 0.1,0.2 0.1,0.2z" data-paper-data="{&quot;index&quot;:null}" fill="#a5171b"/><path d="M226.9,110.1c-0.3,-0.2 -0.5,-0.4 -0.7,-0.7c-0.2,-0.3 -0.4,-0.6 -0.2,-0.9c0.1,-0.2 0.3,-0.4 0.5,-0.5c1.1,-0.6 3.5,-0.5 4.1,0.9c0.5,1.8 -2.8,1.7 -3.7,1.2z" data-paper-data="{&quot;index&quot;:null}" fill="#a5171b"/><path d="M230.1,117.1c2.8,-0.4 1.4,4.5 0.3,5.6c-0.4,0.4 -0.8,0.6 -1.2,0.8c-0.4,0.2 -1,0.3 -1.4,0c-0.3,-0.2 -0.4,-0.5 -0.5,-0.9c-0.5,-1.7 0.6,-5.2 2.8,-5.5z" data-paper-data="{&quot;index&quot;:null}" fill="#a5171b"/><path d="M231.6,131.3c0,0 1.3,-0.1 2.9,-0.5c0,0.2 0.1,0.5 0.1,0.7c0,0.1 0,0.1 0,0.2c-0.9,-0.1 -1.8,-0.2 -3,-0.4z" data-paper-data="{&quot;index&quot;:null}" fill="#a5171b"/><path d="M241.8,121.2c0,0 0.1,0 0.2,0c0.8,3.1 2.1,10.3 -6,10.5c0.1,-0.4 0.1,-0.9 0,-1.4c3,-1.2 6.4,-3.7 5.8,-9.1z" data-paper-data="{&quot;index&quot;:null}" fill="#a5171b"/><path d="M245,102.5c0,0 10.9,6.3 2.9,12.7c-0.2,-0.4 -0.6,-0.8 -0.9,-1.1c1.8,-3 3,-7.4 -2,-11.6z" data-paper-data="{&quot;index&quot;:null}" fill="#a5171b"/><path d="M246.1,115.4c0.2,0.1 0.3,0.3 0.5,0.5l0.1,0.1c-0.7,0.5 -1.6,1 -2.6,1.5c0,0 1,-0.8 2,-2.1z" data-paper-data="{&quot;index&quot;:null}" fill="#a5171b"/><path d="M325.9,306.9c-16.6,4.5 -32.8,11.3 -50,11.3c-1.9,0 -3.7,0 -5.6,-0.2c0.7,-8.3 4.4,-17.3 12.2,-26.4c10.1,-11.9 26.3,-17 35.3,-19c8.8,7.4 16.2,22 8.1,34.3z" data-paper-data="{&quot;index&quot;:null}" fill="#cb1c22"/><path d="M274.2,182.3v-0.1c-10.8,6.4 -34.8,12.5 -50.7,14c-7.7,0.7 -20.7,-2.2 -34,-6.2c0.1,-0.2 0.1,-0.5 0.2,-0.7c0.1,0 0.1,-0.1 0.1,-0.2c0,-0.2 0.1,-0.3 0.1,-0.5c0.1,-0.1 0.1,-0.2 0.1,-0.3c0,-0.2 0.1,-0.3 0.1,-0.5c0.1,-0.1 0.1,-0.2 0.1,-0.3c0.1,-0.2 0.1,-0.5 0.2,-0.7c0,-0.1 0.1,-0.3 0.1,-0.4c0,-0.2 0.1,-0.3 0.1,-0.4c0,-0.2 0.1,-0.3 0.1,-0.5c0.1,-0.1 0.1,-0.2 0.1,-0.3c0.2,-0.6 0.3,-1.2 0.5,-1.9v-0.1c0.1,-0.3 0.1,-0.5 0.2,-0.7v-0.2c0.3,-1 0.5,-2 0.8,-3v-0.2c0.1,-0.2 0.1,-0.5 0.2,-0.7v0c12.4,3.8 23.7,6.9 29.2,7.9c13.8,2.4 42.2,-2.2 53,-11.2c-0.1,2.2 -0.2,4.6 -0.5,7.2z" data-paper-data="{&quot;index&quot;:null}" fill="#cb1c22"/><path d="M242.4,299.8c-1.9,2.6 -3.3,5.3 -4.3,8c-13.6,-7.1 -26.1,-17 -37.8,-26.9c-3.3,-2.9 -6.7,-5.8 -8.9,-9.6c-1.5,-2.7 -2.4,-5.6 -2.9,-8.7c30.1,13.3 56.6,10.8 70.2,5.5c13.8,-5.4 19.5,-17.3 21.5,-23.3c-0.2,-0.2 -0.4,-0.5 -0.6,-0.7c4,4.8 9.9,9.7 16,14c-33.7,10.6 -43,27.1 -53.2,41.7z" data-paper-data="{&quot;index&quot;:null}" fill="#cb1c22"/><path d="M274.1,206.2v0c-0.1,8.1 -0.1,15.8 0.1,21.4c-11.7,13.5 -31.3,20.2 -48.5,21c-8.5,0.4 -23.9,-5.2 -38.6,-11.8c0,-1.8 -0.1,-3.7 -0.1,-5.5c-0.1,-6.6 0,-13.2 0.3,-19.8c11.7,4.5 23,8.5 30.8,10.9c20.9,6.4 47.2,-10.1 56,-16.2z" data-paper-data="{&quot;index&quot;:null}" fill="#cb1c22"/><path d="M191.9,74.5v0c-0.5,-1.1 -0.1,-2 0.7,-2.7c0.1,-0.1 0.3,-0.3 0.5,-0.4c1.2,-0.8 2.8,-1.3 3.6,-1.5c0.4,-0.1 0.9,-0.2 1.5,-0.3c0.5,-0.1 1,-0.1 1.6,-0.2c0.7,0 1.4,0 2.1,0c1.4,0.1 2.7,0.5 3.7,1.4l0.1,0.1c0.5,0.5 0.8,1 1.1,1.5c0.7,1.2 0.6,2.3 -0.5,3.2c-0.4,0.4 -1,0.7 -1.7,1c-3.3,1.4 -11.6,0.8 -12.7,-2.1z" data-paper-data="{&quot;index&quot;:null}" fill="#cb1c22"/><path d="M197,70c1.7,-0.4 5.1,-1.1 6.8,0.7c1.7,1.8 1.7,3.3 -0.8,4.3c-2.5,1 -8.8,0.6 -9.7,-1.5c-0.9,-2.1 2.5,-3.1 3.7,-3.5z" data-paper-data="{&quot;index&quot;:null}" fill="#cb1c22"/><path d="M226.7,110.1c-0.2,-0.2 -0.5,-0.4 -0.7,-0.7c-0.2,-0.3 -0.3,-0.6 -0.2,-0.9c0.1,-0.2 0.3,-0.4 0.5,-0.5c1.1,-0.6 3.6,-0.5 4.1,0.9c0.7,1.8 -2.6,1.7 -3.7,1.2z" data-paper-data="{&quot;index&quot;:null}" fill="#cb1c22"/><path d="M230.1,117.2c2.8,-0.3 1.4,4.5 0.3,5.6c-0.3,0.3 -0.7,0.6 -1.2,0.8c-0.4,0.2 -1,0.3 -1.4,0c-0.3,-0.2 -0.4,-0.6 -0.5,-0.9c-0.5,-1.8 0.6,-5.3 2.8,-5.5z" data-paper-data="{&quot;index&quot;:null}" fill="#cb1c22"/><path d="M235.4,113.4c-1.4,-1.1 -2.8,-4.5 -1.2,-6.1c2.1,-2 3.9,2.7 3.7,4.2c-0.1,0.5 -0.3,1 -0.5,1.4c-0.2,0.5 -0.6,0.9 -1.1,0.9c-0.3,0 -0.6,-0.2 -0.9,-0.4z" data-paper-data="{&quot;index&quot;:null}" fill="#cb1c22"/></g></g></svg>