<?xml version="1.0" encoding="UTF-8"?><svg xmlns="http://www.w3.org/2000/svg" xmlns:xlink="http://www.w3.org/1999/xlink" width="128.7242202758789" height="45.20000076293945" viewBox="-0.09999999403953552 -0.3999999985098839 128.7242202758789 45.20000076293945" version="1.1">
    <!-- Generator: Sketch 49.3 (51167) - http://www.bohemiancoding.com/sketch -->
    <title>XMLID_680_</title>
    <desc>Created with Sketch.</desc>
    <defs/>
    <g id="Page-1" stroke="none" fill-rule="evenodd">
        <g id="未标题-1" fill-rule="nonzero">
            <g id="XMLID_680_">
                <g id="XMLID_1074_">
                    <path d="M 3.3 30.3 L 0.4 30.3 L 0.4 32.5 C 0.4 34.3 1.6 35.8 3.3 36.3 L 7.1 37.4 C 8.2 37.4 9.5 37.4 12.5 37.4 C 12.3 36.7 12.2 35.9 12.2 35.1 C 12.2 33.3 12.7 31.6 13.6 30.2 C 5.6 30.2 3.6 30.2 3.6 30.2 L 3.3 30.2 L 3.3 30.3 Z " id="Shape" stroke-width="1" fill="#CECA86"/>
                </g>
                <g id="XMLID_1070_">
                    <path d="M 5.7 27.6 C 7.7 27.6 9.3 26 9.3 24 L 9.3 19.1 L 3.2 19.1 L 3.2 16.4 L 7.8 16.4 L 19.6 16.4 L 25.4 16.4 L 43.8 16.4 L 50.5 16.4 L 50.5 2.7 C 50.5 1.3 51.7 0.1 53.1 0.1 L 65 0.1 C 69.8 0.1 74.5 1.7 78.4 4.6 L 90.9 14 C 90.9 14 113.6 18.4 118.3 21.4 C 119.9 22.4 121.2 23.7 122.2 25.1 L 122.1 25.2 L 114.8 25.2 C 114.8 25.2 116.2 29.5 122.5 30.5 C 122.3 30.5 118.9 30.5 113.4 30.5 C 111.8 27.9 108.9 26.1 105.6 26.1 C 102.3 26.1 99.4 27.9 97.8 30.5 C 77.9 30.5 49.9 30.4 29 30.4 C 27.4 27.8 24.5 26.1 21.2 26.1 C 17.9 26.1 15.1 27.8 13.4 30.4 C 5.4 30.4 3.4 30.4 3.4 30.4 L 3.1 30.4 L 3.1 27.8 L 5.7 27.8 L 5.7 27.6 Z M 88.7 15.8 L 77.5 7.2 C 73.6 4.2 68.9 2.6 64 2.6 L 55.4 2.6 L 57.9 15.1 C 71.9 15.4 88.7 15.8 88.7 15.8 Z " id="Shape" stroke-width="1" fill="#BFBC62"/>
                </g>
                <g id="XMLID_1069_">
                    <path d="M 3.3 19.1 L 3.3 27.6 L 5.7 27.6 C 7.7 27.6 9.3 26 9.3 24 L 9.3 19.1 L 3.3 19.1 Z " id="Shape" stroke-width="1" fill="#FC6460"/>
                </g>
                <g id="XMLID_1054_">
                    <rect id="Rectangle-path" x="0.9" y="0.6" width="11.8" height="3.8" stroke-width="1" fill="#BD8864" transform="matrix(1,0,0,1,7,12)"/>
                </g>
                <g id="XMLID_1051_">
                    <path d="M 21.3 26 C 24.6 26 27.5 27.7 29.1 30.3 C 30 31.7 30.5 33.4 30.5 35.1 C 30.5 35.9 30.4 36.6 30.2 37.4 C 29.2 41.4 25.6 44.3 21.3 44.3 C 17 44.3 13.4 41.4 12.4 37.4 C 12.2 36.7 12.1 35.9 12.1 35.1 C 12.1 33.3 12.6 31.6 13.5 30.2 C 15.2 27.7 18.1 26 21.3 26 Z M 21.3 40 C 24 40 26.2 37.8 26.2 35.1 C 26.2 32.4 24 30.2 21.3 30.2 C 18.6 30.2 16.4 32.4 16.4 35.1 C 16.4 37.8 18.6 40 21.3 40 Z " id="Shape" stroke-width="1" fill="#3B4D57"/>
                </g>
                <g id="XMLID_1044_">
                    <path d="M 18.2 32.7 C 18.1 32.3 18.5 31.9 18.9 32 C 19.8 32.2 20.4 32 20.9 31.2 C 21.1 30.8 21.6 30.8 21.8 31.2 C 22.3 32 22.8 32.2 23.8 32 C 24.2 31.9 24.6 32.3 24.5 32.7 C 24.3 33.6 24.5 34.2 25.3 34.7 C 25.7 34.9 25.7 35.4 25.3 35.6 C 24.5 36.1 24.3 36.6 24.5 37.6 C 24.6 38 24.2 38.4 23.8 38.3 C 22.9 38.1 22.3 38.3 21.8 39.1 C 21.6 39.5 21.1 39.5 20.9 39.1 C 20.4 38.3 19.9 38.1 18.9 38.3 C 18.5 38.4 18.1 38 18.2 37.6 C 18.4 36.7 18.2 36.1 17.4 35.6 C 17 35.4 17 34.9 17.4 34.7 C 18.2 34.2 18.5 33.6 18.2 32.7 Z M 21.3 36.7 C 22.2 36.7 22.9 36 22.9 35.1 C 22.9 34.2 22.2 33.5 21.3 33.5 C 20.4 33.5 19.7 34.2 19.7 35.1 C 19.8 36 20.5 36.7 21.3 36.7 Z " id="Shape" stroke-width="1" fill="#BFBC62"/>
                </g>
                <g id="XMLID_1041_">
                    <path d="M 26.2 35.1 C 26.2 37.8 24 40 21.3 40 C 18.6 40 16.4 37.8 16.4 35.1 C 16.4 32.4 18.6 30.2 21.3 30.2 C 24 30.3 26.2 32.5 26.2 35.1 Z M 18.2 37.6 C 18.1 38 18.5 38.4 18.9 38.3 C 19.8 38.1 20.4 38.3 20.9 39.1 C 21.1 39.5 21.6 39.5 21.8 39.1 C 22.3 38.3 22.8 38.1 23.8 38.3 C 24.2 38.4 24.6 38 24.5 37.6 C 24.3 36.7 24.5 36.1 25.3 35.6 C 25.7 35.4 25.7 34.9 25.3 34.7 C 24.5 34.2 24.3 33.7 24.5 32.7 C 24.6 32.3 24.2 31.9 23.8 32 C 22.9 32.2 22.3 32 21.8 31.2 C 21.6 30.8 21.1 30.8 20.9 31.2 C 20.4 32 19.9 32.2 18.9 32 C 18.5 31.9 18.1 32.3 18.2 32.7 C 18.4 33.6 18.2 34.2 17.4 34.7 C 17 34.9 17 35.4 17.4 35.6 C 18.2 36.1 18.5 36.7 18.2 37.6 Z " id="Shape" stroke-width="1" fill="#767D85"/>
                </g>
                <g id="XMLID_1040_">
                    <path d="M 21.3 33.6 C 20.4 33.6 19.7 34.3 19.7 35.2 C 19.7 36.1 20.4 36.8 21.3 36.8 C 22.2 36.8 22.9 36.1 22.9 35.2 C 22.9 34.3 22.2 33.6 21.3 33.6 Z " id="Shape" stroke-width="1" fill="#767D85"/>
                </g>
                <g id="XMLID_1032_">
                    <rect id="Rectangle-path" x="0.5" y="0.2" width="18.4" height="6.1" stroke-width="1" fill="#BD8864" transform="matrix(1,0,0,1,25,10)"/>
                </g>
                <g id="XMLID_1030_">
                    <path d="M 30.2 37.4 C 50.6 37.4 77.3 37.4 96.8 37.4 C 96.6 36.7 96.5 35.9 96.5 35.1 C 96.5 33.4 97 31.7 97.8 30.3 C 77.9 30.3 49.9 30.2 29 30.2 C 29.9 31.6 30.4 33.3 30.4 35 C 30.5 35.9 30.4 36.7 30.2 37.4 Z " id="Shape" stroke-width="1" fill="#CECA86"/>
                </g>
                <g id="XMLID_1023_">
                    <path d="M 55.3 2.6 L 57.8 15.1 C 71.9 15.4 88.6 15.8 88.6 15.8 L 77.4 7.2 C 73.5 4.2 68.8 2.6 63.9 2.6 L 55.3 2.6 Z " id="Shape" stroke-width="1" fill="#3B4D57"/>
                </g>
                <g id="XMLID_1019_">
                    <path d="M 105.7 44.3 C 101.4 44.3 97.8 41.4 96.8 37.4 C 96.6 36.7 96.5 35.9 96.5 35.1 C 96.5 33.4 97 31.7 97.8 30.3 C 99.4 27.7 102.3 25.9 105.6 25.9 C 108.9 25.9 111.8 27.7 113.4 30.3 C 114.2 31.7 114.7 33.3 114.7 35 C 114.7 35.8 114.6 36.5 114.4 37.3 C 113.5 41.4 109.9 44.3 105.7 44.3 Z M 105.7 40 C 108.4 40 110.6 37.8 110.6 35.1 C 110.6 32.4 108.4 30.2 105.7 30.2 C 103 30.2 100.8 32.4 100.8 35.1 C 100.8 37.8 103 40 105.7 40 Z " id="Shape" stroke-width="1" fill="#3B4D57"/>
                </g>
                <g id="XMLID_1012_">
                    <path d="M 102.6 32.7 C 102.5 32.3 102.9 31.9 103.3 32 C 104.2 32.2 104.8 32 105.3 31.2 C 105.5 30.8 106 30.8 106.2 31.2 C 106.7 32 107.2 32.2 108.2 32 C 108.6 31.9 109 32.3 108.9 32.7 C 108.7 33.6 108.9 34.2 109.7 34.7 C 110.1 34.9 110.1 35.4 109.7 35.6 C 108.9 36.1 108.7 36.6 108.9 37.6 C 109 38 108.6 38.4 108.2 38.3 C 107.3 38.1 106.7 38.3 106.2 39.1 C 106 39.5 105.5 39.5 105.3 39.1 C 104.8 38.3 104.3 38.1 103.3 38.3 C 102.9 38.4 102.5 38 102.6 37.6 C 102.8 36.7 102.6 36.1 101.8 35.6 C 101.4 35.4 101.4 34.9 101.8 34.7 C 102.6 34.2 102.8 33.6 102.6 32.7 Z M 105.7 36.7 C 106.6 36.7 107.3 36 107.3 35.1 C 107.3 34.2 106.6 33.5 105.7 33.5 C 104.8 33.5 104.1 34.2 104.1 35.1 C 104.1 36 104.8 36.7 105.7 36.7 Z " id="Shape" stroke-width="1" fill="#BFBC62"/>
                </g>
                <g id="XMLID_1009_">
                    <path d="M 110.5 35.1 C 110.5 37.8 108.3 40 105.6 40 C 102.9 40 100.7 37.8 100.7 35.1 C 100.7 32.4 102.9 30.2 105.6 30.2 C 108.4 30.3 110.5 32.5 110.5 35.1 Z M 102.6 37.6 C 102.5 38 102.9 38.4 103.3 38.3 C 104.2 38.1 104.8 38.3 105.3 39.1 C 105.5 39.5 106 39.5 106.2 39.1 C 106.7 38.3 107.2 38.1 108.2 38.3 C 108.6 38.4 109 38 108.9 37.6 C 108.7 36.7 108.9 36.1 109.7 35.6 C 110.1 35.4 110.1 34.9 109.7 34.7 C 108.9 34.2 108.7 33.7 108.9 32.7 C 109 32.3 108.6 31.9 108.2 32 C 107.3 32.2 106.7 32 106.2 31.2 C 106 30.8 105.5 30.8 105.3 31.2 C 104.8 32 104.3 32.2 103.3 32 C 102.9 31.9 102.5 32.3 102.6 32.7 C 102.8 33.6 102.6 34.2 101.8 34.7 C 101.4 34.9 101.4 35.4 101.8 35.6 C 102.6 36.1 102.8 36.7 102.6 37.6 Z " id="Shape" stroke-width="1" fill="#767D85"/>
                </g>
                <g id="XMLID_1008_">
                    <path d="M 105.7 33.6 C 104.8 33.6 104.1 34.3 104.1 35.2 C 104.1 36.1 104.8 36.8 105.7 36.8 C 106.6 36.8 107.3 36.1 107.3 35.2 C 107.2 34.3 106.5 33.6 105.7 33.6 Z " id="Shape" stroke-width="1" fill="#767D85"/>
                </g>
                <g id="XMLID_1000_">
                    <path d="M 114.5 37.4 C 119.7 37.4 122.8 37.4 122.8 37.4 C 129.4 37.4 128 30.6 128 30.6 L 125.2 30.6 C 124.2 30.6 123.3 30.5 122.5 30.4 C 122.5 30.4 122.5 30.4 122.5 30.4 C 122.3 30.4 118.9 30.4 113.4 30.4 C 114.2 31.8 114.7 33.4 114.7 35.1 C 114.8 35.9 114.7 36.7 114.5 37.4 Z " id="Shape" stroke-width="1" fill="#CECA86"/>
                </g>
                <g id="XMLID_999_">
                    <path d="M 122.1 25.1 L 114.8 25.1 C 114.8 25.1 116.2 29.4 122.5 30.4 C 122.5 30.4 122.5 30.4 122.5 30.4 C 123.3 30.5 124.2 30.6 125.2 30.6 C 125.3 30.6 124.3 27.8 122.1 25.1 Z " id="Shape" stroke-width="1" fill="#E9E5D9"/>
                </g>
            </g>
        </g>
    </g>
</svg>