<?xml version="1.0" encoding="UTF-8"?><svg xmlns="http://www.w3.org/2000/svg" xmlns:xlink="http://www.w3.org/1999/xlink" width="172.955078125" height="170.4063262939453" viewBox="-5.648521423339844 -7.0850348472595215 172.955078125 170.4063262939453" version="1.1">
    <!-- Generator: Sketch 49.3 (51167) - http://www.bohemiancoding.com/sketch -->
    <title>资源 191</title>
    <desc>Created with Sketch.</desc>
    <defs/>
    <g id="Page-1" stroke="none" fill-rule="evenodd">
        <g id="资源-191" fill-rule="nonzero">
            <path d="M 34.21 20.22 C 31.5246 16.8549 27.9695 14.2889 23.93 12.8 C 23.86 12.63 23.78 12.47 23.71 12.3 C 19.8263 4.484 11.7215 -0.3296 3 0 C 2.6291 0.0192 2.2641 0.1003 1.92 0.24 C 1.2672 0.4932 0.7299 0.9771 0.41 1.6 C -0.1855 2.8058 -0.1213 4.2326 0.58 5.38 C 1.1838 6.3651 2.2758 6.9437 3.43 6.89 C 8.1649 6.72 12.7316 8.6573 15.9 12.18 C 14.1742 12.5732 12.5495 13.3225 11.13 14.38 C 7.8132 16.6825 6.0244 20.617 6.47 24.63 C 6.9875 28.9681 10.8225 32.1338 15.18 31.82 C 21.86 31.35 24.67 25.97 25.18 20.98 C 26.5361 21.8014 27.7684 22.8115 28.84 23.98 C 30.6369 25.991 31.4176 28.7122 30.96 31.37 C 30.3384 34.6388 28.298 37.463 25.39 39.08 C 24.4381 39.593 23.8461 40.5886 23.85 41.67 C 23.8521 43.0321 24.5648 44.2945 25.73 45 C 26.7389 45.5946 27.9911 45.5946 29 45 C 33.38 42.4777 36.4324 38.1603 37.35 33.19 C 38.2928 28.6147 37.1411 23.8574 34.21 20.22 Z M 16.83 24 C 16.4217 24.3289 15.9667 24.5952 15.48 24.79 C 14.8287 25.1314 14.0513 25.1314 13.4 24.79 C 12.69 24.26 12.93 22.85 13.34 22.01 C 14.2477 19.8384 16.4681 18.5151 18.81 18.75 C 19.0333 20.7167 18.2964 22.6706 16.83 24 Z " id="_复合路径_" fill="#452B12" stroke-width="1"/>
            <path d="M 127.72 26.32 C 156.3178 52.2191 158.5101 96.3959 132.617 124.9992 C 106.7239 153.6025 62.5476 155.8041 33.9388 129.9171 C 5.3301 104.0301 3.1191 59.8542 29 31.24 C 41.4355 17.4912 58.8252 9.248 77.3406 8.3252 C 95.856 7.4025 113.9791 13.8758 127.72 26.32 Z " id="_路径_" fill="#388940" stroke-width="1"/>
            <ellipse id="_路径_2" fill="#5DB046" transform="matrix(0.6709444523936379,-0.7415076141228769,0.7415076141228769,0.6709444523936379,-40.54416500087871,85.39296533711354)" cx="86.8290149" cy="85.1181202" rx="51.39" ry="69.45" stroke-width="1"/>
            <ellipse id="_路径_3" fill="#388940" transform="matrix(0.6709444523936379,-0.7415076141228769,0.7415076141228769,0.6709444523936379,-40.54416500087871,85.39296533711354)" cx="86.8290149" cy="85.1181202" rx="19.05" ry="69.45" stroke-width="1"/>
        </g>
    </g>
</svg>