<?xml version="1.0" encoding="UTF-8"?><svg xmlns="http://www.w3.org/2000/svg" xmlns:xlink="http://www.w3.org/1999/xlink" width="31.599830627441406" height="43.50795364379883" viewBox="-0.4994478225708008 -0.4031754210591316 31.599830627441406 43.50795364379883" version="1.1">
    <!-- Generator: Sketch 49.3 (51167) - http://www.bohemiancoding.com/sketch -->
    <title>资源 5</title>
    <desc>Created with Sketch.</desc>
    <defs/>
    <g id="Page-1" stroke="none" fill-rule="evenodd">
        <g id="资源-5" fill-rule="nonzero">
            <path d="M15.41,35.28 C15.2256449,35.7330671 15.0817502,36.2015615 14.98,36.68 C14.5952236,38.4596783 14.6501427,40.3063331 15.14,42.06 C15.1884147,42.2849131 15.0593845,42.5101241 14.84087,42.5821053 C14.6223555,42.6540866 14.3847368,42.549654 14.29,42.34 C13.8876907,40.9308264 13.7453689,39.4601678 13.87,38 C13.9146304,37.5015779 13.9948348,37.006984 14.11,36.52 C14.53,34.74 14.94,34.08 15.55,34.18" id="Shape" fill="#AEA596" stroke-width="1"/>
            <path d="M3.07,23.08 C3.07,14.23 8.54,0.8 15.28,0.8 C22.02,0.8 27.49,14.23 27.49,23.08 C27.49,31.93 22,36.89 15.28,36.89 C8.56,36.89 3.07,31.94 3.07,23.08 Z" id="Shape" fill="#BFB8A6" stroke-width="1"/>
            <path d="M3.87,22.37 C3.87,13.85 9,0.94 15.28,0.94 C21.56,0.94 26.69,13.85 26.69,22.37 C26.69,30.89 21.58,35.64 15.28,35.64 C8.98,35.64 3.87,30.88 3.87,22.37 Z" id="Shape" fill="#CDC8BD" stroke-width="1"/>
            <ellipse id="Oval" fill="#FEFEFE" transform="matrix(0.999489976721293,-0.0319340951597066,0.0319340951597066,0.999489976721293,-0.26661362624710705,0.3421010416651402)" cx="10.5766824" cy="8.51779187" rx="2.07" ry="3" stroke-width="1"/>
            <path d="M12.36,8 C12.36,6.57 11.48,5.44 10.49,5.47 C9.5,5.5 8.74,6.73 8.79,8.16 C8.84,9.59 9.67,10.75 10.66,10.72 C11.65,10.69 12.41,9.48 12.36,8 Z" id="Shape" fill="#79694E" stroke-width="1"/>
            <ellipse id="Oval" fill="#FEFEFE" transform="matrix(0.999489976721293,-0.0319340951597066,0.0319340951597066,0.999489976721293,-0.2617956875158214,0.6427667113352644)" cx="19.9918831" cy="8.51729204" rx="2.07" ry="3" stroke-width="1"/>
            <path d="M21.78,8 C21.78,6.57 20.9,5.44 19.91,5.47 C18.92,5.5 18.16,6.69 18.21,8.11 C18.26,9.53 19.09,10.7 20.08,10.67 C21.07,10.64 21.82,9.48 21.78,8 Z" id="Shape" fill="#79694E" stroke-width="1"/>
            <path d="M15.28,1.61 C15.8,1.61 16.22,1.46 16.22,0.94 C16.1703866,0.460901644 15.7666604,0.0968245837 15.285,0.0968245837 C14.8033396,0.0968245837 14.3996134,0.460901644 14.35,0.94 C14.35,1.45 14.77,1.61 15.28,1.61 Z" id="Shape" fill="#79694E" stroke-width="1"/>
            <path d="M9,13.69 C9.6,14.58 13.92,17.45 11.19,22.06 C7.83,27.72 -1.51,24.55 0.21,17.3 C1.44,12.12 9,13.69 9,13.69 Z" id="Shape" fill="#AEA596" stroke-width="1"/>
            <path d="M21.59,13.69 C20.99,14.58 16.67,17.45 19.4,22.06 C22.74,27.73 32.08,24.55 30.4,17.3 C29.13,12.12 21.59,13.69 21.59,13.69 Z" id="Shape" fill="#AEA596" stroke-width="1"/>
            <path d="M24.3,4.73 L19.11,3.86 C18.9749816,3.83469789 18.8856707,3.70519712 18.91,3.57 C18.9195292,3.50380841 18.9562435,3.44459434 19.011295,3.40662777 C19.0663465,3.36866119 19.1347424,3.3553855 19.2,3.37 L24.39,4.24 C24.5280712,4.24 24.64,4.35192881 24.64,4.49 C24.64,4.62807119 24.5280712,4.74 24.39,4.74 L24.3,4.73 Z" id="Shape" fill="#AEA596" stroke-width="1"/>
            <path d="M18.72,3 C18.5819288,3 18.47,2.88807119 18.47,2.75 C18.47,2.61192881 18.5819288,2.5 18.72,2.5 L23.91,1.62 C23.9752576,1.6053855 24.0436535,1.61866119 24.098705,1.65662777 C24.1537565,1.69459434 24.1904708,1.75380841 24.2,1.82 C24.2243293,1.95519712 24.1350184,2.08469789 24,2.11 L18.76,3 L18.72,3 Z" id="Shape" fill="#AEA596" stroke-width="1"/>
            <path d="M6.27,4.73 C6.13192881,4.73 6.02,4.61807119 6.02,4.48 C6.02,4.34192881 6.13192881,4.23 6.27,4.23 L11.46,3.36 C11.5252576,3.3453855 11.5936535,3.35866119 11.648705,3.39662777 C11.7037565,3.43459434 11.7404708,3.49380841 11.75,3.56 C11.7743293,3.69519712 11.6850184,3.82469789 11.55,3.85 L6.36,4.72 L6.27,4.73 Z" id="Shape" fill="#AEA596" stroke-width="1"/>
            <path d="M11.85,3 L6.62,2.14 C6.48498156,2.11469789 6.39567068,1.98519712 6.42,1.85 C6.42952922,1.78380841 6.46624347,1.72459434 6.52129501,1.68662777 C6.57634655,1.64866119 6.64474244,1.6353855 6.71,1.65 L11.9,2.53 C12.0380712,2.53 12.15,2.64192881 12.15,2.78 C12.15,2.91807119 12.0380712,3.03 11.9,3.03 L11.85,3 Z" id="Shape" fill="#AEA596" stroke-width="1"/>
        </g>
    </g>
</svg>