<?xml version="1.0" encoding="utf-8"?>
<!-- Generator: Adobe Illustrator 22.1.0, SVG Export Plug-In . SVG Version: 6.00 Build 0)  -->
<svg version="1.1" id="图层_1" xmlns="http://www.w3.org/2000/svg" xmlns:xlink="http://www.w3.org/1999/xlink" x="0px" y="0px"
	 width="480px" height="360px" viewBox="0 0 480 360" enable-background="new 0 0 480 360" xml:space="preserve">
<g opacity="0.28">
	<g>
		<path fill="#020202" d="M457.3,223H126.1c-30.1,0-54.2-24-54.2-51.6v-0.9c0-27.6,24.1-52.7,54.2-52.7h331.2"/>
	</g>
	<g>
		<path fill="#020202" d="M456.7,242.4H126.1c-35.5,0-75.4-38.4-75.4-71v-0.9c0-15.8,9.6-30.9,26.3-40c13.2-7.2,31.4-12.7,49.1-12.7
			h330.6c5.5,0,10,4.6,10,9.7c0,5.1-4.5,9.7-10,9.7H126.1c-21.1,0-54.2,10.2-54.2,33.3v0.9c0,22.4,29.7,51.6,54.2,51.6h330.6
			c5.5,0,10,4.6,10,9.7C466.7,237.8,462.2,242.4,456.7,242.4z"/>
	</g>
	<g>
		<path fill="#020202" d="M456.7,164.1H259.1c-1.4,0-2.5,0.1-2.5-1.1c0-1.3,1.1-1.1,2.5-1.1h197.5c1.4,0,2.5-0.1,2.5,1.1
			C459.2,164.3,458,164.1,456.7,164.1z"/>
	</g>
	<g>
		<path fill="#020202" d="M259.1,180.5h-52.5c-1.4,0-2.5,0.7-2.5,0c0-2.2,1.1,0,2.5,0H259.1c1.4,0,2.5-2.2,2.5,0
			C261.6,181.3,260.5,180.5,259.1,180.5z"/>
	</g>
	<g>
		<path fill="#020202" d="M194.1,198.4h-52.5c-1.4,0-2.5-0.2-2.5-1.5c0-1.3,1.1-1.5,2.5-1.5h52.5c1.4,0,2.5,0.2,2.5,1.5
			C196.6,198.2,195.5,198.4,194.1,198.4z"/>
	</g>
	<g>
		<path fill="#020202" d="M409.1,198.4h-150c-1.4,0-2.5-0.2-2.5-1.5c0-1.3,1.1-1.5,2.5-1.5h150c1.4,0,2.5,0.2,2.5,1.5
			C411.6,198.2,410.5,198.4,409.1,198.4z"/>
	</g>
	<g>
		<path fill="#020202" d="M456.7,188.7h-30c-1.4,0-2.5,0.1-2.5-1.1c0-1.3,1.1-1.1,2.5-1.1h30c1.4,0,2.5-0.1,2.5,1.1
			C459.2,188.9,458,188.7,456.7,188.7z"/>
	</g>
</g>
<g>
	<g>
		<path fill="#FFFFFF" d="M420.4,223H89.2c-30.1,0-54.2-24-54.2-51.6v-0.9c0-27.6,24.1-52.7,54.2-52.7h331.2"/>
	</g>
	<g>
		<path fill="#D70727" d="M419.8,242.4H89.2c-35.5,0-75.4-38.4-75.4-71v-0.9c0-15.8,9.6-30.9,26.3-40c13.2-7.2,31.4-12.7,49.1-12.7
			h330.6c5.5,0,10,4.6,10,9.7c0,5.1-4.5,9.7-10,9.7H89.2c-21.1,0-54.2,10.2-54.2,33.3v0.9c0,22.4,29.7,51.6,54.2,51.6h330.6
			c5.5,0,10,4.6,10,9.7C429.8,237.8,425.3,242.4,419.8,242.4z"/>
	</g>
	<g>
		<path fill="#A4B4BD" d="M419.8,164.1H222.2c-1.4,0-2.5,0.1-2.5-1.1c0-1.3,1.1-1.1,2.5-1.1h197.5c1.4,0,2.5-0.1,2.5,1.1
			C422.3,164.3,421.2,164.1,419.8,164.1z"/>
	</g>
	<g>
		<path fill="#A4B4BD" d="M222.2,180.5h-52.5c-1.4,0-2.5,0.7-2.5,0c0-2.2,1.1,0,2.5,0H222.2c1.4,0,2.5-2.2,2.5,0
			C224.7,181.3,223.6,180.5,222.2,180.5z"/>
	</g>
	<g>
		<path fill="#A4B4BD" d="M157.2,198.4h-52.5c-1.4,0-2.5-0.2-2.5-1.5c0-1.3,1.1-1.5,2.5-1.5h52.5c1.4,0,2.5,0.2,2.5,1.5
			C159.7,198.2,158.6,198.4,157.2,198.4z"/>
	</g>
	<g>
		<path fill="#A4B4BD" d="M372.3,198.4h-150c-1.4,0-2.5-0.2-2.5-1.5c0-1.3,1.1-1.5,2.5-1.5h150c1.4,0,2.5,0.2,2.5,1.5
			C374.8,198.2,373.6,198.4,372.3,198.4z"/>
	</g>
	<g>
		<path fill="#A4B4BD" d="M419.8,188.7h-30c-1.4,0-2.5,0.1-2.5-1.1c0-1.3,1.1-1.1,2.5-1.1h30c1.4,0,2.5-0.1,2.5,1.1
			C422.3,188.9,421.2,188.7,419.8,188.7z"/>
	</g>
</g>
</svg>
