<?xml version="1.0" encoding="utf-8"?>
<!-- Generator: Adobe Illustrator 22.1.0, SVG Export Plug-In . SVG Version: 6.00 Build 0)  -->
<svg version="1.1" id="图层_1" xmlns="http://www.w3.org/2000/svg" xmlns:xlink="http://www.w3.org/1999/xlink" x="0px" y="0px"
	 width="480px" height="360px" viewBox="0 0 480 360" enable-background="new 0 0 480 360" xml:space="preserve">
<path id="XMLID_131_" fill="#8B2928" d="M262.3,268.7c-1.5,24.2-7.4,61.3-7.4,61.3h-38.6l-8.7-61.3H262.3z"/>
<path id="XMLID_130_" fill="#551B24" d="M262.3,268.7h-54.7l5,35.6c0.6,0.1,1.2,0,1.9-0.1c3.5-0.6,6.1-3.3,8.5-5.9
	c-0.3,1.5-0.5,3.1-0.1,4.6c0.4,1.5,1.7,2.9,3.4,3c1.2,0.1,2.2-0.5,3.2-1.2c2.6-1.8,4.8-4.3,6.1-7.2c-0.4,1.3-0.9,2.6-0.9,3.9
	c0,1.3,0.6,2.7,1.8,3.5c2.1,1.3,5-0.1,6.8-1.8c1.8-1.7,3.2-4.2,4.3-6.3c-0.1,2.6-0.1,5.5,1.9,7.2c2.4,2.1,6.6,1.1,8.8-1.3
	c0.2-0.2,0.3-0.3,0.4-0.5C260.2,291.5,261.7,279.1,262.3,268.7z"/>
<path id="XMLID_129_" fill="#265F4D" d="M192.7,205.6c-10.3,10.6-17.8,23.6-30.5,31.3c-2.1,1.3-4.3,2.5-6,4.2
	c-1.7,1.7-2.8,4.2-2.3,6.5c2.6,0.4,5.2,0,7.6-1c-5.3,2.6-10.5,5.2-15.8,7.8c-2.1,1.1-4.5,2.4-4.9,4.7c-0.4,2.7,2.5,4.9,5.3,5
	c2.8,0.1,5.4-1.2,7.9-2.5c-3.2,1.7-5.5,5.1-5.7,8.6c0,0.6,0,1.2,0.2,1.7c0.6,1.8,2.9,2.5,4.9,2.2c1.9-0.4,3.5-1.6,5-2.8
	c-2.8,1.3-3,5.6-0.7,7.6c2.3,2,6.1,1.9,8.7,0.3c2.6-1.6,4.3-4.3,5.3-7.2c-1.5,2-3.1,4.1-3.5,6.5c-0.4,2.4,0.8,5.3,3.2,6
	c1.2,0.4,2.5,0.2,3.7-0.2c3.7-1.2,6.5-3.9,9.1-6.6c-1.3,2.2-2.7,4.6-2.2,7.1s3.5,4.4,5.6,2.9c3.4-0.2,6.6-2,8.4-4.7
	c-1,1.2-2,2.4-2.4,3.8c-0.4,1.4-0.1,3.2,1.3,4c1.1,0.7,2.5,0.6,3.7,0.3c5.2-1.1,10.1-4.4,12.4-8.9c-1.1,2-2.2,4.2-2.4,6.5
	c-0.1,2.3,1,4.8,3.3,5.6c1,0.3,2,0.3,3,0.2c3.5-0.6,6.1-3.3,8.4-5.9c-0.2,1.5-0.5,3.1-0.1,4.6c0.4,1.5,1.7,2.9,3.4,3
	c1.2,0.1,2.2-0.5,3.2-1.2c2.6-1.8,4.8-4.3,6.1-7.2c-0.4,1.3-0.9,2.6-0.9,3.9c0,1.3,0.6,2.7,1.7,3.5c2.1,1.3,5-0.1,6.8-1.8
	c1.8-1.7,3.2-4.2,4.3-6.3c-0.1,2.6-0.1,5.5,1.9,7.2c2.4,2.1,6.6,1.1,8.8-1.3c2.2-2.4,2.9-5.6,3.5-8.7c1,1.3,1,3.1,1.2,4.7
	c0.2,1.6,0.9,3.4,2.6,3.9c1.6,0.4,3.2-0.8,3.8-2.2c0.6-1.4,0.4-3.1,0.3-4.6c0.8,2.3,1.7,4.6,3.5,6.3c1.8,1.7,4.7,2.5,6.9,1.3
	c2.8-1.6,2.7-5.5,2.2-8.7c0.8,1.7,1.6,3.5,3,4.9c1.4,1.4,3.4,2.3,5.3,2c2.2-0.4,3.9-2.3,4.5-4.3c0.6-2.1-0.1-6.1-0.3-8.3
	c1.8,4.4,6.1,7.7,11,8.4c-0.4-3.3-0.8-6.6-1.3-10c2.3,1.4,3.4,4,5.3,5.8c1.9,1.8,5.8,2.4,6.9,0.1c0.6-1.2,0.1-2.7-0.4-4
	c-1.4-3.3-3.3-6.4-5.5-9.3c3.7,5,10,8.1,16.4,8.2c-2.1-6.2-6.4-11.8-12.1-15.5c7.3,4.4,15.6,7.1,24.2,8c-2-5.8-7.5-9.8-13.1-12.9
	c-5.5-3.1-11.5-6-15.4-10.9c4.5,1.2,9.6,0.6,13.6-1.7c1.4-0.8,2.9-2.3,2.3-3.8c-0.5-1.3-2-1.7-3.4-2.1
	c-21.9-5.2-40.7-20.9-49.1-40.8C274.9,199.1,223.3,174.3,192.7,205.6z"/>
<path id="XMLID_125_" fill="#174434" d="M164.5,235.5c1.5,0.7,3.2-0.2,4.6-1.1c3.7-2.3,7.5-4.7,11.2-7c-3.4,4.1-5.8,8.9-6.8,14
	c6.4,0.9,13.2-2.4,16.1-7.9c-2.2,3.8-2.8,8.4-1.5,12.5c5-2,9.4-5.1,12.9-8.9c-1.2,2-1.6,4.5-1,6.8c5.9-1.4,11.2-4.1,15-8.7
	c0.2,2.7-1.7,5.2-2.6,7.8c-0.9,2.6-0.1,6.3,2.8,6.7c2.1,0.3,3.8-1.5,5.1-3.1c3.4-4.3,6.7-8.8,9.7-13.4c-0.8,4.9-0.5,9.9,0.8,14.7
	c0.3,1.3,1,2.8,2.3,3.1c1.7,0.5,3.2-1.1,4.2-2.5c2.9-4.3,5.3-8.9,7.3-13.7c0.1,6.1,1.5,12.1,4,17.7c4.2-4.2,6.8-9.7,7.3-15.5
	c1.2,3.5,2.5,7,3.7,10.5c0.5,1.5,1.4,3.3,3.1,3.5c2.2,0.2,3.4-2.4,3.6-4.5c0.6-4.5,0.6-9.1,0.1-13.6c3.8,6.2,8.7,11.8,14.4,16.5
	c1.6,1.4,4,2.7,5.9,1.6c1.5-0.9,1.6-2.9,1.5-4.6c-0.3-5.4-1.7-10.7-3.9-15.7c3,3.7,6.3,7.2,9.8,10.5c1.8,1.7,5.1,3.3,6.5,1.3
	c0.9-1.2,0.2-2.9-0.5-4.3c-1.9-3.5-3.8-7.1-5.8-10.6c3.1,4,8.4,6.5,13.6,6.4c-14.8-7.6-26.8-20-33.1-34.8c0,0-51.6-24.8-82.1,6.6
	C183.1,215.5,175.9,227.6,164.5,235.5z"/>
<path id="XMLID_124_" fill="#265F4D" d="M207.9,162.1c-13.2,15-29.8,27.1-44.6,40.6c-0.8,0.7-1.6,1.5-1.9,2.5
	c-0.7,2.4,2.6,4.5,5.2,3.9c2.6-0.6,4.4-2.7,6-4.8c-4.3,2.7-7.5,6.7-9.2,11.4c-0.6,1.8-0.8,4.3,1,5.2c1.5,0.7,3.3-0.2,4.7-1
	c3.7-2.3,7.5-4.7,11.2-7c-3.4,4.1-5.8,8.9-6.8,14c6.4,0.9,13.2-2.4,16.1-7.9c-2.2,3.8-2.8,8.4-1.5,12.5c6-2.4,11.3-6.4,15-11.4
	c-2.7,2.3-3.9,6-3.1,9.3c5.9-1.4,11.2-4.1,15-8.7c0.2,2.7-1.7,5.2-2.6,7.8c-0.9,2.6-0.1,6.3,2.8,6.7c2.1,0.3,3.8-1.5,5.1-3.1
	c3.4-4.3,6.7-8.8,9.7-13.4c-0.8,4.9-0.5,9.9,0.8,14.7c0.3,1.3,1,2.8,2.3,3.1c1.7,0.5,3.2-1.1,4.2-2.5c2.9-4.3,5.3-8.9,7.3-13.7
	c0.1,6.1,1.5,12.1,4,17.7c4.2-4.2,6.8-9.7,7.2-15.5c1.2,3.5,2.5,7,3.7,10.5c0.5,1.5,1.4,3.3,3.1,3.5c2.2,0.2,3.4-2.4,3.6-4.5
	c0.6-4.5,0.6-9.1,0.1-13.6c3.8,6.2,8.7,11.8,14.4,16.5c1.7,1.4,4,2.7,5.9,1.6c1.5-0.9,1.6-2.9,1.5-4.6c-0.3-5.4-1.7-10.7-3.9-15.7
	c3,3.7,6.3,7.2,9.8,10.5c1.8,1.7,5.1,3.3,6.5,1.3c0.9-1.2,0.2-2.9-0.5-4.3c-1.9-3.5-3.8-7.1-5.8-10.6c3.4,4.4,9.3,6.9,15,6.3
	c-3.1-5.8-7.2-11.1-12.1-15.5c4.6,2.9,11.3,2.3,15.1-1.5c-17.1-8.9-31.6-22.3-41.4-38.2C271,164,222.1,145.9,207.9,162.1z"/>
<path id="XMLID_123_" fill="#174434" d="M179.5,192.9c7.9,2.5,17.3-0.2,22.3-6.5c-1.8,3.2-9.1,9.3-5.5,9.6c6,0,11.8-3.7,14.2-9
	c-0.3,5.2-4.7,5.8-2.2,8.3c2.5,2.5,7,2.5,10.2,0.9c3.3-1.6,5.6-4.5,7.9-7.2c-0.9,4.4-8.2,11.5-2.7,13.2c6-0.4,11.9-2.7,16.4-6.5
	c-1.2,1.7-0.8,4.6,1.1,5.9c2.4,1.6,5.9,0.9,7.9-1.1c1.4-1.4,2.1-3.3,2.4-5.2c0.7,3.3,4.2,6,7.7,5.5c4.4-0.7,6.9-6.5,4.3-10
	c4,4.7,10.4,7.5,16.8,7.2c-0.2-4.2-1.6-8.3-3.9-11.8c4.8,2.1,10.3,3,15.6,2.6c-8.3-7.1-15.5-15.4-21.2-24.6c0,0-48.8-18.1-63.1-1.9
	c-7.4,8.4-15.7,15.8-24.3,23.1c2.3,0.2,4.6-0.4,6.8-1C186.7,187.1,177.7,187.7,179.5,192.9z"/>
<path id="XMLID_122_" fill="#265F4D" d="M220.3,108.9c-7.7,18.2-20.7,34.3-37,46.3c0,3.8,6.4,5.6,8.6,2.4c-1.9,5-12.1,2.1-14,7.1
	c-1,2.5,1.3,5.3,4.1,6.1c2.7,0.7,5.6,0,8.3-0.8c-3.6,2.9-12.7,3.5-10.8,8.7c7.9,2.5,17.3-0.2,22.4-6.5c-1.8,3.2-9.1,9.3-5.5,9.6
	c6,0,11.8-3.7,14.2-9c-0.3,5.2-4.7,5.8-2.2,8.3c2.5,2.5,7,2.5,10.2,0.9c3.3-1.6,5.6-4.5,7.9-7.2c-0.9,4.4-8.2,11.5-2.7,13.2
	c6.6-0.5,13-3.2,17.7-7.5c-2.6,1.3-2.5,5.3-0.1,6.9c2.4,1.6,5.9,0.9,7.9-1.1c2-2,2.6-5,2.4-7.7c-1.2,4.1,3.2,8.7,7.7,8
	c4.5-0.7,6.9-6.5,4.3-10c4,4.7,10.4,7.5,16.8,7.2c-0.2-4.2-1.6-8.3-3.9-11.8c7.2,3.2,15.7,3.6,23.2,1.1c4.6-1.6-9.3-12.5-20.5-22.1
	c2.3,1.7,4.8,3.5,7.7,3.7c2.9,0.1,6.1-2.3,5.4-5c-0.3-1.2-1.4-2.2-2.3-3.1c-13.1-11.6-26.1-23.2-39.2-34.8c0,0-13.5-23.7-28.8-5.2
	L220.3,108.9z"/>
<path id="XMLID_121_" fill="#174434" d="M199.3,141c1.9,2.2,5.4,3.7,8.4,3c5.1-1.1,8.6-5.4,11.7-9.4c-3,5.1,0.9,12.6,7,13.4
	c4.5,0.6,9-2.6,10.4-6.7c1,3.4,4.3,6.2,8,5.8c4-0.4,6.6-4.7,6-8.3c2,2.4,5.4,3.8,8.5,3.2c4.4-0.8,7.6-5.3,6.9-9.5
	c3.4,3.9,8.8,5.7,14.1,5.4c-9.9-8.8-19.7-17.5-29.6-26.3c0,0-13.5-23.7-28.8-5.2l-1.6,2.5C215.3,120.7,208.1,131.6,199.3,141z"/>
<path id="XMLID_120_" fill="#265F4D" d="M224.8,75c-6.6,19.4-16,39.1-35.4,47.8c-1.3,0.6-2.6,1.2-3.3,2.3c-1.4,2.5,1.8,5.6,4.8,5.3
	c3-0.3,5.3-2.5,7.4-4.6c-2,4.6,4.3,9.2,9.4,8.2c5.1-1.1,8.6-5.4,11.7-9.4c-3,5.1,0.9,12.6,7,13.4c6.1,0.8,12-5.3,10.7-11
	c-2.1,4.6,2.5,10.7,7.8,10.2c5.3-0.6,8.2-7.9,4.4-11.5c0.9,4.2,5.7,7.2,10.1,6.3c4.4-0.8,7.6-5.3,6.9-9.5c6.4,7.5,20.3,7.1,26.3-0.6
	c-20.8-9.1-38.1-25.2-48-44.9C244.5,77,232.7,51.5,224.8,75z"/>
<path id="XMLID_119_" fill="#174434" d="M215.6,99.4c-1.8,2-1,5.5,1.4,6.9c2.6,1.5,6,0.9,8.4-0.8c2.4-1.7,4-4.2,5.4-6.7
	c-0.3,4.9,0.6,13.7,5.8,13.2c4.4-0.5,4.6-7.1,5.2-11.6c-0.2,3.4,3.6,6.8,7.2,5.9c3.9-1,5.6-6.4,2.8-9.2c3.6,1.3,7.9,4.3,11.9,5.6
	c-7.9-7.5-14.4-16.2-19.3-25.7c0,0-11.8-25.5-19.8-2c-3.2,9.4-7,18.8-12.4,27.1C213.5,101.3,214.6,100.3,215.6,99.4z"/>
<path id="XMLID_118_" fill="#265F4D" d="M201.7,85.5c-1.9,1.9-2.7,4.8-0.7,6.7c2,1.8,5.2,2,7.8,1c2.6-1,4.6-2.8,6.6-4.7
	c-2.3,1.8-1.5,5.8,1.1,7.3c2.6,1.5,6,0.9,8.4-0.8c2.4-1.7,4-4.2,5.4-6.7c-0.3,4.9,0.6,13.7,5.8,13.2c4.7-0.5,4.6-8,5.4-12.5
	c-1,3.7,3.2,7.8,7.1,6.8c3.9-1,5.6-6.4,2.8-9.2c6.8,2.5,16.2,11,21.4,2.6c-19.3-14.8-33-36.2-37.8-59.3
	C235,30,230.3,57.9,201.7,85.5z"/>
<g id="XMLID_22_">
	<path id="XMLID_117_" fill="#F7D87E" d="M255.5,78.1c0,1,0.9,1.8,1.9,1.8c1.1,0,1.9-0.8,1.9-1.8c0-1-0.9-1.8-1.9-1.8
		C256.3,76.3,255.5,77.1,255.5,78.1z"/>
	<path id="XMLID_116_" fill="#F7D87E" d="M247.9,81.7c0,1,0.9,1.8,1.9,1.8c1.1,0,1.9-0.8,1.9-1.8c0-1-0.9-1.8-1.9-1.8
		C248.7,79.9,247.9,80.7,247.9,81.7z"/>
	<path id="XMLID_115_" fill="#F7D87E" d="M240.2,85.3c0,1,0.9,1.8,1.9,1.8c1,0,1.9-0.8,1.9-1.8c0-1-0.9-1.8-1.9-1.8
		C241.1,83.5,240.2,84.3,240.2,85.3z"/>
	<path id="XMLID_114_" fill="#F7D87E" d="M232.6,87.1c0,1,0.9,1.8,1.9,1.8s1.9-0.8,1.9-1.8c0-1-0.9-1.8-1.9-1.8
		S232.6,86.1,232.6,87.1z"/>
	<path id="XMLID_113_" fill="#F7D87E" d="M224.9,87.1c0,1,0.9,1.8,1.9,1.8c1.1,0,1.9-0.8,1.9-1.8c0-1-0.9-1.8-1.9-1.8
		C225.8,85.3,224.9,86.1,224.9,87.1z"/>
	<path id="XMLID_112_" fill="#F7D87E" d="M217.3,83.5c0,1,0.9,1.8,1.9,1.8c1,0,1.9-0.8,1.9-1.8c0-1-0.9-1.8-1.9-1.8
		C218.1,81.7,217.3,82.5,217.3,83.5z"/>
	<path id="XMLID_111_" fill="#F7D87E" d="M209.8,106.4c0,1,0.9,1.8,1.9,1.8c1,0,1.9-0.8,1.9-1.8c0-1-0.9-1.8-1.9-1.8
		C210.6,104.6,209.8,105.4,209.8,106.4z"/>
	<path id="XMLID_110_" fill="#F7D87E" d="M219.1,118c0,1,0.9,1.8,1.9,1.8c1,0,1.9-0.8,1.9-1.8c0-1-0.9-1.8-1.9-1.8
		C219.9,116.2,219.1,117.1,219.1,118z"/>
	<path id="XMLID_109_" fill="#F7D87E" d="M213.4,112.6c0,1,0.9,1.8,1.9,1.8c1.1,0,1.9-0.8,1.9-1.8s-0.9-1.8-1.9-1.8
		C214.2,110.8,213.4,111.6,213.4,112.6z"/>
	<path id="XMLID_108_" fill="#F7D87E" d="M225.5,122.5c0,1,0.9,1.8,1.9,1.8c1.1,0,1.9-0.8,1.9-1.8c0-1-0.9-1.8-1.9-1.8
		C226.4,120.7,225.5,121.5,225.5,122.5z"/>
	<path id="XMLID_107_" fill="#F7D87E" d="M233.3,126.2c0,1,0.9,1.8,1.9,1.8c1.1,0,1.9-0.8,1.9-1.8c0-1-0.9-1.8-1.9-1.8
		C234.1,124.4,233.3,125.2,233.3,126.2z"/>
	<path id="XMLID_106_" fill="#F7D87E" d="M240.8,127c0,1,0.9,1.8,1.9,1.8c1,0,1.9-0.8,1.9-1.8c0-1-0.9-1.8-1.9-1.8
		C241.7,125.2,240.8,126,240.8,127z"/>
	<path id="XMLID_105_" fill="#F7D87E" d="M247.9,124.4c0,1,0.9,1.8,1.9,1.8c1.1,0,1.9-0.8,1.9-1.8c0-1-0.9-1.8-1.9-1.8
		C248.8,122.5,247.9,123.4,247.9,124.4z"/>
	<path id="XMLID_104_" fill="#F7D87E" d="M254.3,121.7c0,1,0.9,1.8,1.9,1.8c1.1,0,1.9-0.8,1.9-1.8c0-1-0.9-1.8-1.9-1.8
		C255.1,119.9,254.3,120.7,254.3,121.7z"/>
	<path id="XMLID_103_" fill="#F7D87E" d="M260.6,116.2c0,1,0.9,1.8,1.9,1.8c1.1,0,1.9-0.8,1.9-1.8c0-1-0.9-1.8-1.9-1.8
		C261.5,114.4,260.6,115.2,260.6,116.2z"/>
	<path id="XMLID_102_" fill="#F7D87E" d="M267,111.6c0,1,0.9,1.8,1.9,1.8c1.1,0,1.9-0.8,1.9-1.8c0-1-0.9-1.8-1.9-1.8
		C267.8,109.8,267,110.6,267,111.6z"/>
	<path id="XMLID_101_" fill="#F7D87E" d="M238.9,148.9c0,1,0.9,1.8,1.9,1.8c1.1,0,1.9-0.8,1.9-1.8c0-1-0.9-1.8-1.9-1.8
		C239.8,147.1,238.9,147.9,238.9,148.9z"/>
	<path id="XMLID_100_" fill="#F7D87E" d="M245.7,145.8c0,1,0.9,1.8,1.9,1.8c1.1,0,1.9-0.8,1.9-1.8c0-1-0.9-1.8-1.9-1.8
		C246.6,144,245.7,144.8,245.7,145.8z"/>
	<path id="XMLID_99_" fill="#F7D87E" d="M254.3,141.3c0,1,0.9,1.8,1.9,1.8c1.1,0,1.9-0.8,1.9-1.8c0-1-0.9-1.8-1.9-1.8
		C255.1,139.5,254.3,140.3,254.3,141.3z"/>
	<path id="XMLID_98_" fill="#F7D87E" d="M216.2,154.4c0,1,0.9,1.8,1.9,1.8c1.1,0,1.9-0.8,1.9-1.8c0-1-0.9-1.8-1.9-1.8
		C217.1,152.6,216.2,153.4,216.2,154.4z"/>
	<path id="XMLID_97_" fill="#F7D87E" d="M208.8,154.4c0,1,0.9,1.8,1.9,1.8c1.1,0,1.9-0.8,1.9-1.8c0-1-0.9-1.8-1.9-1.8
		C209.7,152.6,208.8,153.4,208.8,154.4z"/>
	<path id="XMLID_96_" fill="#F7D87E" d="M223.8,154.4c0,1,0.9,1.8,1.9,1.8c1.1,0,1.9-0.8,1.9-1.8c0-1-0.9-1.8-1.9-1.8
		C224.6,152.6,223.8,153.4,223.8,154.4z"/>
	<path id="XMLID_95_" fill="#F7D87E" d="M200.6,151.5c0,1,0.9,1.8,1.9,1.8c1.1,0,1.9-0.8,1.9-1.8c0-1-0.9-1.8-1.9-1.8
		C201.4,149.7,200.6,150.5,200.6,151.5z"/>
	<path id="XMLID_94_" fill="#F7D87E" d="M194.1,147.6c0,1,0.9,1.8,1.9,1.8c1.1,0,1.9-0.8,1.9-1.8c0-1-0.9-1.8-1.9-1.8
		C195,145.8,194.1,146.6,194.1,147.6z"/>
	<path id="XMLID_93_" fill="#F7D87E" d="M197.9,158c0,1,0.9,1.8,1.9,1.8c1.1,0,1.9-0.8,1.9-1.8c0-1-0.9-1.8-1.9-1.8
		C198.8,156.2,197.9,157,197.9,158z"/>
	<path id="XMLID_92_" fill="#F7D87E" d="M201.7,163.8c0,1,0.9,1.8,1.9,1.8c1.1,0,1.9-0.8,1.9-1.8c0-1-0.9-1.8-1.9-1.8
		C202.6,162,201.7,162.8,201.7,163.8z"/>
	<path id="XMLID_91_" fill="#F7D87E" d="M232.1,183.5c0,1,0.9,1.8,1.9,1.8c1.1,0,1.9-0.8,1.9-1.8c0-1-0.9-1.8-1.9-1.8
		C233,181.7,232.1,182.5,232.1,183.5z"/>
	<path id="XMLID_90_" fill="#F7D87E" d="M239.3,184.1c0,1,0.9,1.8,1.9,1.8c1.1,0,1.9-0.8,1.9-1.8c0-1-0.9-1.8-1.9-1.8
		C240.2,182.3,239.3,183.1,239.3,184.1z"/>
	<path id="XMLID_89_" fill="#F7D87E" d="M216.2,179.3c0,1,0.9,1.8,1.9,1.8c1.1,0,1.9-0.8,1.9-1.8c0-1-0.9-1.8-1.9-1.8
		C217.1,177.5,216.2,178.3,216.2,179.3z"/>
	<path id="XMLID_88_" fill="#F7D87E" d="M210.5,175.7c0,1,0.9,1.8,1.9,1.8c1.1,0,1.9-0.8,1.9-1.8c0-1-0.9-1.8-1.9-1.8
		C211.4,173.9,210.5,174.7,210.5,175.7z"/>
	<path id="XMLID_87_" fill="#F7D87E" d="M205.8,170.6c0,1,0.9,1.8,1.9,1.8c1,0,1.9-0.8,1.9-1.8c0-1-0.9-1.8-1.9-1.8
		C206.6,168.8,205.8,169.6,205.8,170.6z"/>
	<path id="XMLID_80_" fill="#F7D87E" d="M247.7,184c0,1,0.9,1.8,1.9,1.8c1.1,0,1.9-0.8,1.9-1.8s-0.9-1.8-1.9-1.8
		C248.5,182.2,247.7,183,247.7,184z"/>
	<path id="XMLID_79_" fill="#F7D87E" d="M223.8,182.2c0,1,0.9,1.8,1.9,1.8c1.1,0,1.9-0.8,1.9-1.8c0-1-0.9-1.8-1.9-1.8
		C224.6,180.4,223.8,181.2,223.8,182.2z"/>
	<path id="XMLID_78_" fill="#F7D87E" d="M263.1,184.1c0,1,0.9,1.8,1.9,1.8c1.1,0,1.9-0.8,1.9-1.8c0-1-0.9-1.8-1.9-1.8
		C263.9,182.3,263.1,183.1,263.1,184.1z"/>
	<path id="XMLID_77_" fill="#F7D87E" d="M270.3,183.1c0,1,0.9,1.8,1.9,1.8s1.9-0.8,1.9-1.8c0-1-0.9-1.8-1.9-1.8
		S270.3,182.1,270.3,183.1z"/>
	<path id="XMLID_76_" fill="#F7D87E" d="M278.6,185.3c0,1,0.9,1.8,1.9,1.8c1.1,0,1.9-0.8,1.9-1.8c0-1-0.9-1.8-1.9-1.8
		C279.5,183.5,278.6,184.3,278.6,185.3z"/>
	<path id="XMLID_75_" fill="#F7D87E" d="M255.9,184c0,1,0.9,1.8,1.9,1.8s1.9-0.8,1.9-1.8s-0.9-1.8-1.9-1.8S255.9,183,255.9,184z"/>
	<path id="XMLID_74_" fill="#F7D87E" d="M235.4,203.8c0,1,0.9,1.8,1.9,1.8c1.1,0,1.9-0.8,1.9-1.8c0-1-0.9-1.8-1.9-1.8
		C236.3,202,235.4,202.8,235.4,203.8z"/>
	<path id="XMLID_73_" fill="#F7D87E" d="M244.4,203.8c0,1,0.9,1.8,1.9,1.8c1,0,1.9-0.8,1.9-1.8c0-1-0.9-1.8-1.9-1.8
		C245.3,202,244.4,202.8,244.4,203.8z"/>
	<path id="XMLID_72_" fill="#F7D87E" d="M271.5,196.6c0,1,0.9,1.8,1.9,1.8c1.1,0,1.9-0.8,1.9-1.8s-0.9-1.8-1.9-1.8
		C272.4,194.8,271.5,195.6,271.5,196.6z"/>
	<path id="XMLID_71_" fill="#F7D87E" d="M280.5,192.7c0,1,0.9,1.8,1.9,1.8c1,0,1.9-0.8,1.9-1.8c0-1-0.9-1.8-1.9-1.8
		C281.4,190.9,280.5,191.7,280.5,192.7z"/>
	<path id="XMLID_70_" fill="#F7D87E" d="M285.8,187.6c0,1,0.9,1.8,1.9,1.8c1,0,1.9-0.8,1.9-1.8c0-1-0.9-1.8-1.9-1.8
		C286.6,185.8,285.8,186.6,285.8,187.6z"/>
	<path id="XMLID_69_" fill="#F7D87E" d="M253.5,200.9c0,1,0.9,1.8,1.9,1.8c1.1,0,1.9-0.8,1.9-1.8c0-1-0.9-1.8-1.9-1.8
		C254.3,199.1,253.5,199.9,253.5,200.9z"/>
	<path id="XMLID_68_" fill="#F7D87E" d="M262.5,199.1c0,1,0.9,1.8,1.9,1.8c1.1,0,1.9-0.8,1.9-1.8c0-1-0.9-1.8-1.9-1.8
		C263.3,197.3,262.5,198.1,262.5,199.1z"/>
	<path id="XMLID_67_" fill="#F7D87E" d="M199.3,199.1c0,1,0.9,1.8,1.9,1.8c1.1,0,1.9-0.8,1.9-1.8c0-1-0.9-1.8-1.9-1.8
		C200.2,197.3,199.3,198.1,199.3,199.1z"/>
	<path id="XMLID_66_" fill="#F7D87E" d="M208.4,202c0,1,0.9,1.8,1.9,1.8c1.1,0,1.9-0.8,1.9-1.8c0-1-0.9-1.8-1.9-1.8
		C209.2,200.2,208.4,201,208.4,202z"/>
	<path id="XMLID_65_" fill="#F7D87E" d="M181.3,191.6c0,1,0.9,1.8,1.9,1.8c1.1,0,1.9-0.8,1.9-1.8c0-1-0.9-1.8-1.9-1.8
		C182.1,189.8,181.3,190.6,181.3,191.6z"/>
	<path id="XMLID_64_" fill="#F7D87E" d="M190.3,196.3c0,1,0.9,1.8,1.9,1.8c1.1,0,1.9-0.8,1.9-1.8c0-1-0.9-1.8-1.9-1.8
		C191.2,194.5,190.3,195.3,190.3,196.3z"/>
	<path id="XMLID_63_" fill="#F7D87E" d="M199.9,216.9c0,1,0.9,1.8,1.9,1.8c1.1,0,1.9-0.8,1.9-1.8c0-1-0.9-1.8-1.9-1.8
		C200.7,215.1,199.9,215.9,199.9,216.9z"/>
	<path id="XMLID_62_" fill="#F7D87E" d="M182,203.7c0,1,0.9,1.8,1.9,1.8c1.1,0,1.9-0.8,1.9-1.8c0-1-0.9-1.8-1.9-1.8
		C182.9,201.9,182,202.7,182,203.7z"/>
	<ellipse id="XMLID_61_" fill="#F7D87E" cx="192.9" cy="209.3" rx="1.9" ry="1.8"/>
	<path id="XMLID_60_" fill="#F7D87E" d="M226.6,230.3c0,1,0.9,1.8,1.9,1.8s1.9-0.8,1.9-1.8s-0.9-1.8-1.9-1.8
		S226.6,229.3,226.6,230.3z"/>
	<path id="XMLID_59_" fill="#F7D87E" d="M208.8,221c0,1,0.9,1.8,1.9,1.8c1.1,0,1.9-0.8,1.9-1.8c0-1-0.9-1.8-1.9-1.8
		C209.6,219.2,208.8,220,208.8,221z"/>
	<path id="XMLID_58_" fill="#F7D87E" d="M217.7,226.7c0,1,0.9,1.8,1.9,1.8c1.1,0,1.9-0.8,1.9-1.8c0-1-0.9-1.8-1.9-1.8
		C218.6,224.9,217.7,225.7,217.7,226.7z"/>
	<path id="XMLID_57_" fill="#F7D87E" d="M226.4,204.5c0,1,0.9,1.8,1.9,1.8c1.1,0,1.9-0.8,1.9-1.8c0-1-0.9-1.8-1.9-1.8
		C227.3,202.7,226.4,203.5,226.4,204.5z"/>
	<path id="XMLID_56_" fill="#F7D87E" d="M217.4,203.8c0,1,0.9,1.8,1.9,1.8c1.1,0,1.9-0.8,1.9-1.8c0-1-0.9-1.8-1.9-1.8
		C218.2,202,217.4,202.8,217.4,203.8z"/>
	<path id="XMLID_55_" fill="#F7D87E" d="M262.3,244.8c0,1,0.9,1.8,1.9,1.8c1.1,0,1.9-0.8,1.9-1.8c0-1-0.9-1.8-1.9-1.8
		C263.1,243,262.3,243.8,262.3,244.8z"/>
	<path id="XMLID_54_" fill="#F7D87E" d="M271.2,245.6c0,1,0.9,1.8,1.9,1.8c1.1,0,1.9-0.8,1.9-1.8c0-1-0.9-1.8-1.9-1.8
		C272.1,243.8,271.2,244.6,271.2,245.6z"/>
	<path id="XMLID_53_" fill="#F7D87E" d="M280.1,249.2c0,1,0.9,1.8,1.9,1.8c1,0,1.9-0.8,1.9-1.8c0-1-0.9-1.8-1.9-1.8
		C281,247.4,280.1,248.2,280.1,249.2z"/>
	<path id="XMLID_52_" fill="#F7D87E" d="M235.5,235c0,1,0.9,1.8,1.9,1.8c1.1,0,1.9-0.8,1.9-1.8c0-1-0.9-1.8-1.9-1.8
		C236.4,233.2,235.5,234,235.5,235z"/>
	<path id="XMLID_51_" fill="#F7D87E" d="M253.4,243.8c0,1,0.9,1.8,1.9,1.8c1,0,1.9-0.8,1.9-1.8c0-1-0.9-1.8-1.9-1.8
		C254.2,242,253.4,242.8,253.4,243.8z"/>
	<path id="XMLID_50_" fill="#F7D87E" d="M244.5,238.6c0,1,0.9,1.8,1.9,1.8c1.1,0,1.9-0.8,1.9-1.8c0-1-0.9-1.8-1.9-1.8
		C245.3,236.8,244.5,237.6,244.5,238.6z"/>
	<path id="XMLID_49_" fill="#F7D87E" d="M306.9,248.4c0,1,0.9,1.8,1.9,1.8s1.9-0.8,1.9-1.8s-0.9-1.8-1.9-1.8
		S306.9,247.4,306.9,248.4z"/>
	<path id="XMLID_48_" fill="#F7D87E" d="M302.3,254.4c0,1,0.9,1.8,1.9,1.8s1.9-0.8,1.9-1.8c0-1-0.9-1.8-1.9-1.8
		S302.3,253.4,302.3,254.4z"/>
	<path id="XMLID_47_" fill="#F7D87E" d="M294.4,259.8c0,1,0.9,1.8,1.9,1.8c1.1,0,1.9-0.8,1.9-1.8s-0.9-1.8-1.9-1.8
		C295.2,258,294.4,258.8,294.4,259.8z"/>
	<path id="XMLID_46_" fill="#F7D87E" d="M286.5,262.5c0,1,0.9,1.8,1.9,1.8c1.1,0,1.9-0.8,1.9-1.8c0-1-0.9-1.8-1.9-1.8
		C287.3,260.7,286.5,261.5,286.5,262.5z"/>
	<path id="XMLID_45_" fill="#F7D87E" d="M278.6,264.4c0,1,0.9,1.8,1.9,1.8c1,0,1.9-0.8,1.9-1.8c0-1-0.9-1.8-1.9-1.8
		C279.4,262.5,278.6,263.4,278.6,264.4z"/>
	<path id="XMLID_44_" fill="#F7D87E" d="M270.7,268c0,1,0.9,1.8,1.9,1.8c1.1,0,1.9-0.8,1.9-1.8c0-1-0.9-1.8-1.9-1.8
		C271.5,266.2,270.7,267,270.7,268z"/>
	<path id="XMLID_43_" fill="#F7D87E" d="M262.8,270.7c0,1,0.9,1.8,1.9,1.8c1.1,0,1.9-0.8,1.9-1.8c0-1-0.9-1.8-1.9-1.8
		C263.6,268.9,262.8,269.7,262.8,270.7z"/>
	<path id="XMLID_42_" fill="#F7D87E" d="M254.9,272.5c0,1,0.9,1.8,1.9,1.8c1,0,1.9-0.8,1.9-1.8c0-1-0.9-1.8-1.9-1.8
		C255.7,270.7,254.9,271.5,254.9,272.5z"/>
	<path id="XMLID_41_" fill="#F7D87E" d="M247,273.9c0,1,0.9,1.8,1.9,1.8c1,0,1.9-0.8,1.9-1.8c0-1-0.9-1.8-1.9-1.8
		C247.8,272.1,247,272.9,247,273.9z"/>
	<path id="XMLID_40_" fill="#F7D87E" d="M239.1,272.5c0,1,0.9,1.8,1.9,1.8c1.1,0,1.9-0.8,1.9-1.8c0-1-0.9-1.8-1.9-1.8
		C239.9,270.7,239.1,271.5,239.1,272.5z"/>
	<path id="XMLID_39_" fill="#F7D87E" d="M231.2,272.1c0,1,0.9,1.8,1.9,1.8c1.1,0,1.9-0.8,1.9-1.8c0-1-0.9-1.8-1.9-1.8
		C232,270.3,231.2,271.1,231.2,272.1z"/>
	<path id="XMLID_38_" fill="#F7D87E" d="M222.8,271.6c0,1,0.9,1.8,1.9,1.8c1.1,0,1.9-0.8,1.9-1.8c0-1-0.9-1.8-1.9-1.8
		C223.7,269.8,222.8,270.6,222.8,271.6z"/>
	<path id="XMLID_37_" fill="#F7D87E" d="M215.4,270.7c0,1,0.9,1.8,1.9,1.8c1.1,0,1.9-0.8,1.9-1.8c0-1-0.9-1.8-1.9-1.8
		C216.2,268.9,215.4,269.7,215.4,270.7z"/>
	<path id="XMLID_36_" fill="#F7D87E" d="M206.9,270.5c0,1,0.9,1.8,1.9,1.8c1,0,1.9-0.8,1.9-1.8c0-1-0.9-1.8-1.9-1.8
		C207.7,268.7,206.9,269.5,206.9,270.5z"/>
	<path id="XMLID_35_" fill="#F7D87E" d="M199.6,268.7c0,1,0.9,1.8,1.9,1.8c1.1,0,1.9-0.8,1.9-1.8c0-1-0.9-1.8-1.9-1.8
		C200.4,266.9,199.6,267.7,199.6,268.7z"/>
	<path id="XMLID_34_" fill="#F7D87E" d="M191,266.2c0,1,0.9,1.8,1.9,1.8c1.1,0,1.9-0.8,1.9-1.8c0-1-0.9-1.8-1.9-1.8
		C191.8,264.4,191,265.2,191,266.2z"/>
	<path id="XMLID_33_" fill="#F7D87E" d="M181.9,262.1c0,1,0.9,1.8,1.9,1.8c1.1,0,1.9-0.8,1.9-1.8c0-1-0.9-1.8-1.9-1.8
		C182.8,260.3,181.9,261.1,181.9,262.1z"/>
	<path id="XMLID_32_" fill="#F7D87E" d="M174,258.9c0,1,0.9,1.8,1.9,1.8c1.1,0,1.9-0.8,1.9-1.8c0-1-0.9-1.8-1.9-1.8
		C174.9,257.1,174,257.9,174,258.9z"/>
	<path id="XMLID_31_" fill="#F7D87E" d="M166.1,254.5c0,1,0.9,1.8,1.9,1.8c1,0,1.9-0.8,1.9-1.8c0-1-0.9-1.8-1.9-1.8
		C167,252.7,166.1,253.5,166.1,254.5z"/>
	<path id="XMLID_30_" fill="#F7D87E" d="M160.1,248.4c0,1,0.9,1.8,1.9,1.8c1.1,0,1.9-0.8,1.9-1.8s-0.9-1.8-1.9-1.8
		C161,246.6,160.1,247.4,160.1,248.4z"/>
	<path id="XMLID_29_" fill="#F7D87E" d="M159.4,240.4c0,1,0.9,1.8,1.9,1.8c1.1,0,1.9-0.8,1.9-1.8c0-1-0.9-1.8-1.9-1.8
		C160.3,238.6,159.4,239.4,159.4,240.4z"/>
	<path id="XMLID_28_" fill="#F7D87E" d="M298,249.2c0,1,0.9,1.8,1.9,1.8c1.1,0,1.9-0.8,1.9-1.8c0-1-0.9-1.8-1.9-1.8
		C298.8,247.4,298,248.2,298,249.2z"/>
	<path id="XMLID_27_" fill="#F7D87E" d="M289,249.2c0,1,0.9,1.8,1.9,1.8c1.1,0,1.9-0.8,1.9-1.8c0-1-0.9-1.8-1.9-1.8
		C289.9,247.4,289,248.2,289,249.2z"/>
	<path id="XMLID_26_" fill="#F7D87E" d="M231,152.5c0,1,0.9,1.8,1.9,1.8c1.1,0,1.9-0.8,1.9-1.8c0-1-0.9-1.8-1.9-1.8
		C231.8,150.7,231,151.5,231,152.5z"/>
	<path id="XMLID_25_" fill="#F7D87E" d="M260.5,137.7c0,1,0.9,1.8,1.9,1.8c1.1,0,1.9-0.8,1.9-1.8c0-1-0.9-1.8-1.9-1.8
		C261.3,135.9,260.5,136.7,260.5,137.7z"/>
	<path id="XMLID_24_" fill="#F7D87E" d="M267.8,133.1c0,1,0.9,1.8,1.9,1.8c1,0,1.9-0.8,1.9-1.8c0-1-0.9-1.8-1.9-1.8
		C268.7,131.3,267.8,132.1,267.8,133.1z"/>
	<path id="XMLID_23_" fill="#F7D87E" d="M209.6,79.9c0,1,0.9,1.8,1.9,1.8c1.1,0,1.9-0.8,1.9-1.8c0-1-0.9-1.8-1.9-1.8
		C210.5,78.1,209.6,78.9,209.6,79.9z"/>
</g>
</svg>
