<?xml version="1.0" encoding="utf-8"?>
<!-- Generator: Adobe Illustrator 22.1.0, SVG Export Plug-In . SVG Version: 6.00 Build 0)  -->
<svg version="1.1" id="图层_1" xmlns="http://www.w3.org/2000/svg" xmlns:xlink="http://www.w3.org/1999/xlink" x="0px" y="0px"
	 width="480px" height="360px" viewBox="0 0 480 360" enable-background="new 0 0 480 360" xml:space="preserve">
<g>
	<path fill="#195A30" d="M336.3,184.4c0,0,50.4,42.6,43.2,79.6s-16.7,52.7-50.8,57.2s-57-4.8-57-4.8l-12.2-17l12.8-81.8l23.4-47.5
		l15,0.1L336.3,184.4z"/>
	<path fill="#0B371C" d="M311.3,259.7c8.3-19,32.3-46.6,32-68.9c-4.2-4.1-7-6.5-7-6.5l-25.5-14.3l-15-0.1l-23.4,47.5l-12.8,81.8
		l12.2,17c0,0,22.9,9.3,57,4.8c9.1-1.2,16.5-3.2,22.5-6.2C325.8,308.6,297.9,290.3,311.3,259.7z"/>
	<path fill="#0B371C" d="M358.5,207.4c9.1,13.8,15.9,30,12.9,45.3c-7.2,37-16.7,52.7-50.8,57.2c-31,4.1-52.8-3.2-56.4-4.6l9.7,13.5
		c0,0,22.9,9.3,57,4.8s43.6-20.2,50.8-57.2C385.7,245.6,371.6,223.1,358.5,207.4z"/>
	<path fill="#C62227" d="M175.1,293.4l1.7,9.5c0,0,21.4,2,22.8,1.5c1.5-0.5,2.5-4.2,2.5-4.2s20.2,6,43.7,0.2c0,0,2.3,2.8,2.7,4
		l22.3-1.7l1.2-0.4l2.4-9l-97.4-2.1L175.1,293.4z"/>
	<path fill="#AB1F24" d="M307.8,278.7c-1.8,1.4-26.9,10.3-53.8,11.5c-26.9,1.3-104.2-1.6-115.1-9.9c-2.4-1.9-3.7-4.4-4.2-7.3
		c-0.8,5.6-0.2,11.3,4.2,14.7c10.9,8.3,88.2,11.2,115.1,9.9s53.8-8.2,55.6-9.6c1.2-1,6.6-10.5,5-20.3
		C313.7,274.5,308.7,278,307.8,278.7z"/>
	<path fill="none" d="M175.1,293.4l1.7,9.5c0,0,21.4,2,22.8,1.5c1.5-0.5,2.5-4.2,2.5-4.2s20.2,6,43.7,0.2c0,0,2.3,2.8,2.7,4
		l22.3-1.7l1.2-0.4l2.4-9l-97.4-2.1L175.1,293.4z"/>
	<path fill="#EEA389" d="M196.1,344.1h-37.1c-0.6,0-1-0.5-1-1l0,0c0-0.6,0.5-1,1-1h37.1c0.6,0,1,0.5,1,1l0,0
		C197.1,343.7,196.6,344.1,196.1,344.1z"/>
	<path fill="#E4E5E6" d="M140,255c0,0-12.2,22.7-1.3,31.1c10.9,8.3,88.2,11.2,115.1,9.9s53.8-8.2,55.6-9.6c1.8-1.4,12.1-20.7-2-32.7
		c0,0-20,9.3-38.6,13.6c-18.6,4.2-122.7-13.2-122.7-13.2l-4.9-1L140,255z"/>
	<path fill="#B5B6B7" d="M307.6,277.1c-1.8,1.4-26.9,10.3-53.8,11.5s-104.2-1.6-115.1-9.9c-2.4-1.9-3.7-4.4-4.2-7.3
		c-0.8,5.6-0.2,11.3,4.2,14.7c10.9,8.3,88.2,11.2,115.1,9.9c26.9-1.3,53.8-8.2,55.6-9.6c1.2-1,6.6-10.5,5-20.3
		C313.5,272.9,308.5,276.4,307.6,277.1z"/>
	<path fill="#A31F24" d="M298.2,171.8l6.9,10.5l10.9,28.3c0,0-11.8-20.3-15.7-19.1c-3.8,1.3-16-6.4-16-6.4v-15.9l6-3.6L298.2,171.8z
		"/>
	<path fill="#C62227" d="M121.7,101.6c0,0,23,39.6,38.8,43.9l77.8,22.5l38.3-7l10.6,4l13.1,26.6c0,0,9.7,17,10.3,32.4
		c0.6,15.4,2.6,25.9-5.1,32.6c0,0-23.5,9.9-44.4,13.2c-20.9,3.3-67.8,5.2-110.5-12.3c0,0-7.3-2.3-9.5-4.9c0,0-7.8-24,5.8-55.4
		l11.8-24.7c0,0-36.5-24-48-47.4c0,0-10.7-16.2-10.4-17.2C100.4,107.9,120.5,100.9,121.7,101.6z"/>
	<path fill="#FDFFFF" d="M173,98.3c0,0-17.8,3-11.8,24.5s-11.2,28.6,6.8,49.5s58.1,52.3,58.1,52.3s33.9-28.2,38.2-36.3
		c4.3-8.1,28.2-19.6,22.4-44.8s-8.3-21.8-4.7-31.6s-5-11-5-11C251.3,73.2,216.8,72,173,98.3z"/>
	<path fill="#A31F24" d="M285.9,142.9l-3.8,4.4c0.2,18.5-17.8,27.7-21.3,34.3c-3.9,7.4-34.9,33.2-34.9,33.2s-36.8-28.7-53.2-47.9
		c-4.8-5.6-6.8-10.1-7.5-14.2l-4.2-7.2c-1.9,8.9-4,16.5,6.9,29.3c17.9,20.9,58.1,52.3,58.1,52.3s33.9-28.2,38.2-36.3
		c4.3-8.1,28.2-19.6,22.4-44.8C286.4,145,286.1,143.9,285.9,142.9z"/>
	<path fill="#A31F24" d="M282.1,160.2c-0.6,1.5-33.2,26.6-33.2,26.6s0.5,15.5,13.5,11.8s12.3,5.1,20.5,8.2s12.7,0.2,13.3,0
		s4.5-37.2,4.5-37.2L282.1,160.2z"/>
	<g>
		<path fill="#C7C3C2" d="M286.6,143.5c-5.8-25.2-8.3-21.8-4.7-31.6c3.6-9.8-5-11-5-11c-13.3-14.4-29-21.6-47.1-21.6
			c16.4,0.1,30.6,6.7,42.6,19.7c0,0,7.9,1.1,4.6,10.1c-3.3,9-1,5.9,4.3,28.9c5.3,23-16.6,33.6-20.5,41s-34.9,33.2-34.9,33.2
			s-36.8-28.7-53.2-47.9c-16.4-19.1-0.8-25.6-6.2-45.3c-3.5-12.8,2.1-18.5,6.5-20.8c-1,0.2-17.6,3.6-11.8,24.5
			c5.9,21.6-11.2,28.6,6.8,49.5c17.9,20.9,58.1,52.3,58.1,52.3s33.9-28.2,38.2-36.3C268.5,180.3,292.4,168.7,286.6,143.5z"/>
		<path fill="#C7C3C2" d="M217.1,80.5c-13.4,2.3-28,8.2-43.8,17.7c2.2-1.2,4.1-1.5,4.1-1.5C191.7,88,204.9,82.7,217.1,80.5z"/>
	</g>
	<path fill="#F5CABA" d="M185.1,94.3c0,0-9,7.4-1.6,14.1c0,0-12.8,24.5,6.2,33.5c19.1,9,61.7,4.4,65.4,1.8
		c3.7-2.6,28.7-15.2,13.3-34.1c0,0,3.8-10.6-1.8-13.3C261,93.6,233.1,77.2,185.1,94.3z"/>
	
		<ellipse transform="matrix(0.7071 -0.7071 0.7071 0.7071 -9.3894 127.5576)" fill="#E4E5E6" cx="149.3" cy="75.1" rx="12.1" ry="10.6"/>
	<path fill="#C7C3C2" d="M149.3,82c-5.7,0-10.5-4-11.6-9.4c-0.2,0.8-0.3,1.6-0.3,2.5c0,6.6,5.3,11.9,11.9,11.9
		c6.6,0,11.9-5.3,11.9-11.9c0-0.9-0.1-1.7-0.3-2.5C159.8,78,155,82,149.3,82z"/>
	<ellipse fill="#D8A998" cx="204.7" cy="104.1" rx="6.9" ry="6.6"/>
	<ellipse fill="#3F3F41" cx="203.7" cy="103.5" rx="6.3" ry="6"/>
	<ellipse fill="#D8A998" cx="246.8" cy="105.6" rx="6.9" ry="6.6"/>
	
		<ellipse transform="matrix(0.9725 -0.233 0.233 0.9725 -18.2192 49.6126)" fill="#EFF0F1" cx="200.9" cy="101.9" rx="1.8" ry="1.9"/>
	<ellipse fill="#C62227" cx="253.3" cy="122.8" rx="12.5" ry="9"/>
	<ellipse fill="#C62227" cx="195.5" cy="121.7" rx="12.5" ry="9"/>
	<path fill="#C62227" d="M160.4,70.3c0,0,5.8-2.8,10.9-3.1c5.1-0.3,7-0.1,9.3,4.3c0,0,1.6,5.2,0.3,9.3c0,0,45.3-17.5,87.7-0.7
		c0,0-7.2-14.9-11.6-19.3c-4.5-4.4-21.1-18.3-35.4-19c-14.3-0.7-20.8-1.4-33,2c-12.3,3.4-29.1,12.6-34.5,20.4c0,0,3.4,1.8,4.6,3.4
		C159.6,69.2,160.4,70.3,160.4,70.3z"/>
	<path fill="#DDDEDF" d="M173.2,100.9c-0.2,0.1-1.4-16,7.6-20.1c9-4,39.1-12.6,59.1-8.6c20,3.9,28.6,8,28.6,8s16.4,15.8,8.4,20.7
		c0,0-23.1-12.1-37.6-13.5C225,85.9,195.2,85.7,173.2,100.9z"/>
	<path fill="#C5C6C6" d="M239.4,80.7c-14.4-1.4-44.1-1.6-66.1,13.5c-0.4,3.7-0.2,6.7-0.1,6.7c22-15.1,51.8-15,66.2-13.5
		s37.6,13.5,37.6,13.5c2.7-1.7,2.6-4.6,1.3-7.8C277.2,92.1,253.8,82.1,239.4,80.7z"/>
	<path fill="#EFF0F1" d="M218.1,123.5c0,0-6.2-5.7-11.7,0c-5.4,5.7-11.1,11.1-17,11.4c-5.9,0.3-5,0.4-5,0.4s5,6.2,7.4,7.5
		c2.4,1.3,11.1,4.9,23.8-2.5c0,0,6.7,6.6,18.8,0c0,0,11.9,10.5,26.5,0.6c0,0,5.9-3,7.3-4.6c0,0-10.8,0.8-19.2-6.5
		s-10.8-8.8-14.4-8.2C231.1,122.2,218.1,123.5,218.1,123.5z"/>
	<path fill="#D7D3D2" d="M184.4,135.6c0,0,17.4,10.4,25.2,4.6c0,0,7.7-9.3,11.1-9.9c3.4-0.6,7.3-1.4,8.5-0.5
		c1.2,0.9,9.6,9.2,11.4,10.5c1.9,1.3,9,4.5,16.1,0.7l11.6-4.6c0,0-5.1,3.9-7.3,4.6c0,0-7,4.4-12.2,4.3c0,0-8.4,0-14.3-4.8
		c0,0-5.9,3.1-9.2,2.9c-3.4-0.1-5.9-0.2-9.6-2.9c0,0-7.1,3.7-10.7,4.1s-11.7,1.6-16.6-4.6L184.4,135.6z"/>
	<path fill="#E4E5E6" d="M201.3,314.5l-25.3-1.9c-2.7-0.2-4.8-2.6-4.6-5.3l0,0c0.2-2.7,2.6-4.8,5.3-4.6l25.3,1.9
		c2.7,0.2,4.8,2.6,4.6,5.3v0C206.4,312.6,204,314.7,201.3,314.5z"/>
	<path fill="#B5B6B7" d="M204.4,313.5l-27.6-2c-2.1-0.2-3.7-2-3.5-4.1l0.2-2.2c0.1-1,0.5-1.8,1.1-2.4c-1.7,0.3-3,1.7-3.1,3.5
		l-0.2,2.2c-0.2,2.1,1.4,4,3.5,4.1l27.6,2c1.2,0.1,2.2-0.4,3-1.1C205.1,313.5,204.7,313.5,204.4,313.5z"/>
	<path fill="#3F3F41" d="M158,342.6c0,0-2.3-2.5,0.8-3.9c3.1-1.5,18.3-10.7,18.3-10.7s1-0.3,0.4-3.5c-0.5-3.2-0.5-3.2-0.5-3.2l0,0
		l-1.3-8.6l26.2,1.9c0,0-1,27.6-5.2,28S158,342.6,158,342.6z"/>
	<path fill="#7D7C7F" d="M160.7,342.6c0,0-2.3-2.5,0.8-3.9c3.1-1.5,20.3-9.1,20.6-10.2c0.3-1.1-1.4-0.8-1.9-4
		c-0.5-3.2-0.5-3.2-0.5-3.2l-1.3-8.4l-2.7-0.2l1.3,8.6c0,0,0,0,0.5,3.2c0.5,3.2-0.4,3.5-0.4,3.5s-15.2,9.2-18.3,10.7
		c-3.1,1.5-0.8,3.9-0.8,3.9s16.5,0.2,28,0.2C174.8,342.8,160.7,342.6,160.7,342.6z"/>
	<path fill="#EEA389" d="M254.1,343.1h37.1c0.6,0,1-0.5,1-1l0,0c0-0.6-0.5-1-1-1h-37.1c-0.6,0-1,0.5-1,1l0,0
		C253.1,342.6,253.5,343.1,254.1,343.1z"/>
	<path fill="#E4E5E6" d="M248.9,313.5l25.3-1.9c2.7-0.2,4.8-2.6,4.6-5.3l0,0c-0.2-2.7-2.6-4.8-5.3-4.6l-25.3,1.9
		c-2.7,0.2-4.8,2.6-4.6,5.3v0C243.8,311.6,246.2,313.7,248.9,313.5z"/>
	<path fill="#B5B6B7" d="M245.8,312.5l27.6-2c2.1-0.2,3.7-2,3.5-4.1l-0.2-2.2c-0.1-1-0.5-1.8-1.1-2.4c1.7,0.3,3,1.7,3.1,3.5l0.2,2.2
		c0.2,2.1-1.4,4-3.5,4.1l-27.6,2c-1.2,0.1-2.2-0.4-3-1.1C245.1,312.5,245.4,312.5,245.8,312.5z"/>
	<path fill="#3F3F41" d="M292.2,341.5c0,0,2.3-2.5-0.8-3.9c-3.1-1.5-18.3-10.7-18.3-10.7s-1-0.3-0.4-3.5c0.5-3.2,0.5-3.2,0.5-3.2
		l0,0l1.3-8.6l-26.2,1.9c0,0,1,27.6,5.2,28C257.8,342,292.2,341.5,292.2,341.5z"/>
	<path fill="#7D7C7F" d="M289.5,341.5c0,0,2.3-2.5-0.8-3.9c-3.1-1.5-20.3-9.1-20.6-10.2c-0.3-1.1,1.4-0.8,1.9-4
		c0.5-3.2,0.5-3.2,0.5-3.2l1.3-8.4l2.7-0.2l-1.3,8.6c0,0,0,0-0.5,3.2c-0.5,3.2,0.4,3.5,0.4,3.5s15.2,9.2,18.3,10.7
		c3.1,1.5,0.8,3.9,0.8,3.9s-16.5,0.2-28,0.2C275.4,341.7,289.5,341.5,289.5,341.5z"/>
	<path fill="#C62227" d="M77.9,63.4c0,0-1.1-5.6,1.9-8.8c3.1-3.1,8.9-7.2,12.8-7.3s8.2-1.7,11.7,1.4c3.5,3.2,9.1,16.2,9.1,16.2
		s0.4,3.7,4.3,1.5c0,0,5.3-1.9,7-1.9c1.7,0,3.6,0.2,2.8,2.9c-0.8,2.7-7.6,9.3-8.4,14.1c-0.8,4.9-1.4,6.5-1.4,6.5l-21.5,7.5
		c0,0-8.8-10.8-12.3-17C80.6,72.4,77.9,63.4,77.9,63.4z"/>
	<path fill="#C62227" d="M305.1,182.3l10.9,28.3c0,0,16.2,13.3,21-5.9S326.7,171,326.7,171L305.1,182.3z"/>
	<path fill="#195A30" d="M280.8,157.8c-0.6,1.5-33.2,26.6-33.2,26.6s0.5,15.5,13.5,11.8c13-3.7,12.3,5.1,20.5,8.2
		c8.2,3,12.7,0.2,13.3,0c0.6-0.2,4.5-37.2,4.5-37.2L280.8,157.8z"/>
	<path fill="#0B371C" d="M297.9,166.5c-0.9,8.3-3.7,34.5-4.2,34.7c-0.5,0.1-6.1,1.6-7-0.6c-0.6-1.5-4,1.4-6.3,0.6
		c-5.8-2.2-2.3-22.1-0.2-27.4c0.8-1.9-16.6,18.1-20.3,19.2c-6.5,1.8-9.9-1.1-11.6-4.6c1.1,4.3,4.3,10.2,12.8,7.8
		c13-3.7,12.3,5.1,20.5,8.2c8.2,3,12.7,0.2,13.3,0c0.6-0.2,4.5-37.2,4.5-37.2L297.9,166.5z"/>
	<path fill="#EFF0F1" d="M235.2,93.4c0.2,0,23.8-0.5,31.5,6.6c0,0-6.9-22.5-31.3-6.6"/>
	<g>
		<path fill="#C5C6C6" d="M235.4,93.4C235.4,93.4,235.4,93.4,235.4,93.4c-0.1,0-0.2,0-0.2,0H235.4z"/>
		<path fill="#C5C6C6" d="M237.8,91.9c-0.8,0.5-1.6,1-2.5,1.5c2.1,0,24-0.2,31.3,6.6c0,0-0.5-1.6-1.7-3.6
			C256.8,92.2,242,91.9,237.8,91.9z"/>
	</g>
	<path fill="#EFF0F1" d="M188.5,99.8c0.1-0.1,21.5-10.2,31.4-6.8c0,0-15.4-17.7-31.3,6.7"/>
	<g>
		<path fill="#C5C6C6" d="M188.7,99.8C188.7,99.8,188.7,99.8,188.7,99.8c-0.1,0-0.1,0.1-0.1,0.1L188.7,99.8z"/>
		<path fill="#C5C6C6" d="M220,93.1c0,0-1.4-1.6-3.7-3.1c-7.7-0.6-19,3.5-24.7,5.8c-1,1.2-1.9,2.5-2.9,4
			C190.6,98.9,210.5,89.8,220,93.1z"/>
	</g>
	<ellipse fill="#E8AB95" cx="224.3" cy="121.3" rx="10.2" ry="9.4"/>
	<ellipse fill="#E4E5E6" cx="225" cy="231.6" rx="4.7" ry="4.3"/>
	<ellipse fill="#E4E5E6" cx="225" cy="248.1" rx="4.7" ry="4.3"/>
	<ellipse fill="#E4E5E6" cx="225" cy="262.4" rx="4.7" ry="4.3"/>
	<path fill="#BA8A78" d="M224.3,127.8c-5.1,0-9.3-3.5-10.1-8c-0.1,0.5-0.1,0.9-0.1,1.4c0,5.2,4.6,9.4,10.2,9.4s10.2-4.2,10.2-9.4
		c0-0.5,0-1-0.1-1.4C233.6,124.4,229.4,127.8,224.3,127.8z"/>
	<ellipse fill="#A31F24" cx="224.9" cy="136.6" rx="6" ry="4.4"/>
	<path fill="#DEA28F" d="M224.9,139c-2.9,0-5.3-1.5-5.9-3.4c-0.1,0.3-0.1,0.6-0.1,1c0,2.4,2.7,4.4,6,4.4c3.3,0,6-2,6-4.4
		c0-0.3-0.1-0.7-0.1-1C230.2,137.6,227.8,139,224.9,139z"/>
	<ellipse fill="#F5D8CE" cx="224.4" cy="116.4" rx="4" ry="1.5"/>
	<ellipse fill="#3F3F41" cx="246.4" cy="104.7" rx="6.6" ry="6.2"/>
	<ellipse transform="matrix(0.9725 -0.233 0.233 0.9725 -17.1984 59.8549)" fill="#EFF0F1" cx="244.7" cy="102.7" rx="1.9" ry="2"/>
	<g>
		<path fill="#A31F24" d="M258.2,76.7c3.4,0.9,6.9,2.1,10.3,3.4c0,0-7.2-14.9-11.6-19.3s-21.1-18.3-35.4-19c-14.3-0.7-20.8-1.4-33,2
			c-4.3,1.2-9.1,3.1-13.7,5.3C193.8,36.9,245.7,48.3,258.2,76.7z"/>
		<path fill="#A31F24" d="M188.8,77.9l-0.3-0.9c0,0-7-22.8-17.6-14.7c-10.6,8.1-10.6,8.1-10.6,8.1s5.8-2.8,10.9-3.1
			c5.1-0.3,7-0.1,9.3,4.3c0,0,1.6,5.2,0.3,9.3C180.8,80.8,182.4,79.6,188.8,77.9z"/>
		<path fill="#A31F24" d="M159.5,58.4c-2.4,1.9-4.3,3.9-5.6,5.7C153.9,64.2,155.9,61.6,159.5,58.4z"/>
	</g>
	<path fill="#A31F24" d="M124.7,64.6c-1.7,0-7,1.9-7,1.9c-3.9,2.2-4.3-1.5-4.3-1.5s-5.6-13-9.1-16.2c-3.5-3.2-7.8-1.6-11.7-1.4
		s-9.7,4.2-12.8,7.3c-0.8,0.8-1.3,1.7-1.6,2.7l0,0c0,0,8.3-9.9,20.5-3.8c12.2,6.1,11.8,23.5,11.8,23.5l0,13.4l-0.6,0.3l7.7-2.7
		c0,0,0.6-1.7,1.4-6.5c0.8-4.9,7.5-11.5,8.4-14.1S126.4,64.6,124.7,64.6z"/>
	<path fill="#0B371C" d="M282.4,160c-0.4-0.6-0.9-1.2-1.2-1.8l-2.5,1.9c0.4,0.6,0.8,1.1,1.3,1.7c9.4,12.2,17.6,5.8,17.6,5.8l0.4,4.6
		l2.5-1.2l-1.3-6.8C299.1,164.2,291.8,173.1,282.4,160z"/>
	<path fill="#C62227" d="M319,160.6c0,0-6.6-28.1-25-22.5c-18.4,5.6-23.3,10.4-13.9,22.5s17.6,5.8,17.6,5.8l0.4,4.6L319,160.6z"/>
	<g>
		<path fill="#A31F24" d="M299.4,163c0,0-7.3,9-16.7-4.2c-4.4-6.1-5.7-10.5-3.9-14.1c-4.8,3.8-4.4,8.5,1.4,15.9
			c9.4,12.2,17.6,5.8,17.6,5.8l0.4,4.6l2.5-1.2L299.4,163z"/>
		<path fill="#A31F24" d="M307.3,166.4l11.6-5.8c0,0,0-0.1-0.1-0.4L307.3,166.4z"/>
	</g>
	<path fill="#E4E5E6" d="M321.1,175.5l-9.8,5.4c-3.9,2.1-8.7,0.7-10.8-3.2v0c-2.1-3.9-0.7-8.7,3.2-10.8l9.8-5.4
		c3.9-2.1,8.7-0.7,10.8,3.2v0C326.4,168.5,325,173.4,321.1,175.5z"/>
	<path fill="#A31F24" d="M297.8,195.4c0,0,6.3,61.4-0.5,64.3c0,0,6.6-2.8,8.2-3.2C305.5,256.5,301.1,201.7,297.8,195.4z"/>
	<path fill="#A31F24" d="M158.8,172.5c0,0-7.6,80.9-3,86.9l-6.4-2.4c0,0-6.9-0.4-9.9-8.1c-1.8-4.6-0.6-14.1-0.3-21.2
		C140,208.1,152.8,179.4,158.8,172.5z"/>
	<path fill="#A31F24" d="M105,106c0,0,46.8,58,52.7,60.4s0,17.8,0,17.8l-5.5,1.9l6.5-13.6c0,0-50-34.6-55.3-58.7l-3.1-5.9L105,106z"
		/>
	<path fill="#E4E5E6" d="M121.9,101.2l-20.3,7.7c-1.8,0.7-3.9-0.5-4.5-2.7l-1.9-6.1c-0.7-2.2,0.2-4.5,2-5.2l20.3-7.7
		c1.8-0.7,3.9,0.5,4.5,2.7l1.9,6.1C124.6,98.2,123.7,100.5,121.9,101.2z"/>
	<path fill="#C7C3C2" d="M123,98.6l-20.3,7.6c-1.9,0.7-3.9-0.4-4.6-2.4l-1.7-5.3c-0.1-0.5-0.9-1.9-0.8-2.4c-1.2,1-1,3.7-0.5,5.3
		l1.7,5.3c0.6,2,2.7,3.1,4.6,2.4l20.3-7.6c1.5-0.5,2.4-2,2.4-3.6C123.8,98.2,123.4,98.5,123,98.6z"/>
	<g>
		<path fill="#3F3F41" d="M139.3,248.3c4.6,1.9,15.2,5.3,15.8,5.5c13.6,4.6,27.5,7.6,41.7,9.4c4,0.5,8,1,12.1,1.1
			c0.9,0,1.8,0.2,2.6,0.5c0.5,0.4,0.2,0.8,0,1.1c-2.2,2.5-2.5,5-0.5,7.7c0.3,0.4,0.4,0.9-0.1,1.2c-2.5,0.7-5,0.1-7.5-0.2
			c-8.8-0.8-17.6-2.1-26.2-3.9c-5.4-1.1-10.7-2.5-15.9-4.1c-6.2-2-12.5-4-18.5-6.5c-0.7-0.3-1.4-0.5-1.9-1.2
			C138.8,255.7,138.5,252.2,139.3,248.3z"/>
		<path fill="#3F3F41" d="M310.6,247.6c0.8,4,0.7,8.3-1.9,11.7c-0.5,0.7-1.2,0.9-1.9,1.1c-6.3,2.5-12.7,4.7-19.1,6.7
			c-12.4,3.6-25,6-37.8,7.4c-3.6,0.4-7.2,0.7-10.8,0.8c-0.4,0-0.9,0.1-1.2-0.3c-0.3-0.7,0.3-1.2,0.6-1.7c1.3-2.1,1.4-4.2,0-6.3
			c-0.4-0.6-1.3-1.1-0.7-2.1c2.2-1,4.6-0.6,6.9-0.8c10.7-1,21.4-2.6,31.9-5.1c6.1-1.4,12.1-3.1,18-5.1
			C295.2,253.6,310.1,247.8,310.6,247.6z"/>
		<path fill="#F3C21D" d="M211.7,265.1c8.6-5.5,17.2-5.4,25.9,0c1,1.2,2.1,2.4,2.4,4.1c0.4,2.3-0.6,4-2,5.6
			c-6.3,5.7-19.9,5.9-26.6,0C208.4,270.9,208.4,269,211.7,265.1z"/>
		<path fill="#3F3F41" d="M218.3,275.4c-0.2-0.1-0.4-0.1-0.6-0.2c-2.1-1-4.1-2.3-4.2-4.9c-0.1-2.5,1.7-4,3.8-5
			c4.9-0.6,9.7-0.6,14.6,0c0.4,0.2,0.9,0.4,1.3,0.7c3.5,2.4,3.5,6,0,8.4c-0.7,0.4-1.3,0.9-2.1,1
			C226.7,276.1,222.5,276.1,218.3,275.4z"/>
	</g>
</g>
</svg>
