<svg version="1.1" xmlns="http://www.w3.org/2000/svg" xmlns:xlink="http://www.w3.org/1999/xlink" width="587.8" height="444.00569" viewBox="0,0,587.8,444.00569"><g transform="translate(0,67.56569)"><g data-paper-data="{&quot;isPaintingLayer&quot;:true}" fill="none" fill-rule="nonzero" stroke="none" stroke-width="1" stroke-linecap="butt" stroke-linejoin="miter" stroke-miterlimit="10" stroke-dasharray="" stroke-dashoffset="0" font-family="none" font-weight="none" font-size="none" text-anchor="none" style="mix-blend-mode: normal"><path d="M0,360v-360h480v360z" fill="#ffaf50"/><path d="M86.1,3.5c0.2,-0.4 1.7,0.1 1.5,0.3c-1.7,2.4 -3.4,4.8 -5,7.2c-13,19.6 -23.4,41.6 -29.8,64.7c-3.4,12 -5.4,25 -3.2,37.5c2,11 7.4,20.7 13.1,29.9c5.8,9.3 12,18.3 16,28.6c4.1,10.4 6.1,21.6 6.6,32.9c0.9,23.6 -5.1,46.8 -14.6,67.9c-9.8,21.8 -23,41.6 -36.1,61.2c-0.3,0.4 -1.8,-0.1 -1.5,-0.5c1.7,-2.4 3.4,-4.9 5,-7.4c13.1,-19.8 26,-40.1 34.9,-62.7c8.4,-21.5 12.9,-45.3 9.9,-68.6c-1.4,-11.3 -4.8,-22.2 -10,-32.1c-5.1,-9.6 -11.6,-18.3 -16.8,-27.8c-5.5,-9.9 -9,-20.6 -9,-32.2c-0.1,-12.6 3.1,-24.9 7,-36.6c7.5,-22.4 18.4,-43.5 32,-62.3z" fill="#e09438"/><path d="M128.3,-1.9c0.1,0.5 -1.5,0.3 -1.5,-0.3c-0.3,-1.6 -0.7,-3.2 -1,-4.8c0.5,0.1 1,0.2 1.5,0.3c-1.8,2.4 -3.6,4.8 -5.4,7.2c-13.6,18.9 -24.5,42 -21.1,66.7c1.6,11.4 6.4,21.3 13.7,29.5c6.6,7.5 14.5,13.4 21.4,20.5c3.4,3.4 6.5,7.1 9,11.3c2.9,4.8 4.8,10.2 6,15.7c2.6,11.9 2.9,24.3 7.5,35.6c4.5,11 11.9,20.2 18.3,29.9c6.2,9.4 11.1,19.5 14.2,30.5c6.2,22 5.5,46.1 -2.3,67.5c-0.2,0.5 -1.7,0 -1.6,-0.4c1,-2.7 1.8,-5.4 2.6,-8.2c6.1,-22.2 4.8,-46.8 -3.4,-68.2c-4.3,-11.1 -10.7,-20.6 -17.3,-30.2c-6.6,-9.5 -12.6,-19.2 -15.3,-30.8c-2.7,-11.7 -2.8,-24.2 -7.4,-35.4c-4,-9.7 -11.3,-17 -18.7,-23.7c-7.3,-6.6 -15,-13.1 -20.5,-21.6c-6,-9.2 -8.6,-20.6 -8.4,-31.7c0.1,-24.7 13,-46.3 27.2,-64.5c0.2,-0.4 1.4,-0.1 1.5,0.3c0.3,1.6 0.7,3.2 1,4.8z" fill="#e09438"/><path d="M107.2,-22.3c0.2,-0.4 1.7,-0.5 1.5,-0.1c-1.2,2.8 -2.4,5.5 -3.7,8.3c-9.7,21.4 -20.9,42.5 -25.3,66.1c-4,21.6 -2.1,45 10.8,62.9c6.1,8.4 13.8,15.3 21.3,22.2c7.4,6.8 14.4,13.9 20.3,22.3c11.1,15.8 18.5,34.6 21.6,54.1c3.2,19.6 2,39.9 -3.8,58.8c-0.2,0.5 -1.7,0.6 -1.6,0.1c0.7,-2.4 1.4,-4.8 2,-7.2c4.7,-19.4 4.6,-40.1 0.2,-59.6c-4.4,-19.5 -13,-37.9 -25.4,-52.9c-13.1,-15.9 -31.6,-26.8 -41.3,-45.8c-9.8,-19 -9.1,-42.3 -3.9,-62.8c6.1,-23.5 17.8,-44.5 27.3,-66.4z" fill="#e09438"/><path d="M183.9,-29.6c0.4,-0.4 1.8,0 1.5,0.2c-2.2,2.1 -4.4,4.2 -6.5,6.4c-16.8,17.4 -32.5,40.5 -29.6,67c1.5,13.7 7.6,26.2 13.9,37.9c6.3,11.7 12.8,23.2 18.2,35.5c10.7,24.5 18.2,50.4 24.4,76.6c6.2,26.3 11.2,53 16.8,79.5c5.7,26.8 12.1,53.5 21.2,79.2c0.1,0.5 -1.4,0.6 -1.6,0.1c-1.1,-3.2 -2.2,-6.3 -3.2,-9.5c-8.4,-25.9 -14.4,-52.5 -19.9,-79.2c-5.6,-26.9 -10.7,-54 -17.4,-80.7c-6.6,-26.3 -14.9,-52.2 -26.6,-76.3c-11.2,-22.9 -29.3,-45.7 -27.6,-73.3c1.6,-25.9 19.2,-47.1 36.4,-63.4z" fill="#e09438"/><path d="M135.7,-22.5c0.2,-0.5 1.8,0 1.6,0.1c-1.2,2.8 -2.3,5.7 -3.2,8.6c-7.7,24.6 -4.2,51.3 2.8,75.5c7.5,26 18.7,50.5 26.6,76.3c7.9,25.5 13.7,51.6 18.1,78c4.4,26.3 7.5,52.9 9.9,79.5c2.4,26.8 4.1,53.8 5.8,80.7c0,0.4 -1.6,0.3 -1.6,-0.3c-0.2,-3.3 -0.4,-6.7 -0.6,-10c-1.7,-26.9 -3.5,-53.8 -6.1,-80.7c-2.6,-27.1 -6.1,-54.2 -11,-80.9c-4.9,-26.3 -11.2,-52.3 -19.6,-77.5c-8.5,-25.5 -19.8,-49.9 -26,-76.2c-5.6,-23.9 -6.6,-50.3 3.3,-73.1z" fill="#e09438"/><path d="M27.7,-38.4c-0.3,0.3 -1.8,-0.1 -1.5,-0.4c1.4,-1.4 2.8,-2.9 4.2,-4.4c0.2,-0.3 1.8,-0.2 1.5,0.3c-1.7,3.3 -3.4,6.7 -4.9,10.1c-12.4,27.7 -18.1,59 -16.5,89.6c0.8,16.4 4,32.4 8.2,48.1c3.9,14.7 8.4,29.2 11.3,44.2c2.2,11.1 3.1,22.3 1.3,33.5c-1.8,10.8 -5.9,20.9 -9.6,31.1c-4.3,11.6 -7.5,23.4 -8.3,35.9c-0.9,13.9 1.1,27.6 4.2,41.1c1.2,5.2 2.6,10.4 3.6,15.7c0.8,4 1.4,8.2 1,12.3c-0.4,3.5 -1.7,6.7 -4.1,9.2c-4.1,4.3 -9.8,5.5 -15.3,5.6c-0.7,0 -1.5,-0.7 -0.4,-0.7c3,0 5.9,-0.4 8.7,-1.5c4.2,-1.7 7.8,-5.2 9,-10c1,-3.7 0.7,-7.7 0.1,-11.5c-1.7,-11 -5.1,-21.6 -6.9,-32.6c-2.2,-13.8 -2.3,-28 0.4,-41.8c2.2,-11.2 6.4,-21.6 10.2,-32.2c3.8,-10.4 6.6,-21 6.8,-32.3c0.2,-11.5 -2.3,-22.9 -5,-34c-3.9,-16 -8.9,-31.6 -12.4,-47.7c-3.3,-15.1 -4.9,-30.6 -4.6,-46.1c0.5,-30.1 8,-60 21.7,-86.2c0.5,0.1 1,0.2 1.5,0.3c-1.4,1.4 -2.8,2.9 -4.2,4.4z" fill="#e09438"/><path d="M50.5,-19.3c0.2,-0.4 1.8,-0.4 1.6,0.1c-1.3,2.2 -2.5,4.4 -3.7,6.6c-11.5,21.6 -20,45.3 -22.9,70.1c-1.6,14.1 -1.5,28.5 0.7,42.5c1.9,11.7 5.1,23.1 9.2,34.2c3.1,8.3 6.4,16.4 9.2,24.7c2.6,7.9 4.9,16.1 6.8,24.3c4.7,20.5 7.1,41.5 7.7,62.6c0.7,27.9 -1.6,55.7 -5.9,83.1c-0.1,0.5 -1.7,0.6 -1.6,0.2c0.6,-3.9 1.2,-7.7 1.7,-11.5c3.6,-26.6 5.2,-53.7 3.8,-80.6c-1.1,-20.3 -4,-40.6 -9,-60.2c-2,-7.9 -4.4,-15.7 -7.2,-23.4c-3.3,-9 -7,-17.8 -10,-26.9c-8.3,-25.5 -10.3,-52.7 -5.5,-79.3c4.2,-23.7 13.4,-46 25.1,-66.5z" fill="#e09438"/><path d="M209.8,-14c-0.1,-0.5 1.4,-0.3 1.6,0.1c0.8,2.7 1.5,5.4 2.2,8.2c5.2,21.9 6.1,44.7 5.2,67.3c-1,22.9 -3.8,45.7 -6,68.5c-2.1,21.1 -3.4,42.3 -2.4,63.4c1,20.9 4.5,41.9 12.4,61.1c3.7,9.1 8.2,18.8 15.3,25.4c6.7,6.3 17.3,9 24.5,2c0.4,-0.4 1.8,0.2 1.5,0.5c-1.4,1.5 -3.1,2.6 -5,3.3c-7.8,3 -16.4,-0.1 -22.4,-5.7c-7.1,-6.6 -11.6,-16.4 -15.4,-25.6c-8,-19.5 -11.5,-40.8 -12.5,-62c-1,-21.8 0.5,-43.7 2.7,-65.4c2.4,-23.6 5.2,-47.2 5.9,-71c0.6,-23.6 -1,-47.5 -7.6,-70.1z" fill="#e09438"/><path d="M192.4,-20.8c0,0.4 -1.6,0.1 -1.8,-0.5c0,-1.7 0.1,-3.3 0.1,-5c0.6,0.2 1.1,0.3 1.6,0.5c-0.8,1.6 -1.6,3.3 -2.4,5c-6.2,13.4 -10.5,27.7 -12.8,42.4c-2.4,14.8 -2.7,30.1 -0.9,45c0.4,3.7 1,7.4 1.7,11c0.7,3.5 1.3,7.3 2.9,10.4c1.5,2.9 5,5.7 8.1,3.4c2.5,-1.8 2.7,-5.5 2.8,-8.5c0.4,-17.3 0.5,-34.7 0.8,-52c0.3,-17.3 0.5,-34.7 0.8,-52.1c0,-0.4 1.6,-0.1 1.6,0.5c0,2.3 -0.1,4.5 -0.1,6.8c-0.3,18 -0.5,36.1 -0.8,54.1c-0.1,8.9 -0.3,17.9 -0.4,26.9c-0.1,4.5 -0.1,9.1 -0.2,13.6c0,3.3 0.2,7.2 -1.6,10c-1.6,2.5 -4.6,2.8 -7.1,1.9c-2.9,-1 -4.8,-3.5 -6,-6.5c-1.4,-3.5 -2,-7.3 -2.6,-11c-0.7,-3.9 -1.2,-7.7 -1.6,-11.6c-1.6,-15.3 -0.9,-30.9 1.8,-46.1c2.8,-15.3 7.7,-30.1 14.6,-43.7c0.3,-0.4 1.6,0 1.6,0.5c0,1.7 -0.1,3.3 -0.1,5z" fill="#e09438"/><path d="M238.7,-20.5c0,-0.4 1.6,-0.2 1.4,0.5c0.1,5 0,10 -0.4,14.9c-1.6,20.4 -6.7,40.2 -10.5,60.2c-3.8,20.1 -6.4,40.4 -7.9,60.9c-1.5,20.4 -1.8,40.8 -0.9,61.2c0.9,20.5 2.9,41 6.2,61.3c1,6.2 3.6,17.6 11.6,16c3.4,-0.7 6,-3.6 7.9,-6.5c2.3,-3.4 3.6,-7.2 4.8,-11.1c5.6,-18.6 7.3,-38.2 7.8,-57.7c0.5,-19.8 -0.2,-39.6 0.4,-59.3c0.6,-20.1 2.2,-40.1 4.8,-60c2.5,-19.8 6.1,-39.4 10.7,-58.8c4.6,-19.3 10.1,-38.4 16.6,-57.1c0.2,-0.5 1.2,-0.1 1.4,0.1c1.4,1.1 2.9,2.3 4.3,3.4c0.7,0.5 -0.9,0.5 -1.2,0.2c-1.4,-1.1 -2.9,-2.3 -4.3,-3.4c0.5,0 0.9,0.1 1.4,0.1c-1.6,4.6 -3.2,9.3 -4.7,14c-6.1,19.3 -11.3,39 -15.4,59c-4.1,19.9 -7.2,40.2 -9.3,60.5c-2,20.3 -3,40.7 -3,61.1c0,20.2 0.5,40.4 -1.2,60.5c-0.8,10 -2.2,19.8 -4.5,29.5c-1.8,7.9 -3.9,17 -9.6,22.8c-2.1,2.1 -4.8,3.6 -7.8,3.5c-3,-0.1 -5.7,-1.6 -7.6,-4c-2.1,-2.7 -3.2,-6.1 -3.9,-9.5c-1,-4.6 -1.6,-9.3 -2.2,-13.9c-2.9,-20.6 -4.5,-41.3 -5,-62c-0.4,-20.9 0.3,-41.8 2.3,-62.6c2,-20.9 5.4,-41.5 9.6,-61.9c4.2,-20.3 8.7,-40.9 8.2,-61.9z" fill="#e09438"/><path d="M253.4,-23.4c0.2,-0.5 1.7,-0.3 1.6,0.1c-1,3.3 -2,6.6 -3,9.9c-4.4,15 -8.3,30.2 -11.5,45.5c-3.6,17.1 -6.5,34.5 -8.6,51.9c-2.3,19.2 -3.7,38.6 -4.1,58c-0.5,20.2 0.1,40.4 1.8,60.6c0.4,4.7 0.8,9.4 1.3,14.1c0.2,1.3 0.2,2.4 0.9,3.5c0.5,0.9 1.1,1.8 1.8,2.6c1.1,1.3 3,3.4 4.7,3.2c1.8,-0.3 3.2,-3 3.9,-4.7c1.5,-3.6 2.3,-7.7 3,-11.6c1,-5.7 1.7,-11.5 2.2,-17.2c1.5,-16.1 2.4,-32.3 3.3,-48.5c1,-17.5 2,-34.9 3.3,-52.4c1.2,-15.5 2.5,-31.1 4,-46.6c1.8,-19.4 4,-38.8 6.5,-58.2c0,-0.5 1.7,-0.4 1.6,0c-0.7,5.2 -1.3,10.3 -1.9,15.5c-2.2,18.7 -4.1,37.4 -5.8,56.2c-1.3,14.7 -2.5,29.4 -3.5,44.1c-1.3,19.3 -2.3,38.5 -3.5,57.8c-0.9,14.6 -1.7,29.2 -3.7,43.7c-0.6,4.7 -1.4,9.4 -2.7,13.9c-0.7,2.6 -1.7,5.6 -3.7,7.4c-0.8,0.7 -1.8,1.1 -2.8,1.2c-3.5,0.3 -6.2,-3.2 -8,-6c-0.2,-0.4 -0.6,-0.8 -0.8,-1.3c-0.2,-0.4 -0.2,-0.9 -0.2,-1.3c-0.2,-1.2 -0.3,-2.3 -0.4,-3.5c-0.3,-2.3 -0.5,-4.7 -0.7,-7c-0.5,-5 -0.9,-9.9 -1.2,-14.9c-1.4,-20.6 -1.6,-41.3 -0.8,-62c0.8,-19.4 2.6,-38.8 5.3,-58c2.5,-17.3 5.7,-34.5 9.6,-51.5c3.5,-15 7.5,-29.9 12.1,-44.5z" fill="#e09438"/><path d="M262.5,-50c0.1,-0.5 1.7,-0.1 1.6,0.3c-0.6,2.6 -1.2,5.2 -1.8,7.8c-4.2,18.7 -7.6,37.6 -10.2,56.6c-2,14.8 -3.5,29.7 -4.4,44.6c-0.8,13.1 -1.1,26.3 -1.7,39.4c-0.8,18.4 -2,36.9 -3.7,55.3c-1.5,16.5 -3.3,33.1 -5.5,49.6c-0.1,0.5 -1.7,0.2 -1.6,-0.3c0.2,-1.6 0.4,-3.1 0.6,-4.7c2.2,-17.5 4,-35 5.5,-52.5c1.5,-17.7 2.5,-35.4 3.2,-53.2c0.5,-12.9 0.9,-25.9 1.8,-38.8c1.1,-15.3 2.8,-30.7 5,-45.9c2.9,-19.6 6.7,-39 11.2,-58.2z" fill="#e09438"/><path d="M306.1,-17.8c0.1,-0.5 1.7,-0.2 1.7,0.3c-0.4,2.8 -0.8,5.6 -1.3,8.4c-3.9,22.6 -10.5,44.6 -16.8,66.6c-6.2,22 -12.1,44.2 -14.4,67.1c-1.2,11.4 -1.4,22.8 -0.4,34.2c1,11.6 3.7,22.9 6.5,34.1c5.3,20.8 11.1,42.8 6.3,64.3c-0.6,2.6 -1.3,5.1 -2.2,7.5c-0.2,0.7 -0.5,1.3 -0.6,2c0,0.8 0.1,1.6 0.2,2.4c0.1,1.4 0.2,2.7 0.3,4.1c0.5,6.1 0.9,12.1 1.4,18.2c0.9,12 1.9,24 2.8,36c0,0.4 -1.6,0.3 -1.6,-0.3c-0.2,-3 -0.5,-5.9 -0.7,-8.9c-0.9,-12 -1.9,-24 -2.8,-36c-0.2,-3.1 -0.5,-6.2 -0.7,-9.3c-0.1,-1.5 -0.2,-3 -0.3,-4.5c-0.1,-0.7 -0.3,-1.7 -0.2,-2.4c0,-0.6 0.4,-1.2 0.6,-1.7c1.8,-5 2.9,-10.2 3.5,-15.5c2.4,-22.4 -4.9,-44.1 -9.9,-65.5c-2.6,-11 -4.4,-22 -4.8,-33.3c-0.5,-11.5 0.3,-22.9 1.9,-34.2c3.2,-22.9 9.5,-45 15.8,-67.1c6.2,-21.8 12.5,-43.8 15.7,-66.5z" fill="#e09438"/><path d="M334.2,-24.5c0.2,-0.5 1.7,-0.5 1.6,0c-1,2.7 -2,5.4 -3,8.1c-8,22.2 -14.7,44.9 -20.1,68c-5.5,23.1 -9.6,46.6 -12.5,70.3c-2.8,23.5 -4.4,47.2 -4.7,70.9c-0.3,23.7 0.6,47.4 2.9,71c2.3,23.6 5.9,47 10.7,70.1c0.1,0.5 -1.5,0.8 -1.6,0.3c-0.6,-2.9 -1.2,-5.8 -1.8,-8.8c-4.5,-23.2 -7.8,-46.7 -9.7,-70.3c-1.9,-23.7 -2.5,-47.6 -1.9,-71.4c0.6,-23.8 2.6,-47.5 5.8,-71.1c3.2,-23.4 7.6,-46.6 13.3,-69.4c5.8,-23 12.8,-45.6 21,-67.7z" fill="#e09438"/><path d="M308.9,321.1c0.1,0.5 -1.4,0.2 -1.5,-0.1c-1,-4.3 -1.8,-8.5 -2.6,-12.7c-5.1,-27.6 -7.5,-56 -5.4,-84.1c1.5,-20 5.2,-39.7 11.6,-58.5c3.3,-10 7.4,-19.5 12.1,-28.8c4.9,-9.6 10.2,-18.9 15.3,-28.4c14.3,-26.9 26.2,-55.2 35.6,-84.5c7.5,-23.3 13.5,-47.1 17.8,-71.3c0,-0.5 1.6,0 1.5,0.5c-0.4,2.4 -0.8,4.8 -1.3,7.2c-4.9,25.4 -11.6,50.4 -20,74.7c-9.8,28.2 -21.9,55.2 -36,81.1c-4.9,9 -10,18 -14.4,27.4c-4.3,9 -7.9,18.4 -10.9,28c-6.1,19.7 -9.4,40.3 -10.3,61.1c-1.3,29.7 2.2,59.5 8.5,88.4z" fill="#e09438"/><path d="M317.4,240.2c0.2,0.5 -1.3,0.8 -1.4,0.3c-1.1,-2.2 -2.1,-4.5 -3,-6.8c-7.4,-20.2 -3.9,-43.1 4,-62.4c8.5,-20.9 22.7,-38.3 36.5,-55.3c7.2,-9 14.4,-17.9 20.9,-27.4c6.5,-9.5 12.4,-19.5 17.7,-29.8c10.7,-20.6 19.2,-42.4 27.2,-64.4c2,-5.5 3.9,-11 5.9,-16.6c1.8,-5.1 3.8,-10.2 5.2,-15.5c2.6,-9.6 4,-20.9 -2.2,-29.3c-0.3,-0.4 1.2,-0.8 1.5,-0.4c1.3,1.8 2.4,3.8 3.1,5.9c3.2,9.4 0.4,20.2 -2.6,29.3c-3.7,11 -7.7,21.9 -11.7,32.8c-8.1,21.9 -16.9,43.6 -28,64c-5.5,10.2 -11.6,20 -18.3,29.3c-6.6,9.1 -13.7,17.7 -20.7,26.4c-13.8,17.2 -27.7,35.1 -35.2,56.7c-7,20.2 -8.8,43.7 1.1,63.2z" fill="#e09438"/><path d="M446.1,-17.2c0.2,-0.5 1.7,0 1.5,0.2c-3.4,7 -6.8,14 -10.1,21.1c-13.8,29.2 -26.7,59 -36.4,90c-9.7,30.9 -16.2,63.2 -17,95.9c-0.2,8.3 -0.1,16.6 0.5,24.8c0.6,8.4 1.5,16.8 1.9,25.2c0.7,14.2 -0.2,28.7 -6.5,41.5c-5,10.3 -13.6,18.9 -24.6,20.5c-9.1,1.3 -19.5,-1.7 -25.4,-9.6c-3.6,-4.9 -4.9,-11.4 -4.9,-17.5c0,-6.7 2.1,-13.2 3.2,-19.8c2.6,-14.8 3.5,-29.9 3.8,-44.9c0.2,-12 -0.2,-24.1 0.6,-36.1c0.4,-7.4 1.2,-16.3 5.9,-22.2c3.3,-4.1 8.9,-6.2 13.7,-4.5c4.7,1.6 7.5,6.6 9.4,11.2c2.7,6.8 4.1,14.2 5.1,21.4c1.2,8.4 1.8,16.9 2.1,25.4c0.6,14.9 0.4,29.9 -1.3,44.7c-3.6,31.8 -12.7,62.5 -24.9,91.6c-0.2,0.5 -1.7,0.1 -1.6,-0.3c2.9,-6.8 5.6,-13.7 8.1,-20.7c9.7,-27.2 16.5,-56 18.1,-85.2c0.7,-12.9 0.5,-26 -0.3,-38.9c-0.5,-8.1 -1.3,-16.3 -2.9,-24.3c-1.2,-6.4 -2.9,-13 -6.2,-18.5c-2.5,-4.1 -6.2,-7.1 -10.9,-5.8c-6.3,1.7 -9.5,7.9 -11,14.3c-2.2,9.5 -2,19.5 -2,29.2c-0.1,13.2 -0.1,26.4 -1,39.6c-0.6,7.5 -1.4,15 -2.6,22.4c-0.6,3.9 -1.3,7.8 -2.2,11.6c-0.6,2.7 -1.1,5.3 -1.3,8c-0.3,6.4 0.7,13.4 4.3,18.7c3,4.3 7.4,7.2 12.2,8.7c10.7,3.2 21.5,-1 28.9,-9.6c8.1,-9.5 11.8,-22.5 12.7,-35.1c1.1,-16.3 -1.6,-32.5 -2.3,-48.8c-0.6,-15.7 0.2,-31.6 2.2,-47.2c4,-31.4 12.6,-62 23.5,-91.3c10.9,-29.4 24.2,-57.7 37.7,-85.7z" fill="#e09438"/><path d="M434.3,351.1c0,0.3 -1.5,0 -2,-0.7c-0.2,-9.2 -0.4,-18.4 -0.6,-27.6c-0.4,-18.8 -0.8,-37.7 -1.2,-56.5c-0.4,-19 -0.8,-38 -1.2,-57c-0.2,-9.5 -0.4,-18.9 -0.6,-28.3c-0.1,-4.3 0.2,-8.9 -1,-13.1c-0.9,-3.4 -3.9,-7.8 -7.7,-6.7c-2.4,0.7 -3.9,3.5 -4.8,5.8c-0.8,2 -1.4,4.2 -1.9,6.4c-0.7,3.2 -1,6.4 -1.2,9.7c-0.5,8.9 -0.1,17.9 0.5,26.8c0.7,10.8 1.7,21.6 2.6,32.4c1,11.1 1.9,22.2 2.4,33.3c0.5,9.8 0.7,19.6 0,29.4c-0.5,7.1 -1.4,14.7 -4.7,21c-1.2,2.4 -2.9,4.6 -5.1,6c-4.8,3.1 -11.8,2.8 -16.5,-0.5c-4.5,-3.1 -4.8,-9.2 -4.2,-14.5c0.8,-7.7 3.3,-15 5.4,-22.3c4.6,-15.6 7.4,-31.5 8.5,-47.8c0.8,-13.3 0.5,-26.7 0.8,-40.1c0.2,-11.6 1,-23.4 4.4,-34.6c1.7,-5.7 4.1,-11.2 7.1,-16.2c2.8,-4.7 5.9,-9.9 10.4,-12.8c2,-1.3 4.3,-1.9 6.6,-1c2.3,0.9 4,3 5.2,5.3c2.9,5.4 4.2,12 5.5,18.1c3.4,16 5.1,32.3 6.7,48.6c1.8,17.3 3.4,34.7 6.4,51.8c1.2,7.2 2.5,14.6 5,21.4c1.1,2.8 2.4,5.7 4.4,7.9c2,2.2 4.5,3 7.3,2.2c4.3,-1.2 8.2,-4.7 10.9,-8.4c3.2,-4.4 4.8,-10.2 4.6,-15.8c-0.1,-0.6 1.5,-0.2 1.5,0.3c0.1,5.1 -1.1,10.3 -3.7,14.6c-2.3,4 -6,7.4 -10,9.3c-2.4,1.2 -5.1,1.6 -7.7,0.7c-2.3,-0.8 -4.2,-2.5 -5.6,-4.6c-3.5,-5.2 -5,-11.9 -6.3,-18.1c-1.7,-8.3 -3.1,-16.7 -4.2,-25.2c-2.3,-17.1 -3.7,-34.3 -5.6,-51.5c-0.9,-8.1 -1.9,-16.2 -3.3,-24.2c-1.2,-7 -2.6,-14.2 -4.7,-21c-0.9,-2.8 -2,-5.7 -3.7,-8.1c-0.8,-1 -1.7,-2 -2.9,-2.5c-1.1,-0.4 -2.4,-0.2 -3.5,0.3c-2.6,1.1 -4.7,3.5 -6.5,5.7c-1.7,2.1 -3.2,4.4 -4.6,6.8c-6,9.9 -9.4,21.1 -10.8,32.8c-1.5,12.3 -1.2,24.7 -1.3,37c-0.1,14.7 -0.8,29.3 -3.2,43.8c-1.4,8.4 -3.3,16.7 -5.7,24.9c-2.1,7.3 -4.5,14.6 -5.6,22.2c-0.7,5.5 -0.8,12.5 4.5,15.4c4.6,2.6 11.1,1.8 15,-2c4.3,-4.2 5.9,-11.1 6.9,-17c1.5,-9 1.6,-18.2 1.4,-27.2c-0.2,-10.9 -0.9,-21.8 -1.8,-32.7c-0.9,-11.1 -1.9,-22.2 -2.8,-33.3c-0.7,-9.6 -1.4,-19.2 -1.4,-28.9c-0.1,-7.3 0.3,-14.6 2.4,-21.6c0.8,-2.5 1.8,-5.1 3.5,-7c1.9,-2 4.5,-2.3 6.9,-1.3c7.5,2.9 7,12.6 7.2,19.6c0.4,19 0.8,37.8 1.2,56.8c0.4,19 0.8,37.9 1.2,56.8c0.4,19 0.8,38 1.2,57z" fill="#e09438"/><path d="M496.7,-21.8c0.4,0.4 -1.1,0.2 -1.5,-0.1c-2.2,-2.4 -5.3,-1.5 -7.8,-0.1c-4.5,2.5 -7.8,7 -10.9,11.1c-3.3,4.3 -6.3,8.9 -9,13.7c-5.4,9.4 -9.6,19.5 -12.8,30c-6.5,21.2 -8.5,43.8 -6.6,66c2.2,25.1 9.9,49.1 18.7,72.3c9.4,24.4 20.1,48.1 27.8,73.2c7.7,24.9 12.4,51.3 9.2,77.6c0,0.4 -1.6,0 -1.5,-0.5c0.4,-3.4 0.7,-6.8 0.9,-10.2c1.3,-27.6 -5.5,-54.8 -14.4,-80.4c-8.8,-25.3 -20,-49.5 -28.8,-74.8c-8.1,-23.4 -13.9,-47.8 -14,-73c0,-22.8 4.1,-45.7 12.9,-66.3c4.4,-10.2 9.9,-19.8 16.5,-28.5c3.1,-4.1 6.3,-8.6 10.8,-11c3.5,-1.9 7.6,-2.3 10.5,1z" fill="#e09438"/><path d="M0,360v-360h587.8v360z" fill="none"/><path d="M1.2,360.8c0,-3.5 0,-65.5 0,-65.5h478.8v65.5z" id="XMLID_1101_" fill="#603030"/><path d="M1.2,302.6c0,-0.6 0,-8.9 0,-8.9h478.8v8.9z" id="XMLID_4613_" fill="#aa2e2e"/><path d="M0,360v-360h587.8v360z" fill="none"/><path d="M269.8,125.1v-9.1h158.3v9.1z" fill="#000000" opacity="0.35"/><path d="M266.8,122.6v-9.1h158.3v9.1z" fill="#a33c3c"/></g></g></svg>