<?xml version="1.0" encoding="utf-8"?>
<!-- Generator: Adobe Illustrator 22.1.0, SVG Export Plug-In . SVG Version: 6.00 Build 0)  -->
<svg version="1.1" id="图层_1" xmlns="http://www.w3.org/2000/svg" xmlns:xlink="http://www.w3.org/1999/xlink" x="0px" y="0px"
	 width="480px" height="360px" viewBox="0 0 480 360" enable-background="new 0 0 480 360" xml:space="preserve">
<g opacity="0.2">
	<g>
		<polygon fill="#050505" points="399.7,318.6 88.3,300.5 109.5,42 420.9,60.1 		"/>
		<polygon fill="#050505" points="379.4,252.5 119.2,237.4 133.3,65 393.5,80.1 		"/>
		<polygon fill="#050505" points="126.3,151.2 149.4,130.9 163.9,162.4 228.6,157.1 249.9,184.5 286.2,160.5 306.1,179.7 
			320.3,162.5 342.3,181.8 386.3,168.6 379.4,252.5 119.2,237.4 		"/>
		<polygon fill="#050505" points="122.2,201.5 165.3,119.2 224.5,207.4 254.6,180.3 284.2,210.9 342.7,151.1 384,196.8 379.4,252.5 
			119.2,237.4 		"/>
		<path fill="#050505" d="M259.8,116.6c-0.9,10.4-11.6,18.3-23.9,17.5c-12.4-0.7-21.7-9.7-20.8-20.1c0.9-10.4,11.6-18.3,23.9-17.5
			C251.3,97.1,260.7,106.2,259.8,116.6z"/>
		<path fill="#050505" d="M349.9,120.9c-0.8-4.2-3.9-7.5-12-8.1c0,0,0,0,0,0c3.2-5.8-3.5-10.8-10.4-11.2c-5.9-0.3-10.5,2.9-12.2,7.4
			c-0.1,0,0.1,0,0,0c-6.2-0.4-11.4,3.6-11.8,8.8c0,0.2-0.3,0.3-0.3,0.5L349.9,120.9z"/>
	</g>
	<polygon opacity="0.4" fill="#050505" points="91.9,81.3 79.5,62.4 150.7,29.3 163,48.3 	"/>
	<polygon opacity="0.4" fill="#050505" points="379.9,67.9 397.7,52.3 440.1,86.6 422.4,102.1 	"/>
	<polygon opacity="0.4" fill="#050505" points="57.7,287.2 75.4,271.7 130.1,315.8 112.4,331.4 	"/>
	<polygon opacity="0.4" fill="#050505" points="414.5,287 422,307.7 370,321.1 362.5,300.4 	"/>
</g>
<g>
	<g>
		<polygon fill="#FFFFFF" points="382,318.6 70.6,300.5 91.8,42 403.2,60.1 		"/>
		<polygon fill="#71CBF4" points="361.7,252.5 101.5,237.4 115.7,65 375.8,80.1 		"/>
		<polygon fill="#7F7B9A" points="108.6,151.2 131.7,130.9 146.2,162.4 210.9,157.1 232.2,184.5 268.5,160.5 288.4,179.7 
			302.6,162.5 324.6,181.8 368.6,168.6 361.7,252.5 101.5,237.4 		"/>
		<polygon fill="#597085" points="104.5,201.5 147.6,119.2 206.8,207.4 236.9,180.3 266.5,210.9 325,151.1 366.3,196.8 361.7,252.5 
			101.5,237.4 		"/>
		<path fill="#E5DC9E" d="M242.1,116.6c-0.9,10.4-11.6,18.3-23.9,17.5c-12.4-0.7-21.7-9.7-20.8-20.1c0.9-10.4,11.6-18.3,23.9-17.5
			C233.6,97.1,243,106.2,242.1,116.6z"/>
		<path fill="#FFFFFF" d="M332.2,120.9c-0.8-4.2-3.9-7.5-12-8.1c0,0,0,0,0,0c3.2-5.8-3.5-10.8-10.4-11.2c-5.9-0.3-10.5,2.9-12.2,7.4
			c-0.1,0,0.1,0,0,0c-6.2-0.4-11.4,3.6-11.8,8.8c0,0.2-0.3,0.3-0.3,0.5L332.2,120.9z"/>
	</g>
	<polygon opacity="0.4" fill="#A33C3C" points="74.2,81.3 61.8,62.4 133,29.3 145.3,48.3 	"/>
	<polygon opacity="0.4" fill="#A33C3C" points="362.2,67.9 380,52.3 422.4,86.6 404.7,102.1 	"/>
	<polygon opacity="0.4" fill="#A33C3C" points="40,287.2 57.7,271.7 112.4,315.8 94.7,331.4 	"/>
	<polygon opacity="0.4" fill="#A33C3C" points="396.8,287 404.3,307.7 352.3,321.1 344.8,300.4 	"/>
</g>
</svg>
