<?xml version="1.0" encoding="utf-8"?>
<!-- Generator: Adobe Illustrator 22.1.0, SVG Export Plug-In . SVG Version: 6.00 Build 0)  -->
<svg version="1.1" id="图层_1" xmlns="http://www.w3.org/2000/svg" xmlns:xlink="http://www.w3.org/1999/xlink" x="0px" y="0px"
	 width="480px" height="360px" viewBox="0 0 480 360" enable-background="new 0 0 480 360" xml:space="preserve">
<path fill="#FFFFFF" d="M75.2,200.7c-0.2,0.1-0.3,0.2-0.4,0.3c0-0.2-0.1-0.5-0.2-0.7C75.1,200.4,75.5,200.5,75.2,200.7z"/>
<path fill="#FFFFFF" d="M363.8,161.8c-0.3,1.1-0.6,2.1-1,3.2c-0.1,0.3-0.2,0.6-0.3,0.9c-1.9,5.9-4.3,11.8-7.3,17.3
	c-0.3,0.5-0.6,1-0.9,1.5c-4.4,7.5-10,14.3-17.2,19.3c-6.3,4.3-13.3,6.9-20.6,8.1c-9.3,1.6-19.2,1-28.4-1.1
	c-18.8-4.2-35.8-13.9-53-22.4c-1.1-0.6-2.3-1.1-3.4-1.7c-0.1-0.1-0.3-0.1-0.4-0.2c-0.2-0.1-0.4-0.2-0.6-0.3h0
	c-0.3-0.1-0.6-0.3-1-0.4c-1.1-0.5-2.2-1.1-3.3-1.6c-18.6-8.8-37.4-17-56.5-24.7c-9-3.6-18-7.2-27-10.6c-0.8-0.3-1.5-0.6-2.3-0.9
	c-3.6-1.4-7.1-2.7-10.7-4c-0.4-0.2-0.8-0.3-1.3-0.5c-5-1.9-10-3.7-15-5.6c-1.9-0.7-3.9-1.4-5.8-2.1c-2-0.7-4-1.5-6-2.2
	c-7.7-2.8-15.3-5.6-23-8.3c0.1-0.3,0.2-0.5,0.3-0.8c7.7,2.8,15.4,5.5,23,8.3c3.9,1.4,7.8,2.8,11.7,4.3c5.4,2,10.7,4,16.1,6
	c0.5,0.2,0.9,0.3,1.4,0.5c2.8,1,5.6,2.1,8.4,3.2c0.8,0.3,1.7,0.7,2.6,1c0,0,0,0,0,0c21.6,8.3,43.2,16.9,64.3,26.3
	c6.8,3,13.5,6.1,20.1,9.3c1,0.5,1.9,0.9,2.9,1.4c0.5,0.2,0.9,0.4,1.4,0.7c0.1,0.1,0.3,0.1,0.4,0.2c0.2,0.1,0.5,0.2,0.7,0.3
	c1.1,0.5,2.2,1.1,3.3,1.6c0.6,0.3,1.3,0.6,1.9,0.9c10.3,5,20.3,10.5,30.9,14.9c15,6.3,32.4,10.7,48.6,7.7c6.2-1.2,12.2-3.4,17.8-7.1
	c8.7-5.6,15.1-13.8,19.8-22.9c0.3-0.5,0.5-1.1,0.8-1.6c2.4-4.8,4.3-9.8,5.9-14.8c0.1-0.3,0.2-0.6,0.3-1c0.8-2.8,1.6-5.7,2.2-8.5
	c4.9-21.5,4.2-44-1.4-65.2c-0.6-2.4-0.7-2.9-1.9-6.5c0.8,0.8,1.6,1.7,2.4,2.5c0.9,2.9,1.5,5.1,2.2,8.1
	C370.1,116.5,370,139.8,363.8,161.8z"/>
<path fill="#FFFFFF" d="M213.2,117.1c-8.1,7.3-18.3,11.8-29.2,12.8c-10.9,1-21.3-1.9-31-6.8c-8.8-4.4-16.9-10.1-25.5-14.9
	c-2.8-1.6-5.8-3.1-8.8-4.4c-0.2-0.1-0.4-0.2-0.7-0.3c-8.7-3.8-18.7-5.7-27.8-3.7c0.2-0.4,0.4-0.7,0.6-1c9.2-1.7,19.1,0.6,28.3,4.5
	c3.1,1.3,6,2.7,8.9,4.2c2.5,1.3,4.9,2.7,7.1,4.1c12.1,7.3,24.3,15.8,38.7,17.6c13.8,1.7,27.7-3.1,38-12.4
	C212.1,116.6,213.6,116.7,213.2,117.1z"/>
<path fill="#FFFFFF" d="M345.5,70.5c0,0.2,0.6-0.6,0.5-0.4c0,0.1,0,0.2,0,0.3c0,0.3-0.1,0.5-0.1,0.8c-0.5,3-1,6-1.6,9
	c-1.1,5.8-2,13.3-6.6,17.4c-2,1.8-4.8,2.9-7.6,3.1c-2.3,0.2-4.7-0.1-6.8-1c-5.9-2.5-6.4-8.2-6.3-13.8c0-0.3,0-0.5,0-0.8
	c0.1-5.1-0.5-9.3-3.4-13.6c-5.6-8.3-15.3-13.4-24.2-17.4c-15.1-6.8-31.5-11.3-47.8-14.3c-0.9-0.2-1.9-0.3-2.8-0.5
	c-13.8-2.3-28-3.1-41.9-1.8c-17,1.5-32.9,6.4-48.3,13.4c-9.7,4.4-19.4,8.7-29.3,12.4c0,0,0,0,0,0c0.4-0.4,0.8-0.8,1.3-1.2
	c0,0,0.1-0.1,0.1-0.1c0,0,0,0,0,0c11.6-4.5,22.8-10,34.3-14.8c27.9-11.6,58.5-13.3,88-8.1c14.1,2.5,28,6.5,41.3,11.7
	c9.1,3.6,18.3,7.9,25.7,14.5c2.9,2.6,5.6,5.7,7.2,9.3c1.9,4.2,1.4,8.5,1.5,12.9c0,0.8,0,1.6,0.1,2.4c0.3,4.2,1.9,7.7,6,9.4
	c1.7,0.7,3.4,1,5,0.9c4-0.2,7.7-2.8,9.6-6.7c2.8-5.7,3.6-12.9,4.6-19.1c0.2-1.4,0.4-2.8,0.6-4.2c0-0.2,0.1-0.4,0.1-0.7
	c0-0.3,0.1-0.5,0.1-0.8c0,0,0-0.1,0-0.1C345.2,68.8,345.1,70.1,345.5,70.5z"/>
<path fill="#FFFFFF" d="M401.3,195c-10-1.3-20.2-0.8-30,1.9c-5,1.4-10,3.2-14.6,5.7c-3.1,1.6-7.3,3.9-7.1,8.1c0.2,4,4.4,6.7,7.3,8.7
	c3.9,2.7,8,5.4,12.5,7c6.9,2.4,15.1,2.2,20.3-3.6c0.3-0.4-1.1-1-1.4-0.6c-6.6,7.3-16.7,5.3-24.4,0.9c-5.5-3.1-18.2-10.4-9.8-17.3
	c5.6-4.6,14.2-7.1,21.2-8.7c8.6-2,17.5-2.3,26.2-1.2C402.6,195.9,402,195.1,401.3,195L401.3,195z"/>
<path fill="#FFFFFF" d="M174.2,320.4c0.4,0.6,0.9,1.3,1.4,1.9c-0.9-0.4-1.8-0.9-2.7-1.3c-2.8-3.9-5-8.2-7-12.6
	c-4.8-11-7.7-23.2-10.8-34.4c-0.2-0.6-0.3-1.1-0.5-1.7c-5.7-19.6-15.8-42.6-36.7-48.6c-2.1-0.6-4.4-1-6.8-1.3
	c-5.4-0.5-10.9,0-16.1,1.4c-4,1-7.9,2.5-11.7,4.2c-0.1-0.3-0.3-0.6-0.4-1c3.8-1.7,7.8-3,11.9-4c2.7-0.6,5.4-1.1,8.1-1.3
	c5.3-0.5,10.2,0.1,14.8,1.4c13.7,3.9,24.3,14.9,30.9,28.4c3.3,6.7,5.6,13.7,7.6,20.8c0,0.1,0.1,0.2,0.1,0.4c0.1,0.4,0.2,0.8,0.3,1.2
	c3.3,11.9,6.1,24.1,11.2,35.3c0,0,0,0,0,0C169.7,313,171.7,316.8,174.2,320.4z"/>
<path fill="#3C4157" d="M302.8,278.1c-3.6,2.5-6.7,5.6-8.7,9.5c-3.2,6.3-3,13.7-0.3,20.2c6.6-2.8,12.9-6.1,19-9.7
	c0.4-0.2,0.8-0.5,1.1-0.7c9.6-5.8,18.5-12.6,26.5-20.3c0.4-0.3,0.7-0.7,1.1-1c4.1-4,8-8.2,11.7-12.6c-7.8,1-15.5,2.5-23.1,4.4
	C321.4,270.2,310.7,272.6,302.8,278.1z"/>
<path fill="#3C4157" d="M386.9,170.8c0,2.6-0.1,5.2-0.2,7.8c0,0.3,0,0.5,0,0.7c-0.3,5.2-0.9,10.2-1.7,15.2c0,0.3-0.1,0.6-0.1,0.8
	c-1.9,10.9-5,21.4-9.2,31.4c-0.1,0.3-0.2,0.5-0.3,0.8c-1,2.4-2.2,4.8-3.3,7.2c-0.2,0.3-0.3,0.6-0.5,0.9
	c-4.8,9.6-10.8,18.7-17.6,27.1c-13.6,1.7-27.2,4.6-40.1,9.2c-2.1,0.7-4.2,1.6-6.3,2.6c-1,0.5-2,1-3,1.6c0,0,0,0,0,0
	c-1.9,1.1-3.7,2.3-5.4,3.7c-0.9,0.7-1.7,1.5-2.5,2.3c-3.6,3.7-6,8.4-6.3,14.3c-0.2,4.1,0.6,8.2,2.2,12c-11.1,4.6-22.9,8.1-35.2,10.2
	l-1.1,0.2c-8.7,1.4-17.7,2.2-26.8,2.2c-10,0-19.7-0.9-29.2-2.6c-0.6-0.1-1.2-0.2-1.8-0.3c-10.5-2-20.7-5-30.4-8.9c0,0,0,0,0,0
	c-0.6-0.3-1.3-0.5-2-0.8c-10.6-4.4-20.6-9.9-29.8-16.4c0,0,0,0,0,0c-0.4-0.3-0.8-0.6-1.2-0.8c-0.2-0.1-0.4-0.3-0.6-0.4c0,0,0,0,0,0
	c-0.3-0.2-0.6-0.4-0.9-0.6c-1.9-1.4-3.8-2.8-5.6-4.3c0,0,0,0,0,0c-4.4-3.5-8.7-7.3-12.7-11.3c-2.6-2.6-5.1-5.3-7.5-8.1
	c-1.6-1.8-3.2-3.7-4.7-5.7c-0.8-1-1.5-1.9-2.2-2.9c-0.4-0.5-0.7-1-1.1-1.5c-1.1-1.5-2.1-3-3.2-4.5c-0.4-0.6-0.8-1.2-1.2-1.8
	c-0.1-0.2-0.3-0.4-0.4-0.6c-0.5-0.7-1-1.5-1.4-2.2c-3.8-6.1-7.2-12.5-10-19.2c-0.1-0.3-0.3-0.6-0.4-1c-0.6-1.5-1.3-3-1.8-4.5
	c-0.4-1.1-0.9-2.3-1.3-3.5c-2.1-5.8-3.8-11.8-5.1-18c0-0.2-0.1-0.5-0.2-0.7c-0.8-3.9-1.5-7.8-1.9-11.8c-0.1-0.4-0.1-0.7-0.1-1.1
	c-0.6-5.4-1-11-1-16.5c0-15.8,2.6-31,7.3-45.4c0.1-0.3,0.2-0.5,0.3-0.8c0.2-0.7,0.5-1.3,0.7-2c0.4-1.2,0.9-2.3,1.3-3.5
	c2.6-6.7,5.6-13.1,9.1-19.3c0.2-0.4,0.4-0.7,0.6-1c0.8-1.5,1.7-2.9,2.6-4.3c0.6-1,1.3-2.1,2-3.1c0.4-0.6,0.8-1.3,1.3-1.9
	c0.4-0.5,0.8-1.1,1.1-1.6l0,0c0.6-0.8,1.2-1.7,1.8-2.5c0.4-0.5,0.7-1,1.1-1.5c0.7-1,1.5-2,2.2-2.9c1.5-1.9,3.1-3.8,4.7-5.7
	c2.4-2.8,4.9-5.5,7.5-8.1c1.3-1.3,2.7-2.6,4.1-3.9c0,0,0,0,0,0c0.4-0.4,0.8-0.8,1.2-1.1c0,0,0.1-0.1,0.1-0.1c0,0,0,0,0,0
	c13.5-12.2,29.2-22.1,46.5-29.2c0,0,0,0,0,0c1.2-0.5,2.5-1,3.7-1.5c0,0,0,0,0,0c0.2-0.1,0.3-0.1,0.5-0.2
	c17.9-6.7,37.4-10.4,57.8-10.4c45.5,0,86.4,18.3,115.2,47.6c0.1,0.1,0.2,0.2,0.3,0.3c0.5,0.5,0.9,1,1.4,1.4c0.3,0.3,0.5,0.6,0.8,0.8
	c1,1.1,2,2.2,3,3.3c4.5,5.1,8.6,10.4,12.4,16.1c0.9,1.4,1.8,2.7,2.7,4.1c6.5,10.4,11.7,21.6,15.4,33.5c0.3,0.9,0.6,1.9,0.8,2.8
	c3.3,11.2,5.2,22.9,5.6,35c0,0.4,0,0.9,0,1.3C386.8,168.3,386.9,169.6,386.9,170.8z"/>
<path fill="#FFFFFF" d="M307.5,274.6c-1,0.5-2,1-3,1.6c0,0,0,0,0,0c-1.9,1.1-3.7,2.3-5.4,3.7c-0.9,0.7-1.7,1.5-2.5,2.3
	c-3.6,3.7-6,8.4-6.3,14.3c-0.2,4.1,0.6,8.2,2.2,12c0.5-0.2,0.9-0.4,1.4-0.6c-2.6-6.5-2.9-13.9,0.3-20.2c2-4,5.1-7.1,8.7-9.5
	c7.9-5.5,18.6-7.9,27.3-10.1c7.6-1.9,15.3-3.4,23.1-4.4c0.2-0.3,0.4-0.5,0.6-0.8c-13.6,1.7-27.2,4.6-40.1,9.2
	C311.6,272.8,309.5,273.6,307.5,274.6z"/>
<path fill="#FFFFFF" d="M137.1,295.4c-0.7-0.6-1.3-1.3-2-1.9c-0.3-0.9-0.5-1.9-0.8-2.8c0,0,0,0,0,0c-2.2-7.5-5-14.7-9.3-21.3
	c-4.7-7.3-11.1-13.9-19.2-17.2c-0.2-0.1-0.4-0.2-0.6-0.3c-3.1-1.2-6.6-2-10-1.9c-0.1-0.2-0.3-0.4-0.4-0.6c0.4,0,0.7,0,1,0
	c3.1,0.1,6,0.7,8.9,1.7c4.9,1.7,9.5,4.6,13.3,8.2c9.6,8.9,14.4,20.6,18,32.8c0,0,0,0,0,0C136.5,293.1,136.8,294.3,137.1,295.4z"/>
<path opacity="0.15" fill="#040000" d="M198.3,318.1c-10.5-2-20.7-5-30.4-8.9c0,0,0,0,0,0c-0.6-0.3-1.3-0.5-2-0.8
	c-10.6-4.4-20.6-9.9-29.8-16.4c-0.4-0.3-0.8-0.6-1.2-0.8c-0.2-0.1-0.4-0.3-0.6-0.4c-0.3-0.2-0.6-0.4-0.9-0.7
	c-1.9-1.4-3.8-2.8-5.6-4.3c2.3,2.7,4.8,5.2,7.3,7.7c0.7,0.7,1.3,1.3,2,1.9c10.6,10,22.6,18.7,35.8,25.5c0.9,0.5,1.8,0.9,2.7,1.3
	c4.2,2.1,8.5,4,12.9,5.7C191.3,324.3,194.5,320.9,198.3,318.1z"/>
<path opacity="0.15" fill="#040000" d="M404.5,181.6c0-0.3,0-0.6,0-0.9c-0.2-4.6-0.6-9.2-1.3-13.7c-0.1-0.4-0.1-0.8-0.2-1.1
	c-2.7-18.1-8.9-35.2-17.8-50.6c-0.2-0.4-0.5-0.8-0.7-1.2c-6.5-11-14.4-21.1-23.5-30.2c-0.8-0.8-1.6-1.5-2.3-2.3
	c-3.3-3.1-6.7-6.2-10.3-9c4.5,5.1,8.6,10.4,12.4,16.1c0.9,1.4,1.8,2.7,2.7,4.1c6.5,10.4,11.7,21.6,15.4,33.5
	c0.3,0.9,0.6,1.9,0.8,2.8c3.3,11.2,5.2,22.9,5.6,35c0,0.4,0,0.9,0,1.3c0,1.3,0,2.5,0,3.8c0,2.6-0.1,5.2-0.2,7.8c0,0.3,0,0.5,0,0.7
	c-0.3,5.2-0.9,10.2-1.7,15.2c0,0.3-0.1,0.6-0.1,0.8c-1.9,10.9-5,21.4-9.2,31.4c-0.1,0.3-0.2,0.5-0.3,0.8c-1,2.4-2.2,4.8-3.3,7.2
	c-0.2,0.3-0.3,0.6-0.5,0.9c-4.8,9.6-10.8,18.7-17.6,27.1c-0.2,0.3-0.4,0.5-0.6,0.8c-3.6,4.4-7.5,8.6-11.7,12.6c0,0,0,0,0,0
	c4.9-0.4,9.7,0.5,14.1,3.2c0.9,0.6-0.5,0.5-1,0.2c-4.5-2.8-9.4-3.2-14.2-2.4c-8,7.6-16.9,14.4-26.5,20.2c1.2,3.7,5,6.6,9.2,7.7
	c7.3,1.8,15.1-1.3,22.5-1.2c0.4,0,1.7,0.8,0.9,0.8c-8.8-0.1-18.1,3.7-26.5,0c-3.1-1.4-5.8-3.7-7.2-6.6c0,0,0,0,0,0
	c-6.1,3.6-12.4,6.9-19,9.7c-0.5,0.2-0.9,0.4-1.4,0.6c-11.1,4.6-22.9,8.1-35.2,10.2c2.4,1.8,4.6,3.8,6.7,6.1c0.4,0.4-1.1,0.2-1.4-0.1
	c-2-2.1-4.1-4.1-6.4-5.8c-8.7,1.4-17.7,2.2-26.8,2.2c-10,0-19.7-0.9-29.2-2.6c-3.8,2.9-7.3,6.3-10.1,10.2c14.9,5.7,31,9.3,47.8,10.3
	c1,0.1,2,0.1,3,0.2c2.5,0.1,5.1,0.2,7.7,0.2c24.2,0,47.2-5.2,67.7-14.5c0.5-0.2,0.9-0.4,1.3-0.6c43.5-20.2,75.8-59,85.6-105.5
	c0.1-0.6,0.2-1.1,0.3-1.7c1.8-9,2.7-18.3,2.7-27.8C404.6,185.5,404.6,183.5,404.5,181.6z"/>
<path opacity="0.15" fill="#040000" d="M200,318.4c-0.6-0.1-1.2-0.2-1.8-0.3c-3.7,2.8-7,6.2-9.8,10c0.5,0.2,1,0.4,1.5,0.6
	C192.8,324.7,196.2,321.3,200,318.4z"/>
<path fill="none" d="M104.8,251c-4.1-8.7-7.4-17.8-9.8-27.3c-0.1-0.3-0.1-0.5-0.2-0.8c-2.6-10.9-4-22.2-4-33.8
	c0-3.9,0.2-7.8,0.5-11.6c0-0.3,0-0.6,0.1-0.9c1.3-15,4.9-29.4,10.5-42.8c0.1-0.3,0.2-0.5,0.3-0.8c4.4-10.3,9.9-20.1,16.5-29.2
	c0.1-0.2,0.3-0.4,0.4-0.5c7.8-10.7,17.1-20.4,27.5-28.8c0.5-0.4,1-0.8,1.4-1.1c25-19.7,56.4-32.1,90.8-34.1c1.4-0.1,2.7-0.1,4.1-0.2
	c1.8-0.1,3.7-0.1,5.5-0.1c19.7,0,38.6,3.5,56,9.8c0,0,0.1,0,0.1,0c11,4,21.4,9.1,31,15.2c3,1.9,6,3.9,8.9,6c0.5,0.3,1,0.7,1.4,1.1
	c1.3,1,2.7,2,4,3.1c-1-1.1-2-2.2-3-3.3c-0.3-0.3-0.5-0.5-0.8-0.8c-0.5-0.5-0.9-1-1.4-1.4c-0.1-0.1-0.2-0.2-0.3-0.3
	C315.6,39,274.7,20.7,229.2,20.7c-20.4,0-39.9,3.7-57.8,10.4c-0.2,0.1-0.4,0.1-0.5,0.2c-1.3,0.5-2.5,1-3.7,1.5c0,0,0,0,0,0
	c-17.3,7.1-33,17-46.5,29.2c0,0,0,0,0,0c0,0-0.1,0.1-0.1,0.1c-0.4,0.4-0.8,0.8-1.3,1.2c-1.4,1.3-2.7,2.6-4.1,3.9
	c-2.6,2.6-5.1,5.3-7.5,8.1c-1.6,1.9-3.2,3.8-4.7,5.7c-0.8,1-1.5,1.9-2.2,2.9c-0.4,0.5-0.7,1-1.1,1.5c-0.6,0.8-1.2,1.7-1.8,2.5l0,0
	c-0.4,0.5-0.8,1.1-1.1,1.6c-0.4,0.6-0.9,1.3-1.3,1.9c-0.7,1-1.3,2-2,3.1c-0.9,1.4-1.8,2.9-2.6,4.3c-0.2,0.3-0.4,0.7-0.6,1
	c-3.5,6.2-6.5,12.6-9.1,19.3c-0.4,1.2-0.9,2.3-1.3,3.5c-0.2,0.7-0.5,1.4-0.7,2c-0.1,0.3-0.2,0.5-0.3,0.8
	c-4.8,14.3-7.3,29.5-7.3,45.4c0,5.6,0.3,11.1,1,16.5c0,0.4,0.1,0.7,0.1,1.1c0.5,4,1.1,7.9,1.9,11.8c0.1,0.2,0.1,0.5,0.2,0.7
	c1.3,6.1,3,12.1,5.1,18c0.4,1.2,0.9,2.3,1.3,3.5c0.6,1.5,1.2,3,1.8,4.5c0.1,0.3,0.3,0.6,0.4,1c2.9,6.6,6.2,13.1,10,19.2
	c0.5,0.8,0.9,1.5,1.4,2.2h0c0.1,0.2,0.3,0.4,0.4,0.6c0.4,0.6,0.8,1.2,1.2,1.8c1,1.5,2.1,3,3.2,4.5c0.4,0.5,0.7,1,1.1,1.5
	c0.7,1,1.5,2,2.2,2.9c1.5,1.9,3.1,3.8,4.7,5.7c2.4,2.8,4.9,5.5,7.5,8.1c4,4,8.2,7.8,12.7,11.3c-9-10.2-16.6-21.6-22.5-33.8
	C105.1,251.6,104.9,251.3,104.8,251z"/>
<path opacity="0.15" fill="#040000" d="M214.1,311.1c-5.1,1.6-9.8,4.1-14,7.3c9.5,1.7,19.2,2.6,29.2,2.6c9.1,0,18.1-0.7,26.8-2.2
	C244.2,309.8,228.5,306.5,214.1,311.1z"/>
<path opacity="0.15" fill="#040000" d="M134.3,290.7c0.2,0.1,0.4,0.3,0.6,0.4c0.4,0.3,0.8,0.6,1.2,0.8c9.2,6.4,19.2,12,29.8,16.4
	c0.7,0.3,1.3,0.5,2,0.8c0,0,0,0,0,0c9.7,3.9,19.8,6.9,30.4,8.9c5.9-4.6,12.9-7.8,20.4-9.1c13.5-2.4,27.7,1.4,38.5,9.6
	c12.3-2.1,24.1-5.5,35.2-10.2c0.5-0.2,0.9-0.4,1.4-0.6c6.6-2.8,12.9-6.1,19-9.7c0,0,0,0,0,0c-1-2.2-1.2-4.7,0-7.4
	c3.3-7.1,13.9-10.7,20.7-13c2.6-0.9,5.3-1.4,8-1.6c0,0,0,0,0,0c4.1-4,8-8.2,11.7-12.6c0.2-0.3,0.4-0.5,0.6-0.8
	c6.8-8.4,12.7-17.4,17.6-27.1c0.2-0.3,0.3-0.6,0.5-0.9c1.2-2.4,2.3-4.8,3.3-7.2c0.1-0.3,0.2-0.5,0.3-0.8c4.2-10,7.3-20.5,9.2-31.4
	c0-0.3,0.1-0.6,0.1-0.8c0.8-5,1.4-10.1,1.7-15.2c0-0.2,0-0.5,0-0.7c0.1-2.6,0.2-5.1,0.2-7.8c0-1.3,0-2.5,0-3.8c0-0.4,0-0.9,0-1.3
	c-0.4-12.1-2.3-23.8-5.6-35c-0.3-0.9-0.5-1.9-0.8-2.8c-3.7-11.8-8.9-23.1-15.4-33.5c-0.9-1.4-1.8-2.8-2.7-4.1
	c-3.8-5.6-7.9-11-12.4-16.1c-1.3-1-2.6-2.1-4-3.1c-0.5-0.4-1-0.7-1.4-1.1c-2.9-2.1-5.8-4.1-8.9-6c-9.6-6.1-20-11.2-31-15.2
	c0,0-0.1,0-0.1,0c-17.4-6.3-36.3-9.8-56-9.8c-1.9,0-3.7,0-5.5,0.1c-1.4,0.1-2.8,0.1-4.1,0.2c-34.4,2-65.8,14.5-90.8,34.1
	c-0.5,0.4-1,0.8-1.4,1.1c-10.4,8.4-19.7,18.1-27.5,28.8c-0.1,0.2-0.3,0.4-0.4,0.5c-6.6,9-12.1,18.8-16.5,29.2
	c-0.1,0.3-0.2,0.5-0.3,0.8c-5.6,13.4-9.2,27.8-10.5,42.8c0,0.3,0,0.6-0.1,0.9c-0.3,3.8-0.5,7.7-0.5,11.6c0,11.6,1.4,23,4,33.8
	c0.1,0.3,0.1,0.5,0.2,0.8c2.3,9.5,5.6,18.6,9.8,27.3c0.1,0.3,0.3,0.6,0.4,0.9c5.9,12.3,13.5,23.6,22.5,33.8c0,0,0,0,0,0
	c1.8,1.5,3.7,2.9,5.6,4.3C133.7,290.3,134,290.5,134.3,290.7z"/>
<path opacity="0.15" fill="#040000" d="M314.8,290.4c-1.5,2.5-1.6,4.9-0.9,7c9.6-5.8,18.5-12.6,26.5-20.2c-4.2,0.7-8.5,2.3-12.3,4
	C323.4,283.4,317.6,285.8,314.8,290.4z"/>
<path fill="#FFFFFF" d="M218.6,309c-7.5,1.3-14.5,4.5-20.4,9.1c0.6,0.1,1.2,0.2,1.8,0.3c4.2-3.2,9-5.7,14-7.3
	c14.4-4.6,30.2-1.3,42,7.7l1.1-0.2C246.3,310.4,232.2,306.6,218.6,309z"/>
<path fill="#FFFFFF" d="M312.8,290.8c-1.2,2.6-1.1,5.2,0,7.4c0.4-0.2,0.8-0.5,1.1-0.7c0,0,0,0,0,0c-0.7-2.2-0.6-4.6,0.9-7
	c2.8-4.7,8.5-7.1,13.3-9.2c3.9-1.7,8.1-3.3,12.3-4c0,0,0,0,0,0c0.4-0.3,0.7-0.7,1.1-1c-2.7,0.2-5.4,0.8-8,1.6
	C326.7,280.1,316.1,283.7,312.8,290.8z"/>
<ellipse transform="matrix(0.9023 -0.4311 0.4311 0.9023 -53.0334 117.0469)" fill="#FFFFFF" cx="231.7" cy="175.5" rx="123.6" ry="124.2"/>
<path fill="#49576E" d="M253.8,249.2c-1.5-4.6-6-7.3-10.7-7.3c-6.8,0-12.9,4.9-16.7,10.1c-7.3,10.2-9,28.7,3.2,36.2
	c11.1,6.8,24.6-6.7,22.4-18.2c-2.5-12.9-22-9.6-21.7,3c0.1,5,4.9,9.2,10,8.4c5.3-0.9,6.4-7.9,2.1-10.8c-0.4-0.3-1.8-0.3-1,0.3
	c2.5,1.6,2.7,5,1.3,7.4c-0.6,1-1.5,1.7-2.6,2.1c-2.2-0.7-4.4-1.3-6.5-2c-1-0.9-1.4-2.5-1.6-3.8c-0.9-6,4.5-12.1,10.5-12.2
	c9.3-0.1,9.2,11,6.4,16.8c-2.3,4.6-7.2,10.5-13,10.3c-13.8-0.5-15.4-19.4-11.9-29.1c1.6-4.5,4.3-8.7,7.8-11.9c2-1.8,4.3-3.4,6.8-4.4
	c5.2-2.1,11.9-1,13.8,4.9C252.4,249.3,253.9,249.6,253.8,249.2L253.8,249.2z"/>
<path fill="#49576E" d="M313.4,145.2c5.5-3.4,13.4-4.1,18.1,1.2c2.5,2.8,3.7,7,3,10.7c-0.7,3.6-3.1,6.5-6.7,7.6
	c-2.2,0.7-8.3,0.8-9.1-2.2c-0.3-1.2-1-0.5,0.3-0.7c1.2-0.2,3.3,0.8,4.4,1.1c7,2.2,21.3,8.3,18.4,18c-1.1,3.8-4.9,6.2-8.6,6.7
	c-6.3,1-11.9-3.1-16.6-6.7c-0.3-0.3-1.9-0.4-1.2,0.1c4.5,3.5,9.6,7.2,15.5,7.6c4.8,0.4,10.5-1.9,12.2-6.7c2.1-5.7-2.7-10.8-7.1-13.7
	c-5.8-3.9-12.6-6.3-19.4-7.5c-0.2,0-0.8-0.1-0.6,0.3c5.5,8.7,20,5.1,20.1-5.6c0.1-12.8-14.9-16.6-24.2-10.8
	C311.6,144.8,313,145.5,313.4,145.2L313.4,145.2z"/>
<path fill="#49576E" d="M129.8,165.9c-1.9,0.2-3.2,2.2-1.3,3.6c1.8,1.4,4.8-0.2,6.3-1.3c7-4.6,13.3-15.7,5.5-22.7
	c-4.9-4.4-13.5-3-17.4,2.1c-6,7.8-1.2,18.3,6.6,22.5c4.6,2.4,14.2,1.5,14.8,7.9c0.6,7.1-1.8,15.3-3.9,21.9c-0.2,0.5,1.4,0.5,1.6,0
	c1.4-4.4,2.5-8.9,3.2-13.5c0.5-3.3,1.9-8.6-0.1-11.7c-1.6-2.4-4.8-2.5-7.3-3c-5-0.9-9.7-3.1-12.8-7.2c-2.7-3.6-3.7-8.6-2.4-12.9
	c2-6.6,10-10.6,15.9-6.1c3.9,2.9,4.6,8.6,3,12.9c-0.8,2.2-2.2,4.3-3.8,6c-0.8,0.9-1.8,1.8-2.7,2.4c-0.3,0.2-0.7,0.5-1,0.7
	c-4.2,1.7-5.5,1.3-4-1.2C130.8,166.5,130.7,165.8,129.8,165.9L129.8,165.9z"/>
<g>
	<path fill="#49576E" d="M202.2,61.2c1,10.4,1.9,20.9,2.9,31.3c0,0.5,1.6,0.7,1.6,0.3c-1-10.4-1.9-20.9-2.9-31.3
		C203.8,61,202.2,60.8,202.2,61.2L202.2,61.2z"/>
	<path fill="#49576E" d="M219.2,68.2c1.3-4.6,5-7.7,9.8-8c5.1-0.4,9.2,3,11.2,7.4c3.5,7.7-0.5,16.3-7.6,20.3
		c-2.9,1.6-8.6,2.5-10.7-0.7c-1.1-1.6-0.8-3.7,0-5.4c2.7-6,9.6-4.8,14.4-2.1c6.1,3.6,10.7,9.1,18,9.9c0.5,0.1,1.8-0.6,0.7-0.7
		c-10.3-1.1-16.7-14-27.7-12.4c-5.2,0.8-11.3,8.4-5.5,12.4c5.7,4,14.4-1.5,17.9-6.1c5.3-7,4.3-17.9-3.9-22.3
		c-6.8-3.6-16.2,0-18.2,7.5C217.5,68.7,219.1,68.6,219.2,68.2L219.2,68.2z"/>
</g>
<g>
	<path fill="#49576E" d="M230.6,187.5L230.6,187.5c-0.5,0-0.9-1.2-0.9-2.7v-74c0-1.5,0.4-2.7,0.9-2.7l0,0c0.5,0,0.9,1.2,0.9,2.7v74
		C231.6,186.3,231.2,187.5,230.6,187.5z"/>
	<g>
		<path fill="#49576E" d="M230.7,187.8L230.7,187.8c-0.3-0.1-0.1-1.2,0.5-2.3l23.5-44.6c0.6-1.1,1.2-1.8,1.6-1.7
			c0.3,0.1,0.1,1.2-0.5,2.3l-23.5,44.6C231.7,187.2,231,187.9,230.7,187.8z"/>
		<path fill="#49576E" d="M244.6,146.1c3.6-3.1,7.6-5.3,12.1-6.6c-0.4-0.1-0.9-0.3-1.3-0.4c0,4.5,0.1,8.9,0.1,13.4
			c0,0.5,1.6,0.6,1.6,0.2c0-4.5-0.1-8.9-0.1-13.4c0-0.5-1.1-0.5-1.3-0.4c-4.7,1.4-8.9,3.7-12.6,6.8
			C242.8,146,244.2,146.4,244.6,146.1L244.6,146.1z"/>
	</g>
	<path fill="#49576E" d="M224.5,120.4c-2.8-4-1.7-10,3.3-11.8c7.3-2.5,10.1,5.8,10.9,11c0.1,0.5,1.7,0.6,1.6,0.2
		c-0.8-5.8-3.6-12.3-10.3-12.4c-6.9-0.1-11,7.1-7,12.9C223.2,120.8,224.7,120.7,224.5,120.4L224.5,120.4z"/>
</g>
<circle fill="#3C4157" cx="231.1" cy="185.9" r="4.9"/>
<path opacity="0.16" fill="#3C4157" d="M345.5,126.5c-0.3,3.7-0.7,7.3-1.3,10.8c-2.8,16.5-8.2,32.5-14.7,47.9
	c-11.2,26.5-25.7,52.3-48,70.9c-26,21.6-61.3,34.7-95.1,27.9c-11.6-2.3-22.3-6.7-31.7-12.7c36.8,29.6,87.3,37.8,131,16.9
	C344.4,260,369.9,189.3,345.5,126.5z"/>
<path fill="#C5C6C9" d="M349.9,74.1c22,26,35.2,59.2,35.2,95.4c0,83.6-70.6,151.4-157.6,151.4c-39.9,0-76.3-14.2-104.1-37.7
	c28.9,34.2,73,56.1,122.4,56.1c87,0,157.6-67.8,157.6-151.4C403.4,142.5,382.7,101.9,349.9,74.1z"/>
</svg>
