<?xml version="1.0" encoding="utf-8"?>
<!-- Generator: Adobe Illustrator 22.1.0, SVG Export Plug-In . SVG Version: 6.00 Build 0)  -->
<svg version="1.1" id="图层_1" xmlns="http://www.w3.org/2000/svg" xmlns:xlink="http://www.w3.org/1999/xlink" x="0px" y="0px"
	 width="480px" height="360px" viewBox="0 0 480 360" enable-background="new 0 0 480 360" xml:space="preserve">
<path fill="#C37F54" d="M309.4,174.2c0,0,16.8-10.7,16.5-16s8.6-6.2,9.5,0c0.9,6.2-9,18.7-13,24.9c-3.9,6.2,3.9,17.8,3.5,30.3
	c-0.3,12.5-6.6,30.3-3.5,39.2c3.1,8.9,26.9,46.3,26.9,50.7s4.2,6.8-5.6,7.4c-9.8,0.6-15.1,2.1-15.1,0s0.3-11.3,4.5-11.9
	c4.2-0.6-1.6-12.5-3.2-15.1s-17.6-32.7-22.1-30.9c-4.5,1.8-4.8,3.9-2.1,9.5c2.7,5.6,20.2,41.9,20.2,41.9s-0.6,7.8-3.9,7.6
	c-3.3-0.2-21.4,0-21.4,0s-2.7-8.5,3.9-10.6s7.2-6.2,5.1-9.5S295,256.4,295,256.4h-50.8c0,0,1.5,42.2,3.9,49s0.9,8-9.5,7.7
	s-12.5,0-12.5,0s-3.6-5.4,6.2-9.2s5-20.2,5-20.2l-2.7-31.2c0,0-8.4-2.4-9.2,1.2c-0.9,3.6,0.6,50.2-2,52.9c-2.7,2.7-2.1,7.2-16,6.6
	s-10.7-10.1-9.8-10.1s8-0.6,12.5-3c4.5-2.4,8.6-49,8.6-49s-10.7-8.3-15.1-15.4c-4.5-7.1-3.9-52.9-4.2-55.2
	c-0.3-2.4-2.1-11.6-7.4-11.6s-9.2,9.2-26.4,13.1s-35.2-6.3-37.1-12.3c-2-6.3-2.7-17.7,1.4-23.6c4.2-5.9,20-19.6,45.1-18.4
	c2.4,0.1,2.4-0.2,2.4-0.2s0.6-3.7-5.6-5.5c-6.2-1.8-5.3-10.7-1.8-9.5s9.2,6.5,11.3,5.9c2.1-0.6-0.6-6.5-1.8-8.3
	c-1.2-1.8-0.3-31.5-2.4-33.3c-2.1-1.8-14.5-4.2-13.1-7.4c1.5-3.3,11.3-0.6,13.1,0c1.8,0.6,2.1-8.6,2.7-10.7s3-9.2,5.9-7.1
	c3,2.1,0.6,14.5,3.3,14.5c2.7,0,10.4-8.3,12.2-5.9c1.8,2.4-9.8,11.6-10.4,14.3s6.2,0.6,8.3,4.5s-11.6,1.8-11.9,4.2
	c-0.3,2.4-0.6,31.5,0.6,33.8c1.2,2.4,3.6,8.3,8.9,7.1s16-15.4,16-15.4l9.5-21.4c0,0,0.3-12.5-5-14.3c-5.3-1.8-0.6-6.2-0.6-6.2
	l11.6,3c0,0-5.9-19.4-2.4-19.4c3.6,0,6.8,19.1,10.4,19.7c3.6,0.6,5-10.7,8.3-8.3c3.3,2.4,2.1,12.2-2.1,14.8s10.4,4.2,9.5,7.1
	c-0.9,3-16-3.6-18.7-0.3c-2.7,3.3,4.2,4.5,5.8,9.8c1.6,5.3,1,9.2-4.6,5.6c-5.6-3.6-7.7,0.3-7.7,1.2c0,0.9-17.5,25.2-17.5,25.2
	s-7.1,2.4-0.3,3.9c6.8,1.5,12.5-3.9,12.8,0.9s-9.8,6.5-15.4,9.8s-1.8,9.8,5.6,18.7c7.4,8.9,7.7,15.1,49,15.4
	C302.1,174.1,309.4,174.2,309.4,174.2z"/>
<path fill="#E59C6B" d="M309.2,170.9c0,0,17-10.5,16.7-15.8s8.7-6.1,9.6,0c0.9,6.1-9.1,18.4-13.1,24.5c-4,6.1,3.9,17.5,3.6,29.8
	c-0.3,12.3-6.7,29.8-3.5,38.6c3.2,8.8,27.2,45.5,27.2,49.9s4.2,6.7-5.7,7.3c-9.9,0.6-15.3,2-15.3,0c0-2,0.3-11.1,4.5-11.7
	c4.2-0.6-1.6-12.3-3.2-14.9s-17.8-32.1-22.3-30.4c-4.5,1.8-4.8,3.8-2.1,9.3c2.7,5.6,20.5,41.2,20.5,41.2s-0.6,7.7-3.9,7.5
	c-3.3-0.2-21.6,0-21.6,0s-2.7-8.4,3.9-10.4c6.6-2,7.2-6.1,5.1-9.3c-2.1-3.2-14.7-34.8-14.7-34.8h-51.3c0,0,1.5,41.5,3.9,48.2
	s0.9,7.9-9.6,7.6c-10.5-0.3-12.6,0-12.6,0s-3.6-5.3,6.3-9.1c9.9-3.8,5.1-19.9,5.1-19.9l-2.7-30.7c0,0-8.5-2.3-9.3,1.2
	c-0.9,3.5,0.6,49.4-2.1,52s-2.1,7.1-16.2,6.5c-14.1-0.6-10.8-10-9.9-10c0.9,0,8.1-0.6,12.6-2.9s8.7-48.2,8.7-48.2
	s-10.8-8.2-15.3-15.2c-4.5-7-3.9-52-4.2-54.3s-2.1-11.4-7.5-11.4c-5.4,0-9.3,9.1-26.7,12.9c-17.4,3.8-32.4-6.1-35.7-11.7
	c-3.5-6.1-4.6-17.8-0.4-23.7s20.3-19.3,45.6-18.1c2.4,0.1,2.4-0.2,2.4-0.2s0.6-3.6-5.7-5.4s-5.4-10.5-1.8-9.3s9.3,6.4,11.4,5.8
	c2.1-0.6-0.6-6.4-1.8-8.2c-1.2-1.8-0.3-31-2.4-32.7c-2.1-1.8-14.7-4.1-13.2-7.3c1.5-3.2,11.4-0.6,13.2,0c1.8,0.6,2.1-8.5,2.7-10.5
	c0.6-2,3-9.1,6-7s0.6,14.3,3.3,14.3s10.5-8.2,12.3-5.8c1.8,2.3-9.9,11.4-10.5,14c-0.6,2.6,6.3,0.6,8.4,4.4c2.1,3.8-11.7,1.8-12,4.1
	c-0.3,2.3-0.6,31,0.6,33.3c1.2,2.3,3.6,8.2,9,7c5.4-1.2,16.2-15.2,16.2-15.2l9.6-21c0,0,0.3-12.3-5.1-14c-5.4-1.8-0.6-6.1-0.6-6.1
	l11.7,2.9c0,0-6-19.1-2.4-19.1s6.9,18.8,10.5,19.4s5.1-10.5,8.4-8.2s2.1,12-2.1,14.6c-4.2,2.6,10.5,4.1,9.6,7
	c-0.9,2.9-16.2-3.5-18.9-0.3c-2.7,3.2,4.3,4.4,5.9,9.6s1,9.1-4.7,5.6c-5.7-3.5-7.8,0.3-7.8,1.2c0,0.9-17.7,24.8-17.7,24.8
	s-7.2,2.3-0.3,3.8c6.9,1.5,12.6-3.8,12.9,0.9c0.3,4.7-9.9,6.4-15.6,9.6s-1.8,9.6,5.7,18.4c7.5,8.8,7.8,14.9,49.5,15.2
	S309.2,170.9,309.2,170.9z"/>
<ellipse fill="#3F1C0E" cx="175.2" cy="133.2" rx="1.5" ry="2.6"/>
<ellipse fill="#3F1C0E" cx="184.3" cy="140.3" rx="1.5" ry="2.6"/>
<ellipse fill="#C48154" cx="137.2" cy="154.3" rx="1.5" ry="1.2"/>
<ellipse fill="#C48154" cx="144.1" cy="160" rx="1.5" ry="1.2"/>
</svg>
