<svg version="1.1" xmlns="http://www.w3.org/2000/svg" xmlns:xlink="http://www.w3.org/1999/xlink" width="89.13819" height="168.7" viewBox="0,0,89.13819,168.7"><g transform="translate(-195.4309,-95.65)"><g data-paper-data="{&quot;isPaintingLayer&quot;:true}" fill-rule="nonzero" stroke="none" stroke-width="1" stroke-linecap="butt" stroke-linejoin="miter" stroke-miterlimit="10" stroke-dasharray="" stroke-dashoffset="0" style="mix-blend-mode: normal"><g><g><g fill="#333332"><path d="M266.6309,243.25c-7.4,5.9 -19.6,4.3 -19.6,4.3c0,0 -12.3,1.7 -19.6,-4.3c-2.4,-2 -3.2,-22.4 -2.9,-32.2c0.4,-9.8 22.5,0 22.5,0c0,0 22.2,-9.8 22.5,0c0.3,9.8 -0.5,30.3 -2.9,32.2z"/><path d="M266.2309,243.85c-7.4,5.4 -19.1,3.9 -19.1,3.9c0,0 -12.3,1.7 -19.6,-4.3c-2.3,-1.9 -3.2,-20.3 -3,-30.6v0v0h0.1c0.8,0.2 1.6,0.3 2.4,0.5v0v0c0.5,0.1 1.1,0.2 1.7,0.3c0.1,0 0.3,0.1 0.4,0.1c0.5,0.2 1.1,0.4 1.6,0.6c0,0.1 0.1,0.1 0.1,0.1c0.1,0 0.2,0 0.3,0.1c0.1,0 0.2,0.1 0.3,0.1c0,0 0.1,0.1 0.2,0.1c0.1,0.1 0.2,0.1 0.3,0.2c0.1,0 0.1,0.1 0.2,0.1c0.1,0 0.2,0.1 0.3,0.2l0.1,0.1c0.1,0.1 0.2,0.3 0.3,0.4c0.1,0.1 0.1,0.2 0.2,0.3c0.1,0 0.1,0.1 0.1,0.1c0.1,0.1 0.1,0.2 0.2,0.3c0,0.1 0.1,0.1 0.1,0.2c0.1,0.2 0.1,0.3 0.2,0.4c0,0.1 0.1,0.1 0.1,0.2c0.1,0.2 0.2,0.4 0.3,0.6c2.3,4.9 6.9,16 6.9,16h6.1h6.2l-13,0.4l-6.5,-15.2c-2.4,0.4 -4.8,0.5 -6.7,0.5c-0.3,7.1 0.6,26.5 20,26.4v-9.8c0,1.8 1,12.7 19.2,7.7z" opacity="0.7"/></g><g fill="#373a49"><g><path d="M255.9309,247.45l-3.6,12.7h-5.3v-12.6c0,0 4,0.5 8.9,-0.1z"/><path d="M255.8309,247.45l-0.4,1.5l-4.8,0.7l1.1,10.5h-4.7v-12.6c0,0 4,0.5 8.8,-0.1z" opacity="0.7"/></g><g><path d="M247.1309,247.55v12.6h-5.3l-3.6,-12.7c4.8,0.6 8.8,0.1 8.9,0.1z"/><path d="M246.5309,249.95l0.6,10.2h-5.3v0l-1.1,-9.7l-1.7,-0.3l-0.8,-2.7c4.8,0.6 8.8,0.1 8.8,0.1v2.3z" opacity="0.7"/></g></g><g><g><path d="M252.3309,260.15l4.2,4.2h-9.5v-4.2z" fill="#252525"/><path d="M252.3309,260.15l-5.3,4.2v-4.2z" fill="#333332" opacity="0.7"/></g><g><path d="M247.0309,260.15v4.2h-9.5l4.2,-4.2z" fill="#252525"/><path d="M241.7309,260.15h5.3v0.4l-5.4,3.8h-4.1z" fill="#333332" opacity="0.7"/></g></g></g><g><g fill="#252525"><path d="M263.8309,164.55c5.7,18.3 8.2,39.6 7.5,43.1c-0.6,3.1 -1.9,5.1 -1.9,5.1c0,0 -6.9,0.8 -8.4,3.1c-1.5,2.3 -7.9,17.9 -7.9,17.9h-6.1h-6.1c0,0 -6.4,-15.6 -7.9,-17.9c-1.5,-2.3 -8.4,-3.1 -8.4,-3.1c0,0 -1.3,-2 -1.9,-5.1c-0.7,-3.5 1.7,-24.9 7.5,-43.1c5,2.6 10.7,4.1 16.8,4.1c6.1,0 11.8,-1.5 16.8,-4.1z"/><path d="M230.2309,164.45c5,2.6 10.7,4.1 16.8,4.1c6,0 11.8,-1.5 16.8,-4.1c0.3,1.1 0.6,2.1 0.9,3.1c-7.9,4 -21.9,8.7 -36.4,3.3c0.6,-2.1 1.2,-4.3 1.9,-6.4z" opacity="0.7"/><g opacity="0.7"><path d="M226.0309,212.95c-0.9,-0.1 -1.5,-0.2 -1.5,-0.2c0,0 0,-0.1 -0.1,-0.3c0.5,0.2 1,0.3 1.6,0.5z"/><path d="M256.3309,210.55c-4.1,2.8 -11.9,6.8 -22.3,7.1c-0.4,-0.9 -0.8,-1.5 -1,-1.9c-0.6,-0.9 -2.2,-1.6 -3.8,-2.1c1.9,0.4 4,0.6 6.3,0.8c8,0.6 14.4,-1.6 20.8,-3.9z"/></g></g><g fill="#373a49"><path d="M258.5309,166.75l-29.2,46.9l-0.8,-0.5l18.4,-29.6l-10.2,-16.4c0.4,0.2 0.9,0.3 1.4,0.4l9.4,15l9.6,-15.4c0.5,-0.1 1,-0.2 1.4,-0.4z"/><g opacity="0.7"><path d="M257.0309,167.25c0.5,-0.2 1,-0.3 1.5,-0.5l-2.7,4.4c-0.4,0.1 -0.9,0.3 -1.4,0.4z"/><path d="M241.8309,173.25c-0.4,0 -0.8,0 -1.2,0l-3.8,-6.1c0.4,0.2 0.9,0.3 1.4,0.4z"/></g></g><g fill="#373a49"><path d="M270.0309,212.55c-6.1,1.5 -12.6,2.2 -23,2.2c-10.4,0 -16.9,-0.7 -23,-2.2c-0.8,-0.2 -0.6,-1.6 0,-1.5c3.1,0.5 12.2,2.2 23,2.2c10.9,0 20,-1.7 23,-2.2c0.6,-0.1 0.8,1.3 0,1.5z"/><path d="M248.2309,214.75c-0.5,0 -0.9,0 -1.4,0c-0.9,0 -1.7,0 -2.5,0c-0.2,0 -0.4,0 -0.6,0c-0.8,-0.1 -1.5,-0.1 -2.3,-0.1v0c-0.8,0 -1.5,-0.1 -2.2,-0.1c-0.1,0 -0.3,0 -0.5,0c-0.7,0 -1.3,-0.1 -2,-0.1v0c-0.6,-0.1 -1.3,-0.1 -1.9,-0.2c-0.2,0 -0.3,0 -0.5,0c-0.6,-0.1 -1.2,-0.1 -1.8,-0.2v0c-0.6,0 -1.1,-0.1 -1.7,-0.2c-0.1,-0.1 -0.3,-0.1 -0.4,-0.1c-0.6,-0.1 -1.2,-0.2 -1.7,-0.3v0c-0.4,-0.1 -1.1,-0.2 -1.7,-0.3c-1,-0.2 -2,-0.4 -3,-0.6c-0.8,-0.2 -0.6,-1.6 0,-1.5c3.1,0.5 12.2,2.2 23,2.2c0.8,0 1.6,0 2.4,0c0.1,0 0.2,0 0.3,0c0.7,0 1.5,-0.1 2.2,-0.1v0c-1,0.6 -2.2,1.1 -3.7,1.6z" opacity="0.7"/></g><g fill="#333332"><path d="M230.1309,164.55c-0.8,2.6 -2.3,14.6 -5.7,18.3c-2.6,2.9 -10.7,7.6 -14.1,5.4c-1.6,-1 -2.9,-6.8 -1.3,-8.7c6.5,-7.7 18,-14 20.6,-15.3c0.1,0 0.4,0.2 0.5,0.3z"/><path d="M228.9309,171.05c-2,-0.7 -4.1,-1.7 -6.1,-2.8c3.2,-2 5.8,-3.4 6.9,-4c0.1,0.1 0.4,0.2 0.5,0.3c-0.3,1 -0.8,3.5 -1.3,6.5z" opacity="0.7"/><path d="M228.1309,173.75c-0.9,3.6 -2.1,7.2 -3.7,9c-2.3,2.6 -8.9,6.5 -12.7,5.9c7.9,-2.4 14.4,-11.7 16.4,-14.9z" opacity="0.7"/></g><g fill="#333332"><path d="M280.1309,188.75c-3.7,1.7 -9.5,-4.3 -11.3,-7.8c-1.4,-2.7 -4,-12.1 -5,-16.5c0.5,-0.2 1.2,-0.6 1.7,-0.9c3.8,2.8 12.3,9.5 17,16.7c1.4,2.1 -0.7,7.7 -2.4,8.5z"/><path d="M268.2309,165.55c-1,0.6 -2.2,1.3 -3.6,2c-0.3,-1.2 -0.6,-2.2 -0.8,-3.1c0.5,-0.2 1.2,-0.6 1.7,-0.9c0.8,0.6 1.7,1.3 2.7,2z" opacity="0.7"/><path d="M277.1309,188.85c-3.3,-1 -7,-5.1 -8.3,-7.8c-0.6,-1.3 -1.6,-4.2 -2.5,-7.3c2.1,4.4 6.1,11.7 10.8,15.1z" opacity="0.7"/></g><g fill="#333332"><path d="M257.2309,167.15l-9.6,15.4l-9.4,-15c2.8,0.7 5.8,1.1 8.8,1.1c3.5,0 6.9,-0.5 10.2,-1.5z"/><path d="M244.7309,168.55c0.8,0.1 1.5,0.1 2.4,0.1c0.9,0 1.7,0 2.5,-0.1c0.2,0 0.5,-0.1 0.7,-0.1c0.6,-0.1 1.1,-0.1 1.7,-0.2c0.3,0 0.5,-0.1 0.8,-0.1c0.5,-0.1 1.1,-0.2 1.6,-0.3c0.3,-0.1 0.5,-0.1 0.8,-0.2c0.5,-0.1 1,-0.3 1.5,-0.4c0.2,0 0.3,-0.1 0.5,-0.1l-2.7,4.4c-3.9,1 -8.2,1.7 -12.7,1.7l-3.6,-5.7v0c2.1,0.5 4.3,0.9 6.5,1z" opacity="0.7"/></g><g fill="#373a49"><path d="M282.9309,183.05l1.4,6.9l-6.1,-0.9c0,0 -0.1,-7.9 4.7,-6z"/><path d="M281.1309,182.75l3.1,6.5v0l0.1,0.7l-6.1,-0.9c0,0 -0.1,-5.6 2.9,-6.3z" opacity="0.7"/></g></g><g><g fill="#44ab55"><path d="M216.2309,201.75l-6.6,0.6l-2.5,-26.7c0,0 0.9,-1.3 3,-1.5c2.1,-0.2 3.6,0.9 3.6,0.9z"/><path d="M216.2309,201.75l-6.6,0.6l-2.5,-26.7c0,0 0.9,-1.3 3,-1.5c2.1,-0.2 3.6,0.9 3.6,0.9z" opacity="0.7"/></g><g fill="#44ab55"><g><path d="M207.1309,175.65c0.1,1.7 7.9,10.8 25.8,12.1c17.9,1.2 27.5,-11.3 47.6,-6.7l2.5,26.7c-20.1,-4.6 -29.7,8 -47.6,6.7c-17.9,-1.3 -25.6,-10.4 -25.8,-12.1z"/></g><path d="M282.6309,202.25l0.5,5.6c-20.1,-4.6 -29.7,8 -47.6,6.7c-17.9,-1.3 -25.6,-10.4 -25.8,-12.1l-2.5,-26.7c0,0.3 0.3,0.9 0.9,1.6l2.6,15.6c18.1,16.3 40.5,7.5 51.9,5.6c9.9,-1.7 17.3,2 20,3.7z" opacity="0.7"/></g><g fill="#ffefab"><path d="M207.1309,175.65c0,0 0.9,-1.3 3,-1.5c2.1,-0.1 3.6,0.9 3.6,0.9c-0.3,1.9 -5.7,2.4 -6.6,0.6z"/><path d="M208.6309,175.35c0,0 0.5,-0.6 1.5,-0.7c1.1,-0.1 1.8,0.4 1.8,0.4c-0.1,1 -2.8,1.2 -3.3,0.3z" opacity="0.7"/></g></g><g fill="#fec989"><g><path d="M205.5309,185.15c0.3,-0.8 2.9,-3 4.6,-2.5c1.7,0.5 0.3,2.4 0,3c0,0 2.1,0.8 0.5,3c0,0 1.8,0.8 0.1,2.7c0,0 1.3,0.7 -0.1,1.7c-1.4,1 -2.5,1.7 -3.7,0.8c-1.2,-0.8 -0.8,-2.3 -0.8,-2.3c0,0 -0.8,-1 -0.2,-2.3c0,0 -1.3,-1.2 0.1,-2.6c0.1,0.2 -1,-0.1 -0.5,-1.5z"/><path d="M210.9309,191.45c0,0 1.3,0.7 -0.1,1.7c-1.4,1 -2.5,1.6 -3.7,0.8c-1.2,-0.8 -0.8,-2.3 -0.8,-2.3c0,0 -0.9,-1 -0.2,-2.3c0,0 -1.2,-1.2 0.1,-2.6c0,0 -1.1,-0.3 -0.6,-1.7c0,-0.2 0.3,-0.5 0.6,-0.8c-0.4,1.2 0.5,2.3 0.5,2.3c0,0 -0.9,2.2 0.3,3c1.1,0.9 2.3,0.3 3.6,-0.8c0.1,0.1 1.6,0.9 0.3,2.7z" opacity="0.7"/></g><g><path d="M283.5309,189.05c1.5,0.9 0.5,2.4 0.5,2.4c0.9,1 0.3,2.2 0.3,2.2c0,0 0.7,1.3 -0.3,2.4c-0.9,1.1 -2.2,0.9 -3.6,0.3c-1.5,-0.6 -0.4,-1.6 -0.4,-1.6c-1.9,-1.3 -0.4,-2.6 -0.4,-2.6c-2,-1.5 -0.1,-2.9 -0.1,-2.9c-0.4,-0.4 -2,-1.8 -0.5,-2.8c1.5,-1 4.4,0.2 4.8,0.9c0.7,1.1 -0.3,1.8 -0.3,1.7z"/><path d="M284.2309,193.75c0,0 0.7,1.3 -0.3,2.4c-0.9,1.1 -2.2,0.9 -3.6,0.3c-1.5,-0.6 -0.4,-1.6 -0.4,-1.6c-1.9,-1.3 -0.4,-2.6 -0.4,-2.6c-2,-1.5 -0.1,-2.9 -0.1,-2.9c-0.4,-0.4 -2,-1.8 -0.5,-2.8c0.2,-0.2 0.5,-0.2 0.7,-0.3c-0.2,0.6 -0.4,1.8 0.9,2.7c0,0 -0.9,1.5 0.5,2.1c0.8,0.3 2,0.6 3,0.5c0.9,0.9 0.2,2.2 0.2,2.2z" opacity="0.7"/></g></g><g><g fill="#333332"><path d="M214.2309,136.85l-9.7,11.7l-5.3,-9.6l11.4,-5.5l-13.4,1.9l-1.8,-11.2l18.1,0.6z"/><path d="M199.2309,138.95l11.4,-5.5l-13.4,1.9l-1.6,-9.7l18.4,7.7l0.2,3.5l-9.7,11.7z" opacity="0.7"/></g><g fill="#252525"><path d="M247.0309,126.65c-16.8,0 -30.3,-1.7 -35.6,-2.5c3.6,-16.3 18.2,-28.5 35.6,-28.5c17.4,0 32,12.2 35.6,28.5c-5.3,0.8 -18.8,2.5 -35.6,2.5z"/><path d="M215.2309,124.65c-1.5,-0.2 -2.8,-0.4 -3.8,-0.5c1.4,-6.4 4.5,-12.2 8.9,-16.9c-2.9,5.2 -4.8,11.1 -5.1,17.4z" opacity="0.7"/></g><g fill="#252525"><path d="M282.0309,142.35c-4.4,15.2 -18.4,26.3 -35,26.3c-16,0 -29.6,-10.3 -34.6,-24.6c5.2,4.5 11.9,7.7 15.1,7.7c3.9,0 13.9,-7.7 18.8,-7.7c5,0 15,7.7 18.8,7.7c3.6,0 11.7,-4 16.9,-9.4z"/><path d="M263.2309,164.85c-4.9,2.4 -10.4,3.8 -16.2,3.8c-16,0 -29.6,-10.3 -34.5,-24.6c3.4,3 7.6,5.4 10.9,6.7c7.2,9.2 18.3,15.1 30.9,15.1c3.1,0 6.1,-0.4 8.9,-1z" opacity="0.7"/></g><g fill="#333332"><path d="M246.8309,141.55c-17,0 -30.6,-1.8 -35.8,-2.6c-0.4,-2.2 -0.6,-4.5 -0.6,-6.8c0,-2.8 0.3,-5.4 0.9,-8c5.4,0.8 18.8,2.5 35.6,2.5c16.8,0 30.3,-1.7 35.6,-2.5c0.6,2.6 0.9,5.3 0.9,8c0,2.3 -0.2,4.6 -0.6,6.8c-5.1,0.8 -19,2.6 -36,2.6z"/><path d="M219.5309,140.05c-3.7,-0.4 -6.6,-0.8 -8.4,-1.1c-0.4,-2.2 -0.6,-4.5 -0.6,-6.8c0,-2.8 0.3,-5.4 0.9,-8c1.2,0.2 2.8,0.5 4.8,0.7c0.1,5.4 1.3,10.5 3.3,15.2z" opacity="0.7"/></g><g fill="#fec989"><path d="M282.9309,138.95c-0.2,1.1 -0.5,2.2 -0.8,3.3c-5.2,5.4 -13.4,9.4 -16.9,9.4c-3.9,0 -13.9,-7.7 -18.8,-7.7c-5,0 -15,7.7 -18.8,7.7c-3.1,0 -9.9,-3.1 -15.1,-7.7c-0.5,-1.6 -1,-3.3 -1.3,-5c5.1,0.8 18.8,2.6 35.8,2.6c17,0 30.7,-1.8 35.9,-2.6z"/><path d="M220.2309,149.25c-2.6,-1.4 -5.3,-3.2 -7.7,-5.3c-0.5,-1.6 -1,-3.3 -1.3,-5c1.1,0.2 2.6,0.4 4.4,0.6c1.1,3.5 2.7,6.7 4.6,9.7z" opacity="0.7"/></g><g><g><path d="M221.7309,140.35c3.5,0.3 7.6,0.7 12.1,0.9c0,0.1 0,0.2 0,0.3c0,3.4 -2.7,6.1 -6.1,6.1c-3.4,0 -6.1,-2.7 -6.1,-6.1c0,-0.5 0,-0.9 0.1,-1.2z" fill="#151515"/><path d="M222.5309,140.35c0.7,0.1 1.3,0.1 2,0.2c0.1,0.2 0.1,0.3 0.1,0.5c0,0.9 -0.5,1.6 -1.1,1.6c-0.6,0 -1.1,-0.7 -1.1,-1.6c0,-0.3 0.1,-0.5 0.1,-0.7z" fill="#ffffff"/></g><g><path d="M260.2309,141.15c4.5,-0.2 8.6,-0.6 12.1,-0.9c0.1,0.4 0.1,0.9 0.1,1.3c0,3.4 -2.7,6.1 -6.1,6.1c-3.4,0 -6.1,-2.7 -6.1,-6.1c0,-0.2 0,-0.3 0,-0.4z" fill="#151515"/><path d="M260.9309,141.05c0.7,0 1.4,-0.1 2.1,-0.1v0c0,0.9 -0.5,1.6 -1.1,1.6c-0.6,0 -1,-0.6 -1,-1.5z" fill="#ffffff"/></g></g></g></g></g></g></svg>