<svg version="1.1" xmlns="http://www.w3.org/2000/svg" xmlns:xlink="http://www.w3.org/1999/xlink" width="86.9" height="169.8" viewBox="0,0,86.9,169.8"><g transform="translate(-196.55,-95.1)"><g data-paper-data="{&quot;isPaintingLayer&quot;:true}" fill-rule="nonzero" stroke="none" stroke-width="1" stroke-linecap="butt" stroke-linejoin="miter" stroke-miterlimit="10" stroke-dasharray="" stroke-dashoffset="0" style="mix-blend-mode: normal"><g><g><g fill="#333332"><path d="M266.55,243.8c-7.4,5.9 -19.6,4.3 -19.6,4.3c0,0 -12.3,1.7 -19.6,-4.3c-2.4,-2 -3.2,-22.4 -2.9,-32.2c0.4,-9.8 22.5,0 22.5,0c0,0 22.2,-9.8 22.5,0c0.3,9.9 -0.6,30.3 -2.9,32.2z"/><path d="M264.25,245.4c-7.3,4.2 -17.4,2.9 -17.4,2.9c0,0 -12.3,1.7 -19.6,-4.3c-2.3,-1.9 -3.2,-21.2 -2.9,-31.3c3.1,0.9 8.6,2.3 8.6,2.3l20.1,19.4l-12.5,0.3l-7.9,-16.8c-0.7,6 -2.3,27.9 13.8,27.8v-9.3c0,0 1,13.2 17.8,9z" opacity="0.7"/></g><g fill="#373a49"><path d="M247.05,248.1v12.6h-5.3l-3.6,-12.7c4.8,0.7 8.8,0.1 8.9,0.1z"/><g><path d="M255.85,248l-3.6,12.7h-5.3v-12.6c0,0 4,0.6 8.9,-0.1z"/><path d="M255.75,248l-0.2,0.9l-6.1,1.2l3,10.1l-0.2,0.5h-5.3v-12.6c0,0 4,0.6 8.8,-0.1z" opacity="0.7"/></g><path d="M247.05,248.1v1.8l-0.4,0.2l0.4,10.6h-5.3l-1.4,-9.6l-1.6,-1.1l-0.6,-2c4.8,0.7 8.8,0.1 8.9,0.1z" opacity="0.7"/></g><g fill="#252525"><g><path d="M252.15,260.7l4.3,4.2h-9.5v-4.2z"/><path d="M252.15,260.7l0.3,0.2l-5.5,3.5v-3.7z" opacity="0.7"/></g><g><path d="M246.95,260.7v4.2h-9.5l4.2,-4.2z"/><path d="M241.65,260.7h5.3v1.2l-6.9,3h-2.6z" opacity="0.7"/></g></g></g><g><g fill="#252525"><path d="M263.25,164c6,18.5 8.6,40.5 7.9,44.1c-0.6,3.1 -1.9,5.1 -1.9,5.1c0,0 -6.9,0.8 -8.4,3.1c-1.5,2.3 -7.9,17.9 -7.9,17.9h-6.1h-6.1c0,0 -6.4,-15.6 -7.9,-17.9c-1.5,-2.3 -8.4,-3.1 -8.4,-3.1c0,0 -1.3,-2 -1.9,-5.1c-0.7,-3.6 1.9,-25.6 7.9,-44.1c4.9,2.6 10.6,4 16.5,4c5.9,0 11.5,-1.4 16.3,-4z"/><path d="M228.25,171.3c0.7,-2.4 1.4,-4.9 2.2,-7.3c4.9,2.6 10.6,4 16.5,4c5.9,0 11.5,-1.5 16.5,-4c0.3,0.8 0.5,1.5 0.7,2.2c-5.4,3.8 -18.2,10.6 -35.9,5.1z" opacity="0.7"/><path d="M229.55,196.1c0,0 -1.3,13 3.2,20.3c-1.5,-2.3 -8.4,-3.1 -8.4,-3.1c0,0 -1.3,-2 -1.9,-5.1c-0.4,-1.8 0.1,-8.2 1.4,-16.5l46,0.3c0.2,1.3 0.4,2.6 0.6,3.9l-23.5,-2.6z" opacity="0.7"/></g><g fill="#373a49"><path d="M237.25,166.7l10.2,16.4l10.5,-16.8c0.5,-0.2 1,-0.3 1.5,-0.5l-30.2,48.5c-0.3,-0.1 -0.7,-0.2 -1,-0.3l18.6,-29.9l-11.1,-17.8c0.5,0.1 1,0.3 1.5,0.4z"/><g opacity="0.7"><path d="M240.35,173.4l-4.5,-7.1v0c0.4,0.1 0.9,0.3 1.4,0.4l4.2,6.7c-0.4,0 -0.8,0 -1.1,0z"/><path d="M259.45,165.8l-2.8,4.5c-0.5,0.2 -1.1,0.4 -1.6,0.6l2.9,-4.6c0.5,-0.1 1,-0.3 1.5,-0.5z"/></g><g opacity="0.7"><path d="M229.25,214.3c-0.3,-0.1 -0.7,-0.2 -1,-0.3v0l2.3,-3.6c0.1,0.4 0.2,0.9 0.3,1.3z"/><path d="M243.35,191.8l-1.5,2.3l-1.3,0.3l1.6,-2.6z"/></g></g><g fill="#333332"><path d="M237.25,166.7c3.1,0.8 6.3,1.3 9.7,1.3c3.8,0 7.5,-0.6 11,-1.7l-10.5,16.8z"/><path d="M244.65,167.9c0.8,0.1 1.6,0.1 2.4,0.1c0.9,0 1.7,0 2.6,-0.1c0.2,-0.1 0.5,-0.1 0.7,-0.1c0.7,0 1.3,-0.1 2,-0.2c0.2,0 0.4,-0.1 0.6,-0.1c1.7,-0.3 3.4,-0.7 5.1,-1.2l-2.9,4.6c-3.8,1.3 -8.4,2.4 -13.7,2.4l-4.2,-6.7c0.8,0.3 1.5,0.4 2.3,0.6h0.1c0.7,0.2 1.4,0.3 2.1,0.4c0.1,0.1 0.2,0.1 0.3,0.1c0.7,0.1 1.3,0.1 2,0.2c0.2,0 0.3,0 0.6,0z" opacity="0.7"/></g><g fill="#333332"><g><path d="M230.55,164.1c0.1,2.2 1.2,15.6 0.6,19.2c-0.7,3.9 -4.4,11.4 -8.4,10.8c-1.9,-0.2 -5.6,-4.9 -4.9,-7.3c2.8,-10.1 11.1,-21.2 12.4,-22.8c0.1,0 0.1,0.1 0.3,0.1z"/><path d="M226.15,170.7c0,0 -9.3,16.4 -4.2,23.1v0c-2,-1.1 -4.7,-4.9 -4.1,-7c1.6,-5.8 4.9,-11.8 7.8,-16.3v0c0.1,-0.2 0.3,-0.4 0.4,-0.6v0v0c2,-3.1 3.7,-5.3 4.2,-6c0.1,0 0.1,0.1 0.2,0.1c0,1 0.3,4.4 0.5,8.1c-1.5,-0.3 -3.1,-0.8 -4.8,-1.4z" opacity="0.7"/></g><g><path d="M276.05,186.8c0.6,2.4 -3,7 -4.9,7.3c-4,0.6 -7.8,-6.9 -8.4,-10.8c-0.5,-3.5 0.5,-17 0.7,-19.2c0.1,0 0.1,-0.1 0.2,-0.1c1.2,1.6 9.6,12.7 12.4,22.8z"/><path d="M263.15,166.9c0.1,-1.3 0.2,-2.3 0.2,-2.8c0.1,0 0.1,-0.1 0.2,-0.1c0.3,0.3 0.7,0.9 1.3,1.7c-0.4,0.4 -1,0.8 -1.7,1.2z" opacity="0.7"/><path d="M268.55,189h-3.8c-1,-2 -1.8,-4.1 -2,-5.6c-0.3,-2 -0.1,-6.9 0.1,-11.3c0,0 0.5,12.9 5.7,16.9z" opacity="0.7"/></g></g><g fill="#373a49"><path d="M270.15,213.3c-6.2,1.5 -12.7,2.2 -23.1,2.2c-10.5,0 -16.9,-0.7 -23.1,-2.2c-0.8,-0.2 -0.6,-1.6 0,-1.5c3,0.5 12.1,2.2 23,2.2c10.8,0 20,-1.7 23,-2.2c0.6,-0.1 0.8,1.3 0.2,1.5z"/><path d="M223.95,211.7c1.9,0.4 6.2,1.2 11.8,1.7c1.6,0.7 4.1,1.6 6.9,2c-8,-0.1 -13.5,-0.9 -18.8,-2.1c-0.8,-0.2 -0.6,-1.6 0.1,-1.6z" opacity="0.7"/></g><g fill="#373a49"><g><path d="M241.15,193.1l-18.1,1.2c1.4,-7.4 5.8,-7.6 5.8,-7.6l12.3,1.1z"/><path d="M241.25,191.5v1.5l-18.1,1.2c0,-0.3 0.1,-0.5 0.1,-0.7l17.9,-2z" opacity="0.7"/></g><g><path d="M252.65,187.8l12.3,-1.1c0,0 4.4,0.2 5.8,7.6l-18.1,-1.2z"/><path d="M270.75,194.1l-18,-1.2v-1l18,2.2c0,0.1 0,0.1 0,0z" opacity="0.7"/></g></g><g><g><path d="M246.95,193.3c-2.3,1.3 -5.8,-0.4 -5.8,-0.4v-5.2c0,0 2.6,-8.7 3.1,-10.4c0.5,-2 2.5,-0.8 2.7,0.1c0.3,1.7 0,15.9 0,15.9z" fill="#fec989"/><g><path d="M242.95,193.6c-0.1,-0.9 -0.2,-4.1 0.3,-6.9c0.5,-2.6 2.2,-3 3.2,-3.3c0,-2.7 0.3,-4.1 0.5,-4.7c0,0.3 0.1,3.1 0.1,4.8v0c0,0 -2.2,0.3 -3,1.8c-0.9,1.5 -1.1,6.5 -0.7,7c0.4,0.5 1.4,0.7 1.7,0.3c0.9,1.2 1.9,0.7 1.9,0.7c-1.2,0.8 -2.8,0.6 -4,0.3z" fill="#fec989" opacity="0.7"/><path d="M247.05,178.7c0.1,-0.2 0.1,-0.3 0.1,-0.3c0,0 0,0.1 0,0.2c-0.1,0 -0.1,0 -0.1,0.1z" fill="#333332"/></g></g><g fill="#fec989"><path d="M245.05,192.7c-0.3,0.4 -1.3,0.1 -1.7,-0.3c-0.4,-0.4 -0.1,-5.5 0.7,-7c0.9,-1.5 3,-1.8 3,-1.8c0,-1.7 -0.1,-4.9 -0.1,-4.9c0.3,-0.5 1.9,-0.9 2.3,-0.3c0.4,0.6 3.4,9.3 3.4,9.3v5.2c0,0 -3.2,2.3 -5.7,0.4c0,0 -1,0.6 -1.9,-0.6z"/><path d="M247.05,193.3c0,0 0.9,-0.3 1.5,-1.3c0,0 -0.4,1.8 1.3,2c-0.9,0.2 -1.9,0 -2.8,-0.7z" opacity="0.7"/></g></g></g><g><g fill="#333332"><path d="M215.45,149.6l-8.8,-2.6l3.8,-15.4l-8.8,11.1l-5.1,-8.1l14.3,-7.9z"/><path d="M201.65,142.7l-5.1,-8.1l15.2,-3.7l3.7,18.7l-8.8,-2.6l3.8,-15.4z" opacity="0.7"/></g><g fill="#252525"><path d="M283.25,134.3c-1.4,18.9 -17.2,33.8 -36.4,33.8c-18.7,0 -34.2,-14.2 -36.2,-32.4c5.3,5.4 13.4,9.4 16.9,9.4c3.9,0 13.9,-7.7 18.8,-7.7c5,0 15,7.7 18.8,7.7c3.8,0 13,-4.7 18.1,-10.8z"/><path d="M266.95,162.1c-5.7,3.8 -12.6,6 -20,6c-18.7,0 -34.2,-14.2 -36.2,-32.4c4,4.2 9.8,7.5 13.8,8.8c7.7,11 20.4,18.2 34.9,18.2c2.6,0 5.1,-0.2 7.5,-0.6z" opacity="0.7"/></g><g fill="#252525"><path d="M280.25,116.8h-66.6c5.6,-12.8 18.4,-21.7 33.3,-21.7c14.9,0 27.6,8.9 33.3,21.7z"/><path d="M217.05,116.7h-3.5c1.3,-2.8 3,-5.5 4.9,-7.9c-0.7,2.6 -1.2,5.2 -1.4,7.9z" opacity="0.7"/></g><g fill="#fec989"><path d="M283.45,131.6c0,0.9 0,1.8 -0.1,2.7c-5.2,6.1 -14.4,10.8 -18.2,10.8c-3.9,0 -13.9,-7.7 -18.8,-7.7c-5,0 -15,7.7 -18.8,7.7c-3.5,0 -11.6,-3.9 -16.9,-9.4c-0.1,-1.3 -0.2,-2.7 -0.2,-4.1z"/><path d="M221.05,143.1c-3.5,-1.7 -7.4,-4.3 -10.4,-7.4c-0.1,-1.3 -0.2,-2.7 -0.2,-4.1h5.5c1.2,4.1 2.9,8 5.1,11.5z" opacity="0.7"/></g><g fill="#333332"><path d="M283.45,131.6h-73c0,-5.3 1.1,-10.3 3.1,-14.8h66.7c2,4.5 3.2,9.5 3.2,14.8z"/><path d="M221.85,131.6h-11.3c0,-5.3 1.1,-10.3 3.1,-14.8h5.5c0,5.2 0.9,10.2 2.7,14.8z" opacity="0.7"/></g><g><g><path d="M221.25,131.6h12.3c0,3.4 -2.7,6.1 -6.1,6.1c-3.4,0 -6.2,-2.7 -6.2,-6.1z" fill="#151515"/><path d="M223.25,133.5c-0.8,0 -1.4,-0.8 -1.4,-1.7c0,0 0,-0.1 0,-0.2h2.7c0,0 0,0.1 0,0.2c0,0.9 -0.6,1.7 -1.3,1.7z" fill="#ffffff"/></g><g><path d="M259.85,131.6h12.3c0,3.4 -2.7,6.1 -6.1,6.1c-3.4,0 -6.1,-2.7 -6.2,-6.1z" fill="#151515"/><path d="M262.15,133.5c-0.8,0 -1.4,-0.8 -1.4,-1.7c0,0 0,-0.1 0,-0.2h2.7c0,0 0,0.1 0,0.2c0,0.9 -0.7,1.7 -1.3,1.7z" fill="#ffffff"/></g></g></g></g></g></g></svg>