<?xml version="1.0" encoding="UTF-8"?><svg xmlns="http://www.w3.org/2000/svg" xmlns:xlink="http://www.w3.org/1999/xlink" width="109.9000015258789" height="151.07000732421875" viewBox="-0.5 -0.5 109.9000015258789 151.07000732421875" version="1.1">
    <!-- Generator: Sketch 49.3 (51167) - http://www.bohemiancoding.com/sketch -->
    <title>资源 194</title>
    <desc>Created with Sketch.</desc>
    <defs/>
    <g id="Page-1" stroke="none" fill-rule="evenodd">
        <g id="资源-194" fill-rule="nonzero">
            <path d="M108.9,105.94 C108.9,129.79 92.48,144.36 69.69,148.69 C65.6545934,149.461888 61.5659443,149.92324 57.46,150.07 C56.67,150.07 55.88,150.07 55.08,150.07 C54.08,150.07 53.2,150.07 52.27,150.07 C23,149.35 0,134.12 0,105.94 C0,71 23.37,71 27.22,42.88 C27.6814839,39.3796281 28.5093591,35.9374101 29.69,32.61 C35.09,17.9 46.29,15.18 54.47,15.18 C57.00403,15.145611 59.5327683,15.4209849 62,16 C70.38,18.1 79.25,24.7 81.72,42.84 C85.53,71 108.9,71 108.9,105.94 Z" id="Shape" fill="#A5C831" stroke-width="1"/>
            <path d="M53.67,16.45 C53.67,16.45 53,3.83 50.29,1.4 C50.29,1.4 56.59,-1.75 60.23,1.4 C60.23,1.4 57.81,3.1 56.35,16.45 C55.4808791,16.7441415 54.5391209,16.7441415 53.67,16.45" id="Shape" fill="#452B12" stroke-width="1"/>
            <path d="M70.27,122.66 C69.27,120.54 71.66,117.5 73.72,113.66 C76.1106784,109.329006 77.1780977,104.391757 76.79,99.46 C76.5,93.46 74.6,87.46 73.11,83.03 C71.62,78.6 70.37,75.36 71.59,73.41 C72.81,71.46 77.4,71.83 82.43,76 C88.93666,81.7629156 92.8416602,89.9082483 93.26,98.59 C93.582035,103.720799 92.4852953,108.841224 90.09,113.39 C88.1211642,117.110311 85.1486626,120.204069 81.51,122.32 C79.2092839,123.7155 76.570854,124.455505 73.88,124.46 C71.94,124.38 70.71,123.69 70.27,122.66 Z" id="Shape" fill="#BEDC3E" stroke-width="1"/>
            <path d="M63,17.82 C63,19.27 59.54,20.45 55.27,20.45 C51,20.45 47.54,19.27 47.54,17.82 C47.54,16.37 51,15.18 55.27,15.18 C59.54,15.18 63,16.36 63,17.82 Z" id="Shape" fill="#A5C831" opacity="0.4" style="mix-blend-mode: multiply;" stroke-width="1"/>
        </g>
    </g>
</svg>