<?xml version="1.0" encoding="UTF-8"?><svg xmlns="http://www.w3.org/2000/svg" xmlns:xlink="http://www.w3.org/1999/xlink" width="147.18069458007812" height="148.357177734375" viewBox="-0.5 -0.5000019073486328 147.18069458007812 148.357177734375" version="1.1">
    <!-- Generator: Sketch 49.3 (51167) - http://www.bohemiancoding.com/sketch -->
    <title>资源 188</title>
    <desc>Created with Sketch.</desc>
    <defs/>
    <g id="Page-1" stroke="none" fill-rule="evenodd">
        <g id="资源-188" fill-rule="nonzero">
            <path d="M141.69,4.71 C141.69,4.71 48.3,67.35 31.06,146.21 C31,145.74 -41.41,131.93 141.69,4.71 Z" id="Shape" fill="#FFFFFF" stroke-width="1"/>
            <path d="M114.85,45.26 C116.15,46.94 114.02,51.78 109.43,58.43 C112.336041,59.8056399 115.030063,61.5904298 117.43,63.73 C121.291335,67.1280252 124.139338,71.5263387 125.66,76.44 C126.900634,80.4618929 126.987254,84.7513 125.91,88.82 C125.266016,91.4320911 123.924993,93.820357 122.03,95.73 C120.6,97.04 119.24,97.42 118.2,97.01 C116.03,96.18 115.54,92.37 114.28,88.21 C112.91759,83.4605919 110.19168,79.215266 106.44,76 C104.322486,74.1261628 102.036066,72.4523558 99.61,71 C95.41,75.92 90.53,81.2 85.16,86.56 C66.46,105.27 48.73,118.17 44.29,116.48 C46.44,122.21 50.08,128.25 56.72,134.89 C76.65,154.82 103.64,149.35 124.88,129.13 C125.56,128.5 126.22,127.84 126.88,127.13 C127.54,126.42 128,126.01 128.53,125.43 C131.3306,122.423032 133.89803,119.207059 136.21,115.81 C149.26,96.64 150.57,74.72 133.71,57.86 C126.91,51.05 120.72,47.38 114.85,45.26 Z" id="Shape" fill="#A5C831" stroke-width="1"/>
            <path d="M106.44,76 C110.204362,79.2139158 112.941104,83.4633413 114.31,88.22 C115.57,92.38 116.06,96.22 118.23,97.02 C119.23,97.43 120.63,97.02 122.06,95.74 C123.954993,93.830357 125.296016,91.4420911 125.94,88.83 C127.017254,84.7613 126.930634,80.4718929 125.69,76.45 C124.169338,71.5363387 121.321335,67.1380252 117.46,63.74 C115.060063,61.6004298 112.366041,59.8156399 109.46,58.44 C106.89,62.14 103.56,66.44 99.64,70.99 C102.056082,72.4470777 104.332417,74.1242013 106.44,76 Z" id="Shape" fill="#BEDC3E" stroke-width="1"/>
            <path d="M43.74,116.12 C43.8998929,116.267477 44.086603,116.382898 44.29,116.46 C43.94,115.52 43.62,114.6 43.35,113.68 C43.0678544,114.507727 43.2139016,115.421459 43.74,116.12 Z" id="Shape" fill="#754A22" stroke-width="1"/>
            <path d="M114.74,45.12 C114.254328,44.7054326 113.608898,44.5294063 112.98,44.64 C113.6,44.83 114.22,45.04 114.85,45.26 C114.815789,45.2114548 114.779073,45.1647248 114.74,45.12 Z" id="Shape" fill="#754A22" stroke-width="1"/>
            <path d="M113,44.64 C109.7,44.86 103.06,48.85 94.8,55.38 C91.9,57.68 88.8,60.28 85.57,63.14 C81.63,66.64 77.51,70.52 73.33,74.69 C56.65,91.38 44.58,107.29 43.33,113.69 C43.6,114.61 43.92,115.53 44.27,116.47 C48.71,118.16 66.44,105.26 85.14,86.55 C90.53,81.18 95.41,75.9 99.61,71 C103.53,66.42 106.86,62.15 109.43,58.45 C114.02,51.8 116.15,46.96 114.85,45.28 C114.22,45 113.6,44.83 113,44.64 Z" id="Shape" fill="#FFF9C5" stroke-width="1"/>
            <path d="M12.94,13.59 L13.26,13.26 C13.56,12.96 13.86,12.68 14.16,12.42 C6.55,2.73 7,0 7,0 C2.23,0.35 0,7 0,7 C2.91,6.87 9.6,12.31 12.08,14.42 L12.7,13.79 L12.94,13.59 Z" id="Shape" fill="#452B12" stroke-width="1"/>
            <path d="M12.94,13.59 L12.7,13.82 L12.08,14.45 C12.38,14.19 12.65,13.89 12.94,13.59 Z" id="Shape" fill="#452B12" stroke-width="1"/>
            <path d="M15.44,11.36 L15.59,11.24 L15.44,11.36 Z" id="Shape" fill="#A5C831" opacity="0.4" style="mix-blend-mode: multiply;" stroke-width="1"/>
            <path d="M15.39,11.39 C14.98,11.7 14.57,12.05 14.16,12.39 C14.56,12.09 15,11.74 15.39,11.39 Z" id="Shape" fill="#A5C831" opacity="0.4" style="mix-blend-mode: multiply;" stroke-width="1"/>
            <path d="M14.92,13.39 C14.5067511,14.2150872 13.8314923,14.8797951 13,15.28 C13,15.28 12.66,14.97 12.09,14.49 C9.83,17.12 8.74,19.7 9.63,20.59 C10.52,21.48 14,20 17,17 C20,14 21.63,10.71 20.6,9.68 C19.84,8.91 17.82,9.61 15.6,11.26 L15.45,11.38 C15.02,11.73 14.62,12.08 14.23,12.38 C14.41,12.75 14.67,13.06 14.92,13.39 Z" id="Shape" fill="#A5C831" stroke-width="1"/>
            <path d="M14.92,13.39 C14.5067511,14.2150872 13.8314923,14.8797951 13,15.28 C13,15.28 12.66,14.97 12.09,14.49 C9.83,17.12 8.74,19.7 9.63,20.59 C10.52,21.48 14,20 17,17 C20,14 21.63,10.71 20.6,9.68 C19.84,8.91 17.82,9.61 15.6,11.26 L15.45,11.38 C15.02,11.73 14.62,12.08 14.23,12.38 C14.41,12.75 14.67,13.06 14.92,13.39 Z" id="Shape" fill="#A5C831" opacity="0.4" style="mix-blend-mode: multiply;" stroke-width="1"/>
            <path d="M12.94,13.59 C13.33,13.21 13.74,12.82 14.17,12.44 C13.87,12.7 13.57,12.98 13.27,13.28 L12.94,13.59 Z" id="Shape" fill="#452B12" stroke-width="1"/>
            <path d="M12.94,13.59 C13.33,13.21 13.74,12.82 14.17,12.44 C13.87,12.7 13.57,12.98 13.27,13.28 L12.94,13.59 Z" id="Shape" fill="#A5C831" opacity="0.4" style="mix-blend-mode: multiply;" stroke-width="1"/>
            <path d="M14.92,13.39 C14.67,13.06 14.41,12.75 14.17,12.39 C13.74,12.77 13.33,13.16 12.94,13.54 C12.55,13.92 12.38,14.14 12.12,14.44 C12.69,14.92 13.03,15.23 13.03,15.23 C13.842497,14.8373265 14.5056887,14.1916796 14.92,13.39 Z" id="Shape" fill="#452B12" stroke-width="1"/>
            <path d="M14.92,13.39 C14.67,13.06 14.41,12.75 14.17,12.39 C13.74,12.77 13.33,13.16 12.94,13.54 C12.55,13.92 12.38,14.14 12.12,14.44 C12.69,14.92 13.03,15.23 13.03,15.23 C13.842497,14.8373265 14.5056887,14.1916796 14.92,13.39 Z" id="Shape" fill="#A5C831" opacity="0.4" style="mix-blend-mode: multiply;" stroke-width="1"/>
            <path d="M96.38,26.76 C95.8923465,26.349194 95.2486953,26.1736527 94.62,26.28 C95.24,26.47 95.86,26.68 96.49,26.9 C96.45,26.86 96.42,26.8 96.38,26.76 Z" id="Shape" fill="#754A22" stroke-width="1"/>
            <path d="M25.38,97.76 C25.5373924,97.9107385 25.7248031,98.0265923 25.93,98.1 C25.59,97.16 25.26,96.24 24.99,95.32 C24.7131829,96.1481736 24.8588256,97.0593743 25.38,97.76 Z" id="Shape" fill="#754A22" stroke-width="1"/>
            <path d="M94.62,26.28 C80,21.74 67.22,26.07 51.53,14.16 C37,3.08 26,4.69 18.6,9.13 C17.5552885,9.7675126 16.5531711,10.4723352 15.6,11.24 C17.82,9.59 19.84,8.89 20.6,9.66 C21.6,10.66 20.02,13.97 17,16.98 C13.98,19.99 10.7,21.62 9.67,20.59 C8.64,19.56 9.87,17.12 12.13,14.49 C6.51,20.31 1.15,30 7.5,43.66 C9.01721732,46.8464036 10.8675302,49.863218 13.02,52.66 C24.8,68.2 20.67,80.88 25,95.32 C25.27,96.24 25.6,97.16 25.94,98.1 C30.37,99.79 48.1,86.89 66.8,68.18 C72.17,62.82 77.05,57.54 81.25,52.62 C78.65,51.03 76.06,49.7 73.86,48.62 C70.98,47.17 68.58,46.07 67.19,44.79 C66.6073881,44.2941071 66.1918456,43.630636 66,42.89 C65.45,40.72 69,37.66 75.53,37.08 L76.44,37.02 C81.4940287,36.8212375 86.5209124,37.8506335 91.09,40.02 C95.69,33.37 97.81,28.53 96.51,26.85 C95.86,26.68 95.24,26.47 94.62,26.28 Z" id="Shape" fill="#A5C831" stroke-width="1"/>
            <path d="M76.42,37 L75.51,37.06 C69,37.66 65.43,40.72 66,42.89 C66.199157,43.6295381 66.6217239,44.2895805 67.21,44.78 C68.6,46.06 71,47.16 73.88,48.61 C76.08,49.7 78.67,51.03 81.27,52.61 C84.7536618,48.5955907 88.0312159,44.4068634 91.09,40.06 C86.5200481,37.8667854 81.4856728,36.8166703 76.42,37 Z" id="Shape" fill="#BEDC3E" stroke-width="1"/>
        </g>
    </g>
</svg>