<svg version="1.1" xmlns="http://www.w3.org/2000/svg" xmlns:xlink="http://www.w3.org/1999/xlink" width="270.10125" height="212.64703" viewBox="0,0,270.10125,212.64703"><g transform="translate(-69.44937,-47.74492)"><g data-paper-data="{&quot;isPaintingLayer&quot;:true}" stroke="none" stroke-width="1" stroke-linecap="butt" stroke-linejoin="miter" stroke-miterlimit="10" stroke-dasharray="" stroke-dashoffset="0" style="mix-blend-mode: normal"><g fill="none" fill-rule="nonzero" font-family="sans-serif" font-weight="normal" font-size="12" text-anchor="start"/><g fill="none" fill-rule="nonzero" font-family="sans-serif" font-weight="normal" font-size="12" text-anchor="start"/><g fill="none" fill-rule="nonzero" font-family="sans-serif" font-weight="normal" font-size="12" text-anchor="start"/><g fill="none" fill-rule="nonzero" font-family="sans-serif" font-weight="normal" font-size="12" text-anchor="start"/><g fill="none" fill-rule="nonzero" font-family="sans-serif" font-weight="normal" font-size="12" text-anchor="start"/><g fill="none" fill-rule="nonzero" font-family="sans-serif" font-weight="normal" font-size="12" text-anchor="start"/><g fill="none" fill-rule="nonzero" font-family="sans-serif" font-weight="normal" font-size="12" text-anchor="start"/><g fill="none" fill-rule="nonzero" font-family="sans-serif" font-weight="normal" font-size="12" text-anchor="start"/><g><g fill="#666666" fill-rule="evenodd"><g><path d="M326.30917,259.88718c-7.53859,0.9651 -15.07718,1.93019 -32.08455,-11.21681c-8.50368,-6.5735 -67.96917,-52.54136 -67.96917,-52.54136l26.29399,-34.01473c0,0 59.46548,45.96787 67.96916,52.54136c17.00737,13.14699 17.97246,20.68559 18.93755,28.22418c0.9651,7.53859 -5.60841,16.04227 -13.147,17.00737zM316.84039,245.77509c4.17028,-0.53388 7.10738,-4.3334 6.5735,-8.50369c-0.53388,-4.17028 -4.3334,-7.10738 -8.50368,-6.5735c-4.17028,0.53388 -7.10738,4.3334 -6.5735,8.50368c0.53388,4.17028 4.3334,7.10738 8.50368,6.5735z"/></g></g><g fill="#cccccc" fill-rule="nonzero"><g><path d="M196.10108,199.98938c-7.48512,0.95825 -117.00762,-76.91202 -126.65171,-152.24446c0,0 55.60511,15.8135 72.61248,28.9605c8.50368,6.5735 110.48759,85.40885 110.48759,85.40885l-19.7205,25.51105c-8.50368,-6.5735 -29.18928,11.39897 -36.72786,12.36406z"/></g></g></g></g></g></svg>