<svg version="1.1" xmlns="http://www.w3.org/2000/svg" xmlns:xlink="http://www.w3.org/1999/xlink" width="185.6" height="213.64396" viewBox="0,0,185.6,213.64396"><g transform="translate(-147.2,-73.17802)"><g data-paper-data="{&quot;isPaintingLayer&quot;:true}" fill-rule="nonzero" stroke="none" stroke-width="1" stroke-linecap="butt" stroke-linejoin="miter" stroke-miterlimit="10" stroke-dasharray="" stroke-dashoffset="0" style="mix-blend-mode: normal"><path d="M325.02418,157.05495c-30.84835,12.23736 -57.74505,32.12308 -3.05934,77.63077c-62.33407,-30.84835 -66.28571,3.18681 -68.45275,52.13626c-16.31648,-58.50989 -41.04615,-73.80659 -100.57582,-41.55604c37.22198,-51.11648 52.77363,-66.54066 -2.8044,-120.71648c0,0 78.77802,51.11648 78.65055,-41.3011c9.05055,77.37582 51.88132,33.52527 62.97143,16.18901c-11.47253,22.43516 -32.76044,59.65714 33.27033,57.61758z" fill="#ffbb0f"/><path d="M236.55824,141.37582c0.38242,14.02198 10.58022,22.81758 27.53407,13.0022c-21.16044,20.52308 14.14945,18.73846 14.14945,18.73846c-17.33626,4.46154 -34.16264,10.45275 -32.76044,52.51868c0,0 -3.05934,-42.06593 -44.61538,-16.06154c0,0 37.22198,-20.65055 10.07033,-42.7033c25.87692,3.82418 25.62198,-25.49451 25.62198,-25.49451z" fill="#ff822f"/><path d="M237.32308,150.04396c0.25495,10.83516 8.15824,17.71868 21.28791,9.94286c-16.31648,15.93407 10.96264,14.53187 10.96264,14.53187c-13.38462,3.44176 -26.38681,8.03077 -25.23956,40.53626c0,0 -2.42198,-32.50549 -34.41758,-12.36484c0,0 28.80879,-15.93407 7.77582,-33.01538c19.75824,3.05934 19.63077,-19.63077 19.63077,-19.63077z" fill="#ffffff"/><path d="M170.4,252.02198l37.6044,-36.96703c-13.63956,22.94505 -37.47692,36.96703 -37.6044,36.96703z" fill="#ff822f"/><path d="M237.45055,271.90769l-8.28571,-47.8022c9.43297,15.16923 8.28571,47.8022 8.28571,47.8022z" fill="#ff822f"/><path d="M248.66813,237.10769l10.70769,26.25934c0,0 -7.77582,-10.58022 -10.70769,-26.25934z" fill="#ff822f"/><path d="M209.78901,73.17802l17.46374,56.72527c-12.74725,-29.19121 -17.59121,-56.72527 -17.46374,-56.72527z" fill="#ff822f"/><path d="M237.57802,126.46154v-28.68132c0,0 3.6967,15.04176 0,28.68132z" fill="#ff822f"/><path d="M332.8,144.43516l-50.98901,17.46374c25.87692,-12.74725 50.98901,-17.46374 50.98901,-17.46374z" fill="#ff822f"/><path d="M312.02198,251.0022l-33.90769,-41.81099c20.90549,19.88571 33.90769,41.81099 33.90769,41.81099z" fill="#ff822f"/><path d="M288.05714,173.24396l19.63077,-0.25495c-0.12747,0.12747 -10.96264,3.18681 -19.63077,0.25495z" fill="#ff822f"/><path d="M147.2,146.98462l42.06593,17.59121c-16.82637,-1.01978 -42.06593,-17.59121 -42.06593,-17.59121z" fill="#ff822f"/><path d="M194.10989,150.04396l-23.58242,-23.58242c0,0 16.6989,11.6 23.58242,23.58242z" fill="#ff822f"/><path d="M194.10989,205.23956c2.42198,-0.63736 -29.06374,14.14945 -29.06374,14.14945c0,0 10.07033,-9.43297 29.06374,-14.14945z" fill="#ff822f"/></g></g></svg>