<?xml version="1.0" encoding="UTF-8"?><svg xmlns="http://www.w3.org/2000/svg" xmlns:xlink="http://www.w3.org/1999/xlink" width="196.01150512695312" height="184.03594970703125" viewBox="-0.9994697570800781 -1.015913963317871 196.01150512695312 184.03594970703125" version="1.1">
    <!-- Generator: Sketch 49.3 (51167) - http://www.bohemiancoding.com/sketch -->
    <title>资源 190</title>
    <desc>Created with Sketch.</desc>
    <defs/>
    <g id="Page-1" stroke="none" fill-rule="evenodd">
        <g id="资源-190">
            <path d="M 170.24 8.28 C 170.24 8.28 68.33 76.64 49.52 162.68 C 49.44 162.17 -29.56 147.1 170.24 8.28 Z " id="Shape" fill="#FFFFFF" fill-rule="nonzero" stroke-width="1"/>
            <path d="M 180.61 160.12 C 181.01 159.28 181.25 157.86 180.53 157.34 C 179.8787 156.9986 179.1013 156.9986 178.45 157.34 C 177.9658 157.5381 177.5141 157.8078 177.11 158.14 C 175.6203 159.4587 174.8728 161.4247 175.11 163.4 C 177.4675 163.6457 179.7057 162.311 180.61 160.12 Z " id="Shape" stroke-width="1" fill="none"/>
            <path d="M 159.74 162 C 162.4446 165.3507 166.013 167.8991 170.06 169.37 C 170.13 169.54 170.21 169.7 170.29 169.87 C 174.2167 177.6253 182.3151 182.3686 191 182 C 191.3831 181.9907 191.7618 181.9163 192.12 181.78 C 192.7695 181.5151 193.302 181.0252 193.62 180.4 C 194.2065 179.1926 194.131 177.7685 193.42 176.63 C 192.8183 175.6438 191.7236 175.0676 190.57 175.13 C 185.8344 175.3241 181.2564 173.4087 178.07 169.9 C 179.7924 169.4951 181.4128 168.7393 182.83 167.68 C 186.1418 165.3625 187.9158 161.4152 187.45 157.4 C 186.9077 153.0599 183.0508 149.9118 178.69 150.25 C 172.02 150.76 169.24 156.15 168.77 161.14 C 167.4053 160.3224 166.1658 159.312 165.09 158.14 C 163.8222 156.7182 163.044 154.927 162.87 153.03 C 161.1443 154.8089 159.325 156.4946 157.42 158.08 C 157.9987 159.4925 158.7802 160.8131 159.74 162 Z M 177.11 158.16 C 177.5141 157.8278 177.9658 157.5581 178.45 157.36 C 179.1013 157.0186 179.8787 157.0186 180.53 157.36 C 181.25 157.88 181.01 159.3 180.61 160.14 C 179.7111 162.3118 177.4999 163.6426 175.16 163.42 C 174.9036 161.4466 175.6325 159.4731 177.11 158.14 L 177.11 158.16 Z " id="Shape" fill="#452B12" fill-rule="nonzero" stroke-width="1"/>
            <path d="M 147.87 66.7 C 175.87 92.29 183.34 129.7 164.56 150.7 C 145.78 171.7 107.78 168.27 79.3 143.27 C 71.14 149.94 65.08 153.53 62.56 152.84 C 63.73 154.05 64.94 155.24 66.21 156.38 C 94.1036 181.4311 136.814 179.9379 162.89 153 C 163.56 152.31 164.23 151.62 164.89 150.89 C 190.636 122.1522 188.2187 77.9863 159.49 52.23 C 158.21 51.08 156.9 50.02 155.57 48.99 C 156.52 51.46 153.61 57.87 147.87 66.7 Z " id="Shape" fill="#388940" fill-rule="nonzero" stroke-width="1"/>
            <path d="M 164.56 150.65 C 157.78 158.22 130.62 145 103 121 C 95.5142 128.8365 87.6022 136.2544 79.3 143.22 C 107.78 168.22 145.79 171.61 164.56 150.65 Z " id="Shape" fill="#5DB046" fill-rule="nonzero" stroke-width="1"/>
            <path d="M 164.56 150.65 C 183.34 129.65 175.83 92.29 147.87 66.7 C 141.8606 75.7163 135.3608 84.3961 128.4 92.7 C 155.27 117.52 171.35 143.08 164.56 150.65 Z " id="Shape" fill="#5DB046" fill-rule="nonzero" stroke-width="1"/>
            <path d="M 164.56 150.65 C 171.35 143.08 155.27 117.52 128.4 92.71 C 124.55 97.38 120.4 102.21 116 107.12 C 111.6 112.03 107.24 116.69 103 121.03 C 130.62 145 157.78 158.22 164.56 150.65 Z " id="Shape" fill="#388940" fill-rule="nonzero" stroke-width="1"/>
            <path d="M 62.56 152.79 C 65.08 153.48 71.14 149.89 79.3 143.22 C 87.6022 136.2544 95.5142 128.8365 103 121 C 107.22 116.66 111.57 112 116 107.09 C 120.43 102.18 124.55 97.35 128.4 92.68 C 135.3608 84.3761 141.8606 75.6963 147.87 66.68 C 153.61 57.85 156.52 51.44 155.56 49.01 C 155.474 48.7681 155.3338 48.5492 155.15 48.37 C 154.867 48.1349 154.5171 47.9949 154.15 47.97 C 151.4 47.58 145.21 51.38 137.02 58.15 C 128.8462 65.0646 121.0452 72.4083 113.65 80.15 C 109.52 84.4 105.28 88.95 100.99 93.74 C 96.7 98.53 92.64 103.24 88.87 107.8 C 81.9967 115.998 75.561 124.5532 69.59 133.43 C 63.75 142.32 60.59 148.89 61.33 151.58 C 61.4039 151.92 61.5781 152.23 61.83 152.47 C 62.0429 152.6358 62.2938 152.7458 62.56 152.79 Z " id="Shape" stroke="#D9FF80" stroke-width="2" fill="#EE0617" fill-rule="nonzero"/>
            <path d="M 74.3 139.56 C 75.13 137.67 75.66 134.16 74.61 133.7 C 73.56 133.24 71.34 136 70.51 137.9 C 69.68 139.8 69.35 141.47 70.9 142.16 C 72.45 142.85 73.47 141.46 74.3 139.56 Z " id="Shape" fill="#754A22" fill-rule="nonzero" stroke-width="1"/>
            <path d="M 73.18 138.76 C 73.74 137.48 74.38 135.23 74.01 135.07 C 73.64 134.91 72.42 136.9 71.86 138.18 C 71.3 139.46 70.96 140.55 71.5 140.79 C 72.04 141.03 72.62 140 73.18 138.76 Z " id="Shape" fill="#88552B" fill-rule="nonzero" stroke-width="1"/>
            <path d="M 143.67 62.23 C 141.67 62.7 138.11 62.6 137.84 61.48 C 137.57 60.36 140.7 58.68 142.71 58.2 C 144.72 57.72 146.44 57.7 146.83 59.35 C 147.22 61 145.68 61.75 143.67 62.23 Z " id="Shape" fill="#754A22" fill-rule="nonzero" stroke-width="1"/>
            <path d="M 143.08 61 C 141.72 61.32 139.39 61.54 139.3 61.16 C 139.21 60.78 141.38 59.92 142.74 59.6 C 144.1 59.28 145.24 59.14 145.37 59.71 C 145.5 60.28 144.44 60.66 143.08 61 Z " id="Shape" fill="#88552B" fill-rule="nonzero" stroke-width="1"/>
            <path d="M 85.55 127.07 C 85.83 125.07 85.36 121.5 84.23 121.35 C 83.1 121.2 81.72 124.47 81.45 126.52 C 81.18 128.57 81.33 130.28 83.01 130.52 C 84.69 130.76 85.28 129.12 85.55 127.07 Z " id="Shape" fill="#754A22" fill-rule="nonzero" stroke-width="1"/>
            <path d="M 84.25 126.61 C 84.44 125.22 84.42 122.88 84.03 122.83 C 83.64 122.78 83.03 125.03 82.83 126.42 C 82.63 127.81 82.62 128.95 83.21 129.02 C 83.8 129.09 84.07 128 84.25 126.61 Z " id="Shape" fill="#88552B" fill-rule="nonzero" stroke-width="1"/>
            <path d="M 133.78 73 C 131.73 72.83 128.39 71.62 128.49 70.48 C 128.59 69.34 132.08 68.7 134.14 68.88 C 136.2 69.06 137.83 69.57 137.69 71.26 C 137.55 72.95 135.84 73.19 133.78 73 Z " id="Shape" fill="#754A22" fill-rule="nonzero" stroke-width="1"/>
            <path d="M 133.62 71.65 C 132.22 71.53 129.94 71.01 129.97 70.65 C 130 70.29 132.34 70.13 133.74 70.25 C 135.14 70.37 136.25 70.59 136.2 71.18 C 136.15 71.77 135 71.77 133.62 71.65 Z " id="Shape" fill="#88552B" fill-rule="nonzero" stroke-width="1"/>
            <path d="M 123.89 80.48 C 121.89 79.83 118.89 77.82 119.37 76.67 C 119.85 75.52 123.7 75.67 125.75 76.32 C 127.8 76.97 129.3 77.88 128.53 79.58 C 127.76 81.28 125.94 81.13 123.89 80.48 Z " id="Shape" fill="#754A22" fill-rule="nonzero" stroke-width="1"/>
            <path d="M 124.21 79 C 122.82 78.56 120.68 77.51 120.85 77.11 C 121.02 76.71 123.48 77.11 124.85 77.56 C 126.22 78.01 127.31 78.48 127.04 79.08 C 126.77 79.68 125.6 79.47 124.21 79 Z " id="Shape" fill="#88552B" fill-rule="nonzero" stroke-width="1"/>
            <path d="M 102.18 105 C 100.88 103.39 98.01 101.31 97.12 102 C 96.23 102.69 97.66 106 98.96 107.57 C 100.26 109.14 101.61 110.24 102.96 109.18 C 104.31 108.12 103.48 106.6 102.18 105 Z " id="Shape" fill="#754A22" fill-rule="nonzero" stroke-width="1"/>
            <path d="M 101 105.62 C 100.13 104.54 98.42 102.94 98.11 103.19 C 97.8 103.44 99 105.44 99.89 106.53 C 100.78 107.62 101.58 108.42 102.03 108.05 C 102.48 107.68 101.83 106.71 101 105.62 Z " id="Shape" fill="#88552B" fill-rule="nonzero" stroke-width="1"/>
            <path d="M 115 89.23 C 113.7 87.62 110.83 85.54 109.94 86.23 C 109.05 86.92 110.48 90.23 111.78 91.81 C 113.08 93.39 114.42 94.48 115.78 93.42 C 117.14 92.36 116.31 90.84 115 89.23 Z " id="Shape" fill="#754A22" fill-rule="nonzero" stroke-width="1"/>
            <path d="M 113.78 89.86 C 112.9 88.77 111.2 87.17 110.89 87.42 C 110.58 87.67 111.78 89.68 112.66 90.76 C 113.54 91.84 114.35 92.65 114.81 92.28 C 115.27 91.91 114.66 91 113.78 89.86 Z " id="Shape" fill="#88552B" fill-rule="nonzero" stroke-width="1"/>
            <path d="M 97.23 113.52 C 96.45 111.6 94.3 108.78 93.23 109.21 C 92.16 109.64 92.6 113.21 93.38 115.08 C 94.16 116.95 95.14 118.4 96.71 117.76 C 98.28 117.12 98 115.43 97.23 113.52 Z " id="Shape" fill="#754A22" fill-rule="nonzero" stroke-width="1"/>
            <path d="M 95.87 113.76 C 95.35 112.47 94.18 110.44 93.81 110.59 C 93.44 110.74 94.01 113.01 94.53 114.31 C 95.05 115.61 95.61 116.6 96.16 116.38 C 96.71 116.16 96.4 115.06 95.87 113.76 Z " id="Shape" fill="#88552B" fill-rule="nonzero" stroke-width="1"/>
            <path d="M 125.54 84.83 C 123.8 83.71 120.43 82.62 119.8 83.58 C 119.17 84.54 121.54 87.18 123.28 88.31 C 125.02 89.44 126.62 90.03 127.55 88.61 C 128.48 87.19 127.27 86 125.54 84.83 Z " id="Shape" fill="#754A22" fill-rule="nonzero" stroke-width="1"/>
            <path d="M 124.56 85.81 C 123.39 85.05 121.27 84.06 121.05 84.39 C 120.83 84.72 122.61 86.26 123.78 87.02 C 124.95 87.78 125.97 88.29 126.29 87.79 C 126.61 87.29 125.73 86.57 124.56 85.81 Z " id="Shape" fill="#88552B" fill-rule="nonzero" stroke-width="1"/>
            <path d="M 111.22 99.25 C 109.79 97.76 106.74 95.95 105.92 96.74 C 105.1 97.53 106.81 100.64 108.24 102.13 C 109.67 103.62 111.12 104.56 112.34 103.38 C 113.56 102.2 112.66 100.74 111.22 99.25 Z " id="Shape" fill="#754A22" fill-rule="nonzero" stroke-width="1"/>
            <path d="M 110.06 100 C 109.06 99 107.24 97.56 106.95 97.83 C 106.66 98.1 108.05 100 109 101 C 109.95 102 110.85 102.74 111.28 102.33 C 111.71 101.92 111 101 110.06 100 Z " id="Shape" fill="#88552B" fill-rule="nonzero" stroke-width="1"/>
            <path d="M 13.34 22 C 12.93 22.84 12.69 24.25 13.4 24.78 C 14.0513 25.1214 14.8287 25.1214 15.48 24.78 C 15.9661 24.5882 16.4211 24.3254 16.83 24 C 18.3068 22.6724 19.0516 20.7134 18.83 18.74 C 16.4811 18.4959 14.2499 19.8207 13.34 22 Z " id="Shape" stroke-width="1" fill="none"/>
            <path d="M 36.49 24.12 C 35.9261 22.7149 35.1578 21.4007 34.21 20.22 C 31.5246 16.8549 27.9695 14.2889 23.93 12.8 C 23.86 12.63 23.78 12.47 23.71 12.3 C 19.8263 4.484 11.7215 -0.3296 3 0 C 2.6291 0.0192 2.2641 0.1003 1.92 0.24 C 1.2672 0.4932 0.7299 0.9771 0.41 1.6 C -0.1912 2.8045 -0.1269 4.2343 0.58 5.38 C 1.1838 6.3651 2.2758 6.9437 3.43 6.89 C 8.1649 6.72 12.7316 8.6573 15.9 12.18 C 14.1742 12.5732 12.5495 13.3225 11.13 14.38 C 7.8132 16.6825 6.0244 20.617 6.47 24.63 C 6.9875 28.9681 10.8225 32.1338 15.18 31.82 C 21.86 31.35 24.67 25.97 25.18 20.98 C 26.5361 21.8014 27.7684 22.8115 28.84 23.98 C 30.0898 25.4269 30.8464 27.2342 31 29.14 C 32.7416 27.3725 34.5741 25.6969 36.49 24.12 Z M 16.83 24 C 16.4217 24.3289 15.9667 24.5952 15.48 24.79 C 14.8287 25.1314 14.0513 25.1314 13.4 24.79 C 12.69 24.26 12.93 22.85 13.34 22.01 C 14.2477 19.8384 16.4681 18.5151 18.81 18.75 C 19.0333 20.7167 18.2964 22.6706 16.83 24 Z " id="Shape" fill="#452B12" fill-rule="nonzero" stroke-width="1"/>
            <path d="M 45.74 115.66 C 44.2 114.24 42.74 112.79 41.29 111.3 C 40.95 110.94 40.62 110.57 40.29 110.21 C 39.96 109.85 39.62 109.49 39.29 109.12 L 38.44 108.12 C 37.73 107.31 37.04 106.5 36.38 105.67 C 16.38 80.94 12.76 49.82 29.38 31.5 C 29.93 30.89 30.51 30.3 31.1 29.73 L 31.1 29.12 C 30.42 29.81 29.75 30.5 29.1 31.22 C 3.6 59.4 3.98 100.04 28.34 123.78 C 28.4201 124.0716 28.5753 124.3371 28.79 124.55 C 28.9865 124.7157 29.2196 124.8322 29.47 124.89 C 31.88 125.58 37.79 122.11 45.74 115.66 Z " id="Shape" fill="#388940" fill-rule="nonzero" stroke-width="1"/>
            <path d="M 119.83 20.16 C 94.2121 2.9528 60.3422 4.5784 36.49 24.16 C 34.5849 25.7312 32.7624 27.4001 31.03 29.16 L 31.03 29.77 C 32.8091 28.0398 34.7515 26.4859 36.83 25.13 C 54.2 13.75 80.44 16.05 103.3 30.8 C 104.04 31.28 104.77 31.8 105.5 32.27 L 106.43 32.91 L 107.2 33.45 C 107.71 33.82 108.2 34.21 108.72 34.59 C 110.66 36.05 112.57 37.59 114.43 39.24 L 114.71 38.82 C 119.82 30.96 122.71 25.02 122.57 22.09 C 121.67 21.42 120.76 20.78 119.83 20.16 Z " id="Shape" fill="#388940" fill-rule="nonzero" stroke-width="1"/>
            <path d="M 31.06 29.75 C 30.47 30.32 29.89 30.91 29.34 31.52 C 29.8234 30.9936 30.4041 30.5658 31.05 30.26 C 31.06 30.09 31.06 29.92 31.06 29.75 Z " id="Shape" fill="#5DB046" fill-rule="nonzero" stroke-width="1"/>
            <path d="M 69.49 93.53 C 62.1047 101.2147 54.31 108.4953 46.14 115.34 " id="Shape" fill="#5DB046" fill-rule="nonzero" stroke-width="1"/>
            <path d="M 95.24 64.83 L 94.93 65.21 " id="Shape" fill="#5DB046" fill-rule="nonzero" stroke-width="1"/>
            <path d="M 68.05 92.25 C 66.86 91.16 65.69 90.08 64.53 88.99 L 63.29 87.81 C 62.55 87.12 61.84 86.42 61.12 85.73 C 60.58 85.2 60.04 84.67 59.51 84.13 C 58.16 82.8 56.84 81.46 55.57 80.13 C 42.77 66.79 33.54 54 29.72 44.51 C 28.7188 42.2009 28.0747 39.7529 27.81 37.25 C 27.64 34.83 28.11 32.88 29.34 31.52 C 12.76 49.84 16.39 80.96 36.34 105.69 C 37 106.52 37.69 107.33 38.4 108.14 L 39.25 109.14 C 39.58 109.51 39.91 109.87 40.25 110.23 C 40.59 110.59 40.91 110.96 41.25 111.32 C 42.67 112.81 44.16 114.26 45.7 115.68 L 46.1 115.36 C 54.2842 108.51 62.0922 101.2227 69.49 93.53 L 68.05 92.25 Z " id="Shape" fill="#5DB046" fill-rule="nonzero" stroke-width="1"/>
            <path d="M 108.72 34.59 C 108.22 34.21 107.72 33.82 107.2 33.45 L 106.43 32.91 L 105.5 32.27 C 104.77 31.77 104.04 31.27 103.3 30.8 C 80.44 16.05 54.2 13.8 36.86 25.11 C 34.7815 26.4659 32.8391 28.0198 31.06 29.75 C 31.06 29.92 31.06 30.09 31.06 30.26 C 33.1456 29.4031 35.4359 29.1737 37.65 29.6 C 47.39 30.86 63.19 39.37 80.16 52.6 C 84.59 56.13 89.1 59.92 93.61 64 C 94.06 64.4 94.49 64.81 94.93 65.21 L 95.24 64.83 C 102.094 56.6527 108.5001 48.1102 114.43 39.24 C 112.57 37.6 110.66 36.05 108.72 34.59 Z " id="Shape" fill="#5DB046" fill-rule="nonzero" stroke-width="1"/>
            <path d="M 69.86 93.15 L 69.49 93.53 " id="Shape" fill="#388940" fill-rule="nonzero" stroke-width="1"/>
            <path d="M 93.61 64 C 89.1 59.92 84.61 56.13 80.15 52.65 C 63.15 39.37 47.38 30.86 37.64 29.65 C 35.4259 29.2237 33.1356 29.4531 31.05 30.31 C 30.4041 30.6158 29.8234 31.0436 29.34 31.57 C 28.11 32.93 27.64 34.88 27.81 37.3 C 28.0747 39.8029 28.7188 42.2509 29.72 44.56 C 33.54 54 42.77 66.79 55.57 80.13 C 56.84 81.46 58.16 82.8 59.51 84.13 C 60.04 84.67 60.58 85.2 61.12 85.73 C 61.84 86.42 62.55 87.12 63.29 87.81 L 64.53 89 C 65.69 90.09 66.86 91.17 68.05 92.26 L 69.49 93.54 L 69.86 93.16 C 74.08 88.82 78.44 84.16 82.86 79.25 C 87.28 74.34 91.18 69.77 94.95 65.25 C 94.49 64.81 94.06 64.4 93.61 64 Z " id="Shape" fill="#388940" fill-rule="nonzero" stroke-width="1"/>
        </g>
    </g>
</svg>