<?xml version="1.0" encoding="UTF-8"?><svg xmlns="http://www.w3.org/2000/svg" xmlns:xlink="http://www.w3.org/1999/xlink" width="139.84490966796875" height="137.79107666015625" viewBox="-0.501673698425293 -0.5010793209075928 139.84490966796875 137.79107666015625" version="1.1">
    <!-- Generator: Sketch 49.3 (51167) - http://www.bohemiancoding.com/sketch -->
    <title>资源 187</title>
    <desc>Created with Sketch.</desc>
    <defs/>
    <g id="Page-1" stroke="none" fill-rule="evenodd">
        <g id="资源-187" fill-rule="nonzero">
            <path d="M 112.8 26.27 C 112.8 26.27 30.53 72.15 10.72 136.79 C 10.69 136.4 -48.8 119.89 112.8 26.27 Z " id="Shape" fill="#FFFFFF" stroke-width="1"/>
            <path d="M 62.57 75.73 C 62.41 75.54 62.28 75.36 62.13 75.17 C 62.96 76.28 62.47 78.54 60.93 81.38 C 82.11 105.63 105.47 105.63 117.73 105.64 C 127.94 105.64 133.58 106.92 134.94 108.88 C 127.94 112.46 102.28 123.49 77.06 107.7 C 68.8855 102.6943 61.5126 96.4845 55.19 89.28 C 54.42 90.14 53.61 91.01 52.74 91.87 C 45.67 98.94 38.28 103.05 36 101.22 C 36.84 102.22 37.71 103.32 38.65 104.37 C 82.65 153.63 133.65 123.86 138.76 107.06 C 139.61 104.25 133.96 102.29 121.32 102.3 C 108.68 102.31 84.24 102.29 62.57 75.73 Z " id="Shape" fill="#F6DE2F" stroke-width="1"/>
            <path d="M 77.06 107.7 C 102.28 123.49 127.93 112.46 134.94 108.88 C 133.58 106.88 127.94 105.64 117.73 105.64 C 105.47 105.64 82.11 105.64 60.93 81.38 C 59.3204 84.2212 57.3948 86.8713 55.19 89.28 C 61.5126 96.4845 68.8855 102.6943 77.06 107.7 Z " id="Shape" fill="#FFFF29" stroke-width="1"/>
            <path d="M 62 75 L 62.17 75.21 C 62.08 75.11 62.05 75 62 75 Z " id="Shape" fill="#FFFFFF" stroke-width="1"/>
            <path d="M 35.86 101.12 C 35.9042 101.1566 35.951 101.19 36 101.22 L 35.52 100.62 C 35.6038 100.8049 35.7188 100.9741 35.86 101.12 Z " id="Shape" fill="#FFFFFF" stroke-width="1"/>
            <path d="M 56.38 75.64 C 53.6786 77.0585 51.1516 78.7868 48.85 80.79 C 47.6167 81.8433 46.37 82.99 45.11 84.23 C 38.38 91 34.33 98 35.52 100.62 L 36 101.22 C 38.28 103.05 45.67 98.94 52.74 91.87 C 53.61 91.01 54.42 90.14 55.19 89.28 C 57.3948 86.8713 59.3204 84.2212 60.93 81.38 C 62.47 78.54 62.93 76.28 62.13 75.17 L 62 75 C 61 74.05 59 74.37 56.38 75.64 Z " id="Shape" fill="#FFF9C5" stroke-width="1"/>
            <path d="M 29.36 11.41 C 29.649 11.5675 29.9205 11.7552 30.17 11.97 C 34.05 7.56 38.48 3.55 38.48 3.55 C 33 -1.64 27.63 0.39 27.63 0.39 L 23.86 13.07 C 26.15 11.41 28.13 10.78 29.36 11.41 Z " id="Shape" fill="#452B12" stroke-width="1"/>
            <path d="M 27.06 15.8 C 26.7049 15.384 26.2695 15.0439 25.78 14.8 C 25.7085 14.7657 25.6351 14.7356 25.56 14.71 C 25.22 15.48 24.91 16.29 24.62 17.12 L 25.82 17.7 C 26.18 17.06 26.6 16.44 27.06 15.8 Z " id="Shape" fill="#FFFF29" stroke-width="1"/>
            <path d="M 18.91 85.31 C 18.91 85.31 19.01 85.37 19.06 85.41 C 18.9 85.21 18.73 85.01 18.58 84.81 C 18.6567 84.9964 18.7687 85.1662 18.91 85.31 Z " id="Shape" fill="#FFFFFF" stroke-width="1"/>
            <path d="M 30.17 12 C 29.9205 11.7852 29.649 11.5975 29.36 11.44 C 28.13 10.81 26.15 11.44 23.86 13.1 C 12.73 21.1 -5.73 53.54 18.58 84.84 C 18.73 85.04 18.9 85.24 19.06 85.44 C 21.33 87.27 28.72 83.16 35.8 76.09 C 36.66 75.22 37.48 74.36 38.24 73.49 C 35.9284 70.8136 33.8098 67.9764 31.9 65 C 20.68 47.42 20.18 29.4 24.62 17.08 C 24.91 16.25 25.22 15.44 25.56 14.67 C 25.6351 14.6956 25.7085 14.7257 25.78 14.76 C 26.2695 15.0039 26.7049 15.344 27.06 15.76 C 31.51 21.1 24.5 38.76 39.44 59.76 C 40.24 60.89 41.09 62.03 42.03 63.19 C 42.68 63.98 43.33 64.75 44.03 65.5 C 45.56 62.66 46.03 60.4 45.22 59.29 C 45.1825 59.2229 45.139 59.1593 45.09 59.1 C 26.91 36.28 35.81 16.83 30.17 12 Z " id="Shape" fill="#F6DE2F" stroke-width="1"/>
            <path d="M 25.82 17.66 L 24.62 17.08 C 20.18 29.4 20.68 47.42 31.9 65 C 33.8102 67.973 35.9288 70.8068 38.24 73.48 C 40.4542 71.0707 42.3867 68.4169 44 65.57 C 43.34 64.82 42.69 64.05 42 63.26 C 41.06 62.1 40.21 60.96 39.41 59.83 C 24.47 38.83 31.48 21.14 27.03 15.83 C 26.6 16.44 26.18 17.06 25.82 17.66 Z " id="Shape" fill="#FFFF29" stroke-width="1"/>
        </g>
    </g>
</svg>