<?xml version="1.0" encoding="UTF-8"?><svg xmlns="http://www.w3.org/2000/svg" xmlns:xlink="http://www.w3.org/1999/xlink" width="119.05192565917969" height="113.078857421875" viewBox="-0.5041923522949219 -0.49379855394363403 119.05192565917969 113.078857421875" version="1.1">
    <!-- Generator: Sketch 49.3 (51167) - http://www.bohemiancoding.com/sketch -->
    <title>资源 193</title>
    <desc>Created with Sketch.</desc>
    <defs/>
    <g id="Page-1" stroke="none" fill-rule="evenodd">
        <g id="资源-193" fill-rule="nonzero">
            <path d="M 19.77 11.48 C 12 8.23 -19.51 52.9 18 89 C 65.61 134.78 114.23 101.23 118 84.09 C 118.64 81.22 112.85 79.7 100.25 80.66 C 87.65 81.62 63.25 83.47 39.65 58.66 C 18.15 36 27.39 14.69 19.77 11.48 Z " id="Shape" fill="#F6DE2F" stroke-width="1"/>
            <path d="M 13.7 16.8 L 17.2 0.62 C 17.2 0.62 22.4 -1.81 28.26 3 C 28.26 3 19.79 11.91 16.71 18 L 13.7 16.8 Z " id="Shape" fill="#452B12" stroke-width="1"/>
            <path d="M 16.23 15 L 16.45 15.07 C 24.06 18.26 14.83 39.58 36.34 62.19 C 59.97 87.04 84.34 85.19 96.94 84.19 C 107.11 83.41 112.84 84.26 114.34 86.11 C 107.63 90.21 82.88 103.11 56.54 89.33 C 15.64 67.92 9.52 34.06 16.23 15 Z " id="Shape" fill="#FFFF29" stroke-width="1"/>
        </g>
    </g>
</svg>